%TF.GenerationSoftware,KiCad,Pcbnew,8.0.4*%
%TF.CreationDate,2024-12-04T08:53:49-07:00*%
%TF.ProjectId,particle-somduino,70617274-6963-46c6-952d-736f6d647569,rev?*%
%TF.SameCoordinates,Original*%
%TF.FileFunction,Paste,Bot*%
%TF.FilePolarity,Positive*%
%FSLAX46Y46*%
G04 Gerber Fmt 4.6, Leading zero omitted, Abs format (unit mm)*
G04 Created by KiCad (PCBNEW 8.0.4) date 2024-12-04 08:53:49*
%MOMM*%
%LPD*%
G01*
G04 APERTURE LIST*
G04 Aperture macros list*
%AMRoundRect*
0 Rectangle with rounded corners*
0 $1 Rounding radius*
0 $2 $3 $4 $5 $6 $7 $8 $9 X,Y pos of 4 corners*
0 Add a 4 corners polygon primitive as box body*
4,1,4,$2,$3,$4,$5,$6,$7,$8,$9,$2,$3,0*
0 Add four circle primitives for the rounded corners*
1,1,$1+$1,$2,$3*
1,1,$1+$1,$4,$5*
1,1,$1+$1,$6,$7*
1,1,$1+$1,$8,$9*
0 Add four rect primitives between the rounded corners*
20,1,$1+$1,$2,$3,$4,$5,0*
20,1,$1+$1,$4,$5,$6,$7,0*
20,1,$1+$1,$6,$7,$8,$9,0*
20,1,$1+$1,$8,$9,$2,$3,0*%
G04 Aperture macros list end*
%ADD10C,0.300000*%
%ADD11RoundRect,0.090000X-0.810000X1.410000X-0.810000X-1.410000X0.810000X-1.410000X0.810000X1.410000X0*%
G04 APERTURE END LIST*
D10*
G36*
X102113778Y-48880619D02*
G01*
X102150782Y-48917623D01*
X102195488Y-49007035D01*
X102195488Y-49364788D01*
X102150781Y-49454201D01*
X102113776Y-49491206D01*
X102024364Y-49535912D01*
X101880898Y-49535912D01*
X101791485Y-49491206D01*
X101754481Y-49454202D01*
X101709774Y-49364787D01*
X101709774Y-49007036D01*
X101754481Y-48917622D01*
X101791485Y-48880618D01*
X101880898Y-48835912D01*
X102024364Y-48835912D01*
X102113778Y-48880619D01*
G37*
G36*
X106899493Y-48880619D02*
G01*
X106936497Y-48917623D01*
X106981203Y-49007035D01*
X106981203Y-49364788D01*
X106936496Y-49454201D01*
X106899491Y-49491206D01*
X106810079Y-49535912D01*
X106595185Y-49535912D01*
X106566918Y-49521778D01*
X106566918Y-48850045D01*
X106595185Y-48835912D01*
X106810079Y-48835912D01*
X106899493Y-48880619D01*
G37*
G36*
X110256636Y-48880619D02*
G01*
X110293640Y-48917623D01*
X110338346Y-49007035D01*
X110338346Y-49364788D01*
X110293639Y-49454201D01*
X110256634Y-49491206D01*
X110167222Y-49535912D01*
X110023756Y-49535912D01*
X109934343Y-49491206D01*
X109897339Y-49454202D01*
X109852632Y-49364787D01*
X109852632Y-49007036D01*
X109897339Y-48917622D01*
X109934343Y-48880618D01*
X110023756Y-48835912D01*
X110167222Y-48835912D01*
X110256636Y-48880619D01*
G37*
G36*
X112303403Y-52417495D02*
G01*
X101243107Y-52417495D01*
X101243107Y-52071564D01*
X109769799Y-52071564D01*
X109769799Y-52130092D01*
X109792197Y-52184164D01*
X109833581Y-52225548D01*
X109887653Y-52247946D01*
X109916917Y-52250828D01*
X110774060Y-52250828D01*
X110803324Y-52247946D01*
X110857396Y-52225548D01*
X110898780Y-52184164D01*
X110921178Y-52130092D01*
X110921178Y-52071564D01*
X110898780Y-52017492D01*
X110857396Y-51976108D01*
X110803324Y-51953710D01*
X110774060Y-51950828D01*
X110495489Y-51950828D01*
X110495489Y-51034389D01*
X110525137Y-51064037D01*
X110536639Y-51073477D01*
X110539235Y-51076470D01*
X110543744Y-51079308D01*
X110547867Y-51082692D01*
X110551529Y-51084208D01*
X110564121Y-51092135D01*
X110706977Y-51163564D01*
X110734441Y-51174073D01*
X110792821Y-51178222D01*
X110848343Y-51159715D01*
X110890965Y-51122750D01*
X111125670Y-51122750D01*
X111132799Y-51151278D01*
X111489942Y-52151278D01*
X111502498Y-52177868D01*
X111507551Y-52183450D01*
X111510774Y-52190253D01*
X111527046Y-52204984D01*
X111541778Y-52221257D01*
X111548580Y-52224479D01*
X111554163Y-52229533D01*
X111574837Y-52236916D01*
X111594670Y-52246311D01*
X111602188Y-52246684D01*
X111609281Y-52249218D01*
X111631203Y-52248127D01*
X111653125Y-52249218D01*
X111660217Y-52246684D01*
X111667736Y-52246311D01*
X111687568Y-52236916D01*
X111708243Y-52229533D01*
X111713825Y-52224479D01*
X111720628Y-52221257D01*
X111735359Y-52204984D01*
X111751632Y-52190253D01*
X111754854Y-52183450D01*
X111759908Y-52177868D01*
X111772464Y-52151278D01*
X112129607Y-51151279D01*
X112136736Y-51122750D01*
X112133829Y-51064295D01*
X112108775Y-51011403D01*
X112065386Y-50972123D01*
X112010268Y-50952438D01*
X111951813Y-50955345D01*
X111898921Y-50980399D01*
X111859641Y-51023788D01*
X111847085Y-51050378D01*
X111631203Y-51654847D01*
X111415321Y-51050378D01*
X111402765Y-51023788D01*
X111363485Y-50980399D01*
X111310593Y-50955345D01*
X111252138Y-50952438D01*
X111197020Y-50972123D01*
X111153631Y-51011403D01*
X111128577Y-51064295D01*
X111125670Y-51122750D01*
X110890965Y-51122750D01*
X110892559Y-51121368D01*
X110918733Y-51069019D01*
X110922882Y-51010639D01*
X110904374Y-50955116D01*
X110866028Y-50910901D01*
X110841142Y-50895236D01*
X110720057Y-50834693D01*
X110604916Y-50719552D01*
X110470297Y-50517623D01*
X110470228Y-50517539D01*
X110470209Y-50517492D01*
X110470102Y-50517385D01*
X110451666Y-50494873D01*
X110439326Y-50486609D01*
X110428825Y-50476108D01*
X110415247Y-50470483D01*
X110403036Y-50462306D01*
X110388473Y-50459393D01*
X110374753Y-50453710D01*
X110360057Y-50453710D01*
X110345647Y-50450828D01*
X110331078Y-50453710D01*
X110316225Y-50453710D01*
X110302646Y-50459334D01*
X110288232Y-50462186D01*
X110275874Y-50470424D01*
X110262153Y-50476108D01*
X110251761Y-50486499D01*
X110239534Y-50494651D01*
X110231270Y-50506990D01*
X110220769Y-50517492D01*
X110215144Y-50531069D01*
X110206967Y-50543281D01*
X110204054Y-50557843D01*
X110198371Y-50571564D01*
X110195519Y-50600516D01*
X110195489Y-50600670D01*
X110195499Y-50600722D01*
X110195489Y-50600828D01*
X110195489Y-51950828D01*
X109916917Y-51950828D01*
X109887653Y-51953710D01*
X109833581Y-51976108D01*
X109792197Y-52017492D01*
X109769799Y-52071564D01*
X101243107Y-52071564D01*
X101243107Y-48971626D01*
X101409774Y-48971626D01*
X101409774Y-49400198D01*
X101412656Y-49429462D01*
X101414719Y-49434442D01*
X101415101Y-49439817D01*
X101425610Y-49467280D01*
X101497039Y-49610137D01*
X101504967Y-49622732D01*
X101506482Y-49626389D01*
X101509861Y-49630506D01*
X101512704Y-49635023D01*
X101515698Y-49637620D01*
X101525136Y-49649120D01*
X101596564Y-49720549D01*
X101608069Y-49729991D01*
X101610664Y-49732983D01*
X101615174Y-49735822D01*
X101619295Y-49739204D01*
X101622954Y-49740719D01*
X101635549Y-49748648D01*
X101778407Y-49820076D01*
X101805870Y-49830586D01*
X101811245Y-49830967D01*
X101816224Y-49833030D01*
X101845488Y-49835912D01*
X102059774Y-49835912D01*
X102089038Y-49833030D01*
X102094016Y-49830967D01*
X102099392Y-49830586D01*
X102126856Y-49820076D01*
X102269713Y-49748648D01*
X102282306Y-49740720D01*
X102285966Y-49739205D01*
X102290085Y-49735823D01*
X102294599Y-49732983D01*
X102297195Y-49729989D01*
X102308697Y-49720550D01*
X102380126Y-49649121D01*
X102389567Y-49637616D01*
X102392559Y-49635022D01*
X102395397Y-49630512D01*
X102398781Y-49626390D01*
X102400297Y-49622728D01*
X102408224Y-49610137D01*
X102479652Y-49467279D01*
X102490162Y-49439816D01*
X102490543Y-49434440D01*
X102492606Y-49429462D01*
X102495488Y-49400198D01*
X102495488Y-48971626D01*
X102492606Y-48942362D01*
X102490543Y-48937383D01*
X102490162Y-48932008D01*
X102479652Y-48904545D01*
X102477479Y-48900198D01*
X102838346Y-48900198D01*
X102838346Y-49685912D01*
X102841228Y-49715176D01*
X102863626Y-49769248D01*
X102905010Y-49810632D01*
X102959082Y-49833030D01*
X103017610Y-49833030D01*
X103071682Y-49810632D01*
X103113066Y-49769248D01*
X103135464Y-49715176D01*
X103138346Y-49685912D01*
X103138346Y-48935607D01*
X103171577Y-48869144D01*
X103238041Y-48835912D01*
X103381507Y-48835912D01*
X103470921Y-48880619D01*
X103481203Y-48890901D01*
X103481203Y-49685912D01*
X103484085Y-49715176D01*
X103506483Y-49769248D01*
X103547867Y-49810632D01*
X103601939Y-49833030D01*
X103660467Y-49833030D01*
X103714539Y-49810632D01*
X103755923Y-49769248D01*
X103778321Y-49715176D01*
X103781203Y-49685912D01*
X103781203Y-48685912D01*
X104195489Y-48685912D01*
X104195489Y-49685912D01*
X104198371Y-49715176D01*
X104220769Y-49769248D01*
X104262153Y-49810632D01*
X104316225Y-49833030D01*
X104374753Y-49833030D01*
X104428825Y-49810632D01*
X104470209Y-49769248D01*
X104492607Y-49715176D01*
X104495489Y-49685912D01*
X104495489Y-48685912D01*
X104909775Y-48685912D01*
X104909775Y-49685912D01*
X104912657Y-49715176D01*
X104935055Y-49769248D01*
X104976439Y-49810632D01*
X105030511Y-49833030D01*
X105089039Y-49833030D01*
X105143111Y-49810632D01*
X105158104Y-49795638D01*
X105206979Y-49820076D01*
X105234442Y-49830586D01*
X105239817Y-49830967D01*
X105244796Y-49833030D01*
X105274060Y-49835912D01*
X105488346Y-49835912D01*
X105517610Y-49833030D01*
X105522588Y-49830967D01*
X105527964Y-49830586D01*
X105555428Y-49820076D01*
X105698285Y-49748648D01*
X105703179Y-49745567D01*
X105705487Y-49744798D01*
X105708361Y-49742305D01*
X105723171Y-49732983D01*
X105735493Y-49718774D01*
X105749702Y-49706452D01*
X105759024Y-49691642D01*
X105761517Y-49688768D01*
X105762286Y-49686460D01*
X105765367Y-49681566D01*
X105836796Y-49538708D01*
X105847306Y-49511245D01*
X105847688Y-49505867D01*
X105849750Y-49500890D01*
X105852632Y-49471626D01*
X105852632Y-48685912D01*
X105849750Y-48656648D01*
X105827352Y-48602576D01*
X105785968Y-48561192D01*
X105731896Y-48538794D01*
X105673368Y-48538794D01*
X105619296Y-48561192D01*
X105577912Y-48602576D01*
X105555514Y-48656648D01*
X105552632Y-48685912D01*
X105552632Y-49436216D01*
X105519399Y-49502680D01*
X105452936Y-49535912D01*
X105309470Y-49535912D01*
X105220057Y-49491206D01*
X105209775Y-49480923D01*
X105209775Y-48685912D01*
X105206893Y-48656648D01*
X105184495Y-48602576D01*
X105143111Y-48561192D01*
X105089039Y-48538794D01*
X105030511Y-48538794D01*
X104976439Y-48561192D01*
X104935055Y-48602576D01*
X104912657Y-48656648D01*
X104909775Y-48685912D01*
X104495489Y-48685912D01*
X104492607Y-48656648D01*
X104470209Y-48602576D01*
X104428825Y-48561192D01*
X104374753Y-48538794D01*
X104316225Y-48538794D01*
X104262153Y-48561192D01*
X104220769Y-48602576D01*
X104198371Y-48656648D01*
X104195489Y-48685912D01*
X103781203Y-48685912D01*
X103778321Y-48656648D01*
X103755923Y-48602576D01*
X103714539Y-48561192D01*
X103660467Y-48538794D01*
X103601939Y-48538794D01*
X103547867Y-48561192D01*
X103532873Y-48576185D01*
X103483999Y-48551748D01*
X103456536Y-48541239D01*
X103451161Y-48540857D01*
X103446181Y-48538794D01*
X103416917Y-48535912D01*
X103202631Y-48535912D01*
X103173367Y-48538794D01*
X103168386Y-48540857D01*
X103163012Y-48541239D01*
X103135548Y-48551748D01*
X102992692Y-48623177D01*
X102987797Y-48626257D01*
X102985490Y-48627027D01*
X102982615Y-48629519D01*
X102967806Y-48638842D01*
X102955482Y-48653051D01*
X102941275Y-48665373D01*
X102931955Y-48680178D01*
X102929459Y-48683057D01*
X102928688Y-48685368D01*
X102925610Y-48690259D01*
X102854182Y-48833116D01*
X102843672Y-48860580D01*
X102843290Y-48865955D01*
X102841228Y-48870934D01*
X102838346Y-48900198D01*
X102477479Y-48900198D01*
X102408224Y-48761687D01*
X102400295Y-48749092D01*
X102398780Y-48745433D01*
X102395398Y-48741312D01*
X102392559Y-48736802D01*
X102389567Y-48734207D01*
X102380125Y-48722702D01*
X102308696Y-48651274D01*
X102297196Y-48641836D01*
X102294599Y-48638842D01*
X102290082Y-48635999D01*
X102285965Y-48632620D01*
X102282308Y-48631105D01*
X102269713Y-48623177D01*
X102126856Y-48551748D01*
X102099393Y-48541239D01*
X102094018Y-48540857D01*
X102089038Y-48538794D01*
X102059774Y-48535912D01*
X101845488Y-48535912D01*
X101816224Y-48538794D01*
X101811243Y-48540857D01*
X101805869Y-48541239D01*
X101778405Y-48551748D01*
X101635549Y-48623177D01*
X101622957Y-48631103D01*
X101619295Y-48632620D01*
X101615172Y-48636003D01*
X101610663Y-48638842D01*
X101608067Y-48641834D01*
X101596565Y-48651275D01*
X101525137Y-48722703D01*
X101515697Y-48734204D01*
X101512704Y-48736801D01*
X101509863Y-48741314D01*
X101506482Y-48745434D01*
X101504966Y-48749093D01*
X101497039Y-48761687D01*
X101425610Y-48904544D01*
X101415101Y-48932007D01*
X101414719Y-48937381D01*
X101412656Y-48942362D01*
X101409774Y-48971626D01*
X101243107Y-48971626D01*
X101243107Y-48228079D01*
X104126942Y-48228079D01*
X104126942Y-48286605D01*
X104132286Y-48299505D01*
X104149339Y-48340676D01*
X104149340Y-48340677D01*
X104167995Y-48363408D01*
X104239424Y-48434836D01*
X104262153Y-48453489D01*
X104262154Y-48453490D01*
X104291540Y-48465662D01*
X104316225Y-48475887D01*
X104316226Y-48475887D01*
X104316227Y-48475887D01*
X104374752Y-48475887D01*
X104374753Y-48475887D01*
X104399438Y-48465662D01*
X104428824Y-48453490D01*
X104451555Y-48434835D01*
X104522983Y-48363407D01*
X104541638Y-48340677D01*
X104564034Y-48286604D01*
X104564034Y-48260196D01*
X104564035Y-48228079D01*
X104546569Y-48185912D01*
X106266918Y-48185912D01*
X106266918Y-49685912D01*
X106269800Y-49715176D01*
X106292198Y-49769248D01*
X106333582Y-49810632D01*
X106387654Y-49833030D01*
X106446182Y-49833030D01*
X106485789Y-49816623D01*
X106492694Y-49820076D01*
X106520157Y-49830586D01*
X106525532Y-49830967D01*
X106530511Y-49833030D01*
X106559775Y-49835912D01*
X106845489Y-49835912D01*
X106874753Y-49833030D01*
X106879731Y-49830967D01*
X106885107Y-49830586D01*
X106912571Y-49820076D01*
X107055428Y-49748648D01*
X107068021Y-49740720D01*
X107071681Y-49739205D01*
X107075800Y-49735823D01*
X107080314Y-49732983D01*
X107082910Y-49729989D01*
X107094412Y-49720550D01*
X107165841Y-49649121D01*
X107175282Y-49637616D01*
X107178274Y-49635022D01*
X107181112Y-49630512D01*
X107184496Y-49626390D01*
X107186012Y-49622728D01*
X107193939Y-49610137D01*
X107265367Y-49467279D01*
X107275877Y-49439816D01*
X107276258Y-49434440D01*
X107278321Y-49429462D01*
X107281203Y-49400198D01*
X107281203Y-48971626D01*
X107278321Y-48942362D01*
X107276258Y-48937383D01*
X107275877Y-48932008D01*
X107265367Y-48904545D01*
X107263194Y-48900198D01*
X107624060Y-48900198D01*
X107624060Y-49685912D01*
X107626942Y-49715176D01*
X107649340Y-49769248D01*
X107690724Y-49810632D01*
X107744796Y-49833030D01*
X107803324Y-49833030D01*
X107857396Y-49810632D01*
X107898780Y-49769248D01*
X107921178Y-49715176D01*
X107924060Y-49685912D01*
X107924060Y-48935608D01*
X107957292Y-48869143D01*
X108023756Y-48835912D01*
X108167222Y-48835912D01*
X108233686Y-48869144D01*
X108266918Y-48935608D01*
X108266918Y-49685912D01*
X108269800Y-49715176D01*
X108292198Y-49769248D01*
X108333582Y-49810632D01*
X108387654Y-49833030D01*
X108446182Y-49833030D01*
X108500254Y-49810632D01*
X108541638Y-49769248D01*
X108564036Y-49715176D01*
X108566918Y-49685912D01*
X108566918Y-48935607D01*
X108600149Y-48869144D01*
X108666613Y-48835912D01*
X108810079Y-48835912D01*
X108899493Y-48880619D01*
X108909775Y-48890901D01*
X108909775Y-49685912D01*
X108912657Y-49715176D01*
X108935055Y-49769248D01*
X108976439Y-49810632D01*
X109030511Y-49833030D01*
X109089039Y-49833030D01*
X109143111Y-49810632D01*
X109184495Y-49769248D01*
X109206893Y-49715176D01*
X109209775Y-49685912D01*
X109209775Y-48971626D01*
X109552632Y-48971626D01*
X109552632Y-49400198D01*
X109555514Y-49429462D01*
X109557577Y-49434442D01*
X109557959Y-49439817D01*
X109568468Y-49467280D01*
X109639897Y-49610137D01*
X109647825Y-49622732D01*
X109649340Y-49626389D01*
X109652719Y-49630506D01*
X109655562Y-49635023D01*
X109658556Y-49637620D01*
X109667994Y-49649120D01*
X109739422Y-49720549D01*
X109750927Y-49729991D01*
X109753522Y-49732983D01*
X109758032Y-49735822D01*
X109762153Y-49739204D01*
X109765812Y-49740719D01*
X109778407Y-49748648D01*
X109921265Y-49820076D01*
X109948728Y-49830586D01*
X109954103Y-49830967D01*
X109959082Y-49833030D01*
X109988346Y-49835912D01*
X110202632Y-49835912D01*
X110231896Y-49833030D01*
X110236874Y-49830967D01*
X110242250Y-49830586D01*
X110269714Y-49820076D01*
X110412571Y-49748648D01*
X110425164Y-49740720D01*
X110428824Y-49739205D01*
X110432943Y-49735823D01*
X110437457Y-49732983D01*
X110440053Y-49729989D01*
X110451555Y-49720550D01*
X110522984Y-49649121D01*
X110532425Y-49637616D01*
X110535417Y-49635022D01*
X110538255Y-49630512D01*
X110541639Y-49626390D01*
X110543155Y-49622728D01*
X110551082Y-49610137D01*
X110622510Y-49467279D01*
X110633020Y-49439816D01*
X110633401Y-49434440D01*
X110635464Y-49429462D01*
X110638346Y-49400198D01*
X110638346Y-49257341D01*
X110909774Y-49257341D01*
X110909774Y-49400198D01*
X110912656Y-49429462D01*
X110914719Y-49434442D01*
X110915101Y-49439817D01*
X110925610Y-49467280D01*
X110997039Y-49610137D01*
X111004966Y-49622730D01*
X111006482Y-49626390D01*
X111009863Y-49630509D01*
X111012704Y-49635023D01*
X111015697Y-49637619D01*
X111025137Y-49649121D01*
X111096566Y-49720550D01*
X111108070Y-49729991D01*
X111110665Y-49732983D01*
X111115174Y-49735821D01*
X111119297Y-49739205D01*
X111122958Y-49740721D01*
X111135550Y-49748648D01*
X111278408Y-49820076D01*
X111305871Y-49830586D01*
X111311246Y-49830967D01*
X111316225Y-49833030D01*
X111345489Y-49835912D01*
X111702632Y-49835912D01*
X111717437Y-49834453D01*
X111721392Y-49834735D01*
X111726593Y-49833552D01*
X111731896Y-49833030D01*
X111735553Y-49831514D01*
X111750066Y-49828215D01*
X111964351Y-49756787D01*
X111991202Y-49744798D01*
X112035416Y-49706451D01*
X112061590Y-49654104D01*
X112065739Y-49595724D01*
X112047231Y-49540199D01*
X112008884Y-49495985D01*
X111956537Y-49469811D01*
X111898157Y-49465662D01*
X111869483Y-49472181D01*
X111678289Y-49535912D01*
X111380899Y-49535912D01*
X111291485Y-49491205D01*
X111254481Y-49454201D01*
X111209774Y-49364787D01*
X111209774Y-49292751D01*
X111254481Y-49203337D01*
X111291486Y-49166332D01*
X111397845Y-49113153D01*
X111667583Y-49045719D01*
X111669741Y-49044947D01*
X111670822Y-49044871D01*
X111682996Y-49040212D01*
X111695274Y-49035826D01*
X111696144Y-49035181D01*
X111698285Y-49034362D01*
X111841142Y-48962933D01*
X111853737Y-48955004D01*
X111857394Y-48953490D01*
X111861511Y-48950110D01*
X111866028Y-48947268D01*
X111868625Y-48944273D01*
X111880125Y-48934836D01*
X111951554Y-48863408D01*
X111960996Y-48851902D01*
X111963988Y-48849308D01*
X111966827Y-48844797D01*
X111970209Y-48840677D01*
X111971724Y-48837017D01*
X111979653Y-48824423D01*
X112051081Y-48681565D01*
X112061591Y-48654102D01*
X112061972Y-48648726D01*
X112064035Y-48643748D01*
X112066917Y-48614484D01*
X112066917Y-48471626D01*
X112064035Y-48442362D01*
X112061972Y-48437383D01*
X112061591Y-48432008D01*
X112051081Y-48404545D01*
X111979653Y-48261687D01*
X111971724Y-48249092D01*
X111970209Y-48245433D01*
X111966827Y-48241312D01*
X111963988Y-48236802D01*
X111960996Y-48234207D01*
X111951554Y-48222702D01*
X111880125Y-48151274D01*
X111868625Y-48141836D01*
X111866028Y-48138842D01*
X111861511Y-48135999D01*
X111857394Y-48132620D01*
X111853737Y-48131105D01*
X111841142Y-48123177D01*
X111698285Y-48051748D01*
X111670822Y-48041239D01*
X111665447Y-48040857D01*
X111660467Y-48038794D01*
X111631203Y-48035912D01*
X111274060Y-48035912D01*
X111259248Y-48037370D01*
X111255299Y-48037090D01*
X111250104Y-48038271D01*
X111244796Y-48038794D01*
X111241134Y-48040310D01*
X111226625Y-48043610D01*
X111012340Y-48115039D01*
X110985489Y-48127027D01*
X110941274Y-48165375D01*
X110915101Y-48217722D01*
X110910952Y-48276102D01*
X110929460Y-48331626D01*
X110967808Y-48375841D01*
X111020155Y-48402014D01*
X111078535Y-48406163D01*
X111107208Y-48399643D01*
X111298403Y-48335912D01*
X111595793Y-48335912D01*
X111685207Y-48380619D01*
X111722211Y-48417623D01*
X111766917Y-48507035D01*
X111766917Y-48579074D01*
X111722211Y-48668486D01*
X111685207Y-48705490D01*
X111578846Y-48758671D01*
X111309109Y-48826105D01*
X111306950Y-48826876D01*
X111305870Y-48826953D01*
X111293689Y-48831613D01*
X111281418Y-48835998D01*
X111280548Y-48836642D01*
X111278406Y-48837462D01*
X111135550Y-48908891D01*
X111122956Y-48916818D01*
X111119297Y-48918334D01*
X111115177Y-48921715D01*
X111110664Y-48924556D01*
X111108067Y-48927550D01*
X111096566Y-48936989D01*
X111025137Y-49008418D01*
X111015697Y-49019919D01*
X111012704Y-49022516D01*
X111009863Y-49027029D01*
X111006482Y-49031149D01*
X111004966Y-49034808D01*
X110997039Y-49047402D01*
X110925610Y-49190259D01*
X110915101Y-49217722D01*
X110914719Y-49223096D01*
X110912656Y-49228077D01*
X110909774Y-49257341D01*
X110638346Y-49257341D01*
X110638346Y-48971626D01*
X110635464Y-48942362D01*
X110633401Y-48937383D01*
X110633020Y-48932008D01*
X110622510Y-48904545D01*
X110551082Y-48761687D01*
X110543153Y-48749092D01*
X110541638Y-48745433D01*
X110538256Y-48741312D01*
X110535417Y-48736802D01*
X110532425Y-48734207D01*
X110522983Y-48722702D01*
X110451554Y-48651274D01*
X110440054Y-48641836D01*
X110437457Y-48638842D01*
X110432940Y-48635999D01*
X110428823Y-48632620D01*
X110425166Y-48631105D01*
X110412571Y-48623177D01*
X110269714Y-48551748D01*
X110242251Y-48541239D01*
X110236876Y-48540857D01*
X110231896Y-48538794D01*
X110202632Y-48535912D01*
X109988346Y-48535912D01*
X109959082Y-48538794D01*
X109954101Y-48540857D01*
X109948727Y-48541239D01*
X109921263Y-48551748D01*
X109778407Y-48623177D01*
X109765815Y-48631103D01*
X109762153Y-48632620D01*
X109758030Y-48636003D01*
X109753521Y-48638842D01*
X109750925Y-48641834D01*
X109739423Y-48651275D01*
X109667995Y-48722703D01*
X109658555Y-48734204D01*
X109655562Y-48736801D01*
X109652721Y-48741314D01*
X109649340Y-48745434D01*
X109647824Y-48749093D01*
X109639897Y-48761687D01*
X109568468Y-48904544D01*
X109557959Y-48932007D01*
X109557577Y-48937381D01*
X109555514Y-48942362D01*
X109552632Y-48971626D01*
X109209775Y-48971626D01*
X109209775Y-48685912D01*
X109206893Y-48656648D01*
X109184495Y-48602576D01*
X109143111Y-48561192D01*
X109089039Y-48538794D01*
X109030511Y-48538794D01*
X108976439Y-48561192D01*
X108961445Y-48576185D01*
X108912571Y-48551748D01*
X108885108Y-48541239D01*
X108879733Y-48540857D01*
X108874753Y-48538794D01*
X108845489Y-48535912D01*
X108631203Y-48535912D01*
X108601939Y-48538794D01*
X108596958Y-48540857D01*
X108591584Y-48541239D01*
X108564120Y-48551748D01*
X108421264Y-48623177D01*
X108416917Y-48625912D01*
X108412571Y-48623177D01*
X108269714Y-48551748D01*
X108242251Y-48541239D01*
X108236876Y-48540857D01*
X108231896Y-48538794D01*
X108202632Y-48535912D01*
X107988346Y-48535912D01*
X107959082Y-48538794D01*
X107954101Y-48540857D01*
X107948727Y-48541239D01*
X107921263Y-48551748D01*
X107778407Y-48623177D01*
X107773512Y-48626257D01*
X107771205Y-48627027D01*
X107768330Y-48629519D01*
X107753521Y-48638842D01*
X107741197Y-48653051D01*
X107726990Y-48665373D01*
X107717670Y-48680178D01*
X107715174Y-48683057D01*
X107714403Y-48685368D01*
X107711325Y-48690259D01*
X107639896Y-48833116D01*
X107629387Y-48860579D01*
X107629005Y-48865953D01*
X107626942Y-48870934D01*
X107624060Y-48900198D01*
X107263194Y-48900198D01*
X107193939Y-48761687D01*
X107186010Y-48749092D01*
X107184495Y-48745433D01*
X107181113Y-48741312D01*
X107178274Y-48736802D01*
X107175282Y-48734207D01*
X107165840Y-48722702D01*
X107094411Y-48651274D01*
X107082911Y-48641836D01*
X107080314Y-48638842D01*
X107075797Y-48635999D01*
X107071680Y-48632620D01*
X107068023Y-48631105D01*
X107055428Y-48623177D01*
X106912571Y-48551748D01*
X106885108Y-48541239D01*
X106879733Y-48540857D01*
X106874753Y-48538794D01*
X106845489Y-48535912D01*
X106566918Y-48535912D01*
X106566918Y-48185912D01*
X106564036Y-48156648D01*
X106541638Y-48102576D01*
X106500254Y-48061192D01*
X106446182Y-48038794D01*
X106387654Y-48038794D01*
X106333582Y-48061192D01*
X106292198Y-48102576D01*
X106269800Y-48156648D01*
X106266918Y-48185912D01*
X104546569Y-48185912D01*
X104541638Y-48174006D01*
X104522984Y-48151276D01*
X104451556Y-48079847D01*
X104428825Y-48061192D01*
X104428824Y-48061191D01*
X104397150Y-48048071D01*
X104374753Y-48038794D01*
X104316225Y-48038794D01*
X104293828Y-48048071D01*
X104262154Y-48061191D01*
X104239423Y-48079846D01*
X104167994Y-48151275D01*
X104149339Y-48174006D01*
X104129169Y-48222703D01*
X104126942Y-48228079D01*
X101243107Y-48228079D01*
X101243107Y-47869245D01*
X112303403Y-47869245D01*
X112303403Y-52417495D01*
G37*
D11*
%TO.C,U2*%
X126332790Y-62950000D03*
X128872790Y-62950000D03*
X131412790Y-62950000D03*
X133952790Y-62950000D03*
X136492790Y-62950000D03*
X139032790Y-62950000D03*
X141572790Y-62950000D03*
X144112790Y-62950000D03*
X146652790Y-62950000D03*
X149192790Y-62950000D03*
X151732790Y-62950000D03*
X154272790Y-62950000D03*
X154272790Y-83710000D03*
X151732790Y-83710000D03*
X149192790Y-83710000D03*
X146652790Y-83710000D03*
X144112790Y-83710000D03*
X141572790Y-83710000D03*
X139032790Y-83710000D03*
X136492790Y-83710000D03*
X133952790Y-83710000D03*
X131412790Y-83710000D03*
X128872790Y-83710000D03*
X126332790Y-83710000D03*
X123792790Y-83710000D03*
%TD*%
M02*
