%TF.GenerationSoftware,KiCad,Pcbnew,8.0.4*%
%TF.CreationDate,2024-12-04T08:53:49-07:00*%
%TF.ProjectId,particle-somduino,70617274-6963-46c6-952d-736f6d647569,rev?*%
%TF.SameCoordinates,Original*%
%TF.FileFunction,Paste,Top*%
%TF.FilePolarity,Positive*%
%FSLAX46Y46*%
G04 Gerber Fmt 4.6, Leading zero omitted, Abs format (unit mm)*
G04 Created by KiCad (PCBNEW 8.0.4) date 2024-12-04 08:53:49*
%MOMM*%
%LPD*%
G01*
G04 APERTURE LIST*
G04 Aperture macros list*
%AMRoundRect*
0 Rectangle with rounded corners*
0 $1 Rounding radius*
0 $2 $3 $4 $5 $6 $7 $8 $9 X,Y pos of 4 corners*
0 Add a 4 corners polygon primitive as box body*
4,1,4,$2,$3,$4,$5,$6,$7,$8,$9,$2,$3,0*
0 Add four circle primitives for the rounded corners*
1,1,$1+$1,$2,$3*
1,1,$1+$1,$4,$5*
1,1,$1+$1,$6,$7*
1,1,$1+$1,$8,$9*
0 Add four rect primitives between the rounded corners*
20,1,$1+$1,$2,$3,$4,$5,0*
20,1,$1+$1,$4,$5,$6,$7,0*
20,1,$1+$1,$6,$7,$8,$9,0*
20,1,$1+$1,$8,$9,$2,$3,0*%
G04 Aperture macros list end*
%ADD10C,0.650000*%
%ADD11RoundRect,0.200000X0.275000X-0.200000X0.275000X0.200000X-0.275000X0.200000X-0.275000X-0.200000X0*%
%ADD12RoundRect,0.200000X0.200000X0.275000X-0.200000X0.275000X-0.200000X-0.275000X0.200000X-0.275000X0*%
%ADD13R,1.000000X0.750000*%
%ADD14RoundRect,0.250000X-0.250000X-1.500000X0.250000X-1.500000X0.250000X1.500000X-0.250000X1.500000X0*%
%ADD15RoundRect,0.250001X-0.499999X-1.449999X0.499999X-1.449999X0.499999X1.449999X-0.499999X1.449999X0*%
%ADD16R,0.900000X1.500000*%
%ADD17RoundRect,0.200000X-0.275000X0.200000X-0.275000X-0.200000X0.275000X-0.200000X0.275000X0.200000X0*%
%ADD18R,1.549400X0.304800*%
%ADD19R,2.743200X1.193800*%
%ADD20RoundRect,0.200000X-0.200000X-0.275000X0.200000X-0.275000X0.200000X0.275000X-0.200000X0.275000X0*%
%ADD21R,1.000000X2.000000*%
%ADD22R,1.240000X0.600000*%
%ADD23R,1.240000X0.300000*%
%ADD24RoundRect,0.243750X-0.243750X-0.456250X0.243750X-0.456250X0.243750X0.456250X-0.243750X0.456250X0*%
%ADD25RoundRect,0.150000X-0.625000X0.150000X-0.625000X-0.150000X0.625000X-0.150000X0.625000X0.150000X0*%
%ADD26RoundRect,0.250000X-0.650000X0.350000X-0.650000X-0.350000X0.650000X-0.350000X0.650000X0.350000X0*%
G04 APERTURE END LIST*
%TO.C,H1*%
D10*
X158150000Y-73340000D02*
G75*
G02*
X157500000Y-73340000I-325000J0D01*
G01*
X157500000Y-73340000D02*
G75*
G02*
X158150000Y-73340000I325000J0D01*
G01*
X158904200Y-71519200D02*
G75*
G02*
X158254200Y-71519200I-325000J0D01*
G01*
X158254200Y-71519200D02*
G75*
G02*
X158904200Y-71519200I325000J0D01*
G01*
X158904200Y-75160800D02*
G75*
G02*
X158254200Y-75160800I-325000J0D01*
G01*
X158254200Y-75160800D02*
G75*
G02*
X158904200Y-75160800I325000J0D01*
G01*
X160725000Y-70765000D02*
G75*
G02*
X160075000Y-70765000I-325000J0D01*
G01*
X160075000Y-70765000D02*
G75*
G02*
X160725000Y-70765000I325000J0D01*
G01*
X160725000Y-75915000D02*
G75*
G02*
X160075000Y-75915000I-325000J0D01*
G01*
X160075000Y-75915000D02*
G75*
G02*
X160725000Y-75915000I325000J0D01*
G01*
X162545800Y-71519200D02*
G75*
G02*
X161895800Y-71519200I-325000J0D01*
G01*
X161895800Y-71519200D02*
G75*
G02*
X162545800Y-71519200I325000J0D01*
G01*
X162545800Y-75160800D02*
G75*
G02*
X161895800Y-75160800I-325000J0D01*
G01*
X161895800Y-75160800D02*
G75*
G02*
X162545800Y-75160800I325000J0D01*
G01*
X163300000Y-73340000D02*
G75*
G02*
X162650000Y-73340000I-325000J0D01*
G01*
X162650000Y-73340000D02*
G75*
G02*
X163300000Y-73340000I325000J0D01*
G01*
%TD*%
D11*
%TO.C,R4*%
X110700000Y-72875000D03*
X110700000Y-71225000D03*
%TD*%
D12*
%TO.C,R1*%
X108730000Y-75500000D03*
X107080000Y-75500000D03*
%TD*%
D13*
%TO.C,SW1*%
X102800000Y-81575000D03*
X108800000Y-81575000D03*
X102800000Y-85325000D03*
X108800000Y-85325000D03*
%TD*%
D12*
%TO.C,R5*%
X115225000Y-89900000D03*
X113575000Y-89900000D03*
%TD*%
D14*
%TO.C,J6*%
X119900000Y-91400000D03*
X121900000Y-91400000D03*
D15*
X117550000Y-97150000D03*
X124250000Y-97150000D03*
%TD*%
D16*
%TO.C,D1*%
X104430000Y-78650000D03*
X103030000Y-78650000D03*
X104430000Y-75550000D03*
X103030000Y-75550000D03*
%TD*%
D17*
%TO.C,R8*%
X110700000Y-81375000D03*
X110700000Y-83025000D03*
%TD*%
D18*
%TO.C,U1*%
X114624700Y-82549999D03*
X122174702Y-82299999D03*
X114624700Y-82050000D03*
X122174702Y-81800000D03*
X114624700Y-81550001D03*
X122174702Y-81300001D03*
X114624700Y-81049999D03*
X122174702Y-80799999D03*
X114624700Y-80550000D03*
X122174702Y-80300000D03*
X114624700Y-80050001D03*
X122174702Y-79800000D03*
X114624700Y-79550001D03*
X122174702Y-79300001D03*
X114624700Y-79050000D03*
X122174702Y-78800000D03*
X114624700Y-78550001D03*
X122174702Y-78300001D03*
X114624700Y-78049999D03*
X122174702Y-77799999D03*
X114624700Y-77550000D03*
X122174702Y-77300000D03*
X114624700Y-77050001D03*
X122174702Y-74800001D03*
X114624700Y-74550000D03*
X122174702Y-74300000D03*
X114624700Y-74050001D03*
X122174702Y-73800001D03*
X114624700Y-73549999D03*
X122174702Y-73299999D03*
X114624700Y-73050000D03*
X122174702Y-72800000D03*
X114624700Y-72550001D03*
X122174702Y-72300001D03*
X114624700Y-72049999D03*
X122174702Y-71799999D03*
X114624700Y-71550000D03*
X122174702Y-71300000D03*
X114624700Y-71049999D03*
X122174702Y-70799999D03*
X114624700Y-70550000D03*
X122174702Y-70300000D03*
X114624700Y-70050001D03*
X122174702Y-69800001D03*
X114624700Y-69549999D03*
X122174702Y-69299999D03*
X114624700Y-69050000D03*
X122174702Y-68800000D03*
X114624700Y-68549999D03*
X122174702Y-68299999D03*
X114624700Y-68050000D03*
X122174702Y-67800000D03*
X114624700Y-67550001D03*
X122174702Y-67300001D03*
X114624700Y-67049999D03*
X122174702Y-66799999D03*
X114624700Y-66550000D03*
X122174702Y-66300000D03*
X114624700Y-66049999D03*
X122174702Y-65799999D03*
X114624700Y-65550000D03*
X122174702Y-65300000D03*
X114624700Y-65050001D03*
X122174702Y-64800001D03*
X114624700Y-64549999D03*
X122174702Y-64299999D03*
X114624700Y-64049999D03*
D19*
X115399702Y-83649999D03*
X115399702Y-62950000D03*
%TD*%
D20*
%TO.C,R10*%
X110900000Y-57500000D03*
X112550000Y-57500000D03*
%TD*%
D12*
%TO.C,R2*%
X108730000Y-77150000D03*
X107080000Y-77150000D03*
%TD*%
D21*
%TO.C,SW3*%
X108900000Y-54550000D03*
X106900000Y-54550000D03*
X104900000Y-54550000D03*
X108900000Y-48550000D03*
X106900000Y-48550000D03*
X104900000Y-48550000D03*
%TD*%
D11*
%TO.C,R6*%
X165300000Y-80250000D03*
X165300000Y-78600000D03*
%TD*%
D20*
%TO.C,R9*%
X110900000Y-59200000D03*
X112550000Y-59200000D03*
%TD*%
D13*
%TO.C,SW2*%
X108800000Y-72625000D03*
X102800000Y-72625000D03*
X108800000Y-68875000D03*
X102800000Y-68875000D03*
%TD*%
D22*
%TO.C,J8*%
X107020000Y-58590000D03*
X107020000Y-59390000D03*
D23*
X107020000Y-60540000D03*
X107020000Y-61540000D03*
X107020000Y-62040000D03*
X107020000Y-63040000D03*
D22*
X107020000Y-64190000D03*
X107020000Y-64990000D03*
X107020000Y-64990000D03*
X107020000Y-64190000D03*
D23*
X107020000Y-63540000D03*
X107020000Y-62540000D03*
X107020000Y-61040000D03*
X107020000Y-60040000D03*
D22*
X107020000Y-59390000D03*
X107020000Y-58590000D03*
%TD*%
D24*
%TO.C,D2*%
X113425000Y-92000000D03*
X115300000Y-92000000D03*
%TD*%
D12*
%TO.C,R3*%
X108730000Y-78800000D03*
X107080000Y-78800000D03*
%TD*%
D11*
%TO.C,R7*%
X163500000Y-80250000D03*
X163500000Y-78600000D03*
%TD*%
D25*
%TO.C,J7*%
X164025000Y-83950000D03*
X164025000Y-84950000D03*
X164025000Y-85950000D03*
X164025000Y-86950000D03*
D26*
X166550000Y-82650000D03*
X166550000Y-88250000D03*
%TD*%
M02*
