%TF.GenerationSoftware,KiCad,Pcbnew,8.0.4*%
%TF.CreationDate,2024-12-04T08:53:49-07:00*%
%TF.ProjectId,particle-somduino,70617274-6963-46c6-952d-736f6d647569,rev?*%
%TF.SameCoordinates,Original*%
%TF.FileFunction,Copper,L2,Bot*%
%TF.FilePolarity,Positive*%
%FSLAX46Y46*%
G04 Gerber Fmt 4.6, Leading zero omitted, Abs format (unit mm)*
G04 Created by KiCad (PCBNEW 8.0.4) date 2024-12-04 08:53:49*
%MOMM*%
%LPD*%
G01*
G04 APERTURE LIST*
G04 Aperture macros list*
%AMRoundRect*
0 Rectangle with rounded corners*
0 $1 Rounding radius*
0 $2 $3 $4 $5 $6 $7 $8 $9 X,Y pos of 4 corners*
0 Add a 4 corners polygon primitive as box body*
4,1,4,$2,$3,$4,$5,$6,$7,$8,$9,$2,$3,0*
0 Add four circle primitives for the rounded corners*
1,1,$1+$1,$2,$3*
1,1,$1+$1,$4,$5*
1,1,$1+$1,$6,$7*
1,1,$1+$1,$8,$9*
0 Add four rect primitives between the rounded corners*
20,1,$1+$1,$2,$3,$4,$5,0*
20,1,$1+$1,$4,$5,$6,$7,0*
20,1,$1+$1,$6,$7,$8,$9,0*
20,1,$1+$1,$8,$9,$2,$3,0*%
G04 Aperture macros list end*
%TA.AperFunction,ComponentPad*%
%ADD10R,1.700000X1.700000*%
%TD*%
%TA.AperFunction,ComponentPad*%
%ADD11O,1.700000X1.700000*%
%TD*%
%TA.AperFunction,ComponentPad*%
%ADD12R,2.000000X4.500000*%
%TD*%
%TA.AperFunction,ComponentPad*%
%ADD13O,2.000000X4.000000*%
%TD*%
%TA.AperFunction,ComponentPad*%
%ADD14O,4.000000X2.000000*%
%TD*%
%TA.AperFunction,ComponentPad*%
%ADD15C,6.500000*%
%TD*%
%TA.AperFunction,ComponentPad*%
%ADD16O,1.400000X0.900000*%
%TD*%
%TA.AperFunction,SMDPad,CuDef*%
%ADD17RoundRect,0.090000X-0.810000X1.410000X-0.810000X-1.410000X0.810000X-1.410000X0.810000X1.410000X0*%
%TD*%
%TA.AperFunction,ViaPad*%
%ADD18C,0.600000*%
%TD*%
%TA.AperFunction,Conductor*%
%ADD19C,0.250000*%
%TD*%
%TA.AperFunction,Conductor*%
%ADD20C,0.500000*%
%TD*%
%TA.AperFunction,Conductor*%
%ADD21C,0.200000*%
%TD*%
G04 APERTURE END LIST*
D10*
%TO.P,J1,1,Pin_1*%
%TO.N,unconnected-(J1-Pin_1-Pad1)*%
X127940000Y-97460000D03*
D11*
%TO.P,J1,2,Pin_2*%
%TO.N,+3V3_AUX*%
X130480000Y-97460000D03*
%TO.P,J1,3,Pin_3*%
%TO.N,~{RESET}*%
X133020000Y-97460000D03*
%TO.P,J1,4,Pin_4*%
%TO.N,+3V3_AUX*%
X135560000Y-97460000D03*
%TO.P,J1,5,Pin_5*%
%TO.N,VBATT*%
X138100000Y-97460000D03*
%TO.P,J1,6,Pin_6*%
%TO.N,GND*%
X140640000Y-97460000D03*
%TO.P,J1,7,Pin_7*%
X143180000Y-97460000D03*
%TO.P,J1,8,Pin_8*%
%TO.N,VIN*%
X145720000Y-97460000D03*
%TD*%
D10*
%TO.P,J3,1,Pin_1*%
%TO.N,A0*%
X150800000Y-97460000D03*
D11*
%TO.P,J3,2,Pin_2*%
%TO.N,A1*%
X153340000Y-97460000D03*
%TO.P,J3,3,Pin_3*%
%TO.N,A2*%
X155880000Y-97460000D03*
%TO.P,J3,4,Pin_4*%
%TO.N,A3*%
X158420000Y-97460000D03*
%TO.P,J3,5,Pin_5*%
%TO.N,A4*%
X160960000Y-97460000D03*
%TO.P,J3,6,Pin_6*%
%TO.N,A5*%
X163500000Y-97460000D03*
%TD*%
D10*
%TO.P,J2,1,Pin_1*%
%TO.N,SCL*%
X118796000Y-49200000D03*
D11*
%TO.P,J2,2,Pin_2*%
%TO.N,SDA*%
X121336000Y-49200000D03*
%TO.P,J2,3,Pin_3*%
%TO.N,unconnected-(J2-Pin_3-Pad3)*%
X123876000Y-49200000D03*
%TO.P,J2,4,Pin_4*%
%TO.N,GND*%
X126416000Y-49200000D03*
%TO.P,J2,5,Pin_5*%
%TO.N,SCK{slash}D13*%
X128956000Y-49200000D03*
%TO.P,J2,6,Pin_6*%
%TO.N,MOSI{slash}D12*%
X131496000Y-49200000D03*
%TO.P,J2,7,Pin_7*%
%TO.N,MISO{slash}D11*%
X134036000Y-49200000D03*
%TO.P,J2,8,Pin_8*%
%TO.N,D23*%
X136576000Y-49200000D03*
%TO.P,J2,9,Pin_9*%
%TO.N,D22*%
X139116000Y-49200000D03*
%TO.P,J2,10,Pin_10*%
%TO.N,CS{slash}D8*%
X141656000Y-49200000D03*
%TD*%
D10*
%TO.P,J4,1,Pin_1*%
%TO.N,D7*%
X145720000Y-49200000D03*
D11*
%TO.P,J4,2,Pin_2*%
%TO.N,D6*%
X148260000Y-49200000D03*
%TO.P,J4,3,Pin_3*%
%TO.N,D5*%
X150800000Y-49200000D03*
%TO.P,J4,4,Pin_4*%
%TO.N,D4*%
X153340000Y-49200000D03*
%TO.P,J4,5,Pin_5*%
%TO.N,D3{slash}SERIAL1_RTS*%
X155880000Y-49200000D03*
%TO.P,J4,6,Pin_6*%
%TO.N,D2{slash}SERIAL1_CTS*%
X158420000Y-49200000D03*
%TO.P,J4,7,Pin_7*%
%TO.N,SERIAL1_RX*%
X160960000Y-49200000D03*
%TO.P,J4,8,Pin_8*%
%TO.N,SERIAL1_TX*%
X163500000Y-49200000D03*
%TD*%
D12*
%TO.P,J5,1*%
%TO.N,VIN*%
X110900000Y-92400000D03*
D13*
%TO.P,J5,2*%
%TO.N,GND*%
X104900000Y-92400000D03*
D14*
%TO.P,J5,3*%
X108400000Y-97050000D03*
%TD*%
D15*
%TO.P,H1,1,1*%
%TO.N,unconnected-(H1-Pad1)*%
X160400000Y-73340000D03*
%TD*%
D16*
%TO.P,J8,S1,SHIELD*%
%TO.N,GND*%
X106420000Y-57470000D03*
X103200000Y-57470000D03*
X106420000Y-66110000D03*
X103200000Y-66110000D03*
%TD*%
D17*
%TO.P,U2,1,3V3*%
%TO.N,+3V3*%
X126332790Y-62950000D03*
%TO.P,U2,2,3V3_AUX*%
%TO.N,+3V3_AUX*%
X128872790Y-62950000D03*
%TO.P,U2,3,5V*%
%TO.N,unconnected-(U2-5V-Pad3)*%
X131412790Y-62950000D03*
%TO.P,U2,4,5V*%
%TO.N,unconnected-(U2-5V-Pad4)*%
X133952790Y-62950000D03*
%TO.P,U2,5,VCC*%
%TO.N,+3V9*%
X136492790Y-62950000D03*
%TO.P,U2,6,VCC*%
X139032790Y-62950000D03*
%TO.P,U2,7,EN_AUX*%
%TO.N,EN_AUX*%
X141572790Y-62950000D03*
%TO.P,U2,8,REGN*%
%TO.N,unconnected-(U2-REGN-Pad8)*%
X144112790Y-62950000D03*
%TO.P,U2,9,GND*%
%TO.N,GND*%
X146652790Y-62950000D03*
%TO.P,U2,10,GND*%
X149192790Y-62950000D03*
%TO.P,U2,11,VIN*%
%TO.N,VIN*%
X151732790Y-62950000D03*
%TO.P,U2,12,VIN*%
X154272790Y-62950000D03*
%TO.P,U2,13,CHG*%
%TO.N,Net-(U2-CHG)*%
X154272790Y-83710000D03*
%TO.P,U2,14,SCL*%
%TO.N,SCL*%
X151732790Y-83710000D03*
%TO.P,U2,15,SDA*%
%TO.N,SDA*%
X149192790Y-83710000D03*
%TO.P,U2,16,~{FUEL_INT}*%
%TO.N,~{FUEL_INT}*%
X146652790Y-83710000D03*
%TO.P,U2,17,TS*%
%TO.N,unconnected-(U2-TS-Pad17)*%
X144112790Y-83710000D03*
%TO.P,U2,18,VBAT*%
%TO.N,VBATT*%
X141572790Y-83710000D03*
%TO.P,U2,19,VBAT*%
X139032790Y-83710000D03*
%TO.P,U2,20,VBAT*%
X136492790Y-83710000D03*
%TO.P,U2,21,GND*%
%TO.N,GND*%
X133952790Y-83710000D03*
%TO.P,U2,22,GND*%
X131412790Y-83710000D03*
%TO.P,U2,23,~{RST}*%
%TO.N,unconnected-(U2-~{RST}-Pad23)*%
X128872790Y-83710000D03*
%TO.P,U2,24,PG*%
%TO.N,unconnected-(U2-PG-Pad24)*%
X126332790Y-83710000D03*
%TO.P,U2,25,ENABLE*%
%TO.N,SYS_PWR_EN*%
X123792790Y-83710000D03*
%TD*%
D18*
%TO.N,GND*%
X149192790Y-61100000D03*
X146600000Y-64800000D03*
X121900000Y-86600000D03*
X131400000Y-81800000D03*
X149200000Y-64800000D03*
X146652790Y-61100000D03*
X113200000Y-70100000D03*
X113200000Y-73100000D03*
X131400000Y-85600000D03*
X124000000Y-61700000D03*
%TO.N,~{RESET}*%
X132100000Y-74700000D03*
X118600000Y-78600000D03*
X123600000Y-74600000D03*
X110800000Y-73800000D03*
%TO.N,+3V3_AUX*%
X130500000Y-94900000D03*
X135500000Y-60500000D03*
%TO.N,D23*%
X130700000Y-66900000D03*
X116264277Y-68575795D03*
%TO.N,SCK{slash}D13*%
X119800000Y-68900000D03*
X128068988Y-69225000D03*
%TO.N,MISO{slash}D11*%
X129700000Y-68900000D03*
X117900000Y-68900000D03*
%TO.N,D22*%
X130600000Y-56200000D03*
X123300000Y-56300000D03*
%TO.N,CS{slash}D8*%
X130600000Y-68900000D03*
X135200000Y-50800000D03*
X117000000Y-68900000D03*
%TO.N,MOSI{slash}D12*%
X118900000Y-68900000D03*
X128800000Y-68900000D03*
%TO.N,A5*%
X154700000Y-74600000D03*
X117000000Y-71600000D03*
%TO.N,A2*%
X116600000Y-74600000D03*
X152600000Y-75900000D03*
%TO.N,A3*%
X117200000Y-73700000D03*
X153600000Y-75700000D03*
%TO.N,A4*%
X117100000Y-72600000D03*
X154600000Y-75600000D03*
%TO.N,A0*%
X117000000Y-76200000D03*
X150800000Y-76800000D03*
%TO.N,A1*%
X151700000Y-76400000D03*
X116300000Y-75500000D03*
%TO.N,SERIAL1_TX*%
X163500000Y-57700000D03*
X125475000Y-58375000D03*
%TO.N,D3{slash}SERIAL1_RTS*%
X155900000Y-56300000D03*
X123400000Y-57200000D03*
%TO.N,D2{slash}SERIAL1_CTS*%
X124030223Y-57753205D03*
X158420000Y-56800000D03*
%TO.N,D6*%
X115992246Y-66188920D03*
X148100000Y-67125000D03*
%TO.N,D5*%
X116085836Y-66983429D03*
X150800000Y-67300000D03*
%TO.N,D4*%
X116178094Y-67778094D03*
X153200000Y-68200000D03*
%TO.N,D7*%
X145700000Y-59000000D03*
X118800000Y-60800000D03*
%TO.N,SERIAL1_RX*%
X160960000Y-57300000D03*
X124694645Y-58198791D03*
%TO.N,+3V3*%
X137400000Y-59700000D03*
X137300000Y-78600000D03*
X165300000Y-77800000D03*
X110700000Y-84100000D03*
X118400000Y-84100000D03*
X105400000Y-71400000D03*
X165300000Y-84900000D03*
X105400000Y-78600000D03*
X120300000Y-80300000D03*
%TO.N,~{MODE}*%
X111600000Y-81400000D03*
X119300000Y-80000000D03*
%TO.N,VIN*%
X138700000Y-60400000D03*
X140500000Y-93900000D03*
%TO.N,SDA*%
X165400000Y-86100000D03*
X148000000Y-92200000D03*
X125500000Y-92000000D03*
X149200000Y-81700000D03*
%TO.N,SCL*%
X124300001Y-77799999D03*
X124600000Y-76000000D03*
X125100000Y-93000000D03*
X165400000Y-87100000D03*
X151800000Y-81700000D03*
X151200000Y-92200000D03*
%TO.N,Net-(U1-RED)*%
X111600000Y-68600000D03*
X111225001Y-75500000D03*
%TO.N,Net-(U1-GREEN)*%
X111310402Y-76310402D03*
X111708058Y-67608058D03*
%TO.N,EN_AUX*%
X141600000Y-70000000D03*
X141600000Y-64900000D03*
X113200000Y-71500000D03*
%TO.N,Net-(U2-CHG)*%
X116000000Y-89900000D03*
X156025000Y-83700000D03*
X157100000Y-90000000D03*
%TO.N,+3V9*%
X124000000Y-80000000D03*
X136500000Y-79600000D03*
X136500000Y-64900000D03*
%TO.N,~{FUEL_INT}*%
X146600000Y-68900000D03*
X116300000Y-69375000D03*
X146600000Y-85700000D03*
%TO.N,VUSB*%
X109600000Y-57900000D03*
X110500000Y-64200000D03*
X120700000Y-78800000D03*
%TO.N,USB_D_P*%
X112486765Y-80386765D03*
X109925000Y-63200000D03*
%TO.N,USB_D_N*%
X111600000Y-80425000D03*
X109075000Y-63200000D03*
%TO.N,VBATT*%
X139000000Y-86900000D03*
X119900000Y-89100000D03*
%TO.N,Net-(J8-CC2)*%
X110000000Y-60100000D03*
X105700000Y-63500000D03*
%TO.N,SYS_PWR_EN*%
X106900000Y-52700000D03*
X126300000Y-53600000D03*
X127350000Y-80050000D03*
%TD*%
D19*
%TO.N,GND*%
X146652790Y-62950000D02*
X146652790Y-64747210D01*
X149192790Y-62950000D02*
X149192790Y-64792790D01*
X131412790Y-81812790D02*
X131412790Y-83710000D01*
X146652790Y-64747210D02*
X146600000Y-64800000D01*
X146652790Y-61100000D02*
X146652790Y-62950000D01*
X131400000Y-81800000D02*
X131412790Y-81812790D01*
X149192790Y-64792790D02*
X149200000Y-64800000D01*
X131400000Y-85600000D02*
X131412790Y-85587210D01*
X131412790Y-85587210D02*
X131412790Y-83710000D01*
X149192790Y-61100000D02*
X149192790Y-62950000D01*
%TO.N,~{RESET}*%
X112100000Y-78600000D02*
X118600000Y-78600000D01*
X110800000Y-73800000D02*
X110600001Y-73999999D01*
X131400000Y-74000000D02*
X132100000Y-74700000D01*
X124200000Y-74000000D02*
X131400000Y-74000000D01*
X110600001Y-77100001D02*
X112100000Y-78600000D01*
X123600000Y-74600000D02*
X124200000Y-74000000D01*
X110600001Y-73999999D02*
X110600001Y-77100001D01*
D20*
%TO.N,+3V3_AUX*%
X128872790Y-62127210D02*
X128872790Y-62950000D01*
X135500000Y-60500000D02*
X130500000Y-60500000D01*
X135560000Y-97460000D02*
X135560000Y-96560000D01*
X135560000Y-96560000D02*
X133900000Y-94900000D01*
X128872790Y-62950000D02*
X128872790Y-63872790D01*
X133900000Y-94900000D02*
X130500000Y-94900000D01*
X130500000Y-60500000D02*
X128872790Y-62127210D01*
D19*
%TO.N,D23*%
X130300000Y-66500000D02*
X130700000Y-66900000D01*
X116264277Y-68575795D02*
X118340072Y-66500000D01*
X118340072Y-66500000D02*
X130300000Y-66500000D01*
%TO.N,SCK{slash}D13*%
X128068988Y-69225000D02*
X127143988Y-68300000D01*
X120400000Y-68300000D02*
X119800000Y-68900000D01*
X127143988Y-68300000D02*
X120400000Y-68300000D01*
%TO.N,MISO{slash}D11*%
X119363604Y-67400000D02*
X117900000Y-68863604D01*
X128200000Y-67400000D02*
X119363604Y-67400000D01*
X117900000Y-68863604D02*
X117900000Y-68900000D01*
X129700000Y-68900000D02*
X128200000Y-67400000D01*
%TO.N,D22*%
X130500000Y-56300000D02*
X130600000Y-56200000D01*
X123300000Y-56300000D02*
X130500000Y-56300000D01*
%TO.N,CS{slash}D8*%
X128850000Y-66950000D02*
X118950000Y-66950000D01*
X130600000Y-68900000D02*
X130600000Y-68700000D01*
X135200000Y-50800000D02*
X140056000Y-50800000D01*
X140056000Y-50800000D02*
X141656000Y-49200000D01*
X130600000Y-68700000D02*
X128850000Y-66950000D01*
X118950000Y-66950000D02*
X117000000Y-68900000D01*
%TO.N,MOSI{slash}D12*%
X128800000Y-68900000D02*
X127750000Y-67850000D01*
X127750000Y-67850000D02*
X119550000Y-67850000D01*
X118900000Y-68500000D02*
X118900000Y-68900000D01*
X119550000Y-67850000D02*
X118900000Y-68500000D01*
%TO.N,A5*%
X153900000Y-73800000D02*
X135245584Y-73800000D01*
X117150000Y-71750000D02*
X117000000Y-71600000D01*
X133195584Y-71750000D02*
X117150000Y-71750000D01*
X154700000Y-74600000D02*
X153900000Y-73800000D01*
X135245584Y-73800000D02*
X133195584Y-71750000D01*
%TO.N,A2*%
X117600000Y-74600000D02*
X116600000Y-74600000D01*
X132636396Y-73100000D02*
X119100000Y-73100000D01*
X151850000Y-75150000D02*
X134686396Y-75150000D01*
X119100000Y-73100000D02*
X117600000Y-74600000D01*
X152600000Y-75900000D02*
X151850000Y-75150000D01*
X134686396Y-75150000D02*
X132636396Y-73100000D01*
%TO.N,A3*%
X152600000Y-74700000D02*
X134872792Y-74700000D01*
X153600000Y-75700000D02*
X152600000Y-74700000D01*
X134872792Y-74700000D02*
X132822792Y-72650000D01*
X132822792Y-72650000D02*
X118250000Y-72650000D01*
X118250000Y-72650000D02*
X117200000Y-73700000D01*
%TO.N,A4*%
X117500000Y-72200000D02*
X117100000Y-72600000D01*
X153250000Y-74250000D02*
X135059188Y-74250000D01*
X133009188Y-72200000D02*
X117500000Y-72200000D01*
X135059188Y-74250000D02*
X133009188Y-72200000D01*
X154600000Y-75600000D02*
X153250000Y-74250000D01*
%TO.N,A0*%
X124950000Y-74450000D02*
X130750000Y-74450000D01*
X117000000Y-76200000D02*
X123200000Y-76200000D01*
X123200000Y-76200000D02*
X124950000Y-74450000D01*
X130750000Y-74450000D02*
X133100000Y-76800000D01*
X133100000Y-76800000D02*
X150800000Y-76800000D01*
%TO.N,A1*%
X132450000Y-73550000D02*
X119286396Y-73550000D01*
X151700000Y-76400000D02*
X150900000Y-75600000D01*
X119286396Y-73550000D02*
X117336396Y-75500000D01*
X117336396Y-75500000D02*
X116300000Y-75500000D01*
X134500000Y-75600000D02*
X132450000Y-73550000D01*
X150900000Y-75600000D02*
X134500000Y-75600000D01*
%TO.N,SERIAL1_TX*%
X125650000Y-58200000D02*
X125475000Y-58375000D01*
X163500000Y-57700000D02*
X163000000Y-58200000D01*
X163000000Y-58200000D02*
X125650000Y-58200000D01*
%TO.N,D3{slash}SERIAL1_RTS*%
X123750000Y-56850000D02*
X125500000Y-56850000D01*
X125500000Y-56850000D02*
X155350000Y-56850000D01*
X155350000Y-56850000D02*
X155900000Y-56300000D01*
X123400000Y-57200000D02*
X123750000Y-56850000D01*
%TO.N,D2{slash}SERIAL1_CTS*%
X158420000Y-56800000D02*
X157920000Y-57300000D01*
X157920000Y-57300000D02*
X124483428Y-57300000D01*
X124483428Y-57300000D02*
X124030223Y-57753205D01*
%TO.N,D6*%
X148100000Y-67125000D02*
X147925000Y-67300000D01*
X147925000Y-67300000D02*
X140463604Y-67300000D01*
X131106676Y-65150000D02*
X117031166Y-65150000D01*
X134456676Y-68500000D02*
X131106676Y-65150000D01*
X139263604Y-68500000D02*
X134456676Y-68500000D01*
X140463604Y-67300000D02*
X139263604Y-68500000D01*
X117031166Y-65150000D02*
X115992246Y-66188920D01*
%TO.N,D5*%
X116085836Y-66983429D02*
X117469265Y-65600000D01*
X130920280Y-65600000D02*
X134270280Y-68950000D01*
X139450000Y-68950000D02*
X140650000Y-67750000D01*
X134270280Y-68950000D02*
X139450000Y-68950000D01*
X117469265Y-65600000D02*
X130920280Y-65600000D01*
X150350000Y-67750000D02*
X150800000Y-67300000D01*
X140650000Y-67750000D02*
X150350000Y-67750000D01*
%TO.N,D4*%
X140863604Y-68200000D02*
X139663604Y-69400000D01*
X130733884Y-66050000D02*
X117906188Y-66050000D01*
X117906188Y-66050000D02*
X116178094Y-67778094D01*
X139663604Y-69400000D02*
X134083884Y-69400000D01*
X134083884Y-69400000D02*
X130733884Y-66050000D01*
X153200000Y-68200000D02*
X140863604Y-68200000D01*
%TO.N,D7*%
X120600000Y-59000000D02*
X145700000Y-59000000D01*
X118800000Y-60800000D02*
X120600000Y-59000000D01*
%TO.N,SERIAL1_RX*%
X125143436Y-57750000D02*
X124694645Y-58198791D01*
X160960000Y-57300000D02*
X160510000Y-57750000D01*
X160510000Y-57750000D02*
X125143436Y-57750000D01*
D20*
%TO.N,+3V3*%
X165300000Y-77800000D02*
X138100000Y-77800000D01*
X122000000Y-78600000D02*
X120300000Y-80300000D01*
X126332790Y-62067210D02*
X126332790Y-62950000D01*
X138100000Y-77800000D02*
X137300000Y-78600000D01*
X128700000Y-59700000D02*
X126332790Y-62067210D01*
X137400000Y-59700000D02*
X128700000Y-59700000D01*
X105400000Y-78600000D02*
X105400000Y-78800000D01*
X105400000Y-78800000D02*
X110700000Y-84100000D01*
X137300000Y-78600000D02*
X122000000Y-78600000D01*
X105400000Y-71400000D02*
X105400000Y-78600000D01*
X126332790Y-63832790D02*
X126332790Y-62950000D01*
X110700000Y-84100000D02*
X118400000Y-84100000D01*
X165300000Y-77800000D02*
X165300000Y-84900000D01*
D19*
%TO.N,~{MODE}*%
X119300000Y-80000000D02*
X114000000Y-80000000D01*
X112600000Y-81400000D02*
X111600000Y-81400000D01*
X114000000Y-80000000D02*
X112600000Y-81400000D01*
D20*
%TO.N,VIN*%
X138900000Y-60200000D02*
X150200000Y-60200000D01*
X154272790Y-62950000D02*
X151732790Y-62950000D01*
X151732790Y-62950000D02*
X151732790Y-64449999D01*
X151732790Y-61732790D02*
X151732790Y-62950000D01*
X150200000Y-60200000D02*
X151732790Y-61732790D01*
X145720000Y-97460000D02*
X145720000Y-96320000D01*
X143300000Y-93900000D02*
X140500000Y-93900000D01*
X138700000Y-60400000D02*
X138900000Y-60200000D01*
X145720000Y-96320000D02*
X143300000Y-93900000D01*
X140500000Y-93900000D02*
X112700000Y-93900000D01*
X112700000Y-93900000D02*
X111200000Y-92400000D01*
D19*
%TO.N,SDA*%
X160000000Y-80700000D02*
X150200000Y-80700000D01*
X165400000Y-86100000D02*
X160000000Y-80700000D01*
X149200000Y-81700000D02*
X149200000Y-83702790D01*
X147650000Y-92550000D02*
X142600000Y-92550000D01*
X147650000Y-92550000D02*
X148000000Y-92200000D01*
X142600000Y-92550000D02*
X126050000Y-92550000D01*
X149200000Y-83702790D02*
X149192790Y-83710000D01*
X150200000Y-80700000D02*
X149200000Y-81700000D01*
X126050000Y-92550000D02*
X125500000Y-92000000D01*
X149192790Y-82807210D02*
X149192790Y-83710000D01*
%TO.N,SCL*%
X151732790Y-81767210D02*
X151732790Y-83710000D01*
X159450000Y-81150000D02*
X165400000Y-87100000D01*
X150400000Y-93000000D02*
X125100000Y-93000000D01*
X124600000Y-77500000D02*
X124600000Y-76000000D01*
X152350000Y-81150000D02*
X159450000Y-81150000D01*
X151800000Y-81700000D02*
X152350000Y-81150000D01*
X124300001Y-77799999D02*
X124600000Y-77500000D01*
X151800000Y-81700000D02*
X151732790Y-81767210D01*
X151732790Y-83067210D02*
X151732790Y-83710000D01*
X151200000Y-92200000D02*
X150400000Y-93000000D01*
%TO.N,Net-(U1-RED)*%
X111600000Y-75125001D02*
X111225001Y-75500000D01*
X111600000Y-68600000D02*
X111600000Y-75125001D01*
%TO.N,Net-(U1-GREEN)*%
X111708058Y-67824174D02*
X111708058Y-67608058D01*
X111310402Y-76310402D02*
X112225000Y-75395804D01*
X112225000Y-68341116D02*
X111708058Y-67824174D01*
X112225000Y-75395804D02*
X112225000Y-68341116D01*
%TO.N,EN_AUX*%
X140300000Y-71300000D02*
X141600000Y-70000000D01*
X141600000Y-64900000D02*
X141600000Y-62977210D01*
X113200000Y-71500000D02*
X114000000Y-70700000D01*
X118100000Y-71300000D02*
X140300000Y-71300000D01*
X117500000Y-70700000D02*
X118100000Y-71300000D01*
X114000000Y-70700000D02*
X117500000Y-70700000D01*
%TO.N,Net-(U2-CHG)*%
X154272790Y-83710000D02*
X156015000Y-83710000D01*
X116000000Y-89900000D02*
X116100000Y-89900000D01*
X156015000Y-83710000D02*
X156025000Y-83700000D01*
X147300000Y-91700000D02*
X146900000Y-92100000D01*
X146900000Y-92100000D02*
X145100000Y-92100000D01*
X145100000Y-92100000D02*
X126900000Y-92100000D01*
X116100000Y-89900000D02*
X117400000Y-91200000D01*
X126000000Y-91200000D02*
X117400000Y-91200000D01*
X126900000Y-92100000D02*
X126000000Y-91200000D01*
X157100000Y-90000000D02*
X149000000Y-90000000D01*
X149000000Y-90000000D02*
X147300000Y-91700000D01*
D20*
%TO.N,+3V9*%
X136492790Y-62950000D02*
X136492790Y-64892790D01*
X136492790Y-64892790D02*
X136500000Y-64900000D01*
X124700000Y-79300000D02*
X124000000Y-80000000D01*
X139032790Y-62950000D02*
X136492790Y-62950000D01*
X136200000Y-79300000D02*
X124700000Y-79300000D01*
X136500000Y-79600000D02*
X136200000Y-79300000D01*
D19*
%TO.N,~{FUEL_INT}*%
X116300000Y-69375000D02*
X117025000Y-70100000D01*
X146600000Y-85700000D02*
X146600000Y-83762790D01*
X117025000Y-70100000D02*
X139600000Y-70100000D01*
X146600000Y-83762790D02*
X146652790Y-83710000D01*
X139600000Y-70100000D02*
X140800000Y-68900000D01*
X140800000Y-68900000D02*
X146600000Y-68900000D01*
%TO.N,VUSB*%
X112213603Y-79349999D02*
X110150001Y-77286397D01*
X110150001Y-77286397D02*
X110150001Y-64549999D01*
X120700000Y-78800000D02*
X120150001Y-79349999D01*
X111000000Y-63700000D02*
X110500000Y-64200000D01*
X110150001Y-64549999D02*
X110500000Y-64200000D01*
X120150001Y-79349999D02*
X112213603Y-79349999D01*
X109700000Y-57900000D02*
X111000000Y-59200000D01*
X109600000Y-57900000D02*
X109700000Y-57900000D01*
X111000000Y-59200000D02*
X111000000Y-63700000D01*
D21*
%TO.N,USB_D_P*%
X109725001Y-63399999D02*
X109725001Y-77462438D01*
X109725001Y-77462438D02*
X112486765Y-80224202D01*
X109925000Y-63200000D02*
X109725001Y-63399999D01*
X112486765Y-80224202D02*
X112486765Y-80386765D01*
%TO.N,USB_D_N*%
X109274999Y-63399999D02*
X109274999Y-77578122D01*
X111600000Y-79903123D02*
X111600000Y-80425000D01*
X109075000Y-63200000D02*
X109274999Y-63399999D01*
X109274999Y-77578122D02*
X111600000Y-79903123D01*
D20*
%TO.N,VBATT*%
X136492790Y-83710000D02*
X136492790Y-85209999D01*
X136492790Y-83710000D02*
X139032790Y-83710000D01*
X121200000Y-87800000D02*
X119900000Y-89100000D01*
X139000000Y-86900000D02*
X139000000Y-83742790D01*
X133902789Y-87800000D02*
X128500000Y-87800000D01*
X128500000Y-87800000D02*
X121200000Y-87800000D01*
X136492790Y-85209999D02*
X133902789Y-87800000D01*
X141572790Y-83710000D02*
X139032790Y-83710000D01*
D19*
%TO.N,Net-(J8-CC2)*%
X110000000Y-60100000D02*
X106600000Y-63500000D01*
X106600000Y-63500000D02*
X105700000Y-63500000D01*
%TO.N,SYS_PWR_EN*%
X125150000Y-80050000D02*
X123792790Y-81407210D01*
X106900000Y-52700000D02*
X125400000Y-52700000D01*
X125400000Y-52700000D02*
X126300000Y-53600000D01*
X123792790Y-81407210D02*
X123792790Y-83710000D01*
X127350000Y-80050000D02*
X125150000Y-80050000D01*
%TD*%
%TA.AperFunction,Conductor*%
%TO.N,GND*%
G36*
X142714075Y-97267007D02*
G01*
X142680000Y-97394174D01*
X142680000Y-97525826D01*
X142714075Y-97652993D01*
X142746988Y-97710000D01*
X141073012Y-97710000D01*
X141105925Y-97652993D01*
X141140000Y-97525826D01*
X141140000Y-97394174D01*
X141105925Y-97267007D01*
X141073012Y-97210000D01*
X142746988Y-97210000D01*
X142714075Y-97267007D01*
G37*
%TD.AperFunction*%
%TA.AperFunction,Conductor*%
G36*
X140239623Y-94665459D02*
G01*
X140318945Y-94693215D01*
X140318951Y-94693216D01*
X140318953Y-94693217D01*
X140318954Y-94693217D01*
X140318958Y-94693218D01*
X140499996Y-94713616D01*
X140500000Y-94713616D01*
X140500004Y-94713616D01*
X140681041Y-94693218D01*
X140681043Y-94693217D01*
X140681047Y-94693217D01*
X140681050Y-94693215D01*
X140681054Y-94693215D01*
X140760377Y-94665459D01*
X140801332Y-94658500D01*
X142934457Y-94658500D01*
X143001496Y-94678185D01*
X143022138Y-94694819D01*
X144706711Y-96379392D01*
X144740196Y-96440715D01*
X144735212Y-96510407D01*
X144710260Y-96551055D01*
X144644280Y-96622728D01*
X144550252Y-96766650D01*
X144497105Y-96812006D01*
X144427874Y-96821430D01*
X144364538Y-96791928D01*
X144344868Y-96769951D01*
X144218113Y-96588926D01*
X144218108Y-96588920D01*
X144051082Y-96421894D01*
X143857578Y-96286399D01*
X143643492Y-96186570D01*
X143643486Y-96186567D01*
X143430000Y-96129364D01*
X143430000Y-97026988D01*
X143372993Y-96994075D01*
X143245826Y-96960000D01*
X143114174Y-96960000D01*
X142987007Y-96994075D01*
X142930000Y-97026988D01*
X142930000Y-96129364D01*
X142929999Y-96129364D01*
X142716513Y-96186567D01*
X142716507Y-96186570D01*
X142502422Y-96286399D01*
X142502420Y-96286400D01*
X142308926Y-96421886D01*
X142308920Y-96421891D01*
X142141891Y-96588920D01*
X142141890Y-96588922D01*
X142011575Y-96775031D01*
X141956998Y-96818655D01*
X141887499Y-96825848D01*
X141825145Y-96794326D01*
X141808425Y-96775031D01*
X141678109Y-96588922D01*
X141678108Y-96588920D01*
X141511082Y-96421894D01*
X141317578Y-96286399D01*
X141103492Y-96186570D01*
X141103486Y-96186567D01*
X140890000Y-96129364D01*
X140890000Y-97026988D01*
X140832993Y-96994075D01*
X140705826Y-96960000D01*
X140574174Y-96960000D01*
X140447007Y-96994075D01*
X140390000Y-97026988D01*
X140390000Y-96129364D01*
X140389999Y-96129364D01*
X140176513Y-96186567D01*
X140176507Y-96186570D01*
X139962422Y-96286399D01*
X139962420Y-96286400D01*
X139768926Y-96421886D01*
X139768920Y-96421891D01*
X139601891Y-96588920D01*
X139601890Y-96588922D01*
X139475131Y-96769952D01*
X139420554Y-96813577D01*
X139351055Y-96820769D01*
X139288701Y-96789247D01*
X139269752Y-96766656D01*
X139175722Y-96622732D01*
X139175715Y-96622725D01*
X139175715Y-96622723D01*
X139023243Y-96457097D01*
X139023238Y-96457092D01*
X138903371Y-96363795D01*
X138845576Y-96318811D01*
X138845575Y-96318810D01*
X138845572Y-96318808D01*
X138647580Y-96211661D01*
X138647577Y-96211659D01*
X138647574Y-96211658D01*
X138647571Y-96211657D01*
X138647569Y-96211656D01*
X138434637Y-96138556D01*
X138212569Y-96101500D01*
X137987431Y-96101500D01*
X137765362Y-96138556D01*
X137552430Y-96211656D01*
X137552419Y-96211661D01*
X137354427Y-96318808D01*
X137354422Y-96318812D01*
X137176761Y-96457092D01*
X137176756Y-96457097D01*
X137024284Y-96622723D01*
X137024276Y-96622734D01*
X136933808Y-96761206D01*
X136880662Y-96806562D01*
X136811431Y-96815986D01*
X136748095Y-96786484D01*
X136726192Y-96761206D01*
X136653537Y-96650000D01*
X136635722Y-96622732D01*
X136635719Y-96622729D01*
X136635715Y-96622723D01*
X136483243Y-96457097D01*
X136483238Y-96457092D01*
X136305574Y-96318809D01*
X136304078Y-96317832D01*
X136303602Y-96317275D01*
X136301529Y-96315661D01*
X136301861Y-96315234D01*
X136258722Y-96264684D01*
X136257369Y-96261545D01*
X136232174Y-96200716D01*
X136232172Y-96200713D01*
X136232171Y-96200710D01*
X136214980Y-96174983D01*
X136214979Y-96174982D01*
X136149164Y-96076482D01*
X136149161Y-96076479D01*
X134942862Y-94870181D01*
X134909377Y-94808858D01*
X134914361Y-94739166D01*
X134956233Y-94683233D01*
X135021697Y-94658816D01*
X135030543Y-94658500D01*
X140198668Y-94658500D01*
X140239623Y-94665459D01*
G37*
%TD.AperFunction*%
%TA.AperFunction,Conductor*%
G36*
X132798829Y-82106132D02*
G01*
X132844584Y-82158936D01*
X132855790Y-82210447D01*
X132855790Y-82259447D01*
X134218662Y-83622319D01*
X134252147Y-83683642D01*
X134247163Y-83753334D01*
X134218662Y-83797681D01*
X132855790Y-85160552D01*
X132855790Y-85209553D01*
X132836105Y-85276592D01*
X132783301Y-85322347D01*
X132731790Y-85333553D01*
X132633790Y-85333553D01*
X132566751Y-85313868D01*
X132520996Y-85261064D01*
X132509790Y-85209553D01*
X132509790Y-85160553D01*
X131146918Y-83797681D01*
X131113433Y-83736358D01*
X131115318Y-83710000D01*
X131766343Y-83710000D01*
X132682790Y-84626447D01*
X133599237Y-83710000D01*
X132682790Y-82793553D01*
X131766343Y-83710000D01*
X131115318Y-83710000D01*
X131118417Y-83666666D01*
X131146918Y-83622319D01*
X132509789Y-82259447D01*
X132509790Y-82259446D01*
X132509790Y-82210447D01*
X132529475Y-82143408D01*
X132582279Y-82097653D01*
X132633790Y-82086447D01*
X132731790Y-82086447D01*
X132798829Y-82106132D01*
G37*
%TD.AperFunction*%
%TA.AperFunction,Conductor*%
G36*
X164484539Y-78578185D02*
G01*
X164530294Y-78630989D01*
X164541500Y-78682500D01*
X164541500Y-84046233D01*
X164521815Y-84113272D01*
X164469011Y-84159027D01*
X164399853Y-84168971D01*
X164336297Y-84139946D01*
X164329819Y-84133914D01*
X160403836Y-80207931D01*
X160403832Y-80207928D01*
X160300081Y-80138603D01*
X160300072Y-80138598D01*
X160184785Y-80090845D01*
X160184777Y-80090843D01*
X160062398Y-80066500D01*
X160062394Y-80066500D01*
X150137606Y-80066500D01*
X150137602Y-80066500D01*
X150015219Y-80090843D01*
X150015214Y-80090845D01*
X149981448Y-80104829D01*
X149981449Y-80104830D01*
X149899926Y-80138598D01*
X149899922Y-80138600D01*
X149796171Y-80207924D01*
X149796163Y-80207930D01*
X149137942Y-80866151D01*
X149076619Y-80899636D01*
X149064148Y-80901690D01*
X149018953Y-80906783D01*
X148846983Y-80966957D01*
X148692718Y-81063889D01*
X148563889Y-81192718D01*
X148466958Y-81346982D01*
X148406782Y-81518953D01*
X148406781Y-81518957D01*
X148397717Y-81599407D01*
X148370650Y-81663821D01*
X148313055Y-81703376D01*
X148290681Y-81708462D01*
X148226558Y-81716903D01*
X148226549Y-81716905D01*
X148080960Y-81777210D01*
X147998276Y-81840656D01*
X147933106Y-81865850D01*
X147864662Y-81851811D01*
X147847304Y-81840656D01*
X147764622Y-81777212D01*
X147764618Y-81777210D01*
X147764619Y-81777210D01*
X147619030Y-81716905D01*
X147619028Y-81716904D01*
X147502015Y-81701500D01*
X145803562Y-81701500D01*
X145686558Y-81716902D01*
X145686549Y-81716905D01*
X145540960Y-81777210D01*
X145458276Y-81840656D01*
X145393106Y-81865850D01*
X145324662Y-81851811D01*
X145307304Y-81840656D01*
X145224622Y-81777212D01*
X145224618Y-81777210D01*
X145224619Y-81777210D01*
X145079030Y-81716905D01*
X145079028Y-81716904D01*
X144962015Y-81701500D01*
X143263562Y-81701500D01*
X143146558Y-81716902D01*
X143146549Y-81716905D01*
X143000960Y-81777210D01*
X142918276Y-81840656D01*
X142853106Y-81865850D01*
X142784662Y-81851811D01*
X142767304Y-81840656D01*
X142684622Y-81777212D01*
X142684618Y-81777210D01*
X142684619Y-81777210D01*
X142539030Y-81716905D01*
X142539028Y-81716904D01*
X142422015Y-81701500D01*
X140723562Y-81701500D01*
X140606558Y-81716902D01*
X140606549Y-81716905D01*
X140460960Y-81777210D01*
X140378276Y-81840656D01*
X140313106Y-81865850D01*
X140244662Y-81851811D01*
X140227304Y-81840656D01*
X140144622Y-81777212D01*
X140144618Y-81777210D01*
X140144619Y-81777210D01*
X139999030Y-81716905D01*
X139999028Y-81716904D01*
X139882015Y-81701500D01*
X138183562Y-81701500D01*
X138066558Y-81716902D01*
X138066549Y-81716905D01*
X137920960Y-81777210D01*
X137838276Y-81840656D01*
X137773106Y-81865850D01*
X137704662Y-81851811D01*
X137687304Y-81840656D01*
X137604622Y-81777212D01*
X137604618Y-81777210D01*
X137604619Y-81777210D01*
X137459030Y-81716905D01*
X137459028Y-81716904D01*
X137342015Y-81701500D01*
X135643562Y-81701500D01*
X135526558Y-81716902D01*
X135526549Y-81716905D01*
X135380961Y-81777210D01*
X135380958Y-81777211D01*
X135380958Y-81777212D01*
X135347109Y-81803185D01*
X135291294Y-81846013D01*
X135226125Y-81871206D01*
X135157680Y-81857167D01*
X135140323Y-81846012D01*
X135060336Y-81784636D01*
X135060331Y-81784633D01*
X134916814Y-81725187D01*
X134916809Y-81725185D01*
X134801461Y-81710000D01*
X133104119Y-81710000D01*
X132988770Y-81725185D01*
X132988765Y-81725187D01*
X132845248Y-81784633D01*
X132845247Y-81784633D01*
X132758277Y-81851369D01*
X132693107Y-81876563D01*
X132624663Y-81862525D01*
X132607303Y-81851369D01*
X132520331Y-81784633D01*
X132376814Y-81725187D01*
X132376809Y-81725185D01*
X132261461Y-81710000D01*
X130564119Y-81710000D01*
X130448770Y-81725185D01*
X130448765Y-81725187D01*
X130305248Y-81784633D01*
X130305243Y-81784636D01*
X130225256Y-81846012D01*
X130160086Y-81871206D01*
X130091642Y-81857167D01*
X130074284Y-81846012D01*
X130067304Y-81840656D01*
X129984622Y-81777212D01*
X129984618Y-81777210D01*
X129984619Y-81777210D01*
X129839030Y-81716905D01*
X129839028Y-81716904D01*
X129722015Y-81701500D01*
X128023562Y-81701500D01*
X127906558Y-81716902D01*
X127906549Y-81716905D01*
X127760960Y-81777210D01*
X127678276Y-81840656D01*
X127613106Y-81865850D01*
X127544662Y-81851811D01*
X127527304Y-81840656D01*
X127444622Y-81777212D01*
X127444618Y-81777210D01*
X127444619Y-81777210D01*
X127299030Y-81716905D01*
X127299028Y-81716904D01*
X127182015Y-81701500D01*
X125483562Y-81701500D01*
X125366558Y-81716902D01*
X125366549Y-81716905D01*
X125220960Y-81777210D01*
X125138276Y-81840656D01*
X125073106Y-81865850D01*
X125004662Y-81851811D01*
X124987304Y-81840656D01*
X124904622Y-81777212D01*
X124904618Y-81777210D01*
X124904619Y-81777210D01*
X124759030Y-81716905D01*
X124759028Y-81716904D01*
X124672506Y-81705514D01*
X124608609Y-81677248D01*
X124570138Y-81618923D01*
X124569307Y-81549058D01*
X124601010Y-81494894D01*
X124982289Y-81113616D01*
X125376086Y-80719819D01*
X125437409Y-80686334D01*
X125463767Y-80683500D01*
X126802840Y-80683500D01*
X126868812Y-80702507D01*
X126996977Y-80783039D01*
X126996980Y-80783041D01*
X126996984Y-80783042D01*
X126996985Y-80783043D01*
X127078091Y-80811423D01*
X127168953Y-80843217D01*
X127168958Y-80843218D01*
X127349996Y-80863616D01*
X127350000Y-80863616D01*
X127350004Y-80863616D01*
X127531041Y-80843218D01*
X127531044Y-80843217D01*
X127531047Y-80843217D01*
X127703015Y-80783043D01*
X127857281Y-80686111D01*
X127986111Y-80557281D01*
X128083043Y-80403015D01*
X128143217Y-80231047D01*
X128145822Y-80207931D01*
X128150251Y-80168618D01*
X128177317Y-80104204D01*
X128234911Y-80064648D01*
X128273471Y-80058500D01*
X135765272Y-80058500D01*
X135832311Y-80078185D01*
X135862215Y-80105182D01*
X135863889Y-80107281D01*
X135992719Y-80236111D01*
X136146985Y-80333043D01*
X136318953Y-80393217D01*
X136318958Y-80393218D01*
X136499996Y-80413616D01*
X136500000Y-80413616D01*
X136500004Y-80413616D01*
X136681041Y-80393218D01*
X136681044Y-80393217D01*
X136681047Y-80393217D01*
X136853015Y-80333043D01*
X137007281Y-80236111D01*
X137136111Y-80107281D01*
X137233043Y-79953015D01*
X137293217Y-79781047D01*
X137308322Y-79646985D01*
X137313616Y-79600003D01*
X137313616Y-79599999D01*
X137307810Y-79548472D01*
X137306591Y-79537655D01*
X137318645Y-79468837D01*
X137365993Y-79417457D01*
X137415929Y-79400554D01*
X137481041Y-79393218D01*
X137481044Y-79393217D01*
X137481047Y-79393217D01*
X137653015Y-79333043D01*
X137807281Y-79236111D01*
X137936111Y-79107281D01*
X138033043Y-78953015D01*
X138033044Y-78953011D01*
X138036064Y-78946741D01*
X138038116Y-78947729D01*
X138060252Y-78912427D01*
X138377863Y-78594816D01*
X138439185Y-78561334D01*
X138465543Y-78558500D01*
X164417500Y-78558500D01*
X164484539Y-78578185D01*
G37*
%TD.AperFunction*%
%TA.AperFunction,Conductor*%
G36*
X116144694Y-71353185D02*
G01*
X116190449Y-71405989D01*
X116200875Y-71471383D01*
X116186384Y-71599996D01*
X116186384Y-71600003D01*
X116206781Y-71781041D01*
X116206782Y-71781046D01*
X116234900Y-71861401D01*
X116260128Y-71933500D01*
X116266958Y-71953017D01*
X116301055Y-72007281D01*
X116349171Y-72083858D01*
X116367594Y-72113177D01*
X116364997Y-72114808D01*
X116386259Y-72166948D01*
X116373474Y-72235638D01*
X116367902Y-72245479D01*
X116366959Y-72246980D01*
X116306782Y-72418953D01*
X116306781Y-72418958D01*
X116286384Y-72599996D01*
X116286384Y-72600003D01*
X116306781Y-72781041D01*
X116306782Y-72781046D01*
X116366958Y-72953017D01*
X116463889Y-73107281D01*
X116488346Y-73131738D01*
X116521831Y-73193061D01*
X116516847Y-73262753D01*
X116505659Y-73285391D01*
X116466957Y-73346984D01*
X116406782Y-73518953D01*
X116406781Y-73518958D01*
X116386384Y-73699996D01*
X116386384Y-73699997D01*
X116388123Y-73715434D01*
X116376066Y-73784256D01*
X116328716Y-73835634D01*
X116305858Y-73846356D01*
X116246983Y-73866957D01*
X116246982Y-73866958D01*
X116092718Y-73963889D01*
X115963889Y-74092718D01*
X115866958Y-74246982D01*
X115806782Y-74418953D01*
X115806781Y-74418958D01*
X115786384Y-74599996D01*
X115786384Y-74600003D01*
X115807061Y-74783521D01*
X115795006Y-74852343D01*
X115771523Y-74885085D01*
X115663888Y-74992720D01*
X115566958Y-75146982D01*
X115506782Y-75318953D01*
X115506781Y-75318958D01*
X115486384Y-75499996D01*
X115486384Y-75500003D01*
X115506781Y-75681041D01*
X115506782Y-75681046D01*
X115566958Y-75853017D01*
X115630925Y-75954819D01*
X115663889Y-76007281D01*
X115792719Y-76136111D01*
X115946985Y-76233043D01*
X116082090Y-76280318D01*
X116125526Y-76295517D01*
X116124691Y-76297901D01*
X116175480Y-76326312D01*
X116202218Y-76375266D01*
X116204483Y-76374474D01*
X116206783Y-76381047D01*
X116266957Y-76553015D01*
X116363889Y-76707281D01*
X116492719Y-76836111D01*
X116646985Y-76933043D01*
X116818953Y-76993217D01*
X116818958Y-76993218D01*
X116999996Y-77013616D01*
X117000000Y-77013616D01*
X117000004Y-77013616D01*
X117181041Y-76993218D01*
X117181044Y-76993217D01*
X117181047Y-76993217D01*
X117353015Y-76933043D01*
X117353017Y-76933041D01*
X117353019Y-76933041D01*
X117353022Y-76933039D01*
X117481188Y-76852507D01*
X117547160Y-76833500D01*
X123262395Y-76833500D01*
X123262396Y-76833499D01*
X123384785Y-76809155D01*
X123500075Y-76761400D01*
X123603833Y-76692071D01*
X123754821Y-76541082D01*
X123816141Y-76507599D01*
X123885833Y-76512583D01*
X123941767Y-76554454D01*
X123966184Y-76619918D01*
X123966500Y-76628765D01*
X123966500Y-76986162D01*
X123946815Y-77053201D01*
X123908472Y-77091156D01*
X123792719Y-77163888D01*
X123663890Y-77292717D01*
X123566959Y-77446981D01*
X123506783Y-77618952D01*
X123506782Y-77618957D01*
X123494116Y-77731383D01*
X123467050Y-77795797D01*
X123409455Y-77835352D01*
X123370896Y-77841500D01*
X121925290Y-77841500D01*
X121852024Y-77856074D01*
X121778760Y-77870647D01*
X121778748Y-77870650D01*
X121640721Y-77927822D01*
X121640708Y-77927829D01*
X121516485Y-78010833D01*
X121372508Y-78154810D01*
X121311185Y-78188294D01*
X121241493Y-78183310D01*
X121213322Y-78167363D01*
X121213177Y-78167594D01*
X121208152Y-78164436D01*
X121207515Y-78164076D01*
X121207280Y-78163888D01*
X121053017Y-78066958D01*
X121053016Y-78066957D01*
X121053015Y-78066957D01*
X120998693Y-78047949D01*
X120881046Y-78006782D01*
X120881041Y-78006781D01*
X120700004Y-77986384D01*
X120699996Y-77986384D01*
X120518958Y-78006781D01*
X120518953Y-78006782D01*
X120346982Y-78066958D01*
X120192718Y-78163889D01*
X120063889Y-78292718D01*
X119966957Y-78446983D01*
X119906784Y-78618949D01*
X119906526Y-78620084D01*
X119906156Y-78620743D01*
X119904484Y-78625525D01*
X119903646Y-78625232D01*
X119872421Y-78681065D01*
X119810761Y-78713926D01*
X119785633Y-78716499D01*
X119537555Y-78716499D01*
X119470516Y-78696814D01*
X119424761Y-78644010D01*
X119414335Y-78606382D01*
X119413615Y-78599996D01*
X119406116Y-78533434D01*
X119393218Y-78418958D01*
X119393217Y-78418953D01*
X119393216Y-78418950D01*
X119333043Y-78246985D01*
X119236111Y-78092719D01*
X119107281Y-77963889D01*
X119049881Y-77927822D01*
X118953017Y-77866958D01*
X118953016Y-77866957D01*
X118953015Y-77866957D01*
X118862693Y-77835352D01*
X118781046Y-77806782D01*
X118781041Y-77806781D01*
X118600004Y-77786384D01*
X118599996Y-77786384D01*
X118418958Y-77806781D01*
X118418953Y-77806782D01*
X118246980Y-77866958D01*
X118246977Y-77866960D01*
X118118812Y-77947493D01*
X118052840Y-77966500D01*
X112413766Y-77966500D01*
X112346727Y-77946815D01*
X112326085Y-77930181D01*
X111635755Y-77239851D01*
X111602270Y-77178528D01*
X111607254Y-77108836D01*
X111649126Y-77052903D01*
X111657875Y-77047714D01*
X111657521Y-77047150D01*
X111721764Y-77006783D01*
X111817683Y-76946513D01*
X111946513Y-76817683D01*
X112043445Y-76663417D01*
X112103619Y-76491449D01*
X112108711Y-76446253D01*
X112135776Y-76381841D01*
X112144240Y-76372466D01*
X112717071Y-75799637D01*
X112786400Y-75695879D01*
X112834155Y-75580589D01*
X112858500Y-75458198D01*
X112858500Y-75333410D01*
X112858500Y-72411833D01*
X112878185Y-72344794D01*
X112930989Y-72299039D01*
X113000147Y-72289095D01*
X113012089Y-72292014D01*
X113012169Y-72291668D01*
X113018946Y-72293214D01*
X113018953Y-72293217D01*
X113018960Y-72293217D01*
X113018961Y-72293218D01*
X113199996Y-72313616D01*
X113200000Y-72313616D01*
X113200004Y-72313616D01*
X113381041Y-72293218D01*
X113381044Y-72293217D01*
X113381047Y-72293217D01*
X113553015Y-72233043D01*
X113707281Y-72136111D01*
X113836111Y-72007281D01*
X113933043Y-71853015D01*
X113993217Y-71681047D01*
X113998309Y-71635851D01*
X114025374Y-71571439D01*
X114033828Y-71562074D01*
X114226086Y-71369816D01*
X114287409Y-71336334D01*
X114313766Y-71333500D01*
X116077655Y-71333500D01*
X116144694Y-71353185D01*
G37*
%TD.AperFunction*%
%TA.AperFunction,Conductor*%
G36*
X148038829Y-61346132D02*
G01*
X148084584Y-61398936D01*
X148095790Y-61450447D01*
X148095790Y-61499447D01*
X149458662Y-62862319D01*
X149492147Y-62923642D01*
X149487163Y-62993334D01*
X149458662Y-63037681D01*
X148095790Y-64400552D01*
X148095790Y-64449553D01*
X148076105Y-64516592D01*
X148023301Y-64562347D01*
X147971790Y-64573553D01*
X147873790Y-64573553D01*
X147806751Y-64553868D01*
X147760996Y-64501064D01*
X147749790Y-64449553D01*
X147749790Y-64400553D01*
X146386918Y-63037681D01*
X146353433Y-62976358D01*
X146355318Y-62950000D01*
X147006343Y-62950000D01*
X147922790Y-63866447D01*
X148839237Y-62950000D01*
X147922790Y-62033553D01*
X147006343Y-62950000D01*
X146355318Y-62950000D01*
X146358417Y-62906666D01*
X146386918Y-62862319D01*
X147749789Y-61499447D01*
X147749790Y-61499446D01*
X147749790Y-61450447D01*
X147769475Y-61383408D01*
X147822279Y-61337653D01*
X147873790Y-61326447D01*
X147971790Y-61326447D01*
X148038829Y-61346132D01*
G37*
%TD.AperFunction*%
%TA.AperFunction,Conductor*%
G36*
X163484404Y-46755185D02*
G01*
X163505046Y-46771819D01*
X165928181Y-49194954D01*
X165961666Y-49256277D01*
X165964500Y-49282635D01*
X165964500Y-59344982D01*
X165964500Y-59375018D01*
X165975994Y-59402767D01*
X165975995Y-59402768D01*
X168468181Y-61894954D01*
X168501666Y-61956277D01*
X168504500Y-61982635D01*
X168504500Y-96107364D01*
X168484815Y-96174403D01*
X168468181Y-96195045D01*
X165997233Y-98665994D01*
X165975995Y-98687231D01*
X165964500Y-98714982D01*
X165964500Y-99231907D01*
X165963903Y-99244062D01*
X165952505Y-99359778D01*
X165947763Y-99383618D01*
X165917832Y-99482290D01*
X165915789Y-99489024D01*
X165906486Y-99511482D01*
X165854561Y-99608627D01*
X165841056Y-99628839D01*
X165771176Y-99713988D01*
X165753988Y-99731176D01*
X165668839Y-99801056D01*
X165648627Y-99814561D01*
X165551482Y-99866486D01*
X165529028Y-99875787D01*
X165487028Y-99888528D01*
X165423618Y-99907763D01*
X165399778Y-99912505D01*
X165291162Y-99923203D01*
X165284060Y-99923903D01*
X165271907Y-99924500D01*
X100768093Y-99924500D01*
X100755939Y-99923903D01*
X100747995Y-99923120D01*
X100640221Y-99912505D01*
X100616381Y-99907763D01*
X100599445Y-99902625D01*
X100510968Y-99875786D01*
X100488517Y-99866486D01*
X100391372Y-99814561D01*
X100371160Y-99801056D01*
X100286011Y-99731176D01*
X100268823Y-99713988D01*
X100198943Y-99628839D01*
X100185438Y-99608627D01*
X100133510Y-99511476D01*
X100124215Y-99489037D01*
X100092234Y-99383612D01*
X100087494Y-99359777D01*
X100076097Y-99244061D01*
X100075500Y-99231907D01*
X100075500Y-96800000D01*
X105920898Y-96800000D01*
X107234314Y-96800000D01*
X107229920Y-96804394D01*
X107177259Y-96895606D01*
X107150000Y-96997339D01*
X107150000Y-97102661D01*
X107177259Y-97204394D01*
X107229920Y-97295606D01*
X107234314Y-97300000D01*
X105920898Y-97300000D01*
X105936934Y-97401247D01*
X106009897Y-97625802D01*
X106117085Y-97836171D01*
X106255866Y-98027186D01*
X106422813Y-98194133D01*
X106613828Y-98332914D01*
X106824197Y-98440102D01*
X107048752Y-98513065D01*
X107048751Y-98513065D01*
X107281948Y-98550000D01*
X108150000Y-98550000D01*
X108150000Y-97450000D01*
X108650000Y-97450000D01*
X108650000Y-98550000D01*
X109518052Y-98550000D01*
X109751247Y-98513065D01*
X109975802Y-98440102D01*
X110186171Y-98332914D01*
X110377186Y-98194133D01*
X110544133Y-98027186D01*
X110682914Y-97836171D01*
X110790102Y-97625802D01*
X110863065Y-97401247D01*
X110879102Y-97300000D01*
X109565686Y-97300000D01*
X109570080Y-97295606D01*
X109622741Y-97204394D01*
X109650000Y-97102661D01*
X109650000Y-96997339D01*
X109622741Y-96895606D01*
X109570080Y-96804394D01*
X109565686Y-96800000D01*
X110879102Y-96800000D01*
X110863065Y-96698752D01*
X110790102Y-96474197D01*
X110682914Y-96263828D01*
X110544133Y-96072813D01*
X110377186Y-95905866D01*
X110186171Y-95767085D01*
X109975802Y-95659897D01*
X109751247Y-95586934D01*
X109751248Y-95586934D01*
X109518052Y-95550000D01*
X108650000Y-95550000D01*
X108650000Y-96650000D01*
X108150000Y-96650000D01*
X108150000Y-95550000D01*
X107281948Y-95550000D01*
X107048752Y-95586934D01*
X106824197Y-95659897D01*
X106613828Y-95767085D01*
X106422813Y-95905866D01*
X106255866Y-96072813D01*
X106117085Y-96263828D01*
X106009897Y-96474197D01*
X105936934Y-96698752D01*
X105920898Y-96800000D01*
X100075500Y-96800000D01*
X100075500Y-91281947D01*
X103400000Y-91281947D01*
X103400000Y-92150000D01*
X104500000Y-92150000D01*
X104500000Y-92650000D01*
X103400000Y-92650000D01*
X103400000Y-93518052D01*
X103436934Y-93751247D01*
X103509897Y-93975802D01*
X103617085Y-94186171D01*
X103755866Y-94377186D01*
X103922813Y-94544133D01*
X104113828Y-94682914D01*
X104324195Y-94790102D01*
X104548744Y-94863063D01*
X104548750Y-94863065D01*
X104650000Y-94879101D01*
X104650000Y-93815686D01*
X104654394Y-93820080D01*
X104745606Y-93872741D01*
X104847339Y-93900000D01*
X104952661Y-93900000D01*
X105054394Y-93872741D01*
X105145606Y-93820080D01*
X105150000Y-93815686D01*
X105150000Y-94879100D01*
X105251249Y-94863065D01*
X105251255Y-94863063D01*
X105475804Y-94790102D01*
X105686171Y-94682914D01*
X105877186Y-94544133D01*
X106044133Y-94377186D01*
X106182914Y-94186171D01*
X106290102Y-93975802D01*
X106363065Y-93751247D01*
X106400000Y-93518052D01*
X106400000Y-92650000D01*
X105300000Y-92650000D01*
X105300000Y-92150000D01*
X106400000Y-92150000D01*
X106400000Y-91281947D01*
X106363065Y-91048752D01*
X106290102Y-90824197D01*
X106182914Y-90613828D01*
X106044133Y-90422813D01*
X105877186Y-90255866D01*
X105686171Y-90117085D01*
X105655279Y-90101345D01*
X109391500Y-90101345D01*
X109391500Y-94698654D01*
X109398011Y-94759202D01*
X109398011Y-94759204D01*
X109439405Y-94870181D01*
X109449111Y-94896204D01*
X109536739Y-95013261D01*
X109653796Y-95100889D01*
X109790799Y-95151989D01*
X109818050Y-95154918D01*
X109851345Y-95158499D01*
X109851362Y-95158500D01*
X111948638Y-95158500D01*
X111948654Y-95158499D01*
X111975692Y-95155591D01*
X112009201Y-95151989D01*
X112146204Y-95100889D01*
X112263261Y-95013261D01*
X112350889Y-94896204D01*
X112401989Y-94759201D01*
X112402770Y-94751933D01*
X112420152Y-94709968D01*
X112423519Y-94698503D01*
X112425675Y-94696634D01*
X112429506Y-94687386D01*
X112463946Y-94663472D01*
X112476323Y-94652748D01*
X112480193Y-94652191D01*
X112486898Y-94647536D01*
X112532352Y-94644691D01*
X112545481Y-94642804D01*
X112550041Y-94643584D01*
X112550246Y-94643572D01*
X112551977Y-94643916D01*
X112551992Y-94643918D01*
X112552024Y-94643925D01*
X112625294Y-94658500D01*
X112625295Y-94658500D01*
X112774705Y-94658500D01*
X129574838Y-94658500D01*
X129641877Y-94678185D01*
X129687632Y-94730989D01*
X129698058Y-94796383D01*
X129686384Y-94899996D01*
X129686384Y-94900003D01*
X129706781Y-95081041D01*
X129706782Y-95081046D01*
X129733885Y-95158500D01*
X129766957Y-95253015D01*
X129863889Y-95407281D01*
X129992719Y-95536111D01*
X130146985Y-95633043D01*
X130318947Y-95693215D01*
X130318953Y-95693217D01*
X130318958Y-95693218D01*
X130499996Y-95713616D01*
X130500000Y-95713616D01*
X130500004Y-95713616D01*
X130681041Y-95693218D01*
X130681043Y-95693217D01*
X130681047Y-95693217D01*
X130681050Y-95693215D01*
X130681054Y-95693215D01*
X130760377Y-95665459D01*
X130801332Y-95658500D01*
X133534457Y-95658500D01*
X133601496Y-95678185D01*
X133622138Y-95694819D01*
X134439065Y-96511746D01*
X134472550Y-96573069D01*
X134467566Y-96642761D01*
X134455193Y-96667248D01*
X134393808Y-96761205D01*
X134340661Y-96806562D01*
X134271430Y-96815986D01*
X134208094Y-96786484D01*
X134186191Y-96761206D01*
X134095722Y-96622732D01*
X134095717Y-96622727D01*
X134095715Y-96622723D01*
X133943243Y-96457097D01*
X133943238Y-96457092D01*
X133823371Y-96363795D01*
X133765576Y-96318811D01*
X133765575Y-96318810D01*
X133765572Y-96318808D01*
X133567580Y-96211661D01*
X133567577Y-96211659D01*
X133567574Y-96211658D01*
X133567571Y-96211657D01*
X133567569Y-96211656D01*
X133354637Y-96138556D01*
X133132569Y-96101500D01*
X132907431Y-96101500D01*
X132685362Y-96138556D01*
X132472430Y-96211656D01*
X132472419Y-96211661D01*
X132274427Y-96318808D01*
X132274422Y-96318812D01*
X132096761Y-96457092D01*
X132096756Y-96457097D01*
X131944284Y-96622723D01*
X131944276Y-96622734D01*
X131853808Y-96761206D01*
X131800662Y-96806562D01*
X131731431Y-96815986D01*
X131668095Y-96786484D01*
X131646192Y-96761206D01*
X131573537Y-96650000D01*
X131555722Y-96622732D01*
X131555719Y-96622729D01*
X131555715Y-96622723D01*
X131403243Y-96457097D01*
X131403238Y-96457092D01*
X131283371Y-96363795D01*
X131225576Y-96318811D01*
X131225575Y-96318810D01*
X131225572Y-96318808D01*
X131027580Y-96211661D01*
X131027577Y-96211659D01*
X131027574Y-96211658D01*
X131027571Y-96211657D01*
X131027569Y-96211656D01*
X130814637Y-96138556D01*
X130592569Y-96101500D01*
X130367431Y-96101500D01*
X130145362Y-96138556D01*
X129932430Y-96211656D01*
X129932419Y-96211661D01*
X129734427Y-96318808D01*
X129734422Y-96318812D01*
X129556761Y-96457092D01*
X129493548Y-96525760D01*
X129433661Y-96561750D01*
X129363823Y-96559649D01*
X129306207Y-96520124D01*
X129286138Y-96485110D01*
X129240889Y-96363796D01*
X129240888Y-96363795D01*
X129153261Y-96246739D01*
X129036204Y-96159111D01*
X128981103Y-96138559D01*
X128899203Y-96108011D01*
X128838654Y-96101500D01*
X128838638Y-96101500D01*
X127041362Y-96101500D01*
X127041345Y-96101500D01*
X126980797Y-96108011D01*
X126980795Y-96108011D01*
X126843795Y-96159111D01*
X126726739Y-96246739D01*
X126639111Y-96363795D01*
X126588011Y-96500795D01*
X126588011Y-96500797D01*
X126581500Y-96561345D01*
X126581500Y-98358654D01*
X126588011Y-98419202D01*
X126588011Y-98419204D01*
X126636797Y-98550000D01*
X126639111Y-98556204D01*
X126726739Y-98673261D01*
X126843796Y-98760889D01*
X126980799Y-98811989D01*
X127008050Y-98814918D01*
X127041345Y-98818499D01*
X127041362Y-98818500D01*
X128838638Y-98818500D01*
X128838654Y-98818499D01*
X128865692Y-98815591D01*
X128899201Y-98811989D01*
X129036204Y-98760889D01*
X129153261Y-98673261D01*
X129240889Y-98556204D01*
X129286138Y-98434887D01*
X129328009Y-98378956D01*
X129393474Y-98354539D01*
X129461746Y-98369391D01*
X129493545Y-98394236D01*
X129556760Y-98462906D01*
X129734424Y-98601189D01*
X129734425Y-98601189D01*
X129734427Y-98601191D01*
X129861135Y-98669761D01*
X129932426Y-98708342D01*
X130145365Y-98781444D01*
X130367431Y-98818500D01*
X130592569Y-98818500D01*
X130814635Y-98781444D01*
X131027574Y-98708342D01*
X131225576Y-98601189D01*
X131403240Y-98462906D01*
X131524594Y-98331082D01*
X131555715Y-98297276D01*
X131555715Y-98297275D01*
X131555722Y-98297268D01*
X131646193Y-98158790D01*
X131699338Y-98113437D01*
X131768569Y-98104013D01*
X131831905Y-98133515D01*
X131853804Y-98158787D01*
X131944278Y-98297268D01*
X131944283Y-98297273D01*
X131944284Y-98297276D01*
X132070968Y-98434889D01*
X132096760Y-98462906D01*
X132274424Y-98601189D01*
X132274425Y-98601189D01*
X132274427Y-98601191D01*
X132401135Y-98669761D01*
X132472426Y-98708342D01*
X132685365Y-98781444D01*
X132907431Y-98818500D01*
X133132569Y-98818500D01*
X133354635Y-98781444D01*
X133567574Y-98708342D01*
X133765576Y-98601189D01*
X133943240Y-98462906D01*
X134064594Y-98331082D01*
X134095715Y-98297276D01*
X134095715Y-98297275D01*
X134095722Y-98297268D01*
X134186193Y-98158790D01*
X134239338Y-98113437D01*
X134308569Y-98104013D01*
X134371905Y-98133515D01*
X134393804Y-98158787D01*
X134484278Y-98297268D01*
X134484283Y-98297273D01*
X134484284Y-98297276D01*
X134610968Y-98434889D01*
X134636760Y-98462906D01*
X134814424Y-98601189D01*
X134814425Y-98601189D01*
X134814427Y-98601191D01*
X134941135Y-98669761D01*
X135012426Y-98708342D01*
X135225365Y-98781444D01*
X135447431Y-98818500D01*
X135672569Y-98818500D01*
X135894635Y-98781444D01*
X136107574Y-98708342D01*
X136305576Y-98601189D01*
X136483240Y-98462906D01*
X136604594Y-98331082D01*
X136635715Y-98297276D01*
X136635715Y-98297275D01*
X136635722Y-98297268D01*
X136726193Y-98158790D01*
X136779338Y-98113437D01*
X136848569Y-98104013D01*
X136911905Y-98133515D01*
X136933804Y-98158787D01*
X137024278Y-98297268D01*
X137024283Y-98297273D01*
X137024284Y-98297276D01*
X137150968Y-98434889D01*
X137176760Y-98462906D01*
X137354424Y-98601189D01*
X137354425Y-98601189D01*
X137354427Y-98601191D01*
X137481135Y-98669761D01*
X137552426Y-98708342D01*
X137765365Y-98781444D01*
X137987431Y-98818500D01*
X138212569Y-98818500D01*
X138434635Y-98781444D01*
X138647574Y-98708342D01*
X138845576Y-98601189D01*
X139023240Y-98462906D01*
X139144594Y-98331082D01*
X139175715Y-98297276D01*
X139175715Y-98297275D01*
X139175722Y-98297268D01*
X139269749Y-98153347D01*
X139322894Y-98107994D01*
X139392125Y-98098570D01*
X139455461Y-98128072D01*
X139475130Y-98150048D01*
X139601890Y-98331078D01*
X139768917Y-98498105D01*
X139962421Y-98633600D01*
X140176507Y-98733429D01*
X140176516Y-98733433D01*
X140390000Y-98790634D01*
X140390000Y-97893012D01*
X140447007Y-97925925D01*
X140574174Y-97960000D01*
X140705826Y-97960000D01*
X140832993Y-97925925D01*
X140890000Y-97893012D01*
X140890000Y-98790633D01*
X141103483Y-98733433D01*
X141103492Y-98733429D01*
X141317578Y-98633600D01*
X141511082Y-98498105D01*
X141678105Y-98331082D01*
X141808425Y-98144968D01*
X141863002Y-98101344D01*
X141932501Y-98094151D01*
X141994855Y-98125673D01*
X142011575Y-98144968D01*
X142141894Y-98331082D01*
X142308917Y-98498105D01*
X142502421Y-98633600D01*
X142716507Y-98733429D01*
X142716516Y-98733433D01*
X142930000Y-98790634D01*
X142930000Y-97893012D01*
X142987007Y-97925925D01*
X143114174Y-97960000D01*
X143245826Y-97960000D01*
X143372993Y-97925925D01*
X143430000Y-97893012D01*
X143430000Y-98790633D01*
X143643483Y-98733433D01*
X143643492Y-98733429D01*
X143857578Y-98633600D01*
X144051082Y-98498105D01*
X144218105Y-98331082D01*
X144344868Y-98150048D01*
X144399445Y-98106423D01*
X144468944Y-98099231D01*
X144531298Y-98130753D01*
X144550251Y-98153350D01*
X144644276Y-98297265D01*
X144644284Y-98297276D01*
X144770968Y-98434889D01*
X144796760Y-98462906D01*
X144974424Y-98601189D01*
X144974425Y-98601189D01*
X144974427Y-98601191D01*
X145101135Y-98669761D01*
X145172426Y-98708342D01*
X145385365Y-98781444D01*
X145607431Y-98818500D01*
X145832569Y-98818500D01*
X146054635Y-98781444D01*
X146267574Y-98708342D01*
X146465576Y-98601189D01*
X146643240Y-98462906D01*
X146764594Y-98331082D01*
X146795715Y-98297276D01*
X146795717Y-98297273D01*
X146795722Y-98297268D01*
X146918860Y-98108791D01*
X147009296Y-97902616D01*
X147064564Y-97684368D01*
X147069417Y-97625802D01*
X147083156Y-97460005D01*
X147083156Y-97459994D01*
X147064565Y-97235640D01*
X147064563Y-97235628D01*
X147009296Y-97017385D01*
X147000503Y-96997339D01*
X146918860Y-96811209D01*
X146902706Y-96786484D01*
X146813537Y-96650000D01*
X146795722Y-96622732D01*
X146795719Y-96622729D01*
X146795715Y-96622723D01*
X146739212Y-96561345D01*
X149441500Y-96561345D01*
X149441500Y-98358654D01*
X149448011Y-98419202D01*
X149448011Y-98419204D01*
X149496797Y-98550000D01*
X149499111Y-98556204D01*
X149586739Y-98673261D01*
X149703796Y-98760889D01*
X149840799Y-98811989D01*
X149868050Y-98814918D01*
X149901345Y-98818499D01*
X149901362Y-98818500D01*
X151698638Y-98818500D01*
X151698654Y-98818499D01*
X151725692Y-98815591D01*
X151759201Y-98811989D01*
X151896204Y-98760889D01*
X152013261Y-98673261D01*
X152100889Y-98556204D01*
X152146138Y-98434887D01*
X152188009Y-98378956D01*
X152253474Y-98354539D01*
X152321746Y-98369391D01*
X152353545Y-98394236D01*
X152416760Y-98462906D01*
X152594424Y-98601189D01*
X152594425Y-98601189D01*
X152594427Y-98601191D01*
X152721135Y-98669761D01*
X152792426Y-98708342D01*
X153005365Y-98781444D01*
X153227431Y-98818500D01*
X153452569Y-98818500D01*
X153674635Y-98781444D01*
X153887574Y-98708342D01*
X154085576Y-98601189D01*
X154263240Y-98462906D01*
X154384594Y-98331082D01*
X154415715Y-98297276D01*
X154415715Y-98297275D01*
X154415722Y-98297268D01*
X154506193Y-98158790D01*
X154559338Y-98113437D01*
X154628569Y-98104013D01*
X154691905Y-98133515D01*
X154713804Y-98158787D01*
X154804278Y-98297268D01*
X154804283Y-98297273D01*
X154804284Y-98297276D01*
X154930968Y-98434889D01*
X154956760Y-98462906D01*
X155134424Y-98601189D01*
X155134425Y-98601189D01*
X155134427Y-98601191D01*
X155261135Y-98669761D01*
X155332426Y-98708342D01*
X155545365Y-98781444D01*
X155767431Y-98818500D01*
X155992569Y-98818500D01*
X156214635Y-98781444D01*
X156427574Y-98708342D01*
X156625576Y-98601189D01*
X156803240Y-98462906D01*
X156924594Y-98331082D01*
X156955715Y-98297276D01*
X156955715Y-98297275D01*
X156955722Y-98297268D01*
X157046193Y-98158790D01*
X157099338Y-98113437D01*
X157168569Y-98104013D01*
X157231905Y-98133515D01*
X157253804Y-98158787D01*
X157344278Y-98297268D01*
X157344283Y-98297273D01*
X157344284Y-98297276D01*
X157470968Y-98434889D01*
X157496760Y-98462906D01*
X157674424Y-98601189D01*
X157674425Y-98601189D01*
X157674427Y-98601191D01*
X157801135Y-98669761D01*
X157872426Y-98708342D01*
X158085365Y-98781444D01*
X158307431Y-98818500D01*
X158532569Y-98818500D01*
X158754635Y-98781444D01*
X158967574Y-98708342D01*
X159165576Y-98601189D01*
X159343240Y-98462906D01*
X159464594Y-98331082D01*
X159495715Y-98297276D01*
X159495715Y-98297275D01*
X159495722Y-98297268D01*
X159586193Y-98158790D01*
X159639338Y-98113437D01*
X159708569Y-98104013D01*
X159771905Y-98133515D01*
X159793804Y-98158787D01*
X159884278Y-98297268D01*
X159884283Y-98297273D01*
X159884284Y-98297276D01*
X160010968Y-98434889D01*
X160036760Y-98462906D01*
X160214424Y-98601189D01*
X160214425Y-98601189D01*
X160214427Y-98601191D01*
X160341135Y-98669761D01*
X160412426Y-98708342D01*
X160625365Y-98781444D01*
X160847431Y-98818500D01*
X161072569Y-98818500D01*
X161294635Y-98781444D01*
X161507574Y-98708342D01*
X161705576Y-98601189D01*
X161883240Y-98462906D01*
X162004594Y-98331082D01*
X162035715Y-98297276D01*
X162035715Y-98297275D01*
X162035722Y-98297268D01*
X162126193Y-98158790D01*
X162179338Y-98113437D01*
X162248569Y-98104013D01*
X162311905Y-98133515D01*
X162333804Y-98158787D01*
X162424278Y-98297268D01*
X162424283Y-98297273D01*
X162424284Y-98297276D01*
X162550968Y-98434889D01*
X162576760Y-98462906D01*
X162754424Y-98601189D01*
X162754425Y-98601189D01*
X162754427Y-98601191D01*
X162881135Y-98669761D01*
X162952426Y-98708342D01*
X163165365Y-98781444D01*
X163387431Y-98818500D01*
X163612569Y-98818500D01*
X163834635Y-98781444D01*
X164047574Y-98708342D01*
X164245576Y-98601189D01*
X164423240Y-98462906D01*
X164544594Y-98331082D01*
X164575715Y-98297276D01*
X164575717Y-98297273D01*
X164575722Y-98297268D01*
X164698860Y-98108791D01*
X164789296Y-97902616D01*
X164844564Y-97684368D01*
X164849417Y-97625802D01*
X164863156Y-97460005D01*
X164863156Y-97459994D01*
X164844565Y-97235640D01*
X164844563Y-97235628D01*
X164789296Y-97017385D01*
X164780503Y-96997339D01*
X164698860Y-96811209D01*
X164682706Y-96786484D01*
X164593537Y-96650000D01*
X164575722Y-96622732D01*
X164575719Y-96622729D01*
X164575715Y-96622723D01*
X164423243Y-96457097D01*
X164423238Y-96457092D01*
X164303371Y-96363795D01*
X164245576Y-96318811D01*
X164245575Y-96318810D01*
X164245572Y-96318808D01*
X164047580Y-96211661D01*
X164047577Y-96211659D01*
X164047574Y-96211658D01*
X164047571Y-96211657D01*
X164047569Y-96211656D01*
X163834637Y-96138556D01*
X163612569Y-96101500D01*
X163387431Y-96101500D01*
X163165362Y-96138556D01*
X162952430Y-96211656D01*
X162952419Y-96211661D01*
X162754427Y-96318808D01*
X162754422Y-96318812D01*
X162576761Y-96457092D01*
X162576756Y-96457097D01*
X162424284Y-96622723D01*
X162424276Y-96622734D01*
X162333808Y-96761206D01*
X162280662Y-96806562D01*
X162211431Y-96815986D01*
X162148095Y-96786484D01*
X162126192Y-96761206D01*
X162053537Y-96650000D01*
X162035722Y-96622732D01*
X162035719Y-96622729D01*
X162035715Y-96622723D01*
X161883243Y-96457097D01*
X161883238Y-96457092D01*
X161763371Y-96363795D01*
X161705576Y-96318811D01*
X161705575Y-96318810D01*
X161705572Y-96318808D01*
X161507580Y-96211661D01*
X161507577Y-96211659D01*
X161507574Y-96211658D01*
X161507571Y-96211657D01*
X161507569Y-96211656D01*
X161294637Y-96138556D01*
X161072569Y-96101500D01*
X160847431Y-96101500D01*
X160625362Y-96138556D01*
X160412430Y-96211656D01*
X160412419Y-96211661D01*
X160214427Y-96318808D01*
X160214422Y-96318812D01*
X160036761Y-96457092D01*
X160036756Y-96457097D01*
X159884284Y-96622723D01*
X159884276Y-96622734D01*
X159793808Y-96761206D01*
X159740662Y-96806562D01*
X159671431Y-96815986D01*
X159608095Y-96786484D01*
X159586192Y-96761206D01*
X159513537Y-96650000D01*
X159495722Y-96622732D01*
X159495719Y-96622729D01*
X159495715Y-96622723D01*
X159343243Y-96457097D01*
X159343238Y-96457092D01*
X159223371Y-96363795D01*
X159165576Y-96318811D01*
X159165575Y-96318810D01*
X159165572Y-96318808D01*
X158967580Y-96211661D01*
X158967577Y-96211659D01*
X158967574Y-96211658D01*
X158967571Y-96211657D01*
X158967569Y-96211656D01*
X158754637Y-96138556D01*
X158532569Y-96101500D01*
X158307431Y-96101500D01*
X158085362Y-96138556D01*
X157872430Y-96211656D01*
X157872419Y-96211661D01*
X157674427Y-96318808D01*
X157674422Y-96318812D01*
X157496761Y-96457092D01*
X157496756Y-96457097D01*
X157344284Y-96622723D01*
X157344276Y-96622734D01*
X157253808Y-96761206D01*
X157200662Y-96806562D01*
X157131431Y-96815986D01*
X157068095Y-96786484D01*
X157046192Y-96761206D01*
X156973537Y-96650000D01*
X156955722Y-96622732D01*
X156955719Y-96622729D01*
X156955715Y-96622723D01*
X156803243Y-96457097D01*
X156803238Y-96457092D01*
X156683371Y-96363795D01*
X156625576Y-96318811D01*
X156625575Y-96318810D01*
X156625572Y-96318808D01*
X156427580Y-96211661D01*
X156427577Y-96211659D01*
X156427574Y-96211658D01*
X156427571Y-96211657D01*
X156427569Y-96211656D01*
X156214637Y-96138556D01*
X155992569Y-96101500D01*
X155767431Y-96101500D01*
X155545362Y-96138556D01*
X155332430Y-96211656D01*
X155332419Y-96211661D01*
X155134427Y-96318808D01*
X155134422Y-96318812D01*
X154956761Y-96457092D01*
X154956756Y-96457097D01*
X154804284Y-96622723D01*
X154804276Y-96622734D01*
X154713808Y-96761206D01*
X154660662Y-96806562D01*
X154591431Y-96815986D01*
X154528095Y-96786484D01*
X154506192Y-96761206D01*
X154433537Y-96650000D01*
X154415722Y-96622732D01*
X154415719Y-96622729D01*
X154415715Y-96622723D01*
X154263243Y-96457097D01*
X154263238Y-96457092D01*
X154143371Y-96363795D01*
X154085576Y-96318811D01*
X154085575Y-96318810D01*
X154085572Y-96318808D01*
X153887580Y-96211661D01*
X153887577Y-96211659D01*
X153887574Y-96211658D01*
X153887571Y-96211657D01*
X153887569Y-96211656D01*
X153674637Y-96138556D01*
X153452569Y-96101500D01*
X153227431Y-96101500D01*
X153005362Y-96138556D01*
X152792430Y-96211656D01*
X152792419Y-96211661D01*
X152594427Y-96318808D01*
X152594422Y-96318812D01*
X152416761Y-96457092D01*
X152353548Y-96525760D01*
X152293661Y-96561750D01*
X152223823Y-96559649D01*
X152166207Y-96520124D01*
X152146138Y-96485110D01*
X152100889Y-96363796D01*
X152100888Y-96363795D01*
X152013261Y-96246739D01*
X151896204Y-96159111D01*
X151841103Y-96138559D01*
X151759203Y-96108011D01*
X151698654Y-96101500D01*
X151698638Y-96101500D01*
X149901362Y-96101500D01*
X149901345Y-96101500D01*
X149840797Y-96108011D01*
X149840795Y-96108011D01*
X149703795Y-96159111D01*
X149586739Y-96246739D01*
X149499111Y-96363795D01*
X149448011Y-96500795D01*
X149448011Y-96500797D01*
X149441500Y-96561345D01*
X146739212Y-96561345D01*
X146643243Y-96457097D01*
X146643238Y-96457092D01*
X146526337Y-96366103D01*
X146485524Y-96309392D01*
X146478500Y-96268250D01*
X146478500Y-96245292D01*
X146464514Y-96174983D01*
X146457268Y-96138556D01*
X146449351Y-96098753D01*
X146392174Y-95960716D01*
X146309166Y-95836485D01*
X146309164Y-95836482D01*
X146309163Y-95836481D01*
X144317862Y-93845181D01*
X144284377Y-93783858D01*
X144289361Y-93714166D01*
X144331233Y-93658233D01*
X144396697Y-93633816D01*
X144405543Y-93633500D01*
X150462395Y-93633500D01*
X150462396Y-93633499D01*
X150584785Y-93609155D01*
X150700075Y-93561400D01*
X150803833Y-93492071D01*
X151262057Y-93033845D01*
X151323377Y-93000363D01*
X151335836Y-92998310D01*
X151381047Y-92993217D01*
X151553015Y-92933043D01*
X151707281Y-92836111D01*
X151836111Y-92707281D01*
X151933043Y-92553015D01*
X151993217Y-92381047D01*
X151994856Y-92366500D01*
X152013616Y-92200003D01*
X152013616Y-92199996D01*
X151993218Y-92018958D01*
X151993217Y-92018953D01*
X151935212Y-91853185D01*
X151933043Y-91846985D01*
X151836111Y-91692719D01*
X151707281Y-91563889D01*
X151553015Y-91466957D01*
X151495452Y-91446815D01*
X151381046Y-91406782D01*
X151381041Y-91406781D01*
X151200004Y-91386384D01*
X151199996Y-91386384D01*
X151018958Y-91406781D01*
X151018953Y-91406782D01*
X150846982Y-91466958D01*
X150692718Y-91563889D01*
X150563889Y-91692718D01*
X150466957Y-91846983D01*
X150406783Y-92018953D01*
X150401690Y-92064149D01*
X150374622Y-92128562D01*
X150366152Y-92137943D01*
X150173913Y-92330182D01*
X150112593Y-92363666D01*
X150086234Y-92366500D01*
X148933612Y-92366500D01*
X148866573Y-92346815D01*
X148820818Y-92294011D01*
X148810392Y-92228616D01*
X148813616Y-92200002D01*
X148813616Y-92199996D01*
X148793218Y-92018958D01*
X148793217Y-92018953D01*
X148735212Y-91853185D01*
X148733043Y-91846985D01*
X148636111Y-91692719D01*
X148507328Y-91563936D01*
X148473843Y-91502613D01*
X148478827Y-91432921D01*
X148507325Y-91388577D01*
X149226085Y-90669819D01*
X149287408Y-90636334D01*
X149313766Y-90633500D01*
X156552840Y-90633500D01*
X156618812Y-90652507D01*
X156746977Y-90733039D01*
X156746980Y-90733041D01*
X156746984Y-90733042D01*
X156746985Y-90733043D01*
X156918953Y-90793217D01*
X156918958Y-90793218D01*
X157099996Y-90813616D01*
X157100000Y-90813616D01*
X157100004Y-90813616D01*
X157281041Y-90793218D01*
X157281044Y-90793217D01*
X157281047Y-90793217D01*
X157453015Y-90733043D01*
X157607281Y-90636111D01*
X157736111Y-90507281D01*
X157833043Y-90353015D01*
X157893217Y-90181047D01*
X157900424Y-90117085D01*
X157913616Y-90000003D01*
X157913616Y-89999996D01*
X157893218Y-89818958D01*
X157893217Y-89818953D01*
X157858227Y-89718958D01*
X157833043Y-89646985D01*
X157736111Y-89492719D01*
X157607281Y-89363889D01*
X157475439Y-89281047D01*
X157453017Y-89266958D01*
X157453016Y-89266957D01*
X157453015Y-89266957D01*
X157398693Y-89247949D01*
X157281046Y-89206782D01*
X157281041Y-89206781D01*
X157100004Y-89186384D01*
X157099996Y-89186384D01*
X156918958Y-89206781D01*
X156918953Y-89206782D01*
X156746980Y-89266958D01*
X156746977Y-89266960D01*
X156618812Y-89347493D01*
X156552840Y-89366500D01*
X148937601Y-89366500D01*
X148815222Y-89390843D01*
X148815214Y-89390845D01*
X148699927Y-89438598D01*
X148699918Y-89438603D01*
X148596167Y-89507928D01*
X148596163Y-89507931D01*
X146896167Y-91207929D01*
X146673915Y-91430181D01*
X146612592Y-91463666D01*
X146586234Y-91466500D01*
X127213766Y-91466500D01*
X127146727Y-91446815D01*
X127126085Y-91430181D01*
X126403836Y-90707931D01*
X126403832Y-90707928D01*
X126300081Y-90638603D01*
X126300072Y-90638598D01*
X126184785Y-90590845D01*
X126184777Y-90590843D01*
X126062398Y-90566500D01*
X126062394Y-90566500D01*
X117713767Y-90566500D01*
X117646728Y-90546815D01*
X117626086Y-90530181D01*
X116801581Y-89705677D01*
X116772221Y-89658951D01*
X116733043Y-89546985D01*
X116708502Y-89507929D01*
X116673999Y-89453017D01*
X116636111Y-89392719D01*
X116507281Y-89263889D01*
X116416396Y-89206782D01*
X116353017Y-89166958D01*
X116353016Y-89166957D01*
X116353015Y-89166957D01*
X116298693Y-89147949D01*
X116181046Y-89106782D01*
X116181041Y-89106781D01*
X116000004Y-89086384D01*
X115999996Y-89086384D01*
X115818958Y-89106781D01*
X115818953Y-89106782D01*
X115646982Y-89166958D01*
X115492718Y-89263889D01*
X115363889Y-89392718D01*
X115266958Y-89546982D01*
X115206782Y-89718953D01*
X115206781Y-89718958D01*
X115186384Y-89899996D01*
X115186384Y-89900003D01*
X115206781Y-90081041D01*
X115206782Y-90081046D01*
X115266958Y-90253017D01*
X115363889Y-90407281D01*
X115492719Y-90536111D01*
X115646985Y-90633043D01*
X115818953Y-90693217D01*
X115818958Y-90693218D01*
X115976844Y-90711007D01*
X116041258Y-90738073D01*
X116050642Y-90746546D01*
X116996163Y-91692069D01*
X116996167Y-91692072D01*
X117099921Y-91761399D01*
X117099923Y-91761399D01*
X117099925Y-91761401D01*
X117181447Y-91795168D01*
X117215215Y-91809155D01*
X117215217Y-91809155D01*
X117215222Y-91809157D01*
X117337601Y-91833499D01*
X117337605Y-91833500D01*
X117337606Y-91833500D01*
X117337607Y-91833500D01*
X117462394Y-91833500D01*
X124566388Y-91833500D01*
X124633427Y-91853185D01*
X124679182Y-91905989D01*
X124689608Y-91971384D01*
X124686384Y-91999997D01*
X124686384Y-92000003D01*
X124706782Y-92181045D01*
X124708332Y-92187836D01*
X124706495Y-92188255D01*
X124709568Y-92248640D01*
X124674829Y-92309262D01*
X124654942Y-92324790D01*
X124592722Y-92363886D01*
X124592720Y-92363887D01*
X124463889Y-92492718D01*
X124366958Y-92646982D01*
X124306782Y-92818953D01*
X124306781Y-92818958D01*
X124286384Y-92999996D01*
X124286384Y-93000005D01*
X124286791Y-93003618D01*
X124286384Y-93005941D01*
X124286384Y-93006964D01*
X124286205Y-93006964D01*
X124274736Y-93072440D01*
X124227386Y-93123818D01*
X124163571Y-93141500D01*
X113065543Y-93141500D01*
X112998504Y-93121815D01*
X112977862Y-93105181D01*
X112444819Y-92572138D01*
X112411334Y-92510815D01*
X112408500Y-92484457D01*
X112408500Y-90101362D01*
X112408499Y-90101345D01*
X112405157Y-90070270D01*
X112401989Y-90040799D01*
X112350889Y-89903796D01*
X112263261Y-89786739D01*
X112146204Y-89699111D01*
X112110152Y-89685664D01*
X112009203Y-89648011D01*
X111948654Y-89641500D01*
X111948638Y-89641500D01*
X109851362Y-89641500D01*
X109851345Y-89641500D01*
X109790797Y-89648011D01*
X109790795Y-89648011D01*
X109653795Y-89699111D01*
X109536739Y-89786739D01*
X109449111Y-89903795D01*
X109398011Y-90040795D01*
X109398011Y-90040797D01*
X109391500Y-90101345D01*
X105655279Y-90101345D01*
X105475802Y-90009897D01*
X105251247Y-89936934D01*
X105150000Y-89920897D01*
X105150000Y-90984314D01*
X105145606Y-90979920D01*
X105054394Y-90927259D01*
X104952661Y-90900000D01*
X104847339Y-90900000D01*
X104745606Y-90927259D01*
X104654394Y-90979920D01*
X104650000Y-90984314D01*
X104650000Y-89920897D01*
X104548752Y-89936934D01*
X104324197Y-90009897D01*
X104113828Y-90117085D01*
X103922813Y-90255866D01*
X103755866Y-90422813D01*
X103617085Y-90613828D01*
X103509897Y-90824197D01*
X103436934Y-91048752D01*
X103400000Y-91281947D01*
X100075500Y-91281947D01*
X100075500Y-71399996D01*
X104586384Y-71399996D01*
X104586384Y-71400003D01*
X104606781Y-71581038D01*
X104606783Y-71581048D01*
X104634541Y-71660374D01*
X104641500Y-71701329D01*
X104641500Y-78298667D01*
X104634542Y-78339621D01*
X104606783Y-78418950D01*
X104606781Y-78418958D01*
X104586384Y-78599996D01*
X104586384Y-78600003D01*
X104606782Y-78781045D01*
X104606782Y-78781046D01*
X104641185Y-78879367D01*
X104645760Y-78896128D01*
X104670647Y-79021241D01*
X104670649Y-79021247D01*
X104727825Y-79159282D01*
X104810835Y-79283517D01*
X104810836Y-79283518D01*
X109939743Y-84412424D01*
X109961929Y-84447702D01*
X109963934Y-84446737D01*
X109966955Y-84453011D01*
X109966957Y-84453015D01*
X110063889Y-84607281D01*
X110192719Y-84736111D01*
X110346985Y-84833043D01*
X110518947Y-84893215D01*
X110518953Y-84893217D01*
X110518958Y-84893218D01*
X110699996Y-84913616D01*
X110700000Y-84913616D01*
X110700004Y-84913616D01*
X110881041Y-84893218D01*
X110881043Y-84893217D01*
X110881047Y-84893217D01*
X110881050Y-84893215D01*
X110881054Y-84893215D01*
X110960377Y-84865459D01*
X111001332Y-84858500D01*
X118098668Y-84858500D01*
X118139623Y-84865459D01*
X118218945Y-84893215D01*
X118218951Y-84893216D01*
X118218953Y-84893217D01*
X118218954Y-84893217D01*
X118218958Y-84893218D01*
X118399996Y-84913616D01*
X118400000Y-84913616D01*
X118400004Y-84913616D01*
X118581041Y-84893218D01*
X118581044Y-84893217D01*
X118581047Y-84893217D01*
X118753015Y-84833043D01*
X118907281Y-84736111D01*
X119036111Y-84607281D01*
X119133043Y-84453015D01*
X119193217Y-84281047D01*
X119193218Y-84281041D01*
X119213616Y-84100003D01*
X119213616Y-84099996D01*
X119193218Y-83918958D01*
X119193217Y-83918953D01*
X119150782Y-83797681D01*
X119133043Y-83746985D01*
X119036111Y-83592719D01*
X118907281Y-83463889D01*
X118753015Y-83366957D01*
X118680263Y-83341500D01*
X118581046Y-83306782D01*
X118581041Y-83306781D01*
X118400004Y-83286384D01*
X118399996Y-83286384D01*
X118218958Y-83306781D01*
X118218945Y-83306784D01*
X118139623Y-83334541D01*
X118098668Y-83341500D01*
X111065543Y-83341500D01*
X110998504Y-83321815D01*
X110977862Y-83305181D01*
X106236796Y-78564115D01*
X106203311Y-78502792D01*
X106201259Y-78490334D01*
X106193217Y-78418953D01*
X106165458Y-78339621D01*
X106158500Y-78298667D01*
X106158500Y-71701329D01*
X106165459Y-71660374D01*
X106174039Y-71635854D01*
X106193217Y-71581047D01*
X106211481Y-71418953D01*
X106213616Y-71400003D01*
X106213616Y-71399996D01*
X106193218Y-71218958D01*
X106193217Y-71218953D01*
X106183131Y-71190128D01*
X106133043Y-71046985D01*
X106036111Y-70892719D01*
X105907281Y-70763889D01*
X105816398Y-70706783D01*
X105753017Y-70666958D01*
X105753016Y-70666957D01*
X105753015Y-70666957D01*
X105664862Y-70636111D01*
X105581046Y-70606782D01*
X105581041Y-70606781D01*
X105400004Y-70586384D01*
X105399996Y-70586384D01*
X105218958Y-70606781D01*
X105218953Y-70606782D01*
X105046982Y-70666958D01*
X104892718Y-70763889D01*
X104763889Y-70892718D01*
X104666958Y-71046982D01*
X104606782Y-71218953D01*
X104606781Y-71218958D01*
X104586384Y-71399996D01*
X100075500Y-71399996D01*
X100075500Y-65859999D01*
X102031115Y-65859999D01*
X102031116Y-65860000D01*
X102783012Y-65860000D01*
X102765795Y-65869940D01*
X102709940Y-65925795D01*
X102670444Y-65994204D01*
X102650000Y-66070504D01*
X102650000Y-66149496D01*
X102670444Y-66225796D01*
X102709940Y-66294205D01*
X102765795Y-66350060D01*
X102783012Y-66360000D01*
X102031116Y-66360000D01*
X102036506Y-66387100D01*
X102036507Y-66387103D01*
X102108119Y-66559991D01*
X102108124Y-66560000D01*
X102212086Y-66715589D01*
X102212089Y-66715593D01*
X102344406Y-66847910D01*
X102344410Y-66847913D01*
X102499999Y-66951875D01*
X102500008Y-66951880D01*
X102672894Y-67023491D01*
X102672902Y-67023493D01*
X102856428Y-67059999D01*
X102856431Y-67060000D01*
X102950000Y-67060000D01*
X102950000Y-66410000D01*
X103450000Y-66410000D01*
X103450000Y-67060000D01*
X103543569Y-67060000D01*
X103543571Y-67059999D01*
X103727097Y-67023493D01*
X103727105Y-67023491D01*
X103899991Y-66951880D01*
X103900000Y-66951875D01*
X104055589Y-66847913D01*
X104055593Y-66847910D01*
X104187910Y-66715593D01*
X104187913Y-66715589D01*
X104291875Y-66560000D01*
X104291880Y-66559991D01*
X104363492Y-66387103D01*
X104363493Y-66387100D01*
X104368884Y-66360000D01*
X103616988Y-66360000D01*
X103634205Y-66350060D01*
X103690060Y-66294205D01*
X103729556Y-66225796D01*
X103750000Y-66149496D01*
X103750000Y-66070504D01*
X103729556Y-65994204D01*
X103690060Y-65925795D01*
X103634205Y-65869940D01*
X103616988Y-65860000D01*
X104368884Y-65860000D01*
X104368884Y-65859999D01*
X105251115Y-65859999D01*
X105251116Y-65860000D01*
X106003012Y-65860000D01*
X105985795Y-65869940D01*
X105929940Y-65925795D01*
X105890444Y-65994204D01*
X105870000Y-66070504D01*
X105870000Y-66149496D01*
X105890444Y-66225796D01*
X105929940Y-66294205D01*
X105985795Y-66350060D01*
X106003012Y-66360000D01*
X105251116Y-66360000D01*
X105256506Y-66387100D01*
X105256507Y-66387103D01*
X105328119Y-66559991D01*
X105328124Y-66560000D01*
X105432086Y-66715589D01*
X105432089Y-66715593D01*
X105564406Y-66847910D01*
X105564410Y-66847913D01*
X105719999Y-66951875D01*
X105720008Y-66951880D01*
X105892894Y-67023491D01*
X105892902Y-67023493D01*
X106076428Y-67059999D01*
X106076431Y-67060000D01*
X106170000Y-67060000D01*
X106170000Y-66410000D01*
X106670000Y-66410000D01*
X106670000Y-67060000D01*
X106763569Y-67060000D01*
X106763571Y-67059999D01*
X106947097Y-67023493D01*
X106947105Y-67023491D01*
X107119991Y-66951880D01*
X107120000Y-66951875D01*
X107275589Y-66847913D01*
X107275593Y-66847910D01*
X107407910Y-66715593D01*
X107407913Y-66715589D01*
X107511875Y-66560000D01*
X107511880Y-66559991D01*
X107583492Y-66387103D01*
X107583493Y-66387100D01*
X107588884Y-66360000D01*
X106836988Y-66360000D01*
X106854205Y-66350060D01*
X106910060Y-66294205D01*
X106949556Y-66225796D01*
X106970000Y-66149496D01*
X106970000Y-66070504D01*
X106949556Y-65994204D01*
X106910060Y-65925795D01*
X106854205Y-65869940D01*
X106836988Y-65860000D01*
X107588884Y-65860000D01*
X107588884Y-65859999D01*
X107583493Y-65832899D01*
X107583492Y-65832896D01*
X107511880Y-65660008D01*
X107511875Y-65659999D01*
X107407913Y-65504410D01*
X107407910Y-65504406D01*
X107275593Y-65372089D01*
X107275589Y-65372086D01*
X107120000Y-65268124D01*
X107119991Y-65268119D01*
X106947105Y-65196508D01*
X106947097Y-65196506D01*
X106763570Y-65160000D01*
X106670000Y-65160000D01*
X106670000Y-65810000D01*
X106170000Y-65810000D01*
X106170000Y-65160000D01*
X106076430Y-65160000D01*
X105892902Y-65196506D01*
X105892894Y-65196508D01*
X105720008Y-65268119D01*
X105719999Y-65268124D01*
X105564410Y-65372086D01*
X105564406Y-65372089D01*
X105432089Y-65504406D01*
X105432086Y-65504410D01*
X105328124Y-65659999D01*
X105328119Y-65660008D01*
X105256507Y-65832896D01*
X105256506Y-65832899D01*
X105251115Y-65859999D01*
X104368884Y-65859999D01*
X104363493Y-65832899D01*
X104363492Y-65832896D01*
X104291880Y-65660008D01*
X104291875Y-65659999D01*
X104187913Y-65504410D01*
X104187910Y-65504406D01*
X104055593Y-65372089D01*
X104055589Y-65372086D01*
X103900000Y-65268124D01*
X103899991Y-65268119D01*
X103727105Y-65196508D01*
X103727097Y-65196506D01*
X103543570Y-65160000D01*
X103450000Y-65160000D01*
X103450000Y-65810000D01*
X102950000Y-65810000D01*
X102950000Y-65160000D01*
X102856430Y-65160000D01*
X102672902Y-65196506D01*
X102672894Y-65196508D01*
X102500008Y-65268119D01*
X102499999Y-65268124D01*
X102344410Y-65372086D01*
X102344406Y-65372089D01*
X102212089Y-65504406D01*
X102212086Y-65504410D01*
X102108124Y-65659999D01*
X102108119Y-65660008D01*
X102036507Y-65832896D01*
X102036506Y-65832899D01*
X102031115Y-65859999D01*
X100075500Y-65859999D01*
X100075500Y-63499996D01*
X104886384Y-63499996D01*
X104886384Y-63500003D01*
X104906781Y-63681041D01*
X104906782Y-63681046D01*
X104966958Y-63853017D01*
X104975397Y-63866447D01*
X105063889Y-64007281D01*
X105192719Y-64136111D01*
X105346985Y-64233043D01*
X105517581Y-64292737D01*
X105518953Y-64293217D01*
X105518958Y-64293218D01*
X105699996Y-64313616D01*
X105700000Y-64313616D01*
X105700004Y-64313616D01*
X105881041Y-64293218D01*
X105881044Y-64293217D01*
X105881047Y-64293217D01*
X106053015Y-64233043D01*
X106053017Y-64233041D01*
X106053019Y-64233041D01*
X106053022Y-64233039D01*
X106181188Y-64152507D01*
X106247160Y-64133500D01*
X106662395Y-64133500D01*
X106662396Y-64133499D01*
X106784785Y-64109155D01*
X106900075Y-64061400D01*
X107003833Y-63992071D01*
X108069912Y-62925991D01*
X108131234Y-62892507D01*
X108200925Y-62897491D01*
X108256859Y-62939362D01*
X108281276Y-63004827D01*
X108280812Y-63027556D01*
X108261384Y-63199995D01*
X108261384Y-63200003D01*
X108281781Y-63381041D01*
X108281782Y-63381046D01*
X108322949Y-63498693D01*
X108341957Y-63553015D01*
X108438889Y-63707281D01*
X108567719Y-63836111D01*
X108608472Y-63861717D01*
X108654761Y-63914049D01*
X108666499Y-63966710D01*
X108666499Y-77658231D01*
X108707967Y-77812996D01*
X108741254Y-77870649D01*
X108788077Y-77951749D01*
X108788079Y-77951751D01*
X110822582Y-79986254D01*
X110856067Y-80047577D01*
X110851943Y-80114889D01*
X110806783Y-80243950D01*
X110806781Y-80243958D01*
X110786384Y-80424996D01*
X110786384Y-80425003D01*
X110806781Y-80606041D01*
X110806782Y-80606046D01*
X110838743Y-80697385D01*
X110865972Y-80775201D01*
X110866958Y-80778017D01*
X110910006Y-80846529D01*
X110929006Y-80913766D01*
X110910006Y-80978471D01*
X110866958Y-81046982D01*
X110806782Y-81218953D01*
X110806781Y-81218958D01*
X110786384Y-81399996D01*
X110786384Y-81400003D01*
X110806781Y-81581041D01*
X110806782Y-81581046D01*
X110835747Y-81663821D01*
X110851905Y-81710000D01*
X110866958Y-81753017D01*
X110942440Y-81873145D01*
X110963889Y-81907281D01*
X111092719Y-82036111D01*
X111246985Y-82133043D01*
X111418953Y-82193217D01*
X111418958Y-82193218D01*
X111599996Y-82213616D01*
X111600000Y-82213616D01*
X111600004Y-82213616D01*
X111781041Y-82193218D01*
X111781044Y-82193217D01*
X111781047Y-82193217D01*
X111953015Y-82133043D01*
X111953017Y-82133041D01*
X111953019Y-82133041D01*
X111953022Y-82133039D01*
X112081188Y-82052507D01*
X112147160Y-82033500D01*
X112662395Y-82033500D01*
X112662396Y-82033499D01*
X112784785Y-82009155D01*
X112900075Y-81961400D01*
X113003833Y-81892071D01*
X114226085Y-80669819D01*
X114287408Y-80636334D01*
X114313766Y-80633500D01*
X118752840Y-80633500D01*
X118818812Y-80652507D01*
X118946977Y-80733039D01*
X118946980Y-80733041D01*
X118946984Y-80733042D01*
X118946985Y-80733043D01*
X119067466Y-80775201D01*
X119118953Y-80793217D01*
X119118958Y-80793218D01*
X119299996Y-80813616D01*
X119300000Y-80813616D01*
X119300004Y-80813616D01*
X119481043Y-80793218D01*
X119481045Y-80793217D01*
X119481047Y-80793217D01*
X119532533Y-80775200D01*
X119602312Y-80771639D01*
X119661169Y-80804561D01*
X119663889Y-80807281D01*
X119792719Y-80936111D01*
X119946985Y-81033043D01*
X120118953Y-81093217D01*
X120118958Y-81093218D01*
X120299996Y-81113616D01*
X120300000Y-81113616D01*
X120300004Y-81113616D01*
X120481041Y-81093218D01*
X120481044Y-81093217D01*
X120481047Y-81093217D01*
X120653015Y-81033043D01*
X120807281Y-80936111D01*
X120936111Y-80807281D01*
X121033043Y-80653015D01*
X121033044Y-80653011D01*
X121036064Y-80646741D01*
X121038116Y-80647729D01*
X121060254Y-80612425D01*
X122277862Y-79394819D01*
X122339185Y-79361334D01*
X122365543Y-79358500D01*
X123223863Y-79358500D01*
X123290902Y-79378185D01*
X123336657Y-79430989D01*
X123346601Y-79500147D01*
X123328857Y-79548472D01*
X123266958Y-79646982D01*
X123206782Y-79818953D01*
X123206781Y-79818958D01*
X123186384Y-79999996D01*
X123186384Y-80000003D01*
X123206781Y-80181041D01*
X123206782Y-80181046D01*
X123266958Y-80353017D01*
X123363889Y-80507281D01*
X123492670Y-80636062D01*
X123526155Y-80697385D01*
X123521171Y-80767077D01*
X123492671Y-80811423D01*
X123407264Y-80896832D01*
X123388957Y-80915139D01*
X123344837Y-80959259D01*
X123300717Y-81003378D01*
X123231393Y-81107128D01*
X123231388Y-81107137D01*
X123183635Y-81222424D01*
X123183633Y-81222432D01*
X123159290Y-81344811D01*
X123159290Y-81577500D01*
X123139605Y-81644539D01*
X123086801Y-81690294D01*
X123035291Y-81701500D01*
X122943563Y-81701500D01*
X122826558Y-81716902D01*
X122826549Y-81716905D01*
X122680960Y-81777210D01*
X122555935Y-81873145D01*
X122460000Y-81998170D01*
X122399695Y-82143759D01*
X122399694Y-82143761D01*
X122384290Y-82260774D01*
X122384290Y-85159227D01*
X122399692Y-85276231D01*
X122399695Y-85276240D01*
X122460000Y-85421829D01*
X122460001Y-85421831D01*
X122460002Y-85421832D01*
X122555935Y-85546855D01*
X122680958Y-85642788D01*
X122680960Y-85642789D01*
X122713940Y-85656449D01*
X122826550Y-85703095D01*
X122943565Y-85718500D01*
X124642014Y-85718499D01*
X124642017Y-85718499D01*
X124759021Y-85703097D01*
X124759025Y-85703095D01*
X124759030Y-85703095D01*
X124904622Y-85642788D01*
X124987308Y-85579340D01*
X125052473Y-85554149D01*
X125120917Y-85568187D01*
X125138261Y-85579332D01*
X125220958Y-85642788D01*
X125366550Y-85703095D01*
X125483565Y-85718500D01*
X127182014Y-85718499D01*
X127182017Y-85718499D01*
X127299021Y-85703097D01*
X127299025Y-85703095D01*
X127299030Y-85703095D01*
X127444622Y-85642788D01*
X127527308Y-85579340D01*
X127592473Y-85554149D01*
X127660917Y-85568187D01*
X127678261Y-85579332D01*
X127760958Y-85642788D01*
X127906550Y-85703095D01*
X128023565Y-85718500D01*
X129722014Y-85718499D01*
X129722017Y-85718499D01*
X129839021Y-85703097D01*
X129839025Y-85703095D01*
X129839030Y-85703095D01*
X129984622Y-85642788D01*
X130074288Y-85573984D01*
X130139453Y-85548793D01*
X130207897Y-85562831D01*
X130225256Y-85573987D01*
X130305243Y-85635363D01*
X130305248Y-85635366D01*
X130448765Y-85694812D01*
X130448770Y-85694814D01*
X130564119Y-85710000D01*
X132261461Y-85710000D01*
X132376809Y-85694814D01*
X132376814Y-85694812D01*
X132520331Y-85635366D01*
X132520332Y-85635366D01*
X132607303Y-85568631D01*
X132672473Y-85543437D01*
X132740917Y-85557475D01*
X132758277Y-85568631D01*
X132845248Y-85635366D01*
X132988765Y-85694812D01*
X132988770Y-85694814D01*
X133104119Y-85710000D01*
X134620744Y-85710000D01*
X134687783Y-85729685D01*
X134733538Y-85782489D01*
X134743482Y-85851647D01*
X134714457Y-85915203D01*
X134708425Y-85921681D01*
X133624927Y-87005181D01*
X133563604Y-87038666D01*
X133537246Y-87041500D01*
X121125292Y-87041500D01*
X120978759Y-87070647D01*
X120978749Y-87070650D01*
X120840719Y-87127823D01*
X120716482Y-87210835D01*
X119587572Y-88339745D01*
X119552290Y-88361936D01*
X119553254Y-88363938D01*
X119546986Y-88366955D01*
X119392718Y-88463889D01*
X119263889Y-88592718D01*
X119166958Y-88746982D01*
X119106782Y-88918953D01*
X119106781Y-88918958D01*
X119086384Y-89099996D01*
X119086384Y-89100003D01*
X119106781Y-89281041D01*
X119106782Y-89281046D01*
X119136684Y-89366500D01*
X119165107Y-89447729D01*
X119166958Y-89453017D01*
X119226001Y-89546983D01*
X119263889Y-89607281D01*
X119392719Y-89736111D01*
X119546985Y-89833043D01*
X119718953Y-89893217D01*
X119718958Y-89893218D01*
X119899996Y-89913616D01*
X119900000Y-89913616D01*
X119900004Y-89913616D01*
X120081041Y-89893218D01*
X120081044Y-89893217D01*
X120081047Y-89893217D01*
X120253015Y-89833043D01*
X120407281Y-89736111D01*
X120536111Y-89607281D01*
X120633043Y-89453015D01*
X120633044Y-89453011D01*
X120636064Y-89446741D01*
X120638116Y-89447729D01*
X120660254Y-89412425D01*
X121477862Y-88594819D01*
X121539185Y-88561334D01*
X121565543Y-88558500D01*
X133977495Y-88558500D01*
X134050765Y-88543925D01*
X134050766Y-88543925D01*
X134069208Y-88540256D01*
X134124036Y-88529351D01*
X134262073Y-88472174D01*
X134386304Y-88389166D01*
X137020651Y-85754817D01*
X137081974Y-85721333D01*
X137108332Y-85718499D01*
X137342017Y-85718499D01*
X137459021Y-85703097D01*
X137459025Y-85703095D01*
X137459030Y-85703095D01*
X137604622Y-85642788D01*
X137687308Y-85579340D01*
X137752473Y-85554149D01*
X137820917Y-85568187D01*
X137838261Y-85579332D01*
X137920958Y-85642788D01*
X138066550Y-85703095D01*
X138133685Y-85711933D01*
X138197581Y-85740199D01*
X138236053Y-85798523D01*
X138241500Y-85834872D01*
X138241500Y-86598667D01*
X138234542Y-86639621D01*
X138206783Y-86718950D01*
X138206781Y-86718958D01*
X138186384Y-86899996D01*
X138186384Y-86900003D01*
X138206781Y-87081041D01*
X138206782Y-87081046D01*
X138235129Y-87162055D01*
X138260951Y-87235852D01*
X138266958Y-87253017D01*
X138284570Y-87281046D01*
X138363889Y-87407281D01*
X138492719Y-87536111D01*
X138646985Y-87633043D01*
X138818953Y-87693217D01*
X138818958Y-87693218D01*
X138999996Y-87713616D01*
X139000000Y-87713616D01*
X139000004Y-87713616D01*
X139181041Y-87693218D01*
X139181044Y-87693217D01*
X139181047Y-87693217D01*
X139353015Y-87633043D01*
X139507281Y-87536111D01*
X139636111Y-87407281D01*
X139733043Y-87253015D01*
X139793217Y-87081047D01*
X139793218Y-87081041D01*
X139813616Y-86900003D01*
X139813616Y-86899996D01*
X139793218Y-86718958D01*
X139793216Y-86718950D01*
X139765458Y-86639621D01*
X139758500Y-86598667D01*
X139758500Y-85842499D01*
X139778185Y-85775460D01*
X139830989Y-85729705D01*
X139878009Y-85719475D01*
X139877963Y-85718765D01*
X139882013Y-85718499D01*
X139882014Y-85718499D01*
X139898280Y-85716357D01*
X139999021Y-85703097D01*
X139999025Y-85703095D01*
X139999030Y-85703095D01*
X140144622Y-85642788D01*
X140227308Y-85579340D01*
X140292473Y-85554149D01*
X140360917Y-85568187D01*
X140378261Y-85579332D01*
X140460958Y-85642788D01*
X140606550Y-85703095D01*
X140723565Y-85718500D01*
X142422014Y-85718499D01*
X142422017Y-85718499D01*
X142539021Y-85703097D01*
X142539025Y-85703095D01*
X142539030Y-85703095D01*
X142684622Y-85642788D01*
X142767308Y-85579340D01*
X142832473Y-85554149D01*
X142900917Y-85568187D01*
X142918261Y-85579332D01*
X143000958Y-85642788D01*
X143146550Y-85703095D01*
X143263565Y-85718500D01*
X144962014Y-85718499D01*
X144962017Y-85718499D01*
X145079021Y-85703097D01*
X145079025Y-85703095D01*
X145079030Y-85703095D01*
X145224622Y-85642788D01*
X145307308Y-85579340D01*
X145372473Y-85554149D01*
X145440917Y-85568187D01*
X145458261Y-85579332D01*
X145540958Y-85642788D01*
X145686550Y-85703095D01*
X145692061Y-85703820D01*
X145755957Y-85732081D01*
X145794432Y-85790403D01*
X145799101Y-85812875D01*
X145806781Y-85881042D01*
X145806782Y-85881046D01*
X145866958Y-86053017D01*
X145963889Y-86207281D01*
X146092719Y-86336111D01*
X146246985Y-86433043D01*
X146418953Y-86493217D01*
X146418958Y-86493218D01*
X146599996Y-86513616D01*
X146600000Y-86513616D01*
X146600004Y-86513616D01*
X146781041Y-86493218D01*
X146781044Y-86493217D01*
X146781047Y-86493217D01*
X146953015Y-86433043D01*
X147107281Y-86336111D01*
X147236111Y-86207281D01*
X147333043Y-86053015D01*
X147393217Y-85881047D01*
X147399308Y-85826982D01*
X147426373Y-85762572D01*
X147483967Y-85723016D01*
X147506345Y-85717929D01*
X147566576Y-85710000D01*
X147619030Y-85703095D01*
X147764622Y-85642788D01*
X147847308Y-85579340D01*
X147912473Y-85554149D01*
X147980917Y-85568187D01*
X147998261Y-85579332D01*
X148080958Y-85642788D01*
X148226550Y-85703095D01*
X148343565Y-85718500D01*
X150042014Y-85718499D01*
X150042017Y-85718499D01*
X150159021Y-85703097D01*
X150159025Y-85703095D01*
X150159030Y-85703095D01*
X150304622Y-85642788D01*
X150387308Y-85579340D01*
X150452473Y-85554149D01*
X150520917Y-85568187D01*
X150538261Y-85579332D01*
X150620958Y-85642788D01*
X150766550Y-85703095D01*
X150883565Y-85718500D01*
X152582014Y-85718499D01*
X152582017Y-85718499D01*
X152699021Y-85703097D01*
X152699025Y-85703095D01*
X152699030Y-85703095D01*
X152844622Y-85642788D01*
X152927308Y-85579340D01*
X152992473Y-85554149D01*
X153060917Y-85568187D01*
X153078261Y-85579332D01*
X153160958Y-85642788D01*
X153306550Y-85703095D01*
X153423565Y-85718500D01*
X155122014Y-85718499D01*
X155122017Y-85718499D01*
X155239021Y-85703097D01*
X155239025Y-85703095D01*
X155239030Y-85703095D01*
X155384622Y-85642788D01*
X155509645Y-85546855D01*
X155605578Y-85421832D01*
X155665885Y-85276240D01*
X155681290Y-85159225D01*
X155681289Y-84611058D01*
X155700973Y-84544020D01*
X155753777Y-84498265D01*
X155822936Y-84488321D01*
X155837142Y-84491794D01*
X155837171Y-84491669D01*
X155843956Y-84493218D01*
X156024996Y-84513616D01*
X156025000Y-84513616D01*
X156025004Y-84513616D01*
X156206041Y-84493218D01*
X156206044Y-84493217D01*
X156206047Y-84493217D01*
X156378015Y-84433043D01*
X156532281Y-84336111D01*
X156661111Y-84207281D01*
X156758043Y-84053015D01*
X156818217Y-83881047D01*
X156833322Y-83746985D01*
X156838616Y-83700003D01*
X156838616Y-83699996D01*
X156818218Y-83518958D01*
X156818217Y-83518953D01*
X156798949Y-83463889D01*
X156758043Y-83346985D01*
X156661111Y-83192719D01*
X156532281Y-83063889D01*
X156378015Y-82966957D01*
X156323693Y-82947949D01*
X156206046Y-82906782D01*
X156206041Y-82906781D01*
X156025004Y-82886384D01*
X156024996Y-82886384D01*
X155843954Y-82906782D01*
X155837164Y-82908332D01*
X155836738Y-82906468D01*
X155776448Y-82909538D01*
X155715825Y-82874801D01*
X155683607Y-82812803D01*
X155681289Y-82788939D01*
X155681289Y-82260772D01*
X155665887Y-82143768D01*
X155665885Y-82143761D01*
X155665885Y-82143760D01*
X155619239Y-82031150D01*
X155605579Y-81998170D01*
X155605578Y-81998169D01*
X155605578Y-81998168D01*
X155593927Y-81982984D01*
X155568734Y-81917816D01*
X155582773Y-81849372D01*
X155631587Y-81799382D01*
X155692304Y-81783500D01*
X159136234Y-81783500D01*
X159203273Y-81803185D01*
X159223915Y-81819819D01*
X164566151Y-87162055D01*
X164599636Y-87223378D01*
X164601690Y-87235852D01*
X164606781Y-87281042D01*
X164606782Y-87281046D01*
X164647949Y-87398693D01*
X164666957Y-87453015D01*
X164763889Y-87607281D01*
X164892719Y-87736111D01*
X165046985Y-87833043D01*
X165218953Y-87893217D01*
X165218958Y-87893218D01*
X165399996Y-87913616D01*
X165400000Y-87913616D01*
X165400004Y-87913616D01*
X165581041Y-87893218D01*
X165581044Y-87893217D01*
X165581047Y-87893217D01*
X165753015Y-87833043D01*
X165907281Y-87736111D01*
X166036111Y-87607281D01*
X166133043Y-87453015D01*
X166193217Y-87281047D01*
X166193218Y-87281041D01*
X166213616Y-87100003D01*
X166213616Y-87099996D01*
X166193218Y-86918958D01*
X166193216Y-86918950D01*
X166133044Y-86746987D01*
X166115427Y-86718950D01*
X166082137Y-86665969D01*
X166063137Y-86598737D01*
X166082137Y-86534030D01*
X166133043Y-86453015D01*
X166193217Y-86281047D01*
X166193218Y-86281041D01*
X166213616Y-86100003D01*
X166213616Y-86099996D01*
X166193218Y-85918958D01*
X166193217Y-85918953D01*
X166191905Y-85915203D01*
X166133043Y-85746985D01*
X166036111Y-85592719D01*
X165973065Y-85529673D01*
X165939581Y-85468349D01*
X165944566Y-85398658D01*
X165955754Y-85376019D01*
X166018229Y-85276592D01*
X166033043Y-85253015D01*
X166093217Y-85081047D01*
X166113616Y-84900000D01*
X166109724Y-84865459D01*
X166093218Y-84718958D01*
X166093216Y-84718950D01*
X166065458Y-84639621D01*
X166058500Y-84598667D01*
X166058500Y-78101329D01*
X166065459Y-78060374D01*
X166082794Y-78010833D01*
X166093217Y-77981047D01*
X166105656Y-77870647D01*
X166113616Y-77800003D01*
X166113616Y-77799996D01*
X166093218Y-77618958D01*
X166093217Y-77618953D01*
X166093217Y-77618952D01*
X166033043Y-77446985D01*
X165936111Y-77292719D01*
X165807281Y-77163889D01*
X165708031Y-77101526D01*
X165653017Y-77066958D01*
X165653016Y-77066957D01*
X165653015Y-77066957D01*
X165596410Y-77047150D01*
X165481046Y-77006782D01*
X165481041Y-77006781D01*
X165300004Y-76986384D01*
X165299996Y-76986384D01*
X165118958Y-77006781D01*
X165118945Y-77006784D01*
X165039623Y-77034541D01*
X164998668Y-77041500D01*
X161908609Y-77041500D01*
X161841570Y-77021815D01*
X161795815Y-76969011D01*
X161785871Y-76899853D01*
X161814896Y-76836297D01*
X161859709Y-76803549D01*
X162057344Y-76718737D01*
X162057342Y-76718737D01*
X162057349Y-76718735D01*
X162390666Y-76533728D01*
X162703557Y-76315950D01*
X162992810Y-76067634D01*
X163255457Y-75791330D01*
X163488804Y-75489871D01*
X163690455Y-75166351D01*
X163858342Y-74824091D01*
X163990741Y-74466602D01*
X164086294Y-74097553D01*
X164144022Y-73720730D01*
X164163330Y-73340000D01*
X164144022Y-72959270D01*
X164086294Y-72582447D01*
X163990741Y-72213398D01*
X163954227Y-72114808D01*
X163911301Y-71998904D01*
X163858342Y-71855909D01*
X163856923Y-71853017D01*
X163690455Y-71513649D01*
X163690450Y-71513640D01*
X163488803Y-71190128D01*
X163255461Y-70888675D01*
X163255460Y-70888674D01*
X163255457Y-70888670D01*
X162992810Y-70612366D01*
X162992809Y-70612365D01*
X162703559Y-70364051D01*
X162479250Y-70207928D01*
X162390666Y-70146272D01*
X162057349Y-69961265D01*
X162057350Y-69961265D01*
X162057344Y-69961262D01*
X161707015Y-69810925D01*
X161343298Y-69696808D01*
X161343292Y-69696807D01*
X161343289Y-69696806D01*
X161343288Y-69696806D01*
X160969873Y-69620068D01*
X160969872Y-69620067D01*
X160969868Y-69620067D01*
X160590611Y-69581500D01*
X160590610Y-69581500D01*
X160209390Y-69581500D01*
X160209389Y-69581500D01*
X159830131Y-69620067D01*
X159456707Y-69696807D01*
X159456701Y-69696808D01*
X159092984Y-69810925D01*
X158742655Y-69961262D01*
X158409332Y-70146273D01*
X158096440Y-70364051D01*
X157807190Y-70612365D01*
X157544538Y-70888675D01*
X157311196Y-71190128D01*
X157109549Y-71513640D01*
X157109544Y-71513649D01*
X156941661Y-71855900D01*
X156941655Y-71855915D01*
X156809261Y-72213389D01*
X156713705Y-72582451D01*
X156655977Y-72959270D01*
X156636670Y-73340000D01*
X156655977Y-73720729D01*
X156693229Y-73963889D01*
X156713706Y-74097553D01*
X156790632Y-74394662D01*
X156809261Y-74466610D01*
X156941655Y-74824084D01*
X156941661Y-74824099D01*
X157109544Y-75166350D01*
X157109549Y-75166359D01*
X157311196Y-75489871D01*
X157536582Y-75781046D01*
X157544543Y-75791330D01*
X157699951Y-75954819D01*
X157807190Y-76067634D01*
X158096440Y-76315948D01*
X158111504Y-76326433D01*
X158409334Y-76533728D01*
X158741927Y-76718333D01*
X158742655Y-76718737D01*
X158940291Y-76803549D01*
X158994135Y-76848076D01*
X159015358Y-76914644D01*
X158997223Y-76982119D01*
X158945487Y-77029078D01*
X158891391Y-77041500D01*
X152476137Y-77041500D01*
X152409098Y-77021815D01*
X152363343Y-76969011D01*
X152353399Y-76899853D01*
X152371143Y-76851528D01*
X152401290Y-76803549D01*
X152425749Y-76764622D01*
X152478082Y-76718333D01*
X152544624Y-76707376D01*
X152600000Y-76713616D01*
X152600004Y-76713616D01*
X152781041Y-76693218D01*
X152781044Y-76693217D01*
X152781047Y-76693217D01*
X152953015Y-76633043D01*
X153107281Y-76536111D01*
X153164753Y-76478638D01*
X153226073Y-76445155D01*
X153293387Y-76449280D01*
X153418945Y-76493215D01*
X153418951Y-76493216D01*
X153418953Y-76493217D01*
X153418954Y-76493217D01*
X153418958Y-76493218D01*
X153599996Y-76513616D01*
X153600000Y-76513616D01*
X153600004Y-76513616D01*
X153781041Y-76493218D01*
X153781044Y-76493217D01*
X153781047Y-76493217D01*
X153953015Y-76433043D01*
X154062895Y-76364000D01*
X154113178Y-76332406D01*
X154114827Y-76335031D01*
X154166748Y-76313761D01*
X154235459Y-76326433D01*
X154245497Y-76332108D01*
X154246981Y-76333041D01*
X154246985Y-76333043D01*
X154367652Y-76375266D01*
X154418953Y-76393217D01*
X154418958Y-76393218D01*
X154599996Y-76413616D01*
X154600000Y-76413616D01*
X154600004Y-76413616D01*
X154781041Y-76393218D01*
X154781044Y-76393217D01*
X154781047Y-76393217D01*
X154953015Y-76333043D01*
X155107281Y-76236111D01*
X155236111Y-76107281D01*
X155333043Y-75953015D01*
X155393217Y-75781047D01*
X155393218Y-75781041D01*
X155413616Y-75600003D01*
X155413616Y-75599996D01*
X155393218Y-75418958D01*
X155393217Y-75418953D01*
X155363284Y-75333410D01*
X155333043Y-75246985D01*
X155332107Y-75245496D01*
X155331797Y-75244396D01*
X155330023Y-75240713D01*
X155330668Y-75240402D01*
X155313107Y-75178260D01*
X155332854Y-75113459D01*
X155332406Y-75113178D01*
X155333442Y-75111528D01*
X155333474Y-75111425D01*
X155333723Y-75111081D01*
X155336111Y-75107281D01*
X155433043Y-74953015D01*
X155493217Y-74781047D01*
X155513616Y-74600000D01*
X155493217Y-74418953D01*
X155433043Y-74246985D01*
X155336111Y-74092719D01*
X155207281Y-73963889D01*
X155053016Y-73866957D01*
X154900803Y-73813696D01*
X154881047Y-73806783D01*
X154861081Y-73804533D01*
X154835850Y-73801690D01*
X154771437Y-73774622D01*
X154762055Y-73766151D01*
X154303836Y-73307931D01*
X154303832Y-73307928D01*
X154200081Y-73238603D01*
X154200072Y-73238598D01*
X154084785Y-73190845D01*
X154084777Y-73190843D01*
X153962398Y-73166500D01*
X153962394Y-73166500D01*
X135559351Y-73166500D01*
X135492312Y-73146815D01*
X135471670Y-73130181D01*
X135122530Y-72781041D01*
X134486668Y-72145180D01*
X134453184Y-72083858D01*
X134458168Y-72014167D01*
X134500040Y-71958233D01*
X134565504Y-71933816D01*
X134574350Y-71933500D01*
X140362395Y-71933500D01*
X140362396Y-71933499D01*
X140484785Y-71909155D01*
X140600075Y-71861400D01*
X140703833Y-71792071D01*
X141662057Y-70833846D01*
X141723378Y-70800363D01*
X141735835Y-70798311D01*
X141781047Y-70793217D01*
X141953015Y-70733043D01*
X142107281Y-70636111D01*
X142236111Y-70507281D01*
X142333043Y-70353015D01*
X142393217Y-70181047D01*
X142397135Y-70146273D01*
X142413616Y-70000003D01*
X142413616Y-69999996D01*
X142393218Y-69818958D01*
X142393217Y-69818953D01*
X142361397Y-69728017D01*
X142351052Y-69698454D01*
X142347492Y-69628676D01*
X142382221Y-69568048D01*
X142444214Y-69535821D01*
X142468095Y-69533500D01*
X146052840Y-69533500D01*
X146118812Y-69552507D01*
X146246977Y-69633039D01*
X146246980Y-69633041D01*
X146246984Y-69633042D01*
X146246985Y-69633043D01*
X146418953Y-69693217D01*
X146418958Y-69693218D01*
X146599996Y-69713616D01*
X146600000Y-69713616D01*
X146600004Y-69713616D01*
X146781041Y-69693218D01*
X146781044Y-69693217D01*
X146781047Y-69693217D01*
X146953015Y-69633043D01*
X147107281Y-69536111D01*
X147236111Y-69407281D01*
X147333043Y-69253015D01*
X147393217Y-69081047D01*
X147396150Y-69055019D01*
X147408702Y-68943617D01*
X147435768Y-68879203D01*
X147493363Y-68839647D01*
X147531922Y-68833500D01*
X152652840Y-68833500D01*
X152718812Y-68852507D01*
X152846977Y-68933039D01*
X152846980Y-68933041D01*
X152846984Y-68933042D01*
X152846985Y-68933043D01*
X152904062Y-68953015D01*
X153018953Y-68993217D01*
X153018958Y-68993218D01*
X153199996Y-69013616D01*
X153200000Y-69013616D01*
X153200004Y-69013616D01*
X153381041Y-68993218D01*
X153381044Y-68993217D01*
X153381047Y-68993217D01*
X153553015Y-68933043D01*
X153707281Y-68836111D01*
X153836111Y-68707281D01*
X153933043Y-68553015D01*
X153993217Y-68381047D01*
X154001407Y-68308360D01*
X154013616Y-68200003D01*
X154013616Y-68199996D01*
X153993218Y-68018958D01*
X153993217Y-68018953D01*
X153972288Y-67959141D01*
X153933043Y-67846985D01*
X153836111Y-67692719D01*
X153707281Y-67563889D01*
X153553015Y-67466957D01*
X153498693Y-67447949D01*
X153381046Y-67406782D01*
X153381041Y-67406781D01*
X153200004Y-67386384D01*
X153199996Y-67386384D01*
X153018958Y-67406781D01*
X153018953Y-67406782D01*
X152846980Y-67466958D01*
X152846977Y-67466960D01*
X152718812Y-67547493D01*
X152652840Y-67566500D01*
X151722345Y-67566500D01*
X151655306Y-67546815D01*
X151609551Y-67494011D01*
X151599125Y-67428617D01*
X151613616Y-67300003D01*
X151613616Y-67299996D01*
X151593218Y-67118958D01*
X151593217Y-67118953D01*
X151586857Y-67100776D01*
X151533043Y-66946985D01*
X151436111Y-66792719D01*
X151307281Y-66663889D01*
X151237143Y-66619818D01*
X151153017Y-66566958D01*
X151153016Y-66566957D01*
X151153015Y-66566957D01*
X151081506Y-66541935D01*
X150981046Y-66506782D01*
X150981041Y-66506781D01*
X150800004Y-66486384D01*
X150799996Y-66486384D01*
X150618958Y-66506781D01*
X150618953Y-66506782D01*
X150446982Y-66566958D01*
X150292718Y-66663889D01*
X150163889Y-66792718D01*
X150066956Y-66946985D01*
X150036700Y-67033454D01*
X149995978Y-67090231D01*
X149931025Y-67115978D01*
X149919658Y-67116500D01*
X149023471Y-67116500D01*
X148956432Y-67096815D01*
X148910677Y-67044011D01*
X148900251Y-67006382D01*
X148893218Y-66943958D01*
X148893217Y-66943953D01*
X148869095Y-66875016D01*
X148833043Y-66771985D01*
X148736111Y-66617719D01*
X148607281Y-66488889D01*
X148603294Y-66486384D01*
X148453017Y-66391958D01*
X148453016Y-66391957D01*
X148453015Y-66391957D01*
X148361687Y-66360000D01*
X148281046Y-66331782D01*
X148281041Y-66331781D01*
X148100004Y-66311384D01*
X148099996Y-66311384D01*
X147918958Y-66331781D01*
X147918953Y-66331782D01*
X147746982Y-66391958D01*
X147592718Y-66488889D01*
X147463889Y-66617718D01*
X147462215Y-66619818D01*
X147460789Y-66620818D01*
X147458965Y-66622643D01*
X147458645Y-66622323D01*
X147405025Y-66659955D01*
X147365272Y-66666500D01*
X140401205Y-66666500D01*
X140278826Y-66690843D01*
X140278818Y-66690845D01*
X140163531Y-66738598D01*
X140163522Y-66738603D01*
X140059771Y-66807928D01*
X140059767Y-66807931D01*
X139037519Y-67830181D01*
X138976196Y-67863666D01*
X138949838Y-67866500D01*
X134770442Y-67866500D01*
X134703403Y-67846815D01*
X134682761Y-67830181D01*
X132022760Y-65170180D01*
X131989275Y-65108857D01*
X131994259Y-65039165D01*
X132036131Y-64983232D01*
X132101595Y-64958815D01*
X132110441Y-64958499D01*
X132262017Y-64958499D01*
X132379021Y-64943097D01*
X132379025Y-64943095D01*
X132379030Y-64943095D01*
X132524622Y-64882788D01*
X132607308Y-64819340D01*
X132672473Y-64794149D01*
X132740917Y-64808187D01*
X132758261Y-64819332D01*
X132840958Y-64882788D01*
X132986550Y-64943095D01*
X133103565Y-64958500D01*
X134802014Y-64958499D01*
X134802017Y-64958499D01*
X134919021Y-64943097D01*
X134919025Y-64943095D01*
X134919030Y-64943095D01*
X135064622Y-64882788D01*
X135147308Y-64819340D01*
X135212473Y-64794149D01*
X135280917Y-64808187D01*
X135298261Y-64819332D01*
X135380958Y-64882788D01*
X135526550Y-64943095D01*
X135597545Y-64952441D01*
X135661440Y-64980707D01*
X135699912Y-65039031D01*
X135704579Y-65061494D01*
X135706782Y-65081044D01*
X135706782Y-65081046D01*
X135706783Y-65081047D01*
X135747184Y-65196508D01*
X135766958Y-65253017D01*
X135831083Y-65355071D01*
X135863889Y-65407281D01*
X135992719Y-65536111D01*
X136146985Y-65633043D01*
X136285865Y-65681639D01*
X136318953Y-65693217D01*
X136318958Y-65693218D01*
X136499996Y-65713616D01*
X136500000Y-65713616D01*
X136500004Y-65713616D01*
X136681041Y-65693218D01*
X136681044Y-65693217D01*
X136681047Y-65693217D01*
X136853015Y-65633043D01*
X137007281Y-65536111D01*
X137136111Y-65407281D01*
X137233043Y-65253015D01*
X137293217Y-65081047D01*
X137295636Y-65059570D01*
X137322702Y-64995157D01*
X137380296Y-64955601D01*
X137402666Y-64950514D01*
X137459030Y-64943095D01*
X137604622Y-64882788D01*
X137687308Y-64819340D01*
X137752473Y-64794149D01*
X137820917Y-64808187D01*
X137838261Y-64819332D01*
X137920958Y-64882788D01*
X138066550Y-64943095D01*
X138183565Y-64958500D01*
X139882014Y-64958499D01*
X139882017Y-64958499D01*
X139999021Y-64943097D01*
X139999025Y-64943095D01*
X139999030Y-64943095D01*
X140144622Y-64882788D01*
X140227308Y-64819340D01*
X140292473Y-64794149D01*
X140360917Y-64808187D01*
X140378261Y-64819332D01*
X140460958Y-64882788D01*
X140606550Y-64943095D01*
X140677541Y-64952441D01*
X140697845Y-64955114D01*
X140761742Y-64983380D01*
X140800213Y-65041705D01*
X140804880Y-65064166D01*
X140806782Y-65081044D01*
X140806782Y-65081046D01*
X140806783Y-65081047D01*
X140847184Y-65196508D01*
X140866958Y-65253017D01*
X140931083Y-65355071D01*
X140963889Y-65407281D01*
X141092719Y-65536111D01*
X141246985Y-65633043D01*
X141385865Y-65681639D01*
X141418953Y-65693217D01*
X141418958Y-65693218D01*
X141599996Y-65713616D01*
X141600000Y-65713616D01*
X141600004Y-65713616D01*
X141781041Y-65693218D01*
X141781044Y-65693217D01*
X141781047Y-65693217D01*
X141953015Y-65633043D01*
X142107281Y-65536111D01*
X142236111Y-65407281D01*
X142333043Y-65253015D01*
X142393217Y-65081047D01*
X142395937Y-65056896D01*
X142423003Y-64992485D01*
X142480597Y-64952928D01*
X142502966Y-64947842D01*
X142539030Y-64943095D01*
X142684622Y-64882788D01*
X142767308Y-64819340D01*
X142832473Y-64794149D01*
X142900917Y-64808187D01*
X142918261Y-64819332D01*
X143000958Y-64882788D01*
X143146550Y-64943095D01*
X143263565Y-64958500D01*
X144962014Y-64958499D01*
X144962017Y-64958499D01*
X145079021Y-64943097D01*
X145079025Y-64943095D01*
X145079030Y-64943095D01*
X145224622Y-64882788D01*
X145314288Y-64813984D01*
X145379453Y-64788793D01*
X145447897Y-64802831D01*
X145465256Y-64813987D01*
X145545243Y-64875363D01*
X145545248Y-64875366D01*
X145688765Y-64934812D01*
X145688770Y-64934814D01*
X145804119Y-64950000D01*
X147501461Y-64950000D01*
X147616809Y-64934814D01*
X147616814Y-64934812D01*
X147760331Y-64875366D01*
X147760332Y-64875366D01*
X147847303Y-64808631D01*
X147912473Y-64783437D01*
X147980917Y-64797475D01*
X147998277Y-64808631D01*
X148085248Y-64875366D01*
X148228765Y-64934812D01*
X148228770Y-64934814D01*
X148344119Y-64950000D01*
X150041461Y-64950000D01*
X150156809Y-64934814D01*
X150156814Y-64934812D01*
X150300331Y-64875366D01*
X150300337Y-64875363D01*
X150380322Y-64813988D01*
X150445491Y-64788793D01*
X150513936Y-64802831D01*
X150531290Y-64813984D01*
X150620958Y-64882788D01*
X150620960Y-64882789D01*
X150653940Y-64896449D01*
X150766550Y-64943095D01*
X150883565Y-64958500D01*
X151117245Y-64958499D01*
X151184285Y-64978183D01*
X151204927Y-64994818D01*
X151249270Y-65039161D01*
X151249274Y-65039164D01*
X151373499Y-65122169D01*
X151373512Y-65122176D01*
X151511539Y-65179348D01*
X151511544Y-65179350D01*
X151511548Y-65179350D01*
X151511549Y-65179351D01*
X151658081Y-65208499D01*
X151658084Y-65208499D01*
X151807498Y-65208499D01*
X151906082Y-65188888D01*
X151954036Y-65179350D01*
X152092074Y-65122173D01*
X152182887Y-65061494D01*
X152216305Y-65039165D01*
X152216305Y-65039164D01*
X152216306Y-65039164D01*
X152244920Y-65010548D01*
X152260652Y-64994818D01*
X152321975Y-64961333D01*
X152348333Y-64958499D01*
X152582017Y-64958499D01*
X152699021Y-64943097D01*
X152699025Y-64943095D01*
X152699030Y-64943095D01*
X152844622Y-64882788D01*
X152927308Y-64819340D01*
X152992473Y-64794149D01*
X153060917Y-64808187D01*
X153078261Y-64819332D01*
X153160958Y-64882788D01*
X153306550Y-64943095D01*
X153423565Y-64958500D01*
X155122014Y-64958499D01*
X155122017Y-64958499D01*
X155239021Y-64943097D01*
X155239025Y-64943095D01*
X155239030Y-64943095D01*
X155384622Y-64882788D01*
X155509645Y-64786855D01*
X155605578Y-64661832D01*
X155665885Y-64516240D01*
X155681290Y-64399225D01*
X155681289Y-61500776D01*
X155681289Y-61500774D01*
X155681289Y-61500772D01*
X155665887Y-61383768D01*
X155665885Y-61383761D01*
X155665885Y-61383760D01*
X155605578Y-61238168D01*
X155509645Y-61113145D01*
X155384622Y-61017212D01*
X155384618Y-61017210D01*
X155384619Y-61017210D01*
X155239030Y-60956905D01*
X155239028Y-60956904D01*
X155122015Y-60941500D01*
X153423562Y-60941500D01*
X153306558Y-60956902D01*
X153306549Y-60956905D01*
X153160960Y-61017210D01*
X153078276Y-61080656D01*
X153013106Y-61105850D01*
X152944662Y-61091811D01*
X152927304Y-61080656D01*
X152844622Y-61017212D01*
X152844618Y-61017210D01*
X152844619Y-61017210D01*
X152699030Y-60956905D01*
X152699028Y-60956904D01*
X152582016Y-60941500D01*
X152582015Y-60941500D01*
X152065543Y-60941500D01*
X151998504Y-60921815D01*
X151977862Y-60905181D01*
X150683518Y-59610836D01*
X150683517Y-59610835D01*
X150621399Y-59569330D01*
X150559284Y-59527826D01*
X150421247Y-59470649D01*
X150421239Y-59470647D01*
X150347976Y-59456074D01*
X150274709Y-59441500D01*
X150274706Y-59441500D01*
X146576843Y-59441500D01*
X146509804Y-59421815D01*
X146464049Y-59369011D01*
X146454105Y-59299853D01*
X146459801Y-59276546D01*
X146493216Y-59181049D01*
X146493217Y-59181047D01*
X146498112Y-59137601D01*
X146513616Y-59000003D01*
X146513616Y-58999997D01*
X146510392Y-58971384D01*
X146522446Y-58902562D01*
X146569795Y-58851182D01*
X146633612Y-58833500D01*
X163062395Y-58833500D01*
X163062396Y-58833499D01*
X163184785Y-58809155D01*
X163300075Y-58761400D01*
X163403833Y-58692071D01*
X163562058Y-58533845D01*
X163623377Y-58500363D01*
X163635835Y-58498311D01*
X163681047Y-58493217D01*
X163853015Y-58433043D01*
X164007281Y-58336111D01*
X164136111Y-58207281D01*
X164233043Y-58053015D01*
X164293217Y-57881047D01*
X164305729Y-57770000D01*
X164313616Y-57700003D01*
X164313616Y-57699996D01*
X164293218Y-57518958D01*
X164293217Y-57518953D01*
X164261607Y-57428617D01*
X164233043Y-57346985D01*
X164136111Y-57192719D01*
X164007281Y-57063889D01*
X163853017Y-56966958D01*
X163853016Y-56966957D01*
X163853015Y-56966957D01*
X163795930Y-56946982D01*
X163681046Y-56906782D01*
X163681041Y-56906781D01*
X163500004Y-56886384D01*
X163499996Y-56886384D01*
X163318958Y-56906781D01*
X163318953Y-56906782D01*
X163146982Y-56966958D01*
X162992718Y-57063889D01*
X162863889Y-57192718D01*
X162766957Y-57346983D01*
X162719205Y-57483454D01*
X162678483Y-57540230D01*
X162613531Y-57565978D01*
X162602163Y-57566500D01*
X161882345Y-57566500D01*
X161815306Y-57546815D01*
X161769551Y-57494011D01*
X161759125Y-57428617D01*
X161773616Y-57300003D01*
X161773616Y-57299996D01*
X161753218Y-57118958D01*
X161753217Y-57118953D01*
X161752176Y-57115978D01*
X161693043Y-56946985D01*
X161596111Y-56792719D01*
X161467281Y-56663889D01*
X161429628Y-56640230D01*
X161313017Y-56566958D01*
X161313016Y-56566957D01*
X161313015Y-56566957D01*
X161258693Y-56547949D01*
X161141046Y-56506782D01*
X161141041Y-56506781D01*
X160960004Y-56486384D01*
X160959996Y-56486384D01*
X160778958Y-56506781D01*
X160778953Y-56506782D01*
X160606982Y-56566958D01*
X160452718Y-56663889D01*
X160323889Y-56792718D01*
X160226956Y-56946985D01*
X160196700Y-57033454D01*
X160155978Y-57090231D01*
X160091025Y-57115978D01*
X160079658Y-57116500D01*
X159336711Y-57116500D01*
X159269672Y-57096815D01*
X159223917Y-57044011D01*
X159213491Y-56978616D01*
X159233616Y-56800002D01*
X159233616Y-56799996D01*
X159213218Y-56618958D01*
X159213217Y-56618953D01*
X159195023Y-56566957D01*
X159153043Y-56446985D01*
X159056111Y-56292719D01*
X158927281Y-56163889D01*
X158773017Y-56066958D01*
X158773016Y-56066957D01*
X158773015Y-56066957D01*
X158718693Y-56047949D01*
X158601046Y-56006782D01*
X158601041Y-56006781D01*
X158420004Y-55986384D01*
X158419996Y-55986384D01*
X158238958Y-56006781D01*
X158238953Y-56006782D01*
X158066982Y-56066958D01*
X157912718Y-56163889D01*
X157783889Y-56292718D01*
X157686957Y-56446983D01*
X157666033Y-56506782D01*
X157648634Y-56556508D01*
X157639205Y-56583454D01*
X157598483Y-56640230D01*
X157533531Y-56665978D01*
X157522163Y-56666500D01*
X156803086Y-56666500D01*
X156736047Y-56646815D01*
X156690292Y-56594011D01*
X156680348Y-56524853D01*
X156686045Y-56501544D01*
X156693216Y-56481050D01*
X156693218Y-56481041D01*
X156713616Y-56300003D01*
X156713616Y-56299996D01*
X156693218Y-56118958D01*
X156693217Y-56118953D01*
X156675023Y-56066957D01*
X156633043Y-55946985D01*
X156536111Y-55792719D01*
X156407281Y-55663889D01*
X156253015Y-55566957D01*
X156198693Y-55547949D01*
X156081046Y-55506782D01*
X156081041Y-55506781D01*
X155900004Y-55486384D01*
X155899996Y-55486384D01*
X155718958Y-55506781D01*
X155718953Y-55506782D01*
X155546982Y-55566958D01*
X155392718Y-55663889D01*
X155263889Y-55792718D01*
X155166957Y-55946983D01*
X155106781Y-56118958D01*
X155106522Y-56120096D01*
X155106152Y-56120756D01*
X155104484Y-56125525D01*
X155103648Y-56125232D01*
X155072412Y-56181074D01*
X155010749Y-56213930D01*
X154985632Y-56216500D01*
X131526289Y-56216500D01*
X131459250Y-56196815D01*
X131413495Y-56144011D01*
X131403069Y-56106384D01*
X131393218Y-56018957D01*
X131393217Y-56018953D01*
X131333043Y-55846985D01*
X131236111Y-55692719D01*
X131107281Y-55563889D01*
X131016396Y-55506782D01*
X130953017Y-55466958D01*
X130953016Y-55466957D01*
X130953015Y-55466957D01*
X130898693Y-55447949D01*
X130781046Y-55406782D01*
X130781041Y-55406781D01*
X130600004Y-55386384D01*
X130599996Y-55386384D01*
X130418958Y-55406781D01*
X130418953Y-55406782D01*
X130246982Y-55466958D01*
X130092718Y-55563889D01*
X130026427Y-55630181D01*
X129965104Y-55663666D01*
X129938746Y-55666500D01*
X123847160Y-55666500D01*
X123781188Y-55647493D01*
X123653022Y-55566960D01*
X123653019Y-55566958D01*
X123481046Y-55506782D01*
X123481041Y-55506781D01*
X123300004Y-55486384D01*
X123299996Y-55486384D01*
X123118958Y-55506781D01*
X123118953Y-55506782D01*
X122946982Y-55566958D01*
X122792718Y-55663889D01*
X122663889Y-55792718D01*
X122566958Y-55946982D01*
X122506782Y-56118953D01*
X122506781Y-56118958D01*
X122486384Y-56299996D01*
X122486384Y-56300003D01*
X122506781Y-56481041D01*
X122506782Y-56481046D01*
X122515788Y-56506782D01*
X122562483Y-56640230D01*
X122566958Y-56653017D01*
X122643012Y-56774056D01*
X122662012Y-56841293D01*
X122655060Y-56880982D01*
X122606783Y-57018950D01*
X122606781Y-57018958D01*
X122586384Y-57199996D01*
X122586384Y-57200003D01*
X122606781Y-57381041D01*
X122606782Y-57381046D01*
X122641774Y-57481047D01*
X122664846Y-57546983D01*
X122666958Y-57553017D01*
X122750306Y-57685664D01*
X122763889Y-57707281D01*
X122892719Y-57836111D01*
X122964234Y-57881047D01*
X122994397Y-57900000D01*
X123046985Y-57933043D01*
X123206671Y-57988919D01*
X123263447Y-58029641D01*
X123282759Y-58065007D01*
X123297180Y-58106221D01*
X123341357Y-58176527D01*
X123360358Y-58243764D01*
X123339991Y-58310599D01*
X123286723Y-58355814D01*
X123236364Y-58366500D01*
X120537601Y-58366500D01*
X120415222Y-58390843D01*
X120415214Y-58390845D01*
X120299927Y-58438598D01*
X120299918Y-58438603D01*
X120196167Y-58507928D01*
X120196163Y-58507931D01*
X118737943Y-59966151D01*
X118676620Y-59999636D01*
X118664149Y-60001690D01*
X118618953Y-60006783D01*
X118446983Y-60066957D01*
X118292718Y-60163889D01*
X118163889Y-60292718D01*
X118066958Y-60446982D01*
X118006782Y-60618953D01*
X118006781Y-60618958D01*
X117986384Y-60799996D01*
X117986384Y-60800003D01*
X118006781Y-60981041D01*
X118006782Y-60981046D01*
X118066958Y-61153017D01*
X118163889Y-61307281D01*
X118292719Y-61436111D01*
X118446985Y-61533043D01*
X118618953Y-61593217D01*
X118618958Y-61593218D01*
X118799996Y-61613616D01*
X118800000Y-61613616D01*
X118800004Y-61613616D01*
X118981041Y-61593218D01*
X118981044Y-61593217D01*
X118981047Y-61593217D01*
X119153015Y-61533043D01*
X119307281Y-61436111D01*
X119436111Y-61307281D01*
X119533043Y-61153015D01*
X119593217Y-60981047D01*
X119598309Y-60935851D01*
X119625374Y-60871439D01*
X119633838Y-60862064D01*
X120826085Y-59669819D01*
X120887408Y-59636334D01*
X120913766Y-59633500D01*
X127394457Y-59633500D01*
X127461496Y-59653185D01*
X127507251Y-59705989D01*
X127517195Y-59775147D01*
X127488170Y-59838703D01*
X127482138Y-59845181D01*
X126422136Y-60905181D01*
X126360813Y-60938666D01*
X126334455Y-60941500D01*
X125483562Y-60941500D01*
X125366558Y-60956902D01*
X125366549Y-60956905D01*
X125220960Y-61017210D01*
X125095935Y-61113145D01*
X125000000Y-61238170D01*
X124939695Y-61383759D01*
X124939694Y-61383761D01*
X124924290Y-61500774D01*
X124924291Y-64392500D01*
X124904606Y-64459539D01*
X124851803Y-64505294D01*
X124800291Y-64516500D01*
X116968767Y-64516500D01*
X116846388Y-64540842D01*
X116846379Y-64540845D01*
X116731090Y-64588599D01*
X116731087Y-64588600D01*
X116627333Y-64657927D01*
X116627329Y-64657930D01*
X115930188Y-65355071D01*
X115868865Y-65388556D01*
X115856394Y-65390610D01*
X115811199Y-65395703D01*
X115639229Y-65455877D01*
X115484964Y-65552809D01*
X115356135Y-65681638D01*
X115259204Y-65835902D01*
X115199028Y-66007873D01*
X115199027Y-66007878D01*
X115178630Y-66188916D01*
X115178630Y-66188923D01*
X115199027Y-66369961D01*
X115199028Y-66369966D01*
X115213037Y-66410000D01*
X115246902Y-66506782D01*
X115259204Y-66541937D01*
X115307431Y-66618690D01*
X115326431Y-66685927D01*
X115319479Y-66725615D01*
X115292618Y-66802382D01*
X115292618Y-66802383D01*
X115272220Y-66983425D01*
X115272220Y-66983432D01*
X115292617Y-67164470D01*
X115292618Y-67164475D01*
X115352794Y-67336446D01*
X115400201Y-67411894D01*
X115419201Y-67479131D01*
X115412249Y-67518820D01*
X115384876Y-67597049D01*
X115364478Y-67778090D01*
X115364478Y-67778097D01*
X115384875Y-67959135D01*
X115384876Y-67959140D01*
X115445052Y-68131111D01*
X115489239Y-68201435D01*
X115508239Y-68268672D01*
X115501287Y-68308360D01*
X115471059Y-68394748D01*
X115471059Y-68394749D01*
X115450661Y-68575791D01*
X115450661Y-68575798D01*
X115471058Y-68756836D01*
X115471059Y-68756841D01*
X115521153Y-68900000D01*
X115531234Y-68928810D01*
X115543349Y-68948091D01*
X115562350Y-69015327D01*
X115555398Y-69055019D01*
X115506782Y-69193953D01*
X115506781Y-69193958D01*
X115486384Y-69374996D01*
X115486384Y-69375003D01*
X115506781Y-69556041D01*
X115506782Y-69556046D01*
X115566958Y-69728017D01*
X115660274Y-69876528D01*
X115679274Y-69943765D01*
X115658906Y-70010600D01*
X115605639Y-70055814D01*
X115555280Y-70066500D01*
X113937601Y-70066500D01*
X113815222Y-70090843D01*
X113815214Y-70090845D01*
X113699927Y-70138598D01*
X113699918Y-70138603D01*
X113596167Y-70207928D01*
X113596163Y-70207931D01*
X113137943Y-70666151D01*
X113076620Y-70699636D01*
X113064149Y-70701690D01*
X113042310Y-70704150D01*
X113018953Y-70706783D01*
X113018952Y-70706783D01*
X113018946Y-70706784D01*
X113012154Y-70708334D01*
X113011580Y-70705819D01*
X112953641Y-70708760D01*
X112893024Y-70674013D01*
X112860814Y-70612011D01*
X112858500Y-70588165D01*
X112858500Y-68278721D01*
X112858499Y-68278717D01*
X112856501Y-68268672D01*
X112834155Y-68156331D01*
X112786400Y-68041041D01*
X112786399Y-68041040D01*
X112786396Y-68041034D01*
X112717072Y-67937284D01*
X112694764Y-67914976D01*
X112628833Y-67849045D01*
X112550347Y-67770559D01*
X112516862Y-67709236D01*
X112514808Y-67668994D01*
X112521674Y-67608060D01*
X112521674Y-67608054D01*
X112501276Y-67427016D01*
X112501275Y-67427011D01*
X112494197Y-67406783D01*
X112441101Y-67255043D01*
X112344169Y-67100777D01*
X112215339Y-66971947D01*
X112061073Y-66875015D01*
X111983611Y-66847910D01*
X111889104Y-66814840D01*
X111889099Y-66814839D01*
X111708062Y-66794442D01*
X111708054Y-66794442D01*
X111527016Y-66814839D01*
X111527011Y-66814840D01*
X111355040Y-66875016D01*
X111200776Y-66971947D01*
X111071945Y-67100778D01*
X111012494Y-67195394D01*
X110960159Y-67241685D01*
X110891106Y-67252332D01*
X110827258Y-67223957D01*
X110788886Y-67165567D01*
X110783501Y-67129421D01*
X110783501Y-65044433D01*
X110803186Y-64977394D01*
X110847840Y-64937898D01*
X110847118Y-64936748D01*
X110853013Y-64933043D01*
X110853015Y-64933043D01*
X111007281Y-64836111D01*
X111136111Y-64707281D01*
X111233043Y-64553015D01*
X111293217Y-64381047D01*
X111298309Y-64335852D01*
X111325374Y-64271441D01*
X111333837Y-64262066D01*
X111492072Y-64103833D01*
X111561401Y-64000075D01*
X111609155Y-63884785D01*
X111615475Y-63853015D01*
X111633499Y-63762398D01*
X111633500Y-63762395D01*
X111633500Y-59137605D01*
X111633499Y-59137601D01*
X111609155Y-59015215D01*
X111589166Y-58966957D01*
X111561401Y-58899925D01*
X111561399Y-58899923D01*
X111561399Y-58899921D01*
X111492072Y-58796167D01*
X111492069Y-58796163D01*
X110401581Y-57705677D01*
X110372221Y-57658951D01*
X110333043Y-57546985D01*
X110315432Y-57518958D01*
X110236110Y-57392718D01*
X110107281Y-57263889D01*
X109953017Y-57166958D01*
X109953016Y-57166957D01*
X109953015Y-57166957D01*
X109898693Y-57147949D01*
X109781046Y-57106782D01*
X109781041Y-57106781D01*
X109600004Y-57086384D01*
X109599996Y-57086384D01*
X109418958Y-57106781D01*
X109418953Y-57106782D01*
X109246982Y-57166958D01*
X109092718Y-57263889D01*
X108963889Y-57392718D01*
X108866958Y-57546982D01*
X108806782Y-57718953D01*
X108806781Y-57718958D01*
X108786384Y-57899996D01*
X108786384Y-57900003D01*
X108806781Y-58081041D01*
X108806782Y-58081046D01*
X108866958Y-58253017D01*
X108948941Y-58383491D01*
X108963889Y-58407281D01*
X109092719Y-58536111D01*
X109246985Y-58633043D01*
X109415678Y-58692071D01*
X109418953Y-58693217D01*
X109418958Y-58693218D01*
X109576844Y-58711007D01*
X109641258Y-58738073D01*
X109650642Y-58746546D01*
X109989119Y-59085023D01*
X110022604Y-59146346D01*
X110017620Y-59216038D01*
X109975748Y-59271971D01*
X109915322Y-59295924D01*
X109818957Y-59306781D01*
X109818953Y-59306782D01*
X109646982Y-59366958D01*
X109492718Y-59463889D01*
X109363889Y-59592718D01*
X109266957Y-59746983D01*
X109206783Y-59918953D01*
X109201690Y-59964149D01*
X109174622Y-60028562D01*
X109166151Y-60037943D01*
X106373915Y-62830181D01*
X106312592Y-62863666D01*
X106286234Y-62866500D01*
X106247160Y-62866500D01*
X106181188Y-62847493D01*
X106053022Y-62766960D01*
X106053019Y-62766958D01*
X105881046Y-62706782D01*
X105881041Y-62706781D01*
X105700004Y-62686384D01*
X105699996Y-62686384D01*
X105518958Y-62706781D01*
X105518953Y-62706782D01*
X105346982Y-62766958D01*
X105192718Y-62863889D01*
X105063889Y-62992718D01*
X104966958Y-63146982D01*
X104906782Y-63318953D01*
X104906781Y-63318958D01*
X104886384Y-63499996D01*
X100075500Y-63499996D01*
X100075500Y-57219999D01*
X102031115Y-57219999D01*
X102031116Y-57220000D01*
X102783012Y-57220000D01*
X102765795Y-57229940D01*
X102709940Y-57285795D01*
X102670444Y-57354204D01*
X102650000Y-57430504D01*
X102650000Y-57509496D01*
X102670444Y-57585796D01*
X102709940Y-57654205D01*
X102765795Y-57710060D01*
X102783012Y-57720000D01*
X102031116Y-57720000D01*
X102036506Y-57747100D01*
X102036507Y-57747103D01*
X102108119Y-57919991D01*
X102108124Y-57920000D01*
X102212086Y-58075589D01*
X102212089Y-58075593D01*
X102344406Y-58207910D01*
X102344410Y-58207913D01*
X102499999Y-58311875D01*
X102500008Y-58311880D01*
X102672894Y-58383491D01*
X102672902Y-58383493D01*
X102856428Y-58419999D01*
X102856431Y-58420000D01*
X102950000Y-58420000D01*
X102950000Y-57770000D01*
X103450000Y-57770000D01*
X103450000Y-58420000D01*
X103543569Y-58420000D01*
X103543571Y-58419999D01*
X103727097Y-58383493D01*
X103727105Y-58383491D01*
X103899991Y-58311880D01*
X103900000Y-58311875D01*
X104055589Y-58207913D01*
X104055593Y-58207910D01*
X104187910Y-58075593D01*
X104187913Y-58075589D01*
X104291875Y-57920000D01*
X104291880Y-57919991D01*
X104363492Y-57747103D01*
X104363493Y-57747100D01*
X104368884Y-57720000D01*
X103616988Y-57720000D01*
X103634205Y-57710060D01*
X103690060Y-57654205D01*
X103729556Y-57585796D01*
X103750000Y-57509496D01*
X103750000Y-57430504D01*
X103729556Y-57354204D01*
X103690060Y-57285795D01*
X103634205Y-57229940D01*
X103616988Y-57220000D01*
X104368884Y-57220000D01*
X104368884Y-57219999D01*
X105251115Y-57219999D01*
X105251116Y-57220000D01*
X106003012Y-57220000D01*
X105985795Y-57229940D01*
X105929940Y-57285795D01*
X105890444Y-57354204D01*
X105870000Y-57430504D01*
X105870000Y-57509496D01*
X105890444Y-57585796D01*
X105929940Y-57654205D01*
X105985795Y-57710060D01*
X106003012Y-57720000D01*
X105251116Y-57720000D01*
X105256506Y-57747100D01*
X105256507Y-57747103D01*
X105328119Y-57919991D01*
X105328124Y-57920000D01*
X105432086Y-58075589D01*
X105432089Y-58075593D01*
X105564406Y-58207910D01*
X105564410Y-58207913D01*
X105719999Y-58311875D01*
X105720008Y-58311880D01*
X105892894Y-58383491D01*
X105892902Y-58383493D01*
X106076428Y-58419999D01*
X106076431Y-58420000D01*
X106170000Y-58420000D01*
X106170000Y-57770000D01*
X106670000Y-57770000D01*
X106670000Y-58420000D01*
X106763569Y-58420000D01*
X106763571Y-58419999D01*
X106947097Y-58383493D01*
X106947105Y-58383491D01*
X107119991Y-58311880D01*
X107120000Y-58311875D01*
X107275589Y-58207913D01*
X107275593Y-58207910D01*
X107407910Y-58075593D01*
X107407913Y-58075589D01*
X107511875Y-57920000D01*
X107511880Y-57919991D01*
X107583492Y-57747103D01*
X107583493Y-57747100D01*
X107588884Y-57720000D01*
X106836988Y-57720000D01*
X106854205Y-57710060D01*
X106910060Y-57654205D01*
X106949556Y-57585796D01*
X106970000Y-57509496D01*
X106970000Y-57430504D01*
X106949556Y-57354204D01*
X106910060Y-57285795D01*
X106854205Y-57229940D01*
X106836988Y-57220000D01*
X107588884Y-57220000D01*
X107588884Y-57219999D01*
X107583493Y-57192899D01*
X107583492Y-57192896D01*
X107511880Y-57020008D01*
X107511875Y-57019999D01*
X107407913Y-56864410D01*
X107407910Y-56864406D01*
X107275593Y-56732089D01*
X107275589Y-56732086D01*
X107120000Y-56628124D01*
X107119991Y-56628119D01*
X106947105Y-56556508D01*
X106947097Y-56556506D01*
X106763570Y-56520000D01*
X106670000Y-56520000D01*
X106670000Y-57170000D01*
X106170000Y-57170000D01*
X106170000Y-56520000D01*
X106076430Y-56520000D01*
X105892902Y-56556506D01*
X105892894Y-56556508D01*
X105720008Y-56628119D01*
X105719999Y-56628124D01*
X105564410Y-56732086D01*
X105564406Y-56732089D01*
X105432089Y-56864406D01*
X105432086Y-56864410D01*
X105328124Y-57019999D01*
X105328119Y-57020008D01*
X105256507Y-57192896D01*
X105256506Y-57192899D01*
X105251115Y-57219999D01*
X104368884Y-57219999D01*
X104363493Y-57192899D01*
X104363492Y-57192896D01*
X104291880Y-57020008D01*
X104291875Y-57019999D01*
X104187913Y-56864410D01*
X104187910Y-56864406D01*
X104055593Y-56732089D01*
X104055589Y-56732086D01*
X103900000Y-56628124D01*
X103899991Y-56628119D01*
X103727105Y-56556508D01*
X103727097Y-56556506D01*
X103543570Y-56520000D01*
X103450000Y-56520000D01*
X103450000Y-57170000D01*
X102950000Y-57170000D01*
X102950000Y-56520000D01*
X102856430Y-56520000D01*
X102672902Y-56556506D01*
X102672894Y-56556508D01*
X102500008Y-56628119D01*
X102499999Y-56628124D01*
X102344410Y-56732086D01*
X102344406Y-56732089D01*
X102212089Y-56864406D01*
X102212086Y-56864410D01*
X102108124Y-57019999D01*
X102108119Y-57020008D01*
X102036507Y-57192896D01*
X102036506Y-57192899D01*
X102031115Y-57219999D01*
X100075500Y-57219999D01*
X100075500Y-52699996D01*
X106086384Y-52699996D01*
X106086384Y-52700003D01*
X106106781Y-52881041D01*
X106106782Y-52881046D01*
X106147949Y-52998693D01*
X106166957Y-53053015D01*
X106263889Y-53207281D01*
X106392719Y-53336111D01*
X106546985Y-53433043D01*
X106718953Y-53493217D01*
X106718958Y-53493218D01*
X106899996Y-53513616D01*
X106900000Y-53513616D01*
X106900004Y-53513616D01*
X107081041Y-53493218D01*
X107081044Y-53493217D01*
X107081047Y-53493217D01*
X107253015Y-53433043D01*
X107253017Y-53433041D01*
X107253019Y-53433041D01*
X107253022Y-53433039D01*
X107381188Y-53352507D01*
X107447160Y-53333500D01*
X125086234Y-53333500D01*
X125153273Y-53353185D01*
X125173915Y-53369819D01*
X125466151Y-53662055D01*
X125499636Y-53723378D01*
X125501690Y-53735850D01*
X125506783Y-53781046D01*
X125566957Y-53953016D01*
X125566958Y-53953017D01*
X125663889Y-54107281D01*
X125792719Y-54236111D01*
X125946985Y-54333043D01*
X126118953Y-54393217D01*
X126118958Y-54393218D01*
X126299996Y-54413616D01*
X126300000Y-54413616D01*
X126300004Y-54413616D01*
X126481041Y-54393218D01*
X126481044Y-54393217D01*
X126481047Y-54393217D01*
X126653015Y-54333043D01*
X126807281Y-54236111D01*
X126936111Y-54107281D01*
X127033043Y-53953015D01*
X127093217Y-53781047D01*
X127093218Y-53781041D01*
X127113616Y-53600003D01*
X127113616Y-53599996D01*
X127093218Y-53418958D01*
X127093217Y-53418953D01*
X127076024Y-53369819D01*
X127033043Y-53246985D01*
X126936111Y-53092719D01*
X126807281Y-52963889D01*
X126653016Y-52866957D01*
X126567031Y-52836870D01*
X126481047Y-52806783D01*
X126461081Y-52804533D01*
X126435850Y-52801690D01*
X126371437Y-52774622D01*
X126362055Y-52766151D01*
X125803836Y-52207931D01*
X125803832Y-52207928D01*
X125700081Y-52138603D01*
X125700072Y-52138598D01*
X125584785Y-52090845D01*
X125584777Y-52090843D01*
X125462398Y-52066500D01*
X125462394Y-52066500D01*
X107447160Y-52066500D01*
X107381188Y-52047493D01*
X107253022Y-51966960D01*
X107253019Y-51966958D01*
X107081046Y-51906782D01*
X107081041Y-51906781D01*
X106900004Y-51886384D01*
X106899996Y-51886384D01*
X106718958Y-51906781D01*
X106718953Y-51906782D01*
X106546982Y-51966958D01*
X106392718Y-52063889D01*
X106263889Y-52192718D01*
X106166958Y-52346982D01*
X106106782Y-52518953D01*
X106106781Y-52518958D01*
X106086384Y-52699996D01*
X100075500Y-52699996D01*
X100075500Y-48301345D01*
X117437500Y-48301345D01*
X117437500Y-50098654D01*
X117444011Y-50159202D01*
X117444011Y-50159204D01*
X117495111Y-50296204D01*
X117582739Y-50413261D01*
X117699796Y-50500889D01*
X117836799Y-50551989D01*
X117864050Y-50554918D01*
X117897345Y-50558499D01*
X117897362Y-50558500D01*
X119694638Y-50558500D01*
X119694654Y-50558499D01*
X119721692Y-50555591D01*
X119755201Y-50551989D01*
X119892204Y-50500889D01*
X120009261Y-50413261D01*
X120096889Y-50296204D01*
X120142138Y-50174887D01*
X120184009Y-50118956D01*
X120249474Y-50094539D01*
X120317746Y-50109391D01*
X120349545Y-50134236D01*
X120412760Y-50202906D01*
X120590424Y-50341189D01*
X120590425Y-50341189D01*
X120590427Y-50341191D01*
X120650314Y-50373600D01*
X120788426Y-50448342D01*
X121001365Y-50521444D01*
X121223431Y-50558500D01*
X121448569Y-50558500D01*
X121670635Y-50521444D01*
X121883574Y-50448342D01*
X122081576Y-50341189D01*
X122259240Y-50202906D01*
X122380594Y-50071082D01*
X122411715Y-50037276D01*
X122411715Y-50037275D01*
X122411722Y-50037268D01*
X122502193Y-49898790D01*
X122555338Y-49853437D01*
X122624569Y-49844013D01*
X122687905Y-49873515D01*
X122709804Y-49898787D01*
X122800278Y-50037268D01*
X122800283Y-50037273D01*
X122800284Y-50037276D01*
X122926968Y-50174889D01*
X122952760Y-50202906D01*
X123130424Y-50341189D01*
X123130425Y-50341189D01*
X123130427Y-50341191D01*
X123190314Y-50373600D01*
X123328426Y-50448342D01*
X123541365Y-50521444D01*
X123763431Y-50558500D01*
X123988569Y-50558500D01*
X124210635Y-50521444D01*
X124423574Y-50448342D01*
X124621576Y-50341189D01*
X124799240Y-50202906D01*
X124920594Y-50071082D01*
X124951715Y-50037276D01*
X124951715Y-50037275D01*
X124951722Y-50037268D01*
X125045749Y-49893347D01*
X125098894Y-49847994D01*
X125168125Y-49838570D01*
X125231461Y-49868072D01*
X125251130Y-49890048D01*
X125377890Y-50071078D01*
X125544917Y-50238105D01*
X125738421Y-50373600D01*
X125952507Y-50473429D01*
X125952516Y-50473433D01*
X126166000Y-50530634D01*
X126166000Y-49633012D01*
X126223007Y-49665925D01*
X126350174Y-49700000D01*
X126481826Y-49700000D01*
X126608993Y-49665925D01*
X126666000Y-49633012D01*
X126666000Y-50530633D01*
X126879483Y-50473433D01*
X126879492Y-50473429D01*
X127093578Y-50373600D01*
X127287082Y-50238105D01*
X127454105Y-50071082D01*
X127580868Y-49890048D01*
X127635445Y-49846423D01*
X127704944Y-49839231D01*
X127767298Y-49870753D01*
X127786251Y-49893350D01*
X127880276Y-50037265D01*
X127880284Y-50037276D01*
X128006968Y-50174889D01*
X128032760Y-50202906D01*
X128210424Y-50341189D01*
X128210425Y-50341189D01*
X128210427Y-50341191D01*
X128270314Y-50373600D01*
X128408426Y-50448342D01*
X128621365Y-50521444D01*
X128843431Y-50558500D01*
X129068569Y-50558500D01*
X129290635Y-50521444D01*
X129503574Y-50448342D01*
X129701576Y-50341189D01*
X129879240Y-50202906D01*
X130000594Y-50071082D01*
X130031715Y-50037276D01*
X130031715Y-50037275D01*
X130031722Y-50037268D01*
X130122193Y-49898790D01*
X130175338Y-49853437D01*
X130244569Y-49844013D01*
X130307905Y-49873515D01*
X130329804Y-49898787D01*
X130420278Y-50037268D01*
X130420283Y-50037273D01*
X130420284Y-50037276D01*
X130546968Y-50174889D01*
X130572760Y-50202906D01*
X130750424Y-50341189D01*
X130750425Y-50341189D01*
X130750427Y-50341191D01*
X130810314Y-50373600D01*
X130948426Y-50448342D01*
X131161365Y-50521444D01*
X131383431Y-50558500D01*
X131608569Y-50558500D01*
X131830635Y-50521444D01*
X132043574Y-50448342D01*
X132241576Y-50341189D01*
X132419240Y-50202906D01*
X132540594Y-50071082D01*
X132571715Y-50037276D01*
X132571715Y-50037275D01*
X132571722Y-50037268D01*
X132662193Y-49898790D01*
X132715338Y-49853437D01*
X132784569Y-49844013D01*
X132847905Y-49873515D01*
X132869804Y-49898787D01*
X132960278Y-50037268D01*
X132960283Y-50037273D01*
X132960284Y-50037276D01*
X133086968Y-50174889D01*
X133112760Y-50202906D01*
X133290424Y-50341189D01*
X133290425Y-50341189D01*
X133290427Y-50341191D01*
X133350314Y-50373600D01*
X133488426Y-50448342D01*
X133701365Y-50521444D01*
X133923431Y-50558500D01*
X134148568Y-50558500D01*
X134148569Y-50558500D01*
X134256652Y-50540464D01*
X134326015Y-50548846D01*
X134379837Y-50593399D01*
X134401028Y-50659977D01*
X134400280Y-50676656D01*
X134386384Y-50799995D01*
X134386384Y-50800003D01*
X134406781Y-50981041D01*
X134406782Y-50981046D01*
X134447949Y-51098693D01*
X134466957Y-51153015D01*
X134563889Y-51307281D01*
X134692719Y-51436111D01*
X134846985Y-51533043D01*
X135018953Y-51593217D01*
X135018958Y-51593218D01*
X135199996Y-51613616D01*
X135200000Y-51613616D01*
X135200004Y-51613616D01*
X135381041Y-51593218D01*
X135381044Y-51593217D01*
X135381047Y-51593217D01*
X135553015Y-51533043D01*
X135553017Y-51533041D01*
X135553019Y-51533041D01*
X135553022Y-51533039D01*
X135681188Y-51452507D01*
X135747160Y-51433500D01*
X140118395Y-51433500D01*
X140118396Y-51433499D01*
X140240785Y-51409155D01*
X140356075Y-51361400D01*
X140459833Y-51292071D01*
X141199009Y-50552894D01*
X141260330Y-50519411D01*
X141317128Y-50520371D01*
X141321359Y-50521442D01*
X141321365Y-50521444D01*
X141543431Y-50558500D01*
X141768569Y-50558500D01*
X141990635Y-50521444D01*
X142203574Y-50448342D01*
X142401576Y-50341189D01*
X142579240Y-50202906D01*
X142700594Y-50071082D01*
X142731715Y-50037276D01*
X142731717Y-50037273D01*
X142731722Y-50037268D01*
X142854860Y-49848791D01*
X142945296Y-49642616D01*
X143000564Y-49424368D01*
X143012309Y-49282635D01*
X143019156Y-49200005D01*
X143019156Y-49199994D01*
X143000565Y-48975640D01*
X143000563Y-48975628D01*
X142945296Y-48757385D01*
X142935071Y-48734075D01*
X142854860Y-48551209D01*
X142838706Y-48526484D01*
X142731723Y-48362734D01*
X142731715Y-48362723D01*
X142675212Y-48301345D01*
X144361500Y-48301345D01*
X144361500Y-50098654D01*
X144368011Y-50159202D01*
X144368011Y-50159204D01*
X144419111Y-50296204D01*
X144506739Y-50413261D01*
X144623796Y-50500889D01*
X144760799Y-50551989D01*
X144788050Y-50554918D01*
X144821345Y-50558499D01*
X144821362Y-50558500D01*
X146618638Y-50558500D01*
X146618654Y-50558499D01*
X146645692Y-50555591D01*
X146679201Y-50551989D01*
X146816204Y-50500889D01*
X146933261Y-50413261D01*
X147020889Y-50296204D01*
X147066138Y-50174887D01*
X147108009Y-50118956D01*
X147173474Y-50094539D01*
X147241746Y-50109391D01*
X147273545Y-50134236D01*
X147336760Y-50202906D01*
X147514424Y-50341189D01*
X147514425Y-50341189D01*
X147514427Y-50341191D01*
X147574314Y-50373600D01*
X147712426Y-50448342D01*
X147925365Y-50521444D01*
X148147431Y-50558500D01*
X148372569Y-50558500D01*
X148594635Y-50521444D01*
X148807574Y-50448342D01*
X149005576Y-50341189D01*
X149183240Y-50202906D01*
X149304594Y-50071082D01*
X149335715Y-50037276D01*
X149335715Y-50037275D01*
X149335722Y-50037268D01*
X149426193Y-49898790D01*
X149479338Y-49853437D01*
X149548569Y-49844013D01*
X149611905Y-49873515D01*
X149633804Y-49898787D01*
X149724278Y-50037268D01*
X149724283Y-50037273D01*
X149724284Y-50037276D01*
X149850968Y-50174889D01*
X149876760Y-50202906D01*
X150054424Y-50341189D01*
X150054425Y-50341189D01*
X150054427Y-50341191D01*
X150114314Y-50373600D01*
X150252426Y-50448342D01*
X150465365Y-50521444D01*
X150687431Y-50558500D01*
X150912569Y-50558500D01*
X151134635Y-50521444D01*
X151347574Y-50448342D01*
X151545576Y-50341189D01*
X151723240Y-50202906D01*
X151844594Y-50071082D01*
X151875715Y-50037276D01*
X151875715Y-50037275D01*
X151875722Y-50037268D01*
X151966193Y-49898790D01*
X152019338Y-49853437D01*
X152088569Y-49844013D01*
X152151905Y-49873515D01*
X152173804Y-49898787D01*
X152264278Y-50037268D01*
X152264283Y-50037273D01*
X152264284Y-50037276D01*
X152390968Y-50174889D01*
X152416760Y-50202906D01*
X152594424Y-50341189D01*
X152594425Y-50341189D01*
X152594427Y-50341191D01*
X152654314Y-50373600D01*
X152792426Y-50448342D01*
X153005365Y-50521444D01*
X153227431Y-50558500D01*
X153452569Y-50558500D01*
X153674635Y-50521444D01*
X153887574Y-50448342D01*
X154085576Y-50341189D01*
X154263240Y-50202906D01*
X154384594Y-50071082D01*
X154415715Y-50037276D01*
X154415715Y-50037275D01*
X154415722Y-50037268D01*
X154506193Y-49898790D01*
X154559338Y-49853437D01*
X154628569Y-49844013D01*
X154691905Y-49873515D01*
X154713804Y-49898787D01*
X154804278Y-50037268D01*
X154804283Y-50037273D01*
X154804284Y-50037276D01*
X154930968Y-50174889D01*
X154956760Y-50202906D01*
X155134424Y-50341189D01*
X155134425Y-50341189D01*
X155134427Y-50341191D01*
X155194314Y-50373600D01*
X155332426Y-50448342D01*
X155545365Y-50521444D01*
X155767431Y-50558500D01*
X155992569Y-50558500D01*
X156214635Y-50521444D01*
X156427574Y-50448342D01*
X156625576Y-50341189D01*
X156803240Y-50202906D01*
X156924594Y-50071082D01*
X156955715Y-50037276D01*
X156955715Y-50037275D01*
X156955722Y-50037268D01*
X157046193Y-49898790D01*
X157099338Y-49853437D01*
X157168569Y-49844013D01*
X157231905Y-49873515D01*
X157253804Y-49898787D01*
X157344278Y-50037268D01*
X157344283Y-50037273D01*
X157344284Y-50037276D01*
X157470968Y-50174889D01*
X157496760Y-50202906D01*
X157674424Y-50341189D01*
X157674425Y-50341189D01*
X157674427Y-50341191D01*
X157734314Y-50373600D01*
X157872426Y-50448342D01*
X158085365Y-50521444D01*
X158307431Y-50558500D01*
X158532569Y-50558500D01*
X158754635Y-50521444D01*
X158967574Y-50448342D01*
X159165576Y-50341189D01*
X159343240Y-50202906D01*
X159464594Y-50071082D01*
X159495715Y-50037276D01*
X159495715Y-50037275D01*
X159495722Y-50037268D01*
X159586193Y-49898790D01*
X159639338Y-49853437D01*
X159708569Y-49844013D01*
X159771905Y-49873515D01*
X159793804Y-49898787D01*
X159884278Y-50037268D01*
X159884283Y-50037273D01*
X159884284Y-50037276D01*
X160010968Y-50174889D01*
X160036760Y-50202906D01*
X160214424Y-50341189D01*
X160214425Y-50341189D01*
X160214427Y-50341191D01*
X160274314Y-50373600D01*
X160412426Y-50448342D01*
X160625365Y-50521444D01*
X160847431Y-50558500D01*
X161072569Y-50558500D01*
X161294635Y-50521444D01*
X161507574Y-50448342D01*
X161705576Y-50341189D01*
X161883240Y-50202906D01*
X162004594Y-50071082D01*
X162035715Y-50037276D01*
X162035715Y-50037275D01*
X162035722Y-50037268D01*
X162126193Y-49898790D01*
X162179338Y-49853437D01*
X162248569Y-49844013D01*
X162311905Y-49873515D01*
X162333804Y-49898787D01*
X162424278Y-50037268D01*
X162424283Y-50037273D01*
X162424284Y-50037276D01*
X162550968Y-50174889D01*
X162576760Y-50202906D01*
X162754424Y-50341189D01*
X162754425Y-50341189D01*
X162754427Y-50341191D01*
X162814314Y-50373600D01*
X162952426Y-50448342D01*
X163165365Y-50521444D01*
X163387431Y-50558500D01*
X163612569Y-50558500D01*
X163834635Y-50521444D01*
X164047574Y-50448342D01*
X164245576Y-50341189D01*
X164423240Y-50202906D01*
X164544594Y-50071082D01*
X164575715Y-50037276D01*
X164575717Y-50037273D01*
X164575722Y-50037268D01*
X164698860Y-49848791D01*
X164789296Y-49642616D01*
X164844564Y-49424368D01*
X164856309Y-49282635D01*
X164863156Y-49200005D01*
X164863156Y-49199994D01*
X164844565Y-48975640D01*
X164844563Y-48975628D01*
X164789296Y-48757385D01*
X164779071Y-48734075D01*
X164698860Y-48551209D01*
X164682706Y-48526484D01*
X164575723Y-48362734D01*
X164575715Y-48362723D01*
X164423243Y-48197097D01*
X164423238Y-48197092D01*
X164245577Y-48058812D01*
X164245572Y-48058808D01*
X164047580Y-47951661D01*
X164047577Y-47951659D01*
X164047574Y-47951658D01*
X164047571Y-47951657D01*
X164047569Y-47951656D01*
X163834637Y-47878556D01*
X163612569Y-47841500D01*
X163387431Y-47841500D01*
X163165362Y-47878556D01*
X162952430Y-47951656D01*
X162952419Y-47951661D01*
X162754427Y-48058808D01*
X162754422Y-48058812D01*
X162576761Y-48197092D01*
X162576756Y-48197097D01*
X162424284Y-48362723D01*
X162424276Y-48362734D01*
X162333808Y-48501206D01*
X162280662Y-48546562D01*
X162211431Y-48555986D01*
X162148095Y-48526484D01*
X162126192Y-48501206D01*
X162035723Y-48362734D01*
X162035715Y-48362723D01*
X161883243Y-48197097D01*
X161883238Y-48197092D01*
X161705577Y-48058812D01*
X161705572Y-48058808D01*
X161507580Y-47951661D01*
X161507577Y-47951659D01*
X161507574Y-47951658D01*
X161507571Y-47951657D01*
X161507569Y-47951656D01*
X161294637Y-47878556D01*
X161072569Y-47841500D01*
X160847431Y-47841500D01*
X160625362Y-47878556D01*
X160412430Y-47951656D01*
X160412419Y-47951661D01*
X160214427Y-48058808D01*
X160214422Y-48058812D01*
X160036761Y-48197092D01*
X160036756Y-48197097D01*
X159884284Y-48362723D01*
X159884276Y-48362734D01*
X159793808Y-48501206D01*
X159740662Y-48546562D01*
X159671431Y-48555986D01*
X159608095Y-48526484D01*
X159586192Y-48501206D01*
X159495723Y-48362734D01*
X159495715Y-48362723D01*
X159343243Y-48197097D01*
X159343238Y-48197092D01*
X159165577Y-48058812D01*
X159165572Y-48058808D01*
X158967580Y-47951661D01*
X158967577Y-47951659D01*
X158967574Y-47951658D01*
X158967571Y-47951657D01*
X158967569Y-47951656D01*
X158754637Y-47878556D01*
X158532569Y-47841500D01*
X158307431Y-47841500D01*
X158085362Y-47878556D01*
X157872430Y-47951656D01*
X157872419Y-47951661D01*
X157674427Y-48058808D01*
X157674422Y-48058812D01*
X157496761Y-48197092D01*
X157496756Y-48197097D01*
X157344284Y-48362723D01*
X157344276Y-48362734D01*
X157253808Y-48501206D01*
X157200662Y-48546562D01*
X157131431Y-48555986D01*
X157068095Y-48526484D01*
X157046192Y-48501206D01*
X156955723Y-48362734D01*
X156955715Y-48362723D01*
X156803243Y-48197097D01*
X156803238Y-48197092D01*
X156625577Y-48058812D01*
X156625572Y-48058808D01*
X156427580Y-47951661D01*
X156427577Y-47951659D01*
X156427574Y-47951658D01*
X156427571Y-47951657D01*
X156427569Y-47951656D01*
X156214637Y-47878556D01*
X155992569Y-47841500D01*
X155767431Y-47841500D01*
X155545362Y-47878556D01*
X155332430Y-47951656D01*
X155332419Y-47951661D01*
X155134427Y-48058808D01*
X155134422Y-48058812D01*
X154956761Y-48197092D01*
X154956756Y-48197097D01*
X154804284Y-48362723D01*
X154804276Y-48362734D01*
X154713808Y-48501206D01*
X154660662Y-48546562D01*
X154591431Y-48555986D01*
X154528095Y-48526484D01*
X154506192Y-48501206D01*
X154415723Y-48362734D01*
X154415715Y-48362723D01*
X154263243Y-48197097D01*
X154263238Y-48197092D01*
X154085577Y-48058812D01*
X154085572Y-48058808D01*
X153887580Y-47951661D01*
X153887577Y-47951659D01*
X153887574Y-47951658D01*
X153887571Y-47951657D01*
X153887569Y-47951656D01*
X153674637Y-47878556D01*
X153452569Y-47841500D01*
X153227431Y-47841500D01*
X153005362Y-47878556D01*
X152792430Y-47951656D01*
X152792419Y-47951661D01*
X152594427Y-48058808D01*
X152594422Y-48058812D01*
X152416761Y-48197092D01*
X152416756Y-48197097D01*
X152264284Y-48362723D01*
X152264276Y-48362734D01*
X152173808Y-48501206D01*
X152120662Y-48546562D01*
X152051431Y-48555986D01*
X151988095Y-48526484D01*
X151966192Y-48501206D01*
X151875723Y-48362734D01*
X151875715Y-48362723D01*
X151723243Y-48197097D01*
X151723238Y-48197092D01*
X151545577Y-48058812D01*
X151545572Y-48058808D01*
X151347580Y-47951661D01*
X151347577Y-47951659D01*
X151347574Y-47951658D01*
X151347571Y-47951657D01*
X151347569Y-47951656D01*
X151134637Y-47878556D01*
X150912569Y-47841500D01*
X150687431Y-47841500D01*
X150465362Y-47878556D01*
X150252430Y-47951656D01*
X150252419Y-47951661D01*
X150054427Y-48058808D01*
X150054422Y-48058812D01*
X149876761Y-48197092D01*
X149876756Y-48197097D01*
X149724284Y-48362723D01*
X149724276Y-48362734D01*
X149633808Y-48501206D01*
X149580662Y-48546562D01*
X149511431Y-48555986D01*
X149448095Y-48526484D01*
X149426192Y-48501206D01*
X149335723Y-48362734D01*
X149335715Y-48362723D01*
X149183243Y-48197097D01*
X149183238Y-48197092D01*
X149005577Y-48058812D01*
X149005572Y-48058808D01*
X148807580Y-47951661D01*
X148807577Y-47951659D01*
X148807574Y-47951658D01*
X148807571Y-47951657D01*
X148807569Y-47951656D01*
X148594637Y-47878556D01*
X148372569Y-47841500D01*
X148147431Y-47841500D01*
X147925362Y-47878556D01*
X147712430Y-47951656D01*
X147712419Y-47951661D01*
X147514427Y-48058808D01*
X147514422Y-48058812D01*
X147336761Y-48197092D01*
X147273548Y-48265760D01*
X147213661Y-48301750D01*
X147143823Y-48299649D01*
X147086207Y-48260124D01*
X147066138Y-48225110D01*
X147020889Y-48103796D01*
X146987214Y-48058812D01*
X146933261Y-47986739D01*
X146816204Y-47899111D01*
X146679203Y-47848011D01*
X146618654Y-47841500D01*
X146618638Y-47841500D01*
X144821362Y-47841500D01*
X144821345Y-47841500D01*
X144760797Y-47848011D01*
X144760795Y-47848011D01*
X144623795Y-47899111D01*
X144506739Y-47986739D01*
X144419111Y-48103795D01*
X144368011Y-48240795D01*
X144368011Y-48240797D01*
X144361500Y-48301345D01*
X142675212Y-48301345D01*
X142579243Y-48197097D01*
X142579238Y-48197092D01*
X142401577Y-48058812D01*
X142401572Y-48058808D01*
X142203580Y-47951661D01*
X142203577Y-47951659D01*
X142203574Y-47951658D01*
X142203571Y-47951657D01*
X142203569Y-47951656D01*
X141990637Y-47878556D01*
X141768569Y-47841500D01*
X141543431Y-47841500D01*
X141321362Y-47878556D01*
X141108430Y-47951656D01*
X141108419Y-47951661D01*
X140910427Y-48058808D01*
X140910422Y-48058812D01*
X140732761Y-48197092D01*
X140732756Y-48197097D01*
X140580284Y-48362723D01*
X140580276Y-48362734D01*
X140489808Y-48501206D01*
X140436662Y-48546562D01*
X140367431Y-48555986D01*
X140304095Y-48526484D01*
X140282192Y-48501206D01*
X140191723Y-48362734D01*
X140191715Y-48362723D01*
X140039243Y-48197097D01*
X140039238Y-48197092D01*
X139861577Y-48058812D01*
X139861572Y-48058808D01*
X139663580Y-47951661D01*
X139663577Y-47951659D01*
X139663574Y-47951658D01*
X139663571Y-47951657D01*
X139663569Y-47951656D01*
X139450637Y-47878556D01*
X139228569Y-47841500D01*
X139003431Y-47841500D01*
X138781362Y-47878556D01*
X138568430Y-47951656D01*
X138568419Y-47951661D01*
X138370427Y-48058808D01*
X138370422Y-48058812D01*
X138192761Y-48197092D01*
X138192756Y-48197097D01*
X138040284Y-48362723D01*
X138040276Y-48362734D01*
X137949808Y-48501206D01*
X137896662Y-48546562D01*
X137827431Y-48555986D01*
X137764095Y-48526484D01*
X137742192Y-48501206D01*
X137651723Y-48362734D01*
X137651715Y-48362723D01*
X137499243Y-48197097D01*
X137499238Y-48197092D01*
X137321577Y-48058812D01*
X137321572Y-48058808D01*
X137123580Y-47951661D01*
X137123577Y-47951659D01*
X137123574Y-47951658D01*
X137123571Y-47951657D01*
X137123569Y-47951656D01*
X136910637Y-47878556D01*
X136688569Y-47841500D01*
X136463431Y-47841500D01*
X136241362Y-47878556D01*
X136028430Y-47951656D01*
X136028419Y-47951661D01*
X135830427Y-48058808D01*
X135830422Y-48058812D01*
X135652761Y-48197092D01*
X135652756Y-48197097D01*
X135500284Y-48362723D01*
X135500276Y-48362734D01*
X135409808Y-48501206D01*
X135356662Y-48546562D01*
X135287431Y-48555986D01*
X135224095Y-48526484D01*
X135202192Y-48501206D01*
X135111723Y-48362734D01*
X135111715Y-48362723D01*
X134959243Y-48197097D01*
X134959238Y-48197092D01*
X134781577Y-48058812D01*
X134781572Y-48058808D01*
X134583580Y-47951661D01*
X134583577Y-47951659D01*
X134583574Y-47951658D01*
X134583571Y-47951657D01*
X134583569Y-47951656D01*
X134370637Y-47878556D01*
X134148569Y-47841500D01*
X133923431Y-47841500D01*
X133701362Y-47878556D01*
X133488430Y-47951656D01*
X133488419Y-47951661D01*
X133290427Y-48058808D01*
X133290422Y-48058812D01*
X133112761Y-48197092D01*
X133112756Y-48197097D01*
X132960284Y-48362723D01*
X132960276Y-48362734D01*
X132869808Y-48501206D01*
X132816662Y-48546562D01*
X132747431Y-48555986D01*
X132684095Y-48526484D01*
X132662192Y-48501206D01*
X132571723Y-48362734D01*
X132571715Y-48362723D01*
X132419243Y-48197097D01*
X132419238Y-48197092D01*
X132241577Y-48058812D01*
X132241572Y-48058808D01*
X132043580Y-47951661D01*
X132043577Y-47951659D01*
X132043574Y-47951658D01*
X132043571Y-47951657D01*
X132043569Y-47951656D01*
X131830637Y-47878556D01*
X131608569Y-47841500D01*
X131383431Y-47841500D01*
X131161362Y-47878556D01*
X130948430Y-47951656D01*
X130948419Y-47951661D01*
X130750427Y-48058808D01*
X130750422Y-48058812D01*
X130572761Y-48197092D01*
X130572756Y-48197097D01*
X130420284Y-48362723D01*
X130420276Y-48362734D01*
X130329808Y-48501206D01*
X130276662Y-48546562D01*
X130207431Y-48555986D01*
X130144095Y-48526484D01*
X130122192Y-48501206D01*
X130031723Y-48362734D01*
X130031715Y-48362723D01*
X129879243Y-48197097D01*
X129879238Y-48197092D01*
X129701577Y-48058812D01*
X129701572Y-48058808D01*
X129503580Y-47951661D01*
X129503577Y-47951659D01*
X129503574Y-47951658D01*
X129503571Y-47951657D01*
X129503569Y-47951656D01*
X129290637Y-47878556D01*
X129068569Y-47841500D01*
X128843431Y-47841500D01*
X128621362Y-47878556D01*
X128408430Y-47951656D01*
X128408419Y-47951661D01*
X128210427Y-48058808D01*
X128210422Y-48058812D01*
X128032761Y-48197092D01*
X128032756Y-48197097D01*
X127880284Y-48362723D01*
X127880276Y-48362734D01*
X127786251Y-48506650D01*
X127733105Y-48552007D01*
X127663873Y-48561430D01*
X127600538Y-48531928D01*
X127580868Y-48509951D01*
X127454113Y-48328926D01*
X127454108Y-48328920D01*
X127287082Y-48161894D01*
X127093578Y-48026399D01*
X126879492Y-47926570D01*
X126879486Y-47926567D01*
X126666000Y-47869364D01*
X126666000Y-48766988D01*
X126608993Y-48734075D01*
X126481826Y-48700000D01*
X126350174Y-48700000D01*
X126223007Y-48734075D01*
X126166000Y-48766988D01*
X126166000Y-47869364D01*
X126165999Y-47869364D01*
X125952513Y-47926567D01*
X125952507Y-47926570D01*
X125738422Y-48026399D01*
X125738420Y-48026400D01*
X125544926Y-48161886D01*
X125544920Y-48161891D01*
X125377891Y-48328920D01*
X125377890Y-48328922D01*
X125251131Y-48509952D01*
X125196554Y-48553577D01*
X125127055Y-48560769D01*
X125064701Y-48529247D01*
X125045752Y-48506656D01*
X124951722Y-48362732D01*
X124951715Y-48362725D01*
X124951715Y-48362723D01*
X124799243Y-48197097D01*
X124799238Y-48197092D01*
X124621577Y-48058812D01*
X124621572Y-48058808D01*
X124423580Y-47951661D01*
X124423577Y-47951659D01*
X124423574Y-47951658D01*
X124423571Y-47951657D01*
X124423569Y-47951656D01*
X124210637Y-47878556D01*
X123988569Y-47841500D01*
X123763431Y-47841500D01*
X123541362Y-47878556D01*
X123328430Y-47951656D01*
X123328419Y-47951661D01*
X123130427Y-48058808D01*
X123130422Y-48058812D01*
X122952761Y-48197092D01*
X122952756Y-48197097D01*
X122800284Y-48362723D01*
X122800276Y-48362734D01*
X122709808Y-48501206D01*
X122656662Y-48546562D01*
X122587431Y-48555986D01*
X122524095Y-48526484D01*
X122502192Y-48501206D01*
X122411723Y-48362734D01*
X122411715Y-48362723D01*
X122259243Y-48197097D01*
X122259238Y-48197092D01*
X122081577Y-48058812D01*
X122081572Y-48058808D01*
X121883580Y-47951661D01*
X121883577Y-47951659D01*
X121883574Y-47951658D01*
X121883571Y-47951657D01*
X121883569Y-47951656D01*
X121670637Y-47878556D01*
X121448569Y-47841500D01*
X121223431Y-47841500D01*
X121001362Y-47878556D01*
X120788430Y-47951656D01*
X120788419Y-47951661D01*
X120590427Y-48058808D01*
X120590422Y-48058812D01*
X120412761Y-48197092D01*
X120349548Y-48265760D01*
X120289661Y-48301750D01*
X120219823Y-48299649D01*
X120162207Y-48260124D01*
X120142138Y-48225110D01*
X120096889Y-48103796D01*
X120063214Y-48058812D01*
X120009261Y-47986739D01*
X119892204Y-47899111D01*
X119755203Y-47848011D01*
X119694654Y-47841500D01*
X119694638Y-47841500D01*
X117897362Y-47841500D01*
X117897345Y-47841500D01*
X117836797Y-47848011D01*
X117836795Y-47848011D01*
X117699795Y-47899111D01*
X117582739Y-47986739D01*
X117495111Y-48103795D01*
X117444011Y-48240795D01*
X117444011Y-48240797D01*
X117437500Y-48301345D01*
X100075500Y-48301345D01*
X100075500Y-47428092D01*
X100076097Y-47415938D01*
X100087494Y-47300222D01*
X100092234Y-47276389D01*
X100124216Y-47170959D01*
X100133508Y-47148526D01*
X100185442Y-47051365D01*
X100198938Y-47031166D01*
X100268827Y-46946006D01*
X100286006Y-46928827D01*
X100371166Y-46858938D01*
X100391365Y-46845442D01*
X100488526Y-46793508D01*
X100510959Y-46784216D01*
X100616389Y-46752234D01*
X100640220Y-46747494D01*
X100755939Y-46736097D01*
X100768093Y-46735500D01*
X100786531Y-46735500D01*
X163417365Y-46735500D01*
X163484404Y-46755185D01*
G37*
%TD.AperFunction*%
%TD*%
M02*
