%TF.GenerationSoftware,KiCad,Pcbnew,8.0.4*%
%TF.CreationDate,2024-12-04T08:53:49-07:00*%
%TF.ProjectId,particle-somduino,70617274-6963-46c6-952d-736f6d647569,rev?*%
%TF.SameCoordinates,Original*%
%TF.FileFunction,Copper,L1,Top*%
%TF.FilePolarity,Positive*%
%FSLAX46Y46*%
G04 Gerber Fmt 4.6, Leading zero omitted, Abs format (unit mm)*
G04 Created by KiCad (PCBNEW 8.0.4) date 2024-12-04 08:53:49*
%MOMM*%
%LPD*%
G01*
G04 APERTURE LIST*
G04 Aperture macros list*
%AMRoundRect*
0 Rectangle with rounded corners*
0 $1 Rounding radius*
0 $2 $3 $4 $5 $6 $7 $8 $9 X,Y pos of 4 corners*
0 Add a 4 corners polygon primitive as box body*
4,1,4,$2,$3,$4,$5,$6,$7,$8,$9,$2,$3,0*
0 Add four circle primitives for the rounded corners*
1,1,$1+$1,$2,$3*
1,1,$1+$1,$4,$5*
1,1,$1+$1,$6,$7*
1,1,$1+$1,$8,$9*
0 Add four rect primitives between the rounded corners*
20,1,$1+$1,$2,$3,$4,$5,0*
20,1,$1+$1,$4,$5,$6,$7,0*
20,1,$1+$1,$6,$7,$8,$9,0*
20,1,$1+$1,$8,$9,$2,$3,0*%
G04 Aperture macros list end*
%TA.AperFunction,ComponentPad*%
%ADD10R,1.700000X1.700000*%
%TD*%
%TA.AperFunction,ComponentPad*%
%ADD11O,1.700000X1.700000*%
%TD*%
%TA.AperFunction,SMDPad,CuDef*%
%ADD12RoundRect,0.200000X0.275000X-0.200000X0.275000X0.200000X-0.275000X0.200000X-0.275000X-0.200000X0*%
%TD*%
%TA.AperFunction,SMDPad,CuDef*%
%ADD13RoundRect,0.200000X0.200000X0.275000X-0.200000X0.275000X-0.200000X-0.275000X0.200000X-0.275000X0*%
%TD*%
%TA.AperFunction,SMDPad,CuDef*%
%ADD14R,1.000000X0.750000*%
%TD*%
%TA.AperFunction,SMDPad,CuDef*%
%ADD15RoundRect,0.250000X-0.250000X-1.500000X0.250000X-1.500000X0.250000X1.500000X-0.250000X1.500000X0*%
%TD*%
%TA.AperFunction,SMDPad,CuDef*%
%ADD16RoundRect,0.250001X-0.499999X-1.449999X0.499999X-1.449999X0.499999X1.449999X-0.499999X1.449999X0*%
%TD*%
%TA.AperFunction,SMDPad,CuDef*%
%ADD17R,0.900000X1.500000*%
%TD*%
%TA.AperFunction,ComponentPad*%
%ADD18R,2.000000X4.500000*%
%TD*%
%TA.AperFunction,ComponentPad*%
%ADD19O,2.000000X4.000000*%
%TD*%
%TA.AperFunction,ComponentPad*%
%ADD20O,4.000000X2.000000*%
%TD*%
%TA.AperFunction,SMDPad,CuDef*%
%ADD21RoundRect,0.200000X-0.275000X0.200000X-0.275000X-0.200000X0.275000X-0.200000X0.275000X0.200000X0*%
%TD*%
%TA.AperFunction,SMDPad,CuDef*%
%ADD22R,1.549400X0.304800*%
%TD*%
%TA.AperFunction,SMDPad,CuDef*%
%ADD23R,2.743200X1.193800*%
%TD*%
%TA.AperFunction,SMDPad,CuDef*%
%ADD24RoundRect,0.200000X-0.200000X-0.275000X0.200000X-0.275000X0.200000X0.275000X-0.200000X0.275000X0*%
%TD*%
%TA.AperFunction,SMDPad,CuDef*%
%ADD25R,1.000000X2.000000*%
%TD*%
%TA.AperFunction,ComponentPad*%
%ADD26C,6.500000*%
%TD*%
%TA.AperFunction,SMDPad,CuDef*%
%ADD27R,1.240000X0.600000*%
%TD*%
%TA.AperFunction,SMDPad,CuDef*%
%ADD28R,1.240000X0.300000*%
%TD*%
%TA.AperFunction,ComponentPad*%
%ADD29O,1.400000X0.900000*%
%TD*%
%TA.AperFunction,SMDPad,CuDef*%
%ADD30RoundRect,0.243750X-0.243750X-0.456250X0.243750X-0.456250X0.243750X0.456250X-0.243750X0.456250X0*%
%TD*%
%TA.AperFunction,SMDPad,CuDef*%
%ADD31RoundRect,0.150000X-0.625000X0.150000X-0.625000X-0.150000X0.625000X-0.150000X0.625000X0.150000X0*%
%TD*%
%TA.AperFunction,SMDPad,CuDef*%
%ADD32RoundRect,0.250000X-0.650000X0.350000X-0.650000X-0.350000X0.650000X-0.350000X0.650000X0.350000X0*%
%TD*%
%TA.AperFunction,ViaPad*%
%ADD33C,0.600000*%
%TD*%
%TA.AperFunction,Conductor*%
%ADD34C,0.250000*%
%TD*%
%TA.AperFunction,Conductor*%
%ADD35C,0.500000*%
%TD*%
%TA.AperFunction,Conductor*%
%ADD36C,0.300000*%
%TD*%
%TA.AperFunction,Conductor*%
%ADD37C,0.200000*%
%TD*%
G04 APERTURE END LIST*
D10*
%TO.P,J1,1,Pin_1*%
%TO.N,unconnected-(J1-Pin_1-Pad1)*%
X127940000Y-97460000D03*
D11*
%TO.P,J1,2,Pin_2*%
%TO.N,+3V3_AUX*%
X130480000Y-97460000D03*
%TO.P,J1,3,Pin_3*%
%TO.N,~{RESET}*%
X133020000Y-97460000D03*
%TO.P,J1,4,Pin_4*%
%TO.N,+3V3_AUX*%
X135560000Y-97460000D03*
%TO.P,J1,5,Pin_5*%
%TO.N,VBATT*%
X138100000Y-97460000D03*
%TO.P,J1,6,Pin_6*%
%TO.N,GND*%
X140640000Y-97460000D03*
%TO.P,J1,7,Pin_7*%
X143180000Y-97460000D03*
%TO.P,J1,8,Pin_8*%
%TO.N,VIN*%
X145720000Y-97460000D03*
%TD*%
D10*
%TO.P,J3,1,Pin_1*%
%TO.N,A0*%
X150800000Y-97460000D03*
D11*
%TO.P,J3,2,Pin_2*%
%TO.N,A1*%
X153340000Y-97460000D03*
%TO.P,J3,3,Pin_3*%
%TO.N,A2*%
X155880000Y-97460000D03*
%TO.P,J3,4,Pin_4*%
%TO.N,A3*%
X158420000Y-97460000D03*
%TO.P,J3,5,Pin_5*%
%TO.N,A4*%
X160960000Y-97460000D03*
%TO.P,J3,6,Pin_6*%
%TO.N,A5*%
X163500000Y-97460000D03*
%TD*%
D10*
%TO.P,J2,1,Pin_1*%
%TO.N,SCL*%
X118796000Y-49200000D03*
D11*
%TO.P,J2,2,Pin_2*%
%TO.N,SDA*%
X121336000Y-49200000D03*
%TO.P,J2,3,Pin_3*%
%TO.N,unconnected-(J2-Pin_3-Pad3)*%
X123876000Y-49200000D03*
%TO.P,J2,4,Pin_4*%
%TO.N,GND*%
X126416000Y-49200000D03*
%TO.P,J2,5,Pin_5*%
%TO.N,SCK{slash}D13*%
X128956000Y-49200000D03*
%TO.P,J2,6,Pin_6*%
%TO.N,MOSI{slash}D12*%
X131496000Y-49200000D03*
%TO.P,J2,7,Pin_7*%
%TO.N,MISO{slash}D11*%
X134036000Y-49200000D03*
%TO.P,J2,8,Pin_8*%
%TO.N,D23*%
X136576000Y-49200000D03*
%TO.P,J2,9,Pin_9*%
%TO.N,D22*%
X139116000Y-49200000D03*
%TO.P,J2,10,Pin_10*%
%TO.N,CS{slash}D8*%
X141656000Y-49200000D03*
%TD*%
D10*
%TO.P,J4,1,Pin_1*%
%TO.N,D7*%
X145720000Y-49200000D03*
D11*
%TO.P,J4,2,Pin_2*%
%TO.N,D6*%
X148260000Y-49200000D03*
%TO.P,J4,3,Pin_3*%
%TO.N,D5*%
X150800000Y-49200000D03*
%TO.P,J4,4,Pin_4*%
%TO.N,D4*%
X153340000Y-49200000D03*
%TO.P,J4,5,Pin_5*%
%TO.N,D3{slash}SERIAL1_RTS*%
X155880000Y-49200000D03*
%TO.P,J4,6,Pin_6*%
%TO.N,D2{slash}SERIAL1_CTS*%
X158420000Y-49200000D03*
%TO.P,J4,7,Pin_7*%
%TO.N,SERIAL1_RX*%
X160960000Y-49200000D03*
%TO.P,J4,8,Pin_8*%
%TO.N,SERIAL1_TX*%
X163500000Y-49200000D03*
%TD*%
D12*
%TO.P,R4,1*%
%TO.N,~{RESET}*%
X110700000Y-72875000D03*
%TO.P,R4,2*%
%TO.N,+3V3*%
X110700000Y-71225000D03*
%TD*%
D13*
%TO.P,R1,1*%
%TO.N,Net-(U1-RED)*%
X108730000Y-75500000D03*
%TO.P,R1,2*%
%TO.N,Net-(D1-RK)*%
X107080000Y-75500000D03*
%TD*%
D14*
%TO.P,SW1,1,1*%
%TO.N,~{MODE}*%
X102800000Y-81575000D03*
X108800000Y-81575000D03*
%TO.P,SW1,2,2*%
%TO.N,GND*%
X102800000Y-85325000D03*
X108800000Y-85325000D03*
%TD*%
D13*
%TO.P,R5,1*%
%TO.N,Net-(U2-CHG)*%
X115225000Y-89900000D03*
%TO.P,R5,2*%
%TO.N,Net-(D2-K)*%
X113575000Y-89900000D03*
%TD*%
D15*
%TO.P,J6,1,Pin_1*%
%TO.N,VBATT*%
X119900000Y-91400000D03*
%TO.P,J6,2,Pin_2*%
%TO.N,GND*%
X121900000Y-91400000D03*
D16*
%TO.P,J6,MP*%
%TO.N,N/C*%
X117550000Y-97150000D03*
X124250000Y-97150000D03*
%TD*%
D17*
%TO.P,D1,1,A*%
%TO.N,+3V3*%
X104430000Y-78650000D03*
%TO.P,D1,2,BK*%
%TO.N,Net-(D1-BK)*%
X103030000Y-78650000D03*
%TO.P,D1,3,GK*%
%TO.N,Net-(D1-GK)*%
X104430000Y-75550000D03*
%TO.P,D1,4,RK*%
%TO.N,Net-(D1-RK)*%
X103030000Y-75550000D03*
%TD*%
D18*
%TO.P,J5,1*%
%TO.N,VIN*%
X110900000Y-92400000D03*
D19*
%TO.P,J5,2*%
%TO.N,GND*%
X104900000Y-92400000D03*
D20*
%TO.P,J5,3*%
X108400000Y-97050000D03*
%TD*%
D21*
%TO.P,R8,1*%
%TO.N,~{MODE}*%
X110700000Y-81375000D03*
%TO.P,R8,2*%
%TO.N,+3V3*%
X110700000Y-83025000D03*
%TD*%
D22*
%TO.P,U1,1,GND*%
%TO.N,GND*%
X114624700Y-82549999D03*
%TO.P,U1,2,VCC*%
%TO.N,+3V9*%
X122174702Y-82299999D03*
%TO.P,U1,3,GND*%
%TO.N,GND*%
X114624700Y-82050000D03*
%TO.P,U1,4,VCC*%
%TO.N,+3V9*%
X122174702Y-81800000D03*
%TO.P,U1,5,GND*%
%TO.N,GND*%
X114624700Y-81550001D03*
%TO.P,U1,6,VCC*%
%TO.N,+3V9*%
X122174702Y-81300001D03*
%TO.P,U1,7,GND*%
%TO.N,GND*%
X114624700Y-81049999D03*
%TO.P,U1,8,VCC*%
%TO.N,+3V9*%
X122174702Y-80799999D03*
%TO.P,U1,9,GND*%
%TO.N,GND*%
X114624700Y-80550000D03*
%TO.P,U1,10,3V3*%
%TO.N,+3V3*%
X122174702Y-80300000D03*
%TO.P,U1,11,USB_D+*%
%TO.N,USB_D_P*%
X114624700Y-80050001D03*
%TO.P,U1,12,3V3*%
%TO.N,+3V3*%
X122174702Y-79800000D03*
%TO.P,U1,13,USB_D-*%
%TO.N,USB_D_N*%
X114624700Y-79550001D03*
%TO.P,U1,14,RESERVED*%
%TO.N,unconnected-(U1-RESERVED-Pad14)*%
X122174702Y-79300001D03*
%TO.P,U1,15,GND*%
%TO.N,GND*%
X114624700Y-79050000D03*
%TO.P,U1,16,VUSB*%
%TO.N,VUSB*%
X122174702Y-78800000D03*
%TO.P,U1,17,SOM3*%
%TO.N,unconnected-(U1-SOM3-Pad17)*%
X114624700Y-78550001D03*
%TO.P,U1,18,RESERVED*%
%TO.N,unconnected-(U1-RESERVED-Pad18)*%
X122174702Y-78300001D03*
%TO.P,U1,19,SOM4*%
%TO.N,unconnected-(U1-SOM4-Pad19)*%
X114624700Y-78049999D03*
%TO.P,U1,20,SCL*%
%TO.N,SCL*%
X122174702Y-77799999D03*
%TO.P,U1,21,GND*%
%TO.N,GND*%
X114624700Y-77550000D03*
%TO.P,U1,22,SDA*%
%TO.N,SDA*%
X122174702Y-77300000D03*
%TO.P,U1,23,ADC0*%
%TO.N,A0*%
X114624700Y-77050001D03*
%TO.P,U1,32,MODE*%
%TO.N,~{MODE}*%
X122174702Y-74800001D03*
%TO.P,U1,33,ADC1*%
%TO.N,A1*%
X114624700Y-74550000D03*
%TO.P,U1,34,RESET*%
%TO.N,~{RESET}*%
X122174702Y-74300000D03*
%TO.P,U1,35,ADC2*%
%TO.N,A2*%
X114624700Y-74050001D03*
%TO.P,U1,36,TX*%
%TO.N,SERIAL1_TX*%
X122174702Y-73800001D03*
%TO.P,U1,37,ADC3*%
%TO.N,A3*%
X114624700Y-73549999D03*
%TO.P,U1,38,RX*%
%TO.N,SERIAL1_RX*%
X122174702Y-73299999D03*
%TO.P,U1,39,AGND*%
%TO.N,GND*%
X114624700Y-73050000D03*
%TO.P,U1,40,CTS*%
%TO.N,D2{slash}SERIAL1_CTS*%
X122174702Y-72800000D03*
%TO.P,U1,41,ADC4*%
%TO.N,A4*%
X114624700Y-72550001D03*
%TO.P,U1,42,RTS*%
%TO.N,D3{slash}SERIAL1_RTS*%
X122174702Y-72300001D03*
%TO.P,U1,43,ADC5*%
%TO.N,A5*%
X114624700Y-72049999D03*
%TO.P,U1,44,SOM0*%
%TO.N,unconnected-(U1-SOM0-Pad44)*%
X122174702Y-71799999D03*
%TO.P,U1,45,ADC6*%
%TO.N,EN_AUX*%
X114624700Y-71550000D03*
%TO.P,U1,46,SOM1*%
%TO.N,unconnected-(U1-SOM1-Pad46)*%
X122174702Y-71300000D03*
%TO.P,U1,47,ADC7*%
%TO.N,~{FUEL_INT}*%
X114624700Y-71049999D03*
%TO.P,U1,48,CS*%
%TO.N,CS{slash}D8*%
X122174702Y-70799999D03*
%TO.P,U1,49,AGND*%
%TO.N,GND*%
X114624700Y-70550000D03*
%TO.P,U1,50,MISO*%
%TO.N,MISO{slash}D11*%
X122174702Y-70300000D03*
%TO.P,U1,51,RESERVED*%
%TO.N,unconnected-(U1-RESERVED-Pad51)*%
X114624700Y-70050001D03*
%TO.P,U1,52,MOSI*%
%TO.N,MOSI{slash}D12*%
X122174702Y-69800001D03*
%TO.P,U1,53,RESERVED*%
%TO.N,unconnected-(U1-RESERVED-Pad53)*%
X114624700Y-69549999D03*
%TO.P,U1,54,SCK*%
%TO.N,SCK{slash}D13*%
X122174702Y-69299999D03*
%TO.P,U1,55,RESERVED*%
%TO.N,unconnected-(U1-RESERVED-Pad55)*%
X114624700Y-69050000D03*
%TO.P,U1,56,GND*%
%TO.N,GND*%
X122174702Y-68800000D03*
%TO.P,U1,57,RESERVED*%
%TO.N,unconnected-(U1-RESERVED-Pad57)*%
X114624700Y-68549999D03*
%TO.P,U1,58,RESERVED*%
%TO.N,unconnected-(U1-RESERVED-Pad58)*%
X122174702Y-68299999D03*
%TO.P,U1,59,RESERVED*%
%TO.N,unconnected-(U1-RESERVED-Pad59)*%
X114624700Y-68050000D03*
%TO.P,U1,60,RESERVED*%
%TO.N,unconnected-(U1-RESERVED-Pad60)*%
X122174702Y-67800000D03*
%TO.P,U1,61,RED*%
%TO.N,Net-(U1-RED)*%
X114624700Y-67550001D03*
%TO.P,U1,62,GPIO0*%
%TO.N,D22*%
X122174702Y-67300001D03*
%TO.P,U1,63,GREEN*%
%TO.N,Net-(U1-GREEN)*%
X114624700Y-67049999D03*
%TO.P,U1,64,GPIO1*%
%TO.N,D23*%
X122174702Y-66799999D03*
%TO.P,U1,65,BLUE*%
%TO.N,Net-(U1-BLUE)*%
X114624700Y-66550000D03*
%TO.P,U1,66,PWM0*%
%TO.N,D4*%
X122174702Y-66300000D03*
%TO.P,U1,67,SOM5*%
%TO.N,unconnected-(U1-SOM5-Pad67)*%
X114624700Y-66049999D03*
%TO.P,U1,68,PWM1*%
%TO.N,D5*%
X122174702Y-65799999D03*
%TO.P,U1,69,SOM6*%
%TO.N,unconnected-(U1-SOM6-Pad69)*%
X114624700Y-65550000D03*
%TO.P,U1,70,PWM2*%
%TO.N,D6*%
X122174702Y-65300000D03*
%TO.P,U1,71,SOM7*%
%TO.N,unconnected-(U1-SOM7-Pad71)*%
X114624700Y-65050001D03*
%TO.P,U1,72,PWM3*%
%TO.N,D7*%
X122174702Y-64800001D03*
%TO.P,U1,73,SOM8*%
%TO.N,unconnected-(U1-SOM8-Pad73)*%
X114624700Y-64549999D03*
%TO.P,U1,74,SOM2*%
%TO.N,unconnected-(U1-SOM2-Pad74)*%
X122174702Y-64299999D03*
%TO.P,U1,75,SOM9*%
%TO.N,unconnected-(U1-SOM9-Pad75)*%
X114624700Y-64049999D03*
D23*
%TO.P,U1,76,GND*%
%TO.N,GND*%
X115399702Y-83649999D03*
%TO.P,U1,77,GND*%
X115399702Y-62950000D03*
%TD*%
D24*
%TO.P,R10,1*%
%TO.N,Net-(J8-CC1)*%
X110900000Y-57500000D03*
%TO.P,R10,2*%
%TO.N,GND*%
X112550000Y-57500000D03*
%TD*%
D13*
%TO.P,R2,1*%
%TO.N,Net-(U1-GREEN)*%
X108730000Y-77150000D03*
%TO.P,R2,2*%
%TO.N,Net-(D1-GK)*%
X107080000Y-77150000D03*
%TD*%
D25*
%TO.P,SW3,1,C*%
%TO.N,GND*%
X108900000Y-54550000D03*
%TO.P,SW3,2,B*%
%TO.N,SYS_PWR_EN*%
X106900000Y-54550000D03*
%TO.P,SW3,3,A*%
%TO.N,unconnected-(SW3-A-Pad3)*%
X104900000Y-54550000D03*
%TO.P,SW3,4,A*%
%TO.N,GND*%
X108900000Y-48550000D03*
%TO.P,SW3,5,B*%
%TO.N,SYS_PWR_EN*%
X106900000Y-48550000D03*
%TO.P,SW3,6,C*%
%TO.N,unconnected-(SW3-C-Pad6)*%
X104900000Y-48550000D03*
%TD*%
D26*
%TO.P,H1,1,1*%
%TO.N,unconnected-(H1-Pad1)*%
X160400000Y-73340000D03*
%TD*%
D12*
%TO.P,R6,1*%
%TO.N,SDA*%
X165300000Y-80250000D03*
%TO.P,R6,2*%
%TO.N,+3V3*%
X165300000Y-78600000D03*
%TD*%
D24*
%TO.P,R9,1*%
%TO.N,Net-(J8-CC2)*%
X110900000Y-59200000D03*
%TO.P,R9,2*%
%TO.N,GND*%
X112550000Y-59200000D03*
%TD*%
D14*
%TO.P,SW2,1,1*%
%TO.N,~{RESET}*%
X108800000Y-72625000D03*
X102800000Y-72625000D03*
%TO.P,SW2,2,2*%
%TO.N,GND*%
X108800000Y-68875000D03*
X102800000Y-68875000D03*
%TD*%
D27*
%TO.P,J8,A1,GND*%
%TO.N,GND*%
X107020000Y-58590000D03*
%TO.P,J8,A4,VBUS*%
%TO.N,VUSB*%
X107020000Y-59390000D03*
D28*
%TO.P,J8,A5,CC1*%
%TO.N,Net-(J8-CC1)*%
X107020000Y-60540000D03*
%TO.P,J8,A6,D+*%
%TO.N,USB_D_N*%
X107020000Y-61540000D03*
%TO.P,J8,A7,D-*%
%TO.N,USB_D_P*%
X107020000Y-62040000D03*
%TO.P,J8,A8,SBU1*%
%TO.N,unconnected-(J8-SBU1-PadA8)*%
X107020000Y-63040000D03*
D27*
%TO.P,J8,A9,VBUS*%
%TO.N,VUSB*%
X107020000Y-64190000D03*
%TO.P,J8,A12,GND*%
%TO.N,GND*%
X107020000Y-64990000D03*
%TO.P,J8,B1,GND*%
X107020000Y-64990000D03*
%TO.P,J8,B4,VBUS*%
%TO.N,VUSB*%
X107020000Y-64190000D03*
D28*
%TO.P,J8,B5,CC2*%
%TO.N,Net-(J8-CC2)*%
X107020000Y-63540000D03*
%TO.P,J8,B6,D+*%
%TO.N,USB_D_N*%
X107020000Y-62540000D03*
%TO.P,J8,B7,D-*%
%TO.N,USB_D_P*%
X107020000Y-61040000D03*
%TO.P,J8,B8,SBU2*%
%TO.N,unconnected-(J8-SBU2-PadB8)*%
X107020000Y-60040000D03*
D27*
%TO.P,J8,B9,VBUS*%
%TO.N,VUSB*%
X107020000Y-59390000D03*
%TO.P,J8,B12,GND*%
%TO.N,GND*%
X107020000Y-58590000D03*
D29*
%TO.P,J8,S1,SHIELD*%
X106420000Y-57470000D03*
X103200000Y-57470000D03*
X106420000Y-66110000D03*
X103200000Y-66110000D03*
%TD*%
D30*
%TO.P,D2,1,K*%
%TO.N,Net-(D2-K)*%
X113425000Y-92000000D03*
%TO.P,D2,2,A*%
%TO.N,+3V3*%
X115300000Y-92000000D03*
%TD*%
D13*
%TO.P,R3,1*%
%TO.N,Net-(U1-BLUE)*%
X108730000Y-78800000D03*
%TO.P,R3,2*%
%TO.N,Net-(D1-BK)*%
X107080000Y-78800000D03*
%TD*%
D12*
%TO.P,R7,1*%
%TO.N,SCL*%
X163500000Y-80250000D03*
%TO.P,R7,2*%
%TO.N,+3V3*%
X163500000Y-78600000D03*
%TD*%
D31*
%TO.P,J7,1,Pin_1*%
%TO.N,GND*%
X164025000Y-83950000D03*
%TO.P,J7,2,Pin_2*%
%TO.N,+3V3*%
X164025000Y-84950000D03*
%TO.P,J7,3,Pin_3*%
%TO.N,SDA*%
X164025000Y-85950000D03*
%TO.P,J7,4,Pin_4*%
%TO.N,SCL*%
X164025000Y-86950000D03*
D32*
%TO.P,J7,MP*%
%TO.N,N/C*%
X166550000Y-82650000D03*
X166550000Y-88250000D03*
%TD*%
D33*
%TO.N,GND*%
X149192790Y-61100000D03*
X146600000Y-64800000D03*
X121900000Y-86600000D03*
X131400000Y-81800000D03*
X149200000Y-64800000D03*
X146652790Y-61100000D03*
X113200000Y-70100000D03*
X113200000Y-73100000D03*
X131400000Y-85600000D03*
X124000000Y-61700000D03*
%TO.N,~{RESET}*%
X132100000Y-74700000D03*
X118600000Y-78600000D03*
X123600000Y-74600000D03*
X110800000Y-73800000D03*
%TO.N,+3V3_AUX*%
X130500000Y-94900000D03*
X135500000Y-60500000D03*
%TO.N,D23*%
X130700000Y-66900000D03*
X116264277Y-68575795D03*
%TO.N,SCK{slash}D13*%
X119800000Y-68900000D03*
X128068988Y-69225000D03*
%TO.N,MISO{slash}D11*%
X129700000Y-68900000D03*
X117900000Y-68900000D03*
%TO.N,D22*%
X130600000Y-56200000D03*
X123300000Y-56300000D03*
%TO.N,CS{slash}D8*%
X130600000Y-68900000D03*
X135200000Y-50800000D03*
X117000000Y-68900000D03*
%TO.N,MOSI{slash}D12*%
X118900000Y-68900000D03*
X128800000Y-68900000D03*
%TO.N,A5*%
X154700000Y-74600000D03*
X117000000Y-71600000D03*
%TO.N,A2*%
X116600000Y-74600000D03*
X152600000Y-75900000D03*
%TO.N,A3*%
X117200000Y-73700000D03*
X153600000Y-75700000D03*
%TO.N,A4*%
X117100000Y-72600000D03*
X154600000Y-75600000D03*
%TO.N,A0*%
X117000000Y-76200000D03*
X150800000Y-76800000D03*
%TO.N,A1*%
X151700000Y-76400000D03*
X116300000Y-75500000D03*
%TO.N,SERIAL1_TX*%
X163500000Y-57700000D03*
X125475000Y-58375000D03*
%TO.N,D3{slash}SERIAL1_RTS*%
X155900000Y-56300000D03*
X123400000Y-57200000D03*
%TO.N,D2{slash}SERIAL1_CTS*%
X124030223Y-57753205D03*
X158420000Y-56800000D03*
%TO.N,D6*%
X115992246Y-66188920D03*
X148100000Y-67125000D03*
%TO.N,D5*%
X116085836Y-66983429D03*
X150800000Y-67300000D03*
%TO.N,D4*%
X116178094Y-67778094D03*
X153200000Y-68200000D03*
%TO.N,D7*%
X145700000Y-59000000D03*
X118800000Y-60800000D03*
%TO.N,SERIAL1_RX*%
X160960000Y-57300000D03*
X124694645Y-58198791D03*
%TO.N,+3V3*%
X137400000Y-59700000D03*
X137300000Y-78600000D03*
X165300000Y-77800000D03*
X110700000Y-84100000D03*
X118400000Y-84100000D03*
X105400000Y-71400000D03*
X165300000Y-84900000D03*
X105400000Y-78600000D03*
X120300000Y-80300000D03*
%TO.N,~{MODE}*%
X111600000Y-81400000D03*
X119300000Y-80000000D03*
%TO.N,VIN*%
X138700000Y-60400000D03*
X140500000Y-93900000D03*
%TO.N,SDA*%
X165400000Y-86100000D03*
X148000000Y-92200000D03*
X125500000Y-92000000D03*
X149200000Y-81700000D03*
%TO.N,SCL*%
X124300001Y-77799999D03*
X124600000Y-76000000D03*
X125100000Y-93000000D03*
X165400000Y-87100000D03*
X151800000Y-81700000D03*
X151200000Y-92200000D03*
%TO.N,Net-(U1-RED)*%
X111600000Y-68600000D03*
X111225001Y-75500000D03*
%TO.N,Net-(U1-GREEN)*%
X111310402Y-76310402D03*
X111708058Y-67608058D03*
%TO.N,EN_AUX*%
X141600000Y-70000000D03*
X141600000Y-64900000D03*
X113200000Y-71500000D03*
%TO.N,Net-(U2-CHG)*%
X116000000Y-89900000D03*
X156025000Y-83700000D03*
X157100000Y-90000000D03*
%TO.N,+3V9*%
X124000000Y-80000000D03*
X136500000Y-79600000D03*
X136500000Y-64900000D03*
%TO.N,~{FUEL_INT}*%
X146600000Y-68900000D03*
X116300000Y-69375000D03*
X146600000Y-85700000D03*
%TO.N,VUSB*%
X109600000Y-57900000D03*
X110500000Y-64200000D03*
X120700000Y-78800000D03*
%TO.N,USB_D_P*%
X112486765Y-80386765D03*
X109925000Y-63200000D03*
%TO.N,USB_D_N*%
X111600000Y-80425000D03*
X109075000Y-63200000D03*
%TO.N,VBATT*%
X139000000Y-86900000D03*
X119900000Y-89100000D03*
%TO.N,Net-(J8-CC2)*%
X110000000Y-60100000D03*
X105700000Y-63500000D03*
%TO.N,SYS_PWR_EN*%
X106900000Y-52700000D03*
X126300000Y-53600000D03*
X127350000Y-80050000D03*
%TD*%
D34*
%TO.N,GND*%
X124200000Y-61900000D02*
X124000000Y-61700000D01*
X124200000Y-64700000D02*
X124200000Y-64450000D01*
X113650000Y-70550000D02*
X113200000Y-70100000D01*
X124200000Y-67900000D02*
X124200000Y-64700000D01*
X107020000Y-58070000D02*
X106420000Y-57470000D01*
X114624700Y-73050000D02*
X113250000Y-73050000D01*
X107020000Y-64990000D02*
X107020000Y-65510000D01*
X114624700Y-80550000D02*
X114624700Y-82549999D01*
X114624700Y-70550000D02*
X113650000Y-70550000D01*
X123300000Y-68800000D02*
X124200000Y-67900000D01*
X124200000Y-64700000D02*
X124200000Y-61900000D01*
D35*
X121900000Y-91400000D02*
X121900000Y-86600000D01*
D34*
X113250000Y-73050000D02*
X113200000Y-73100000D01*
X122174702Y-68800000D02*
X123300000Y-68800000D01*
X107020000Y-65510000D02*
X106420000Y-66110000D01*
X107020000Y-58590000D02*
X107020000Y-58070000D01*
%TO.N,~{RESET}*%
X110700000Y-72875000D02*
X109050000Y-72875000D01*
X109050000Y-72875000D02*
X108800000Y-72625000D01*
X133020000Y-75620000D02*
X132100000Y-74700000D01*
X123300000Y-74300000D02*
X122174702Y-74300000D01*
X118600000Y-76300000D02*
X118600000Y-78600000D01*
X133020000Y-97460000D02*
X133020000Y-75620000D01*
X110800000Y-73800000D02*
X110800000Y-72975000D01*
X102800000Y-72625000D02*
X108800000Y-72625000D01*
X120600000Y-74300000D02*
X118600000Y-76300000D01*
X122174702Y-74300000D02*
X120600000Y-74300000D01*
X123600000Y-74600000D02*
X123300000Y-74300000D01*
X110800000Y-72975000D02*
X110700000Y-72875000D01*
D35*
%TO.N,+3V3_AUX*%
X135560000Y-97460000D02*
X135500000Y-97400000D01*
X130480000Y-97460000D02*
X130480000Y-94920000D01*
X135500000Y-97400000D02*
X135500000Y-60500000D01*
X130480000Y-94920000D02*
X130500000Y-94900000D01*
D34*
%TO.N,D23*%
X132072594Y-52436198D02*
X134463802Y-52436198D01*
X134463802Y-52436198D02*
X136576000Y-50324000D01*
X129950000Y-58000000D02*
X129950000Y-54558792D01*
X116264277Y-68575795D02*
X118040073Y-66799999D01*
X130300000Y-58350000D02*
X129950000Y-58000000D01*
X130300000Y-66500000D02*
X130300000Y-58350000D01*
X129950000Y-54558792D02*
X132072594Y-52436198D01*
X130700000Y-66900000D02*
X130300000Y-66500000D01*
X136576000Y-50324000D02*
X136576000Y-49200000D01*
X118040073Y-66799999D02*
X122174702Y-66799999D01*
%TO.N,SCK{slash}D13*%
X122174702Y-69299999D02*
X120199999Y-69299999D01*
X120199999Y-69299999D02*
X119800000Y-68900000D01*
X128068988Y-69225000D02*
X128100000Y-69193988D01*
X128100000Y-53863208D02*
X128956000Y-53007208D01*
X128100000Y-69193988D02*
X128100000Y-53863208D01*
X128956000Y-53007208D02*
X128956000Y-49200000D01*
%TO.N,MISO{slash}D11*%
X119300000Y-70300000D02*
X117900000Y-68900000D01*
X129050000Y-54186000D02*
X134036000Y-49200000D01*
X122174702Y-70300000D02*
X119300000Y-70300000D01*
X129700000Y-68900000D02*
X129050000Y-68250000D01*
X129050000Y-68250000D02*
X129050000Y-54186000D01*
%TO.N,D22*%
X130400000Y-54745188D02*
X132258990Y-52886198D01*
X135429802Y-52886198D02*
X139116000Y-49200000D01*
X122700000Y-61800000D02*
X122700000Y-56900000D01*
X123750000Y-66801801D02*
X123750000Y-62850000D01*
X130400000Y-54745188D02*
X130400000Y-56000000D01*
X132258990Y-52886198D02*
X135429802Y-52886198D01*
X123750000Y-62850000D02*
X122700000Y-61800000D01*
X122700000Y-56900000D02*
X123300000Y-56300000D01*
X122174702Y-67300001D02*
X123251800Y-67300001D01*
X130400000Y-56000000D02*
X130600000Y-56200000D01*
X123251800Y-67300001D02*
X123750000Y-66801801D01*
%TO.N,CS{slash}D8*%
X130600000Y-67800000D02*
X130600000Y-68900000D01*
X129500000Y-54372396D02*
X129500000Y-66700000D01*
X122174702Y-70799999D02*
X118899999Y-70799999D01*
X129500000Y-66700000D02*
X130600000Y-67800000D01*
X118899999Y-70799999D02*
X117000000Y-68900000D01*
X135200000Y-50800000D02*
X134013802Y-51986198D01*
X131886198Y-51986198D02*
X129500000Y-54372396D01*
X134013802Y-51986198D02*
X131886198Y-51986198D01*
%TO.N,MOSI{slash}D12*%
X131496000Y-51103604D02*
X131496000Y-49200000D01*
X128800000Y-68900000D02*
X128600000Y-68700000D01*
X119800001Y-69800001D02*
X118900000Y-68900000D01*
X122174702Y-69800001D02*
X119800001Y-69800001D01*
X128600000Y-53999604D02*
X131496000Y-51103604D01*
X128600000Y-68700000D02*
X128600000Y-53999604D01*
%TO.N,A5*%
X154700000Y-74600000D02*
X155400000Y-75300000D01*
X155400000Y-75300000D02*
X155400000Y-93627208D01*
X156722792Y-94950000D02*
X160990000Y-94950000D01*
X160990000Y-94950000D02*
X163500000Y-97460000D01*
X116550001Y-72049999D02*
X114624700Y-72049999D01*
X117000000Y-71600000D02*
X116550001Y-72049999D01*
X155400000Y-93627208D02*
X156722792Y-94950000D01*
%TO.N,A2*%
X155880000Y-96080000D02*
X155880000Y-97460000D01*
X114624700Y-74050001D02*
X116050001Y-74050001D01*
X154000000Y-94200000D02*
X155880000Y-96080000D01*
X116050001Y-74050001D02*
X116600000Y-74600000D01*
X154000000Y-77200000D02*
X154000000Y-94200000D01*
X152600000Y-75900000D02*
X152700000Y-75900000D01*
X152700000Y-75900000D02*
X154000000Y-77200000D01*
%TO.N,A3*%
X154450000Y-76550000D02*
X154450000Y-93950000D01*
X154450000Y-93950000D02*
X157960000Y-97460000D01*
X117200000Y-73700000D02*
X117049999Y-73549999D01*
X117049999Y-73549999D02*
X114624700Y-73549999D01*
X157960000Y-97460000D02*
X158420000Y-97460000D01*
X153600000Y-75700000D02*
X154450000Y-76550000D01*
%TO.N,A4*%
X156536396Y-95400000D02*
X158900000Y-95400000D01*
X158900000Y-95400000D02*
X160960000Y-97460000D01*
X154900000Y-75900000D02*
X154900000Y-93763604D01*
X117050001Y-72550001D02*
X117100000Y-72600000D01*
X114624700Y-72550001D02*
X117050001Y-72550001D01*
X154900000Y-93763604D02*
X156536396Y-95400000D01*
X154600000Y-75600000D02*
X154900000Y-75900000D01*
%TO.N,A0*%
X150800000Y-96600000D02*
X150800000Y-97460000D01*
X153100000Y-79100000D02*
X153100000Y-94300000D01*
X153100000Y-94300000D02*
X150800000Y-96600000D01*
X150800000Y-76800000D02*
X153100000Y-79100000D01*
X116149999Y-77050001D02*
X117000000Y-76200000D01*
X114624700Y-77050001D02*
X116149999Y-77050001D01*
%TO.N,A1*%
X153340000Y-97460000D02*
X153550000Y-97250000D01*
X116300000Y-75400000D02*
X115450000Y-74550000D01*
X153550000Y-78250000D02*
X153550000Y-89600000D01*
X151700000Y-76400000D02*
X153550000Y-78250000D01*
X116300000Y-75500000D02*
X116300000Y-75400000D01*
X153550000Y-89600000D02*
X153550000Y-89895584D01*
X153550000Y-97250000D02*
X153550000Y-89600000D01*
X115450000Y-74550000D02*
X114624700Y-74550000D01*
%TO.N,SERIAL1_TX*%
X122174702Y-73800001D02*
X123899999Y-73800001D01*
X123899999Y-73800001D02*
X126000000Y-71700000D01*
X126000000Y-58900000D02*
X125475000Y-58375000D01*
X163500000Y-57700000D02*
X163500000Y-49200000D01*
X126000000Y-71700000D02*
X126000000Y-58900000D01*
%TO.N,D3{slash}SERIAL1_RTS*%
X123400000Y-58572792D02*
X123400000Y-57200000D01*
X122174702Y-72300001D02*
X123490811Y-72300001D01*
X123490811Y-72300001D02*
X124650000Y-71140812D01*
X157970000Y-55130000D02*
X157970000Y-51290000D01*
X155900000Y-56300000D02*
X156800000Y-56300000D01*
X124650000Y-71140812D02*
X124650000Y-62700000D01*
X157970000Y-51290000D02*
X155880000Y-49200000D01*
X124650000Y-59822792D02*
X124013604Y-59186396D01*
X124650000Y-62700000D02*
X124650000Y-59822792D01*
X124013604Y-59186396D02*
X123400000Y-58572792D01*
X156800000Y-56300000D02*
X157970000Y-55130000D01*
%TO.N,D2{slash}SERIAL1_CTS*%
X158420000Y-56800000D02*
X158420000Y-49200000D01*
X122174702Y-72800000D02*
X123627208Y-72800000D01*
X125100000Y-59636396D02*
X124030223Y-58566619D01*
X124030223Y-58566619D02*
X124030223Y-57753205D01*
X123627208Y-72800000D02*
X125100000Y-71327208D01*
X125100000Y-71327208D02*
X125100000Y-59636396D01*
%TO.N,D6*%
X116881166Y-65300000D02*
X115992246Y-66188920D01*
X148260000Y-66965000D02*
X148260000Y-49200000D01*
X122174702Y-65300000D02*
X116881166Y-65300000D01*
X148100000Y-67125000D02*
X148260000Y-66965000D01*
%TO.N,D5*%
X117269266Y-65799999D02*
X116085836Y-66983429D01*
X151800000Y-66300000D02*
X151800000Y-50200000D01*
X122174702Y-65799999D02*
X117269266Y-65799999D01*
X150800000Y-67300000D02*
X151800000Y-66300000D01*
X151800000Y-50200000D02*
X150800000Y-49200000D01*
%TO.N,D4*%
X152250000Y-66250000D02*
X152250000Y-50290000D01*
X152250000Y-50290000D02*
X153340000Y-49200000D01*
X117656188Y-66300000D02*
X116178094Y-67778094D01*
X153200000Y-67200000D02*
X152250000Y-66250000D01*
X122174702Y-66300000D02*
X117656188Y-66300000D01*
X153200000Y-68200000D02*
X153200000Y-67200000D01*
%TO.N,D7*%
X145700000Y-59000000D02*
X147810000Y-56890000D01*
X118500000Y-63900000D02*
X118500000Y-61100000D01*
X122174702Y-64800001D02*
X119400001Y-64800001D01*
X119400001Y-64800001D02*
X118500000Y-63900000D01*
X118500000Y-61100000D02*
X118800000Y-60800000D01*
X147810000Y-56890000D02*
X147810000Y-51290000D01*
X147810000Y-51290000D02*
X145720000Y-49200000D01*
%TO.N,SERIAL1_RX*%
X158870000Y-55070000D02*
X158870000Y-51290000D01*
X158870000Y-51290000D02*
X160960000Y-49200000D01*
X123763605Y-73299999D02*
X125550000Y-71513604D01*
X160960000Y-57300000D02*
X160960000Y-57160000D01*
X124694645Y-58594645D02*
X124694645Y-58198791D01*
X125550000Y-59450000D02*
X124694645Y-58594645D01*
X160960000Y-57160000D02*
X158870000Y-55070000D01*
X122174702Y-73299999D02*
X123763605Y-73299999D01*
X125550000Y-71513604D02*
X125550000Y-59450000D01*
D35*
%TO.N,+3V3*%
X137500000Y-59800000D02*
X137400000Y-59700000D01*
D36*
X122174702Y-80300000D02*
X120800000Y-80300000D01*
D34*
X115200000Y-92175000D02*
X115225000Y-92200000D01*
D35*
X110700000Y-84100000D02*
X110700000Y-83025000D01*
X137300000Y-78600000D02*
X137500000Y-78400000D01*
X137500000Y-78400000D02*
X137500000Y-65700000D01*
X137500000Y-65700000D02*
X137500000Y-59800000D01*
D37*
X122174702Y-79800000D02*
X122174702Y-80300000D01*
D35*
X120800000Y-80300000D02*
X120300000Y-80300000D01*
X165250000Y-84950000D02*
X165300000Y-84900000D01*
X120300000Y-80300000D02*
X118400000Y-82200000D01*
X118400000Y-82200000D02*
X118400000Y-84100000D01*
X105575000Y-71225000D02*
X105400000Y-71400000D01*
X118400000Y-88900000D02*
X118400000Y-84100000D01*
X165300000Y-77800000D02*
X165300000Y-78600000D01*
X105350000Y-78650000D02*
X105400000Y-78600000D01*
X164025000Y-84950000D02*
X165250000Y-84950000D01*
X110700000Y-71225000D02*
X105575000Y-71225000D01*
X104430000Y-78650000D02*
X105350000Y-78650000D01*
X165300000Y-78600000D02*
X163500000Y-78600000D01*
X115300000Y-92000000D02*
X118400000Y-88900000D01*
D34*
%TO.N,Net-(D2-K)*%
X113425000Y-92350000D02*
X113575000Y-92200000D01*
X113575000Y-89900000D02*
X113575000Y-91850000D01*
X113575000Y-91850000D02*
X113425000Y-92000000D01*
%TO.N,~{MODE}*%
X111575000Y-81375000D02*
X111600000Y-81400000D01*
X108800000Y-81575000D02*
X110500000Y-81575000D01*
X119300000Y-76236396D02*
X119300000Y-80000000D01*
X120736395Y-74800001D02*
X119300000Y-76236396D01*
X102800000Y-81575000D02*
X108800000Y-81575000D01*
X122174702Y-74800001D02*
X120736395Y-74800001D01*
X110500000Y-81575000D02*
X110700000Y-81375000D01*
X110700000Y-81375000D02*
X111575000Y-81375000D01*
D35*
%TO.N,VIN*%
X138400000Y-66000000D02*
X138400000Y-60700000D01*
X138400000Y-83700000D02*
X140500000Y-85800000D01*
X138400000Y-60700000D02*
X138700000Y-60400000D01*
X140500000Y-85800000D02*
X140500000Y-93900000D01*
X138400000Y-66000000D02*
X138400000Y-83700000D01*
D34*
%TO.N,SDA*%
X149200000Y-91000000D02*
X149200000Y-89700000D01*
X123400000Y-77300000D02*
X122174702Y-77300000D01*
X121336000Y-49536000D02*
X126900000Y-55100000D01*
X125500000Y-92000000D02*
X125500000Y-76700000D01*
X162400000Y-83000000D02*
X162400000Y-84900000D01*
X165250000Y-85950000D02*
X165400000Y-86100000D01*
X164025000Y-85950000D02*
X165250000Y-85950000D01*
X165300000Y-80250000D02*
X165150000Y-80250000D01*
X149200000Y-89700000D02*
X149200000Y-81700000D01*
X126900000Y-75300000D02*
X125500000Y-76700000D01*
X125500000Y-76700000D02*
X124000000Y-76700000D01*
X165150000Y-80250000D02*
X162400000Y-83000000D01*
X126900000Y-55100000D02*
X126900000Y-75300000D01*
X124000000Y-76700000D02*
X123400000Y-77300000D01*
X163450000Y-85950000D02*
X164025000Y-85950000D01*
X121336000Y-49200000D02*
X121336000Y-49536000D01*
X148000000Y-92200000D02*
X149200000Y-91000000D01*
X162400000Y-84900000D02*
X163450000Y-85950000D01*
%TO.N,SCL*%
X126450000Y-74950000D02*
X126450000Y-55286396D01*
X151800000Y-81700000D02*
X151700000Y-81800000D01*
X124800000Y-92700000D02*
X125100000Y-93000000D01*
X124600000Y-76000000D02*
X125400000Y-76000000D01*
X163500000Y-80250000D02*
X163500000Y-81200000D01*
X125400000Y-76000000D02*
X126450000Y-74950000D01*
X161950000Y-85649999D02*
X163250001Y-86950000D01*
X124300001Y-77799999D02*
X122174702Y-77799999D01*
X124300001Y-77799999D02*
X124800000Y-78299998D01*
X151700000Y-81800000D02*
X151700000Y-91700000D01*
X124800000Y-78299998D02*
X124800000Y-81300000D01*
X165250000Y-86950000D02*
X165400000Y-87100000D01*
X161950000Y-82750000D02*
X161950000Y-85649999D01*
X164025000Y-86950000D02*
X165250000Y-86950000D01*
X163500000Y-81200000D02*
X161950000Y-82750000D01*
X124800000Y-81300000D02*
X124800000Y-92700000D01*
X126450000Y-55286396D02*
X122563604Y-51400000D01*
X163250001Y-86950000D02*
X164025000Y-86950000D01*
X151700000Y-91700000D02*
X151200000Y-92200000D01*
X122563604Y-51400000D02*
X120996000Y-51400000D01*
X120996000Y-51400000D02*
X118796000Y-49200000D01*
%TO.N,Net-(U1-RED)*%
X111600000Y-68600000D02*
X112649999Y-67550001D01*
X108730000Y-75500000D02*
X111225001Y-75500000D01*
X112649999Y-67550001D02*
X114624700Y-67550001D01*
%TO.N,Net-(U1-GREEN)*%
X112266117Y-67049999D02*
X114624700Y-67049999D01*
X111708058Y-67608058D02*
X112266117Y-67049999D01*
X110470804Y-77150000D02*
X108730000Y-77150000D01*
X111310402Y-76310402D02*
X110470804Y-77150000D01*
%TO.N,Net-(U1-BLUE)*%
X112000000Y-70300000D02*
X110800000Y-69100000D01*
X111750000Y-66550000D02*
X114624700Y-66550000D01*
X112000000Y-76800000D02*
X112000000Y-70300000D01*
X108730000Y-78800000D02*
X110000000Y-78800000D01*
X110800000Y-67500000D02*
X111750000Y-66550000D01*
X110800000Y-69100000D02*
X110800000Y-67500000D01*
X110000000Y-78800000D02*
X112000000Y-76800000D01*
%TO.N,EN_AUX*%
X114624700Y-71550000D02*
X113250000Y-71550000D01*
X113250000Y-71550000D02*
X113200000Y-71500000D01*
X141600000Y-70000000D02*
X141600000Y-64900000D01*
%TO.N,Net-(U2-CHG)*%
X156025000Y-83700000D02*
X156025000Y-88925000D01*
X156025000Y-88925000D02*
X157100000Y-90000000D01*
X115225000Y-89900000D02*
X116000000Y-89900000D01*
D35*
%TO.N,+3V9*%
X124000000Y-81899998D02*
X123599999Y-82299999D01*
X136500000Y-64900000D02*
X136500000Y-79600000D01*
X124000000Y-80000000D02*
X124000000Y-81899998D01*
D36*
X122174702Y-82299999D02*
X122174702Y-80802400D01*
X122174702Y-82299999D02*
X123599999Y-82299999D01*
D34*
%TO.N,~{FUEL_INT}*%
X115701801Y-71049999D02*
X116300000Y-70451800D01*
X114624700Y-71049999D02*
X115701801Y-71049999D01*
X146600000Y-68900000D02*
X146600000Y-85700000D01*
X116300000Y-70451800D02*
X116300000Y-69375000D01*
%TO.N,VUSB*%
X110490000Y-64190000D02*
X107020000Y-64190000D01*
X108110000Y-59390000D02*
X109600000Y-57900000D01*
X107020000Y-59390000D02*
X108110000Y-59390000D01*
X122174702Y-78800000D02*
X120700000Y-78800000D01*
X110500000Y-64200000D02*
X110490000Y-64190000D01*
D37*
%TO.N,USB_D_P*%
X112486765Y-80386765D02*
X112823529Y-80050001D01*
X107020000Y-61040000D02*
X106150000Y-61040000D01*
X109725001Y-63000001D02*
X109925000Y-63200000D01*
X107020000Y-61040000D02*
X108040000Y-61040000D01*
X108500000Y-61500000D02*
X109172206Y-61500000D01*
X105900000Y-61290000D02*
X105900000Y-61790000D01*
X106150000Y-61040000D02*
X105900000Y-61290000D01*
X106150000Y-62040000D02*
X107020000Y-62040000D01*
X105900000Y-61790000D02*
X106150000Y-62040000D01*
X108040000Y-61040000D02*
X108500000Y-61500000D01*
X112823529Y-80050001D02*
X114624700Y-80050001D01*
X109725001Y-62052795D02*
X109725001Y-63000001D01*
X109172206Y-61500000D02*
X109725001Y-62052795D01*
%TO.N,USB_D_N*%
X108200000Y-61800000D02*
X107940000Y-61540000D01*
X107020000Y-62540000D02*
X107925000Y-62540000D01*
X112474999Y-79550001D02*
X111600000Y-80425000D01*
X107940000Y-61540000D02*
X107020000Y-61540000D01*
X114624700Y-79550001D02*
X112474999Y-79550001D01*
X109274999Y-62274999D02*
X109274999Y-63000001D01*
X108200000Y-62265000D02*
X108200000Y-62000000D01*
X108200000Y-62000000D02*
X109000000Y-62000000D01*
X109000000Y-62000000D02*
X109274999Y-62274999D01*
X108200000Y-62000000D02*
X108200000Y-61800000D01*
X109274999Y-63000001D02*
X109075000Y-63200000D01*
X107925000Y-62540000D02*
X108200000Y-62265000D01*
D35*
%TO.N,VBATT*%
X119900000Y-89100000D02*
X119900000Y-91400000D01*
X138100000Y-97460000D02*
X138100000Y-87800000D01*
X138100000Y-87800000D02*
X139000000Y-86900000D01*
D34*
%TO.N,Net-(J8-CC1)*%
X110900000Y-57700000D02*
X108060000Y-60540000D01*
X110900000Y-57500000D02*
X110900000Y-57700000D01*
X108060000Y-60540000D02*
X107020000Y-60540000D01*
%TO.N,Net-(J8-CC2)*%
X105700000Y-63500000D02*
X105740000Y-63540000D01*
X110900000Y-59200000D02*
X110000000Y-60100000D01*
X105740000Y-63540000D02*
X107020000Y-63540000D01*
%TO.N,SYS_PWR_EN*%
X106900000Y-48550000D02*
X106900000Y-52700000D01*
X127350000Y-54650000D02*
X126300000Y-53600000D01*
X127350000Y-80050000D02*
X127350000Y-54650000D01*
X106900000Y-52700000D02*
X106900000Y-54550000D01*
%TO.N,Net-(D1-RK)*%
X107080000Y-75380000D02*
X106100000Y-74400000D01*
X106100000Y-74400000D02*
X103880000Y-74400000D01*
X103030000Y-75250000D02*
X103030000Y-75550000D01*
X107080000Y-75500000D02*
X107080000Y-75380000D01*
X103880000Y-74400000D02*
X103030000Y-75250000D01*
%TO.N,Net-(D1-GK)*%
X105750000Y-77150000D02*
X104430000Y-75830000D01*
X107080000Y-77150000D02*
X105750000Y-77150000D01*
X104430000Y-75830000D02*
X104430000Y-75550000D01*
%TO.N,Net-(D1-BK)*%
X103800000Y-79900000D02*
X103030000Y-79130000D01*
X103030000Y-79130000D02*
X103030000Y-78650000D01*
X107080000Y-78800000D02*
X105980000Y-79900000D01*
X105980000Y-79900000D02*
X103800000Y-79900000D01*
%TD*%
%TA.AperFunction,Conductor*%
%TO.N,GND*%
G36*
X142714075Y-97267007D02*
G01*
X142680000Y-97394174D01*
X142680000Y-97525826D01*
X142714075Y-97652993D01*
X142746988Y-97710000D01*
X141073012Y-97710000D01*
X141105925Y-97652993D01*
X141140000Y-97525826D01*
X141140000Y-97394174D01*
X141105925Y-97267007D01*
X141073012Y-97210000D01*
X142746988Y-97210000D01*
X142714075Y-97267007D01*
G37*
%TD.AperFunction*%
%TA.AperFunction,Conductor*%
G36*
X123935833Y-67614385D02*
G01*
X123991767Y-67656256D01*
X124016184Y-67721721D01*
X124016500Y-67730567D01*
X124016500Y-70827045D01*
X123996815Y-70894084D01*
X123980181Y-70914726D01*
X123669583Y-71225324D01*
X123608260Y-71258809D01*
X123538568Y-71253825D01*
X123482635Y-71211953D01*
X123458218Y-71146489D01*
X123457902Y-71137643D01*
X123457902Y-71098962D01*
X123457901Y-71098948D01*
X123454063Y-71063254D01*
X123454063Y-71036741D01*
X123457901Y-71001044D01*
X123457902Y-71001037D01*
X123457902Y-70598961D01*
X123454062Y-70563244D01*
X123454062Y-70536744D01*
X123457902Y-70501038D01*
X123457902Y-70098962D01*
X123454062Y-70063245D01*
X123454062Y-70036745D01*
X123457902Y-70001039D01*
X123457902Y-69598963D01*
X123454063Y-69563254D01*
X123454063Y-69536745D01*
X123455991Y-69518811D01*
X123457902Y-69501037D01*
X123457902Y-69098961D01*
X123457901Y-69098944D01*
X123450562Y-69030685D01*
X123451414Y-69030593D01*
X123449724Y-69003563D01*
X123449466Y-69003550D01*
X123449402Y-69003550D01*
X123449402Y-69003546D01*
X123449224Y-69003537D01*
X123449402Y-69000220D01*
X123449402Y-68952400D01*
X123413083Y-68916081D01*
X123414314Y-68914849D01*
X123401276Y-68902711D01*
X123380015Y-68874310D01*
X123355598Y-68808846D01*
X123370449Y-68740573D01*
X123380016Y-68725687D01*
X123401276Y-68697288D01*
X123415673Y-68686509D01*
X123413083Y-68683919D01*
X123449402Y-68647600D01*
X123449402Y-68599780D01*
X123449224Y-68596464D01*
X123449402Y-68596454D01*
X123449402Y-68596451D01*
X123449466Y-68596451D01*
X123449723Y-68596437D01*
X123451413Y-68569404D01*
X123450562Y-68569313D01*
X123457901Y-68501053D01*
X123457902Y-68501036D01*
X123457902Y-68098971D01*
X123457902Y-68098961D01*
X123454062Y-68063244D01*
X123454062Y-68036744D01*
X123457902Y-68001038D01*
X123457902Y-67983180D01*
X123477587Y-67916141D01*
X123530391Y-67870386D01*
X123534417Y-67868632D01*
X123551875Y-67861401D01*
X123655633Y-67792072D01*
X123804820Y-67642884D01*
X123866142Y-67609401D01*
X123935833Y-67614385D01*
G37*
%TD.AperFunction*%
%TA.AperFunction,Conductor*%
G36*
X113288281Y-68203186D02*
G01*
X113334036Y-68255990D01*
X113344532Y-68320754D01*
X113341500Y-68348957D01*
X113341500Y-68751043D01*
X113345338Y-68786747D01*
X113345338Y-68813250D01*
X113341500Y-68848953D01*
X113341500Y-69251044D01*
X113345338Y-69286747D01*
X113345338Y-69313251D01*
X113341500Y-69348954D01*
X113341500Y-69751045D01*
X113345338Y-69786749D01*
X113345338Y-69813251D01*
X113341500Y-69848954D01*
X113341500Y-70251055D01*
X113348840Y-70319313D01*
X113347990Y-70319404D01*
X113349681Y-70346423D01*
X113350178Y-70346450D01*
X113350000Y-70349774D01*
X113350000Y-70397600D01*
X113386319Y-70433919D01*
X113385087Y-70435150D01*
X113398128Y-70447292D01*
X113419387Y-70475692D01*
X113443802Y-70541157D01*
X113428949Y-70609429D01*
X113419385Y-70624311D01*
X113402034Y-70647489D01*
X113346100Y-70689360D01*
X113288884Y-70696398D01*
X113200003Y-70686384D01*
X113199996Y-70686384D01*
X113018958Y-70706781D01*
X113018953Y-70706782D01*
X112846982Y-70766958D01*
X112823472Y-70781731D01*
X112756236Y-70800731D01*
X112689400Y-70780363D01*
X112644186Y-70727096D01*
X112633500Y-70676737D01*
X112633500Y-70237605D01*
X112633499Y-70237601D01*
X112622250Y-70181047D01*
X112609155Y-70115215D01*
X112561863Y-70001043D01*
X112561401Y-69999927D01*
X112561396Y-69999918D01*
X112492072Y-69896168D01*
X112457015Y-69861111D01*
X112403833Y-69807929D01*
X112048182Y-69452278D01*
X112014697Y-69390955D01*
X112019681Y-69321263D01*
X112061553Y-69265330D01*
X112069867Y-69259619D01*
X112107281Y-69236111D01*
X112236111Y-69107281D01*
X112333043Y-68953015D01*
X112393217Y-68781047D01*
X112398309Y-68735851D01*
X112425374Y-68671439D01*
X112433838Y-68662064D01*
X112876084Y-68219820D01*
X112937407Y-68186335D01*
X112963765Y-68183501D01*
X113221242Y-68183501D01*
X113288281Y-68203186D01*
G37*
%TD.AperFunction*%
%TA.AperFunction,Conductor*%
G36*
X123538703Y-59607845D02*
G01*
X123545181Y-59613877D01*
X123980181Y-60048877D01*
X124013666Y-60110200D01*
X124016500Y-60136558D01*
X124016500Y-61921234D01*
X123996815Y-61988273D01*
X123944011Y-62034028D01*
X123874853Y-62043972D01*
X123811297Y-62014947D01*
X123804819Y-62008915D01*
X123369819Y-61573915D01*
X123336334Y-61512592D01*
X123333500Y-61486234D01*
X123333500Y-59701558D01*
X123353185Y-59634519D01*
X123405989Y-59588764D01*
X123475147Y-59578820D01*
X123538703Y-59607845D01*
G37*
%TD.AperFunction*%
%TA.AperFunction,Conductor*%
G36*
X126666000Y-50530633D02*
G01*
X126879483Y-50473433D01*
X126879492Y-50473429D01*
X127093578Y-50373600D01*
X127287082Y-50238105D01*
X127454105Y-50071082D01*
X127580868Y-49890048D01*
X127635445Y-49846423D01*
X127704944Y-49839231D01*
X127767298Y-49870753D01*
X127786251Y-49893350D01*
X127880276Y-50037265D01*
X127880284Y-50037276D01*
X128032756Y-50202902D01*
X128032760Y-50202906D01*
X128210424Y-50341189D01*
X128210426Y-50341190D01*
X128210433Y-50341195D01*
X128257516Y-50366674D01*
X128307107Y-50415892D01*
X128322500Y-50475729D01*
X128322500Y-52693441D01*
X128302815Y-52760480D01*
X128286181Y-52781122D01*
X127987049Y-53080255D01*
X127696167Y-53371137D01*
X127652047Y-53415257D01*
X127607927Y-53459376D01*
X127538603Y-53563126D01*
X127538598Y-53563136D01*
X127498446Y-53660072D01*
X127454605Y-53714475D01*
X127388310Y-53736540D01*
X127320611Y-53719261D01*
X127296204Y-53700300D01*
X127133848Y-53537944D01*
X127100363Y-53476621D01*
X127098310Y-53464161D01*
X127093217Y-53418953D01*
X127033043Y-53246985D01*
X126936111Y-53092719D01*
X126807281Y-52963889D01*
X126777630Y-52945258D01*
X126653017Y-52866958D01*
X126653016Y-52866957D01*
X126653015Y-52866957D01*
X126598693Y-52847949D01*
X126481046Y-52806782D01*
X126481041Y-52806781D01*
X126300004Y-52786384D01*
X126299996Y-52786384D01*
X126118958Y-52806781D01*
X126118953Y-52806782D01*
X125946982Y-52866958D01*
X125794815Y-52962571D01*
X125727578Y-52981571D01*
X125660743Y-52961203D01*
X125641162Y-52945258D01*
X123425910Y-50730006D01*
X123392425Y-50668683D01*
X123397409Y-50598991D01*
X123439281Y-50543058D01*
X123504745Y-50518641D01*
X123536168Y-50521423D01*
X123536306Y-50520600D01*
X123763431Y-50558500D01*
X123988569Y-50558500D01*
X124210635Y-50521444D01*
X124423574Y-50448342D01*
X124621576Y-50341189D01*
X124799240Y-50202906D01*
X124920594Y-50071082D01*
X124951715Y-50037276D01*
X124951715Y-50037275D01*
X124951722Y-50037268D01*
X125045749Y-49893347D01*
X125098894Y-49847994D01*
X125168125Y-49838570D01*
X125231461Y-49868072D01*
X125251130Y-49890048D01*
X125377890Y-50071078D01*
X125544917Y-50238105D01*
X125738421Y-50373600D01*
X125952507Y-50473429D01*
X125952516Y-50473433D01*
X126166000Y-50530634D01*
X126166000Y-49633012D01*
X126223007Y-49665925D01*
X126350174Y-49700000D01*
X126481826Y-49700000D01*
X126608993Y-49665925D01*
X126666000Y-49633012D01*
X126666000Y-50530633D01*
G37*
%TD.AperFunction*%
%TA.AperFunction,Conductor*%
G36*
X107213039Y-57766685D02*
G01*
X107258794Y-57819489D01*
X107270000Y-57871000D01*
X107270000Y-58457500D01*
X107250315Y-58524539D01*
X107197511Y-58570294D01*
X107146000Y-58581500D01*
X106827862Y-58581500D01*
X106760823Y-58561815D01*
X106715068Y-58509011D01*
X106705124Y-58439853D01*
X106734149Y-58376297D01*
X106740181Y-58369819D01*
X106770000Y-58340000D01*
X106770000Y-57871000D01*
X106789685Y-57803961D01*
X106842489Y-57758206D01*
X106894000Y-57747000D01*
X107146000Y-57747000D01*
X107213039Y-57766685D01*
G37*
%TD.AperFunction*%
%TA.AperFunction,Conductor*%
G36*
X163484404Y-46755185D02*
G01*
X163505046Y-46771819D01*
X165928181Y-49194954D01*
X165961666Y-49256277D01*
X165964500Y-49282635D01*
X165964500Y-59344982D01*
X165964500Y-59375018D01*
X165975994Y-59402767D01*
X165975995Y-59402768D01*
X168468181Y-61894954D01*
X168501666Y-61956277D01*
X168504500Y-61982635D01*
X168504500Y-96107364D01*
X168484815Y-96174403D01*
X168468181Y-96195045D01*
X165997233Y-98665994D01*
X165975995Y-98687231D01*
X165964500Y-98714982D01*
X165964500Y-99231907D01*
X165963903Y-99244062D01*
X165952505Y-99359778D01*
X165947763Y-99383618D01*
X165917832Y-99482290D01*
X165915789Y-99489024D01*
X165906486Y-99511482D01*
X165854561Y-99608627D01*
X165841056Y-99628839D01*
X165771176Y-99713988D01*
X165753988Y-99731176D01*
X165668839Y-99801056D01*
X165648627Y-99814561D01*
X165551482Y-99866486D01*
X165529028Y-99875787D01*
X165487028Y-99888528D01*
X165423618Y-99907763D01*
X165399778Y-99912505D01*
X165291162Y-99923203D01*
X165284060Y-99923903D01*
X165271907Y-99924500D01*
X100768093Y-99924500D01*
X100755939Y-99923903D01*
X100747995Y-99923120D01*
X100640221Y-99912505D01*
X100616381Y-99907763D01*
X100599445Y-99902625D01*
X100510968Y-99875786D01*
X100488517Y-99866486D01*
X100391372Y-99814561D01*
X100371160Y-99801056D01*
X100286011Y-99731176D01*
X100268823Y-99713988D01*
X100198943Y-99628839D01*
X100185438Y-99608627D01*
X100133510Y-99511476D01*
X100124215Y-99489037D01*
X100092234Y-99383612D01*
X100087494Y-99359777D01*
X100076097Y-99244061D01*
X100075500Y-99231907D01*
X100075500Y-96800000D01*
X105920898Y-96800000D01*
X107234314Y-96800000D01*
X107229920Y-96804394D01*
X107177259Y-96895606D01*
X107150000Y-96997339D01*
X107150000Y-97102661D01*
X107177259Y-97204394D01*
X107229920Y-97295606D01*
X107234314Y-97300000D01*
X105920898Y-97300000D01*
X105936934Y-97401247D01*
X106009897Y-97625802D01*
X106117085Y-97836171D01*
X106255866Y-98027186D01*
X106422813Y-98194133D01*
X106613828Y-98332914D01*
X106824197Y-98440102D01*
X107048752Y-98513065D01*
X107048751Y-98513065D01*
X107281948Y-98550000D01*
X108150000Y-98550000D01*
X108150000Y-97450000D01*
X108650000Y-97450000D01*
X108650000Y-98550000D01*
X109518052Y-98550000D01*
X109751247Y-98513065D01*
X109975802Y-98440102D01*
X110186171Y-98332914D01*
X110377186Y-98194133D01*
X110544133Y-98027186D01*
X110682914Y-97836171D01*
X110790102Y-97625802D01*
X110863065Y-97401247D01*
X110879102Y-97300000D01*
X109565686Y-97300000D01*
X109570080Y-97295606D01*
X109622741Y-97204394D01*
X109650000Y-97102661D01*
X109650000Y-96997339D01*
X109622741Y-96895606D01*
X109570080Y-96804394D01*
X109565686Y-96800000D01*
X110879102Y-96800000D01*
X110863065Y-96698752D01*
X110790102Y-96474197D01*
X110682914Y-96263828D01*
X110544133Y-96072813D01*
X110377186Y-95905866D01*
X110186171Y-95767085D01*
X109975802Y-95659897D01*
X109943644Y-95649448D01*
X116291500Y-95649448D01*
X116291500Y-98650551D01*
X116302113Y-98754428D01*
X116357883Y-98922735D01*
X116357884Y-98922738D01*
X116450967Y-99073647D01*
X116450970Y-99073651D01*
X116576348Y-99199029D01*
X116576352Y-99199032D01*
X116727261Y-99292115D01*
X116727264Y-99292116D01*
X116895571Y-99347886D01*
X116895572Y-99347886D01*
X116895575Y-99347887D01*
X116999456Y-99358500D01*
X116999461Y-99358500D01*
X118100539Y-99358500D01*
X118100544Y-99358500D01*
X118204425Y-99347887D01*
X118372738Y-99292115D01*
X118523651Y-99199030D01*
X118649030Y-99073651D01*
X118742115Y-98922738D01*
X118797887Y-98754425D01*
X118808500Y-98650544D01*
X118808500Y-95649456D01*
X118808499Y-95649448D01*
X122991500Y-95649448D01*
X122991500Y-98650551D01*
X123002113Y-98754428D01*
X123057883Y-98922735D01*
X123057884Y-98922738D01*
X123150967Y-99073647D01*
X123150970Y-99073651D01*
X123276348Y-99199029D01*
X123276352Y-99199032D01*
X123427261Y-99292115D01*
X123427264Y-99292116D01*
X123595571Y-99347886D01*
X123595572Y-99347886D01*
X123595575Y-99347887D01*
X123699456Y-99358500D01*
X123699461Y-99358500D01*
X124800539Y-99358500D01*
X124800544Y-99358500D01*
X124904425Y-99347887D01*
X125072738Y-99292115D01*
X125223651Y-99199030D01*
X125349030Y-99073651D01*
X125442115Y-98922738D01*
X125497887Y-98754425D01*
X125508500Y-98650544D01*
X125508500Y-96561345D01*
X126581500Y-96561345D01*
X126581500Y-98358654D01*
X126588011Y-98419202D01*
X126588011Y-98419204D01*
X126636797Y-98550000D01*
X126639111Y-98556204D01*
X126726739Y-98673261D01*
X126843796Y-98760889D01*
X126980799Y-98811989D01*
X127008050Y-98814918D01*
X127041345Y-98818499D01*
X127041362Y-98818500D01*
X128838638Y-98818500D01*
X128838654Y-98818499D01*
X128865692Y-98815591D01*
X128899201Y-98811989D01*
X129036204Y-98760889D01*
X129153261Y-98673261D01*
X129240889Y-98556204D01*
X129286138Y-98434887D01*
X129328009Y-98378956D01*
X129393474Y-98354539D01*
X129461746Y-98369391D01*
X129493545Y-98394236D01*
X129556760Y-98462906D01*
X129734424Y-98601189D01*
X129734425Y-98601189D01*
X129734427Y-98601191D01*
X129861135Y-98669761D01*
X129932426Y-98708342D01*
X130145365Y-98781444D01*
X130367431Y-98818500D01*
X130592569Y-98818500D01*
X130814635Y-98781444D01*
X131027574Y-98708342D01*
X131225576Y-98601189D01*
X131403240Y-98462906D01*
X131524594Y-98331082D01*
X131555715Y-98297276D01*
X131555715Y-98297275D01*
X131555722Y-98297268D01*
X131646193Y-98158790D01*
X131699338Y-98113437D01*
X131768569Y-98104013D01*
X131831905Y-98133515D01*
X131853804Y-98158787D01*
X131944278Y-98297268D01*
X131944283Y-98297273D01*
X131944284Y-98297276D01*
X132070968Y-98434889D01*
X132096760Y-98462906D01*
X132274424Y-98601189D01*
X132274425Y-98601189D01*
X132274427Y-98601191D01*
X132401135Y-98669761D01*
X132472426Y-98708342D01*
X132685365Y-98781444D01*
X132907431Y-98818500D01*
X133132569Y-98818500D01*
X133354635Y-98781444D01*
X133567574Y-98708342D01*
X133765576Y-98601189D01*
X133943240Y-98462906D01*
X134064594Y-98331082D01*
X134095715Y-98297276D01*
X134095715Y-98297275D01*
X134095722Y-98297268D01*
X134186193Y-98158790D01*
X134239338Y-98113437D01*
X134308569Y-98104013D01*
X134371905Y-98133515D01*
X134393804Y-98158787D01*
X134484278Y-98297268D01*
X134484283Y-98297273D01*
X134484284Y-98297276D01*
X134610968Y-98434889D01*
X134636760Y-98462906D01*
X134814424Y-98601189D01*
X134814425Y-98601189D01*
X134814427Y-98601191D01*
X134941135Y-98669761D01*
X135012426Y-98708342D01*
X135225365Y-98781444D01*
X135447431Y-98818500D01*
X135672569Y-98818500D01*
X135894635Y-98781444D01*
X136107574Y-98708342D01*
X136305576Y-98601189D01*
X136483240Y-98462906D01*
X136604594Y-98331082D01*
X136635715Y-98297276D01*
X136635715Y-98297275D01*
X136635722Y-98297268D01*
X136726193Y-98158790D01*
X136779338Y-98113437D01*
X136848569Y-98104013D01*
X136911905Y-98133515D01*
X136933804Y-98158787D01*
X137024278Y-98297268D01*
X137024283Y-98297273D01*
X137024284Y-98297276D01*
X137150968Y-98434889D01*
X137176760Y-98462906D01*
X137354424Y-98601189D01*
X137354425Y-98601189D01*
X137354427Y-98601191D01*
X137481135Y-98669761D01*
X137552426Y-98708342D01*
X137765365Y-98781444D01*
X137987431Y-98818500D01*
X138212569Y-98818500D01*
X138434635Y-98781444D01*
X138647574Y-98708342D01*
X138845576Y-98601189D01*
X139023240Y-98462906D01*
X139144594Y-98331082D01*
X139175715Y-98297276D01*
X139175715Y-98297275D01*
X139175722Y-98297268D01*
X139269749Y-98153347D01*
X139322894Y-98107994D01*
X139392125Y-98098570D01*
X139455461Y-98128072D01*
X139475130Y-98150048D01*
X139601890Y-98331078D01*
X139768917Y-98498105D01*
X139962421Y-98633600D01*
X140176507Y-98733429D01*
X140176516Y-98733433D01*
X140390000Y-98790634D01*
X140390000Y-97893012D01*
X140447007Y-97925925D01*
X140574174Y-97960000D01*
X140705826Y-97960000D01*
X140832993Y-97925925D01*
X140890000Y-97893012D01*
X140890000Y-98790633D01*
X141103483Y-98733433D01*
X141103492Y-98733429D01*
X141317578Y-98633600D01*
X141511082Y-98498105D01*
X141678105Y-98331082D01*
X141808425Y-98144968D01*
X141863002Y-98101344D01*
X141932501Y-98094151D01*
X141994855Y-98125673D01*
X142011575Y-98144968D01*
X142141894Y-98331082D01*
X142308917Y-98498105D01*
X142502421Y-98633600D01*
X142716507Y-98733429D01*
X142716516Y-98733433D01*
X142930000Y-98790634D01*
X142930000Y-97893012D01*
X142987007Y-97925925D01*
X143114174Y-97960000D01*
X143245826Y-97960000D01*
X143372993Y-97925925D01*
X143430000Y-97893012D01*
X143430000Y-98790633D01*
X143643483Y-98733433D01*
X143643492Y-98733429D01*
X143857578Y-98633600D01*
X144051082Y-98498105D01*
X144218105Y-98331082D01*
X144344868Y-98150048D01*
X144399445Y-98106423D01*
X144468944Y-98099231D01*
X144531298Y-98130753D01*
X144550251Y-98153350D01*
X144644276Y-98297265D01*
X144644284Y-98297276D01*
X144770968Y-98434889D01*
X144796760Y-98462906D01*
X144974424Y-98601189D01*
X144974425Y-98601189D01*
X144974427Y-98601191D01*
X145101135Y-98669761D01*
X145172426Y-98708342D01*
X145385365Y-98781444D01*
X145607431Y-98818500D01*
X145832569Y-98818500D01*
X146054635Y-98781444D01*
X146267574Y-98708342D01*
X146465576Y-98601189D01*
X146643240Y-98462906D01*
X146764594Y-98331082D01*
X146795715Y-98297276D01*
X146795717Y-98297273D01*
X146795722Y-98297268D01*
X146918860Y-98108791D01*
X147009296Y-97902616D01*
X147064564Y-97684368D01*
X147069417Y-97625802D01*
X147083156Y-97460005D01*
X147083156Y-97459994D01*
X147064565Y-97235640D01*
X147064563Y-97235628D01*
X147009296Y-97017385D01*
X147000503Y-96997339D01*
X146918860Y-96811209D01*
X146902706Y-96786484D01*
X146795723Y-96622734D01*
X146795715Y-96622723D01*
X146739212Y-96561345D01*
X149441500Y-96561345D01*
X149441500Y-98358654D01*
X149448011Y-98419202D01*
X149448011Y-98419204D01*
X149496797Y-98550000D01*
X149499111Y-98556204D01*
X149586739Y-98673261D01*
X149703796Y-98760889D01*
X149840799Y-98811989D01*
X149868050Y-98814918D01*
X149901345Y-98818499D01*
X149901362Y-98818500D01*
X151698638Y-98818500D01*
X151698654Y-98818499D01*
X151725692Y-98815591D01*
X151759201Y-98811989D01*
X151896204Y-98760889D01*
X152013261Y-98673261D01*
X152100889Y-98556204D01*
X152146138Y-98434887D01*
X152188009Y-98378956D01*
X152253474Y-98354539D01*
X152321746Y-98369391D01*
X152353545Y-98394236D01*
X152416760Y-98462906D01*
X152594424Y-98601189D01*
X152594425Y-98601189D01*
X152594427Y-98601191D01*
X152721135Y-98669761D01*
X152792426Y-98708342D01*
X153005365Y-98781444D01*
X153227431Y-98818500D01*
X153452569Y-98818500D01*
X153674635Y-98781444D01*
X153887574Y-98708342D01*
X154085576Y-98601189D01*
X154263240Y-98462906D01*
X154384594Y-98331082D01*
X154415715Y-98297276D01*
X154415715Y-98297275D01*
X154415722Y-98297268D01*
X154506193Y-98158790D01*
X154559338Y-98113437D01*
X154628569Y-98104013D01*
X154691905Y-98133515D01*
X154713804Y-98158787D01*
X154804278Y-98297268D01*
X154804283Y-98297273D01*
X154804284Y-98297276D01*
X154930968Y-98434889D01*
X154956760Y-98462906D01*
X155134424Y-98601189D01*
X155134425Y-98601189D01*
X155134427Y-98601191D01*
X155261135Y-98669761D01*
X155332426Y-98708342D01*
X155545365Y-98781444D01*
X155767431Y-98818500D01*
X155992569Y-98818500D01*
X156214635Y-98781444D01*
X156427574Y-98708342D01*
X156625576Y-98601189D01*
X156803240Y-98462906D01*
X156924594Y-98331082D01*
X156955715Y-98297276D01*
X156955715Y-98297275D01*
X156955722Y-98297268D01*
X157046193Y-98158790D01*
X157099338Y-98113437D01*
X157168569Y-98104013D01*
X157231905Y-98133515D01*
X157253804Y-98158787D01*
X157344278Y-98297268D01*
X157344283Y-98297273D01*
X157344284Y-98297276D01*
X157470968Y-98434889D01*
X157496760Y-98462906D01*
X157674424Y-98601189D01*
X157674425Y-98601189D01*
X157674427Y-98601191D01*
X157801135Y-98669761D01*
X157872426Y-98708342D01*
X158085365Y-98781444D01*
X158307431Y-98818500D01*
X158532569Y-98818500D01*
X158754635Y-98781444D01*
X158967574Y-98708342D01*
X159165576Y-98601189D01*
X159343240Y-98462906D01*
X159464594Y-98331082D01*
X159495715Y-98297276D01*
X159495715Y-98297275D01*
X159495722Y-98297268D01*
X159586193Y-98158790D01*
X159639338Y-98113437D01*
X159708569Y-98104013D01*
X159771905Y-98133515D01*
X159793804Y-98158787D01*
X159884278Y-98297268D01*
X159884283Y-98297273D01*
X159884284Y-98297276D01*
X160010968Y-98434889D01*
X160036760Y-98462906D01*
X160214424Y-98601189D01*
X160214425Y-98601189D01*
X160214427Y-98601191D01*
X160341135Y-98669761D01*
X160412426Y-98708342D01*
X160625365Y-98781444D01*
X160847431Y-98818500D01*
X161072569Y-98818500D01*
X161294635Y-98781444D01*
X161507574Y-98708342D01*
X161705576Y-98601189D01*
X161883240Y-98462906D01*
X162004594Y-98331082D01*
X162035715Y-98297276D01*
X162035715Y-98297275D01*
X162035722Y-98297268D01*
X162126193Y-98158790D01*
X162179338Y-98113437D01*
X162248569Y-98104013D01*
X162311905Y-98133515D01*
X162333804Y-98158787D01*
X162424278Y-98297268D01*
X162424283Y-98297273D01*
X162424284Y-98297276D01*
X162550968Y-98434889D01*
X162576760Y-98462906D01*
X162754424Y-98601189D01*
X162754425Y-98601189D01*
X162754427Y-98601191D01*
X162881135Y-98669761D01*
X162952426Y-98708342D01*
X163165365Y-98781444D01*
X163387431Y-98818500D01*
X163612569Y-98818500D01*
X163834635Y-98781444D01*
X164047574Y-98708342D01*
X164245576Y-98601189D01*
X164423240Y-98462906D01*
X164544594Y-98331082D01*
X164575715Y-98297276D01*
X164575717Y-98297273D01*
X164575722Y-98297268D01*
X164698860Y-98108791D01*
X164789296Y-97902616D01*
X164844564Y-97684368D01*
X164849417Y-97625802D01*
X164863156Y-97460005D01*
X164863156Y-97459994D01*
X164844565Y-97235640D01*
X164844563Y-97235628D01*
X164789296Y-97017385D01*
X164780503Y-96997339D01*
X164698860Y-96811209D01*
X164682706Y-96786484D01*
X164575723Y-96622734D01*
X164575715Y-96622723D01*
X164423243Y-96457097D01*
X164423238Y-96457092D01*
X164265616Y-96334409D01*
X164245576Y-96318811D01*
X164245575Y-96318810D01*
X164245572Y-96318808D01*
X164047580Y-96211661D01*
X164047577Y-96211659D01*
X164047574Y-96211658D01*
X164047571Y-96211657D01*
X164047569Y-96211656D01*
X163834637Y-96138556D01*
X163612569Y-96101500D01*
X163387431Y-96101500D01*
X163165358Y-96138556D01*
X163161115Y-96139631D01*
X163091295Y-96136998D01*
X163043007Y-96107103D01*
X161393836Y-94457931D01*
X161393832Y-94457928D01*
X161290081Y-94388603D01*
X161290072Y-94388598D01*
X161174785Y-94340845D01*
X161174777Y-94340843D01*
X161052398Y-94316500D01*
X161052394Y-94316500D01*
X157036558Y-94316500D01*
X156969519Y-94296815D01*
X156948877Y-94280181D01*
X156069819Y-93401123D01*
X156036334Y-93339800D01*
X156033500Y-93313442D01*
X156033500Y-90128766D01*
X156053185Y-90061727D01*
X156105989Y-90015972D01*
X156175147Y-90006028D01*
X156238703Y-90035053D01*
X156245171Y-90041076D01*
X156263498Y-90059403D01*
X156266153Y-90062058D01*
X156299637Y-90123382D01*
X156301690Y-90135851D01*
X156306783Y-90181047D01*
X156332963Y-90255866D01*
X156366957Y-90353016D01*
X156366958Y-90353017D01*
X156463889Y-90507281D01*
X156592719Y-90636111D01*
X156746985Y-90733043D01*
X156907310Y-90789143D01*
X156918953Y-90793217D01*
X156918958Y-90793218D01*
X157099996Y-90813616D01*
X157100000Y-90813616D01*
X157100004Y-90813616D01*
X157281041Y-90793218D01*
X157281044Y-90793217D01*
X157281047Y-90793217D01*
X157453015Y-90733043D01*
X157607281Y-90636111D01*
X157736111Y-90507281D01*
X157833043Y-90353015D01*
X157893217Y-90181047D01*
X157893218Y-90181041D01*
X157913616Y-90000003D01*
X157913616Y-89999996D01*
X157893218Y-89818958D01*
X157893217Y-89818953D01*
X157868145Y-89747302D01*
X157833043Y-89646985D01*
X157736111Y-89492719D01*
X157607281Y-89363889D01*
X157453016Y-89266957D01*
X157395692Y-89246899D01*
X157281047Y-89206783D01*
X157256954Y-89204068D01*
X157235851Y-89201690D01*
X157171437Y-89174622D01*
X157162056Y-89166151D01*
X156694819Y-88698914D01*
X156661334Y-88637591D01*
X156658500Y-88611233D01*
X156658500Y-84247160D01*
X156677507Y-84181188D01*
X156758039Y-84053022D01*
X156758041Y-84053019D01*
X156758041Y-84053017D01*
X156758043Y-84053015D01*
X156818217Y-83881047D01*
X156833221Y-83747887D01*
X156838616Y-83700000D01*
X156838616Y-83699996D01*
X156818218Y-83518958D01*
X156818217Y-83518953D01*
X156802366Y-83473653D01*
X156758043Y-83346985D01*
X156661111Y-83192719D01*
X156532281Y-83063889D01*
X156511043Y-83050544D01*
X156378016Y-82966957D01*
X156206041Y-82906781D01*
X156143616Y-82899748D01*
X156079202Y-82872681D01*
X156039647Y-82815087D01*
X156033500Y-82776528D01*
X156033500Y-82687601D01*
X161316500Y-82687601D01*
X161316500Y-85712397D01*
X161340843Y-85834776D01*
X161340845Y-85834784D01*
X161388598Y-85950071D01*
X161388603Y-85950080D01*
X161457928Y-86053831D01*
X161457931Y-86053835D01*
X162757930Y-87353833D01*
X162813292Y-87409195D01*
X162832342Y-87433754D01*
X162875542Y-87506801D01*
X162875551Y-87506812D01*
X162993187Y-87624448D01*
X162993191Y-87624451D01*
X162993193Y-87624453D01*
X163136399Y-87709145D01*
X163173473Y-87719916D01*
X163296164Y-87755561D01*
X163296167Y-87755561D01*
X163296169Y-87755562D01*
X163333498Y-87758500D01*
X163333504Y-87758500D01*
X164716496Y-87758500D01*
X164716502Y-87758500D01*
X164753831Y-87755562D01*
X164816530Y-87737346D01*
X164886397Y-87737545D01*
X164917095Y-87751427D01*
X165046985Y-87833043D01*
X165058454Y-87837056D01*
X165115230Y-87877777D01*
X165140978Y-87942730D01*
X165141500Y-87954098D01*
X165141500Y-88650537D01*
X165141501Y-88650553D01*
X165152113Y-88754427D01*
X165207884Y-88922735D01*
X165207886Y-88922740D01*
X165208039Y-88922988D01*
X165300970Y-89073652D01*
X165426348Y-89199030D01*
X165577262Y-89292115D01*
X165745574Y-89347887D01*
X165849455Y-89358500D01*
X167250544Y-89358499D01*
X167354426Y-89347887D01*
X167522738Y-89292115D01*
X167673652Y-89199030D01*
X167799030Y-89073652D01*
X167892115Y-88922738D01*
X167947887Y-88754426D01*
X167958500Y-88650545D01*
X167958499Y-87849456D01*
X167947887Y-87745574D01*
X167892115Y-87577262D01*
X167799030Y-87426348D01*
X167673652Y-87300970D01*
X167522738Y-87207885D01*
X167522735Y-87207884D01*
X167354427Y-87152113D01*
X167250552Y-87141500D01*
X167250545Y-87141500D01*
X166329105Y-87141500D01*
X166262066Y-87121815D01*
X166216311Y-87069011D01*
X166205885Y-87031383D01*
X166193218Y-86918958D01*
X166193216Y-86918950D01*
X166133044Y-86746987D01*
X166133043Y-86746985D01*
X166082137Y-86665969D01*
X166063137Y-86598737D01*
X166082137Y-86534030D01*
X166133043Y-86453015D01*
X166193217Y-86281047D01*
X166194937Y-86265785D01*
X166213616Y-86100003D01*
X166213616Y-86099996D01*
X166193218Y-85918958D01*
X166193217Y-85918953D01*
X166163762Y-85834776D01*
X166133043Y-85746985D01*
X166036111Y-85592719D01*
X165973065Y-85529673D01*
X165939581Y-85468349D01*
X165944566Y-85398658D01*
X165955754Y-85376019D01*
X165973998Y-85346985D01*
X166033043Y-85253015D01*
X166093217Y-85081047D01*
X166093218Y-85081041D01*
X166113616Y-84900003D01*
X166113616Y-84899996D01*
X166093218Y-84718958D01*
X166093217Y-84718953D01*
X166089354Y-84707913D01*
X166033043Y-84546985D01*
X165936111Y-84392719D01*
X165807281Y-84263889D01*
X165780657Y-84247160D01*
X165653017Y-84166958D01*
X165653016Y-84166957D01*
X165653015Y-84166957D01*
X165580263Y-84141500D01*
X165481046Y-84106782D01*
X165481041Y-84106781D01*
X165300004Y-84086384D01*
X165299996Y-84086384D01*
X165118958Y-84106781D01*
X165118953Y-84106782D01*
X164946982Y-84166958D01*
X164946254Y-84167309D01*
X164945736Y-84167394D01*
X164940413Y-84169257D01*
X164940086Y-84168324D01*
X164877312Y-84178656D01*
X164857865Y-84174662D01*
X164753831Y-84144438D01*
X164753825Y-84144437D01*
X164716507Y-84141500D01*
X164716502Y-84141500D01*
X163899000Y-84141500D01*
X163831961Y-84121815D01*
X163786206Y-84069011D01*
X163775000Y-84017500D01*
X163775000Y-83150000D01*
X164275000Y-83150000D01*
X164275000Y-83700000D01*
X165297295Y-83700000D01*
X165334112Y-83660172D01*
X165337557Y-83663356D01*
X165364656Y-83635726D01*
X165432781Y-83620211D01*
X165490234Y-83638435D01*
X165577262Y-83692115D01*
X165745574Y-83747887D01*
X165849455Y-83758500D01*
X167250544Y-83758499D01*
X167354426Y-83747887D01*
X167522738Y-83692115D01*
X167673652Y-83599030D01*
X167799030Y-83473652D01*
X167892115Y-83322738D01*
X167947887Y-83154426D01*
X167958500Y-83050545D01*
X167958499Y-82249456D01*
X167947887Y-82145574D01*
X167892115Y-81977262D01*
X167799030Y-81826348D01*
X167673652Y-81700970D01*
X167522738Y-81607885D01*
X167441727Y-81581041D01*
X167354427Y-81552113D01*
X167250545Y-81541500D01*
X165849462Y-81541500D01*
X165849446Y-81541501D01*
X165745572Y-81552113D01*
X165577264Y-81607884D01*
X165577259Y-81607886D01*
X165426346Y-81700971D01*
X165300971Y-81826346D01*
X165207886Y-81977259D01*
X165207884Y-81977264D01*
X165152113Y-82145572D01*
X165141500Y-82249447D01*
X165141500Y-83050537D01*
X165141501Y-83050555D01*
X165147518Y-83109452D01*
X165134748Y-83178145D01*
X165086867Y-83229029D01*
X165019077Y-83245949D01*
X164961040Y-83228785D01*
X164910200Y-83198719D01*
X164910193Y-83198716D01*
X164752495Y-83152900D01*
X164752489Y-83152899D01*
X164715649Y-83150000D01*
X164275000Y-83150000D01*
X163775000Y-83150000D01*
X163445265Y-83150000D01*
X163378226Y-83130315D01*
X163332471Y-83077511D01*
X163322527Y-83008353D01*
X163351552Y-82944797D01*
X163357572Y-82938331D01*
X165101085Y-81194817D01*
X165162408Y-81161333D01*
X165188766Y-81158499D01*
X165632271Y-81158499D01*
X165703644Y-81152014D01*
X165703647Y-81152013D01*
X165703649Y-81152013D01*
X165867913Y-81100827D01*
X166015155Y-81011816D01*
X166136816Y-80890155D01*
X166225827Y-80742913D01*
X166277013Y-80578649D01*
X166283500Y-80507265D01*
X166283499Y-79992736D01*
X166283499Y-79992735D01*
X166283499Y-79992727D01*
X166277014Y-79921354D01*
X166277011Y-79921344D01*
X166225828Y-79757090D01*
X166225827Y-79757089D01*
X166225827Y-79757087D01*
X166136816Y-79609845D01*
X166136814Y-79609843D01*
X166136813Y-79609841D01*
X166039653Y-79512681D01*
X166006168Y-79451358D01*
X166011152Y-79381666D01*
X166039653Y-79337319D01*
X166136812Y-79240159D01*
X166136813Y-79240158D01*
X166136816Y-79240155D01*
X166225827Y-79092913D01*
X166277013Y-78928649D01*
X166283500Y-78857265D01*
X166283499Y-78342736D01*
X166283499Y-78342735D01*
X166283499Y-78342727D01*
X166277014Y-78271354D01*
X166277011Y-78271344D01*
X166225828Y-78107090D01*
X166225827Y-78107089D01*
X166225827Y-78107087D01*
X166136816Y-77959845D01*
X166136814Y-77959843D01*
X166136813Y-77959841D01*
X166132187Y-77953936D01*
X166134818Y-77951874D01*
X166108518Y-77903708D01*
X166106464Y-77863469D01*
X166113616Y-77800000D01*
X166113184Y-77796163D01*
X166093218Y-77618958D01*
X166093217Y-77618953D01*
X166087693Y-77603167D01*
X166033043Y-77446985D01*
X165936111Y-77292719D01*
X165807281Y-77163889D01*
X165789975Y-77153015D01*
X165653017Y-77066958D01*
X165653016Y-77066957D01*
X165653015Y-77066957D01*
X165571395Y-77038397D01*
X165481046Y-77006782D01*
X165481041Y-77006781D01*
X165300004Y-76986384D01*
X165299996Y-76986384D01*
X165118958Y-77006781D01*
X165118953Y-77006782D01*
X164946982Y-77066958D01*
X164792718Y-77163889D01*
X164663889Y-77292718D01*
X164566958Y-77446982D01*
X164506782Y-77618953D01*
X164506781Y-77618958D01*
X164494115Y-77731383D01*
X164467049Y-77795797D01*
X164409454Y-77835352D01*
X164370895Y-77841500D01*
X164255207Y-77841500D01*
X164191059Y-77823617D01*
X164067913Y-77749173D01*
X163903649Y-77697987D01*
X163903647Y-77697986D01*
X163903645Y-77697986D01*
X163853667Y-77693444D01*
X163832265Y-77691500D01*
X163832262Y-77691500D01*
X163167727Y-77691500D01*
X163096354Y-77697985D01*
X163096344Y-77697988D01*
X162932090Y-77749171D01*
X162784841Y-77838186D01*
X162663186Y-77959841D01*
X162574173Y-78107086D01*
X162522986Y-78271354D01*
X162516500Y-78342737D01*
X162516500Y-78857272D01*
X162522985Y-78928645D01*
X162522988Y-78928655D01*
X162574171Y-79092909D01*
X162574172Y-79092911D01*
X162574173Y-79092913D01*
X162663184Y-79240155D01*
X162663186Y-79240158D01*
X162760347Y-79337319D01*
X162793832Y-79398642D01*
X162788848Y-79468334D01*
X162760347Y-79512681D01*
X162663187Y-79609840D01*
X162663186Y-79609841D01*
X162574173Y-79757086D01*
X162522986Y-79921354D01*
X162516500Y-79992737D01*
X162516500Y-80507272D01*
X162522985Y-80578645D01*
X162522988Y-80578655D01*
X162574171Y-80742909D01*
X162574172Y-80742911D01*
X162574173Y-80742913D01*
X162663184Y-80890155D01*
X162663186Y-80890158D01*
X162700880Y-80927852D01*
X162734365Y-80989175D01*
X162729381Y-81058867D01*
X162700880Y-81103214D01*
X161826837Y-81977259D01*
X161546167Y-82257929D01*
X161517355Y-82286741D01*
X161457927Y-82346168D01*
X161388603Y-82449918D01*
X161388598Y-82449927D01*
X161340845Y-82565214D01*
X161340843Y-82565222D01*
X161316500Y-82687601D01*
X156033500Y-82687601D01*
X156033500Y-75237605D01*
X156033499Y-75237601D01*
X156029236Y-75216168D01*
X156009155Y-75115215D01*
X155972218Y-75026043D01*
X155961401Y-74999927D01*
X155961396Y-74999918D01*
X155892072Y-74896168D01*
X155859793Y-74863889D01*
X155803833Y-74807929D01*
X155533848Y-74537944D01*
X155500363Y-74476621D01*
X155498310Y-74464161D01*
X155493217Y-74418953D01*
X155433043Y-74246985D01*
X155336111Y-74092719D01*
X155207281Y-73963889D01*
X155118223Y-73907930D01*
X155053017Y-73866958D01*
X155053016Y-73866957D01*
X155053015Y-73866957D01*
X154971975Y-73838600D01*
X154881046Y-73806782D01*
X154881041Y-73806781D01*
X154700004Y-73786384D01*
X154699996Y-73786384D01*
X154518958Y-73806781D01*
X154518953Y-73806782D01*
X154346982Y-73866958D01*
X154192718Y-73963889D01*
X154063889Y-74092718D01*
X153966958Y-74246982D01*
X153906782Y-74418953D01*
X153906781Y-74418958D01*
X153886384Y-74599996D01*
X153886384Y-74600004D01*
X153905338Y-74768235D01*
X153893283Y-74837057D01*
X153845934Y-74888436D01*
X153778323Y-74906060D01*
X153768235Y-74905338D01*
X153600004Y-74886384D01*
X153599996Y-74886384D01*
X153418958Y-74906781D01*
X153418953Y-74906782D01*
X153246982Y-74966958D01*
X153092718Y-75063889D01*
X153035247Y-75121360D01*
X152973923Y-75154844D01*
X152906611Y-75150719D01*
X152781054Y-75106784D01*
X152781041Y-75106781D01*
X152600004Y-75086384D01*
X152599996Y-75086384D01*
X152418958Y-75106781D01*
X152418953Y-75106782D01*
X152246982Y-75166958D01*
X152092718Y-75263889D01*
X151963887Y-75392720D01*
X151874251Y-75535375D01*
X151821917Y-75581665D01*
X151755376Y-75592623D01*
X151738669Y-75590740D01*
X151700000Y-75586384D01*
X151699998Y-75586384D01*
X151699996Y-75586384D01*
X151518958Y-75606781D01*
X151518953Y-75606782D01*
X151346982Y-75666958D01*
X151192718Y-75763889D01*
X151063888Y-75892719D01*
X151032930Y-75941988D01*
X150980595Y-75988278D01*
X150914054Y-75999234D01*
X150800004Y-75986384D01*
X150799996Y-75986384D01*
X150618958Y-76006781D01*
X150618953Y-76006782D01*
X150446982Y-76066958D01*
X150292718Y-76163889D01*
X150163889Y-76292718D01*
X150066958Y-76446982D01*
X150006782Y-76618953D01*
X150006781Y-76618958D01*
X149986384Y-76799996D01*
X149986384Y-76800003D01*
X150006781Y-76981041D01*
X150006782Y-76981046D01*
X150066958Y-77153017D01*
X150098888Y-77203833D01*
X150163889Y-77307281D01*
X150292719Y-77436111D01*
X150446985Y-77533043D01*
X150618953Y-77593217D01*
X150664147Y-77598309D01*
X150728559Y-77625374D01*
X150737944Y-77633848D01*
X152430181Y-79326085D01*
X152463666Y-79387408D01*
X152466500Y-79413766D01*
X152466500Y-80939571D01*
X152446815Y-81006610D01*
X152394011Y-81052365D01*
X152324853Y-81062309D01*
X152276528Y-81044565D01*
X152153017Y-80966958D01*
X152153016Y-80966957D01*
X152153015Y-80966957D01*
X152074750Y-80939571D01*
X151981046Y-80906782D01*
X151981041Y-80906781D01*
X151800004Y-80886384D01*
X151799996Y-80886384D01*
X151618958Y-80906781D01*
X151618953Y-80906782D01*
X151446982Y-80966958D01*
X151292718Y-81063889D01*
X151163889Y-81192718D01*
X151066958Y-81346982D01*
X151006782Y-81518953D01*
X151006781Y-81518958D01*
X150986384Y-81699996D01*
X150986384Y-81700003D01*
X151006781Y-81881038D01*
X151006782Y-81881043D01*
X151006782Y-81881045D01*
X151006783Y-81881047D01*
X151015963Y-81907281D01*
X151059542Y-82031823D01*
X151066500Y-82072777D01*
X151066500Y-91302163D01*
X151046815Y-91369202D01*
X150994011Y-91414957D01*
X150983461Y-91419201D01*
X150933416Y-91436713D01*
X150846983Y-91466957D01*
X150692718Y-91563889D01*
X150563889Y-91692718D01*
X150466958Y-91846982D01*
X150406782Y-92018953D01*
X150406781Y-92018958D01*
X150386384Y-92199996D01*
X150386384Y-92200003D01*
X150406781Y-92381041D01*
X150406782Y-92381046D01*
X150406783Y-92381048D01*
X150450639Y-92506382D01*
X150466958Y-92553017D01*
X150553500Y-92690747D01*
X150563889Y-92707281D01*
X150692719Y-92836111D01*
X150846985Y-92933043D01*
X151018953Y-92993217D01*
X151018958Y-92993218D01*
X151199996Y-93013616D01*
X151200000Y-93013616D01*
X151200004Y-93013616D01*
X151381041Y-92993218D01*
X151381044Y-92993217D01*
X151381047Y-92993217D01*
X151553015Y-92933043D01*
X151707281Y-92836111D01*
X151836111Y-92707281D01*
X151933043Y-92553015D01*
X151993217Y-92381047D01*
X151998309Y-92335852D01*
X152025374Y-92271441D01*
X152033837Y-92262066D01*
X152192072Y-92103833D01*
X152239398Y-92033005D01*
X152293010Y-91988200D01*
X152362335Y-91979493D01*
X152425362Y-92009647D01*
X152462082Y-92069090D01*
X152466500Y-92101896D01*
X152466500Y-93986234D01*
X152446815Y-94053273D01*
X152430181Y-94073915D01*
X150438915Y-96065181D01*
X150377592Y-96098666D01*
X150351234Y-96101500D01*
X149901345Y-96101500D01*
X149840797Y-96108011D01*
X149840795Y-96108011D01*
X149703795Y-96159111D01*
X149586739Y-96246739D01*
X149499111Y-96363795D01*
X149448011Y-96500795D01*
X149448011Y-96500797D01*
X149441500Y-96561345D01*
X146739212Y-96561345D01*
X146643243Y-96457097D01*
X146643238Y-96457092D01*
X146485616Y-96334409D01*
X146465576Y-96318811D01*
X146465575Y-96318810D01*
X146465572Y-96318808D01*
X146267580Y-96211661D01*
X146267577Y-96211659D01*
X146267574Y-96211658D01*
X146267571Y-96211657D01*
X146267569Y-96211656D01*
X146054637Y-96138556D01*
X145832569Y-96101500D01*
X145607431Y-96101500D01*
X145385362Y-96138556D01*
X145172430Y-96211656D01*
X145172419Y-96211661D01*
X144974427Y-96318808D01*
X144974422Y-96318812D01*
X144796761Y-96457092D01*
X144796756Y-96457097D01*
X144644284Y-96622723D01*
X144644276Y-96622734D01*
X144550251Y-96766650D01*
X144497105Y-96812007D01*
X144427873Y-96821430D01*
X144364538Y-96791928D01*
X144344868Y-96769951D01*
X144218113Y-96588926D01*
X144218108Y-96588920D01*
X144051082Y-96421894D01*
X143857578Y-96286399D01*
X143643492Y-96186570D01*
X143643486Y-96186567D01*
X143430000Y-96129364D01*
X143430000Y-97026988D01*
X143372993Y-96994075D01*
X143245826Y-96960000D01*
X143114174Y-96960000D01*
X142987007Y-96994075D01*
X142930000Y-97026988D01*
X142930000Y-96129364D01*
X142929999Y-96129364D01*
X142716513Y-96186567D01*
X142716507Y-96186570D01*
X142502422Y-96286399D01*
X142502420Y-96286400D01*
X142308926Y-96421886D01*
X142308920Y-96421891D01*
X142141891Y-96588920D01*
X142141890Y-96588922D01*
X142011575Y-96775031D01*
X141956998Y-96818655D01*
X141887499Y-96825848D01*
X141825145Y-96794326D01*
X141808425Y-96775031D01*
X141678109Y-96588922D01*
X141678108Y-96588920D01*
X141511082Y-96421894D01*
X141317578Y-96286399D01*
X141103492Y-96186570D01*
X141103486Y-96186567D01*
X140890000Y-96129364D01*
X140890000Y-97026988D01*
X140832993Y-96994075D01*
X140705826Y-96960000D01*
X140574174Y-96960000D01*
X140447007Y-96994075D01*
X140390000Y-97026988D01*
X140390000Y-96129364D01*
X140389999Y-96129364D01*
X140176513Y-96186567D01*
X140176507Y-96186570D01*
X139962422Y-96286399D01*
X139962420Y-96286400D01*
X139768926Y-96421886D01*
X139768920Y-96421891D01*
X139601891Y-96588920D01*
X139601890Y-96588922D01*
X139475131Y-96769952D01*
X139420554Y-96813577D01*
X139351055Y-96820769D01*
X139288701Y-96789247D01*
X139269752Y-96766656D01*
X139175722Y-96622732D01*
X139175715Y-96622725D01*
X139175715Y-96622723D01*
X139023243Y-96457097D01*
X139023238Y-96457092D01*
X138906337Y-96366103D01*
X138865524Y-96309392D01*
X138858500Y-96268250D01*
X138858500Y-88165542D01*
X138878185Y-88098503D01*
X138894815Y-88077865D01*
X139312425Y-87660254D01*
X139347729Y-87638116D01*
X139346741Y-87636064D01*
X139353011Y-87633044D01*
X139353015Y-87633043D01*
X139507281Y-87536111D01*
X139529819Y-87513573D01*
X139591142Y-87480088D01*
X139660834Y-87485072D01*
X139716767Y-87526944D01*
X139741184Y-87592408D01*
X139741500Y-87601254D01*
X139741500Y-93598667D01*
X139734542Y-93639621D01*
X139706783Y-93718950D01*
X139706781Y-93718958D01*
X139686384Y-93899996D01*
X139686384Y-93900003D01*
X139706781Y-94081041D01*
X139706782Y-94081046D01*
X139766958Y-94253017D01*
X139794478Y-94296815D01*
X139863889Y-94407281D01*
X139992719Y-94536111D01*
X140146985Y-94633043D01*
X140289509Y-94682914D01*
X140318953Y-94693217D01*
X140318958Y-94693218D01*
X140499996Y-94713616D01*
X140500000Y-94713616D01*
X140500004Y-94713616D01*
X140681041Y-94693218D01*
X140681044Y-94693217D01*
X140681047Y-94693217D01*
X140853015Y-94633043D01*
X141007281Y-94536111D01*
X141136111Y-94407281D01*
X141233043Y-94253015D01*
X141293217Y-94081047D01*
X141294021Y-94073915D01*
X141313616Y-93900003D01*
X141313616Y-93899996D01*
X141293218Y-93718958D01*
X141293216Y-93718950D01*
X141265458Y-93639621D01*
X141258500Y-93598667D01*
X141258500Y-92199996D01*
X147186384Y-92199996D01*
X147186384Y-92200003D01*
X147206781Y-92381041D01*
X147206782Y-92381046D01*
X147206783Y-92381048D01*
X147250639Y-92506382D01*
X147266958Y-92553017D01*
X147353500Y-92690747D01*
X147363889Y-92707281D01*
X147492719Y-92836111D01*
X147646985Y-92933043D01*
X147818953Y-92993217D01*
X147818958Y-92993218D01*
X147999996Y-93013616D01*
X148000000Y-93013616D01*
X148000004Y-93013616D01*
X148181041Y-92993218D01*
X148181044Y-92993217D01*
X148181047Y-92993217D01*
X148353015Y-92933043D01*
X148507281Y-92836111D01*
X148636111Y-92707281D01*
X148733043Y-92553015D01*
X148793217Y-92381047D01*
X148798309Y-92335851D01*
X148825374Y-92271439D01*
X148833838Y-92262064D01*
X149692071Y-91403833D01*
X149761400Y-91300075D01*
X149809155Y-91184785D01*
X149833500Y-91062394D01*
X149833500Y-90937607D01*
X149833500Y-89637606D01*
X149833500Y-82247160D01*
X149852507Y-82181188D01*
X149933039Y-82053022D01*
X149933041Y-82053019D01*
X149933041Y-82053017D01*
X149933043Y-82053015D01*
X149993217Y-81881047D01*
X149993217Y-81881044D01*
X149993218Y-81881041D01*
X150013616Y-81700003D01*
X150013616Y-81699996D01*
X149993218Y-81518958D01*
X149993217Y-81518953D01*
X149986949Y-81501039D01*
X149933043Y-81346985D01*
X149836111Y-81192719D01*
X149707281Y-81063889D01*
X149699289Y-81058867D01*
X149553017Y-80966958D01*
X149553016Y-80966957D01*
X149553015Y-80966957D01*
X149474750Y-80939571D01*
X149381046Y-80906782D01*
X149381041Y-80906781D01*
X149200004Y-80886384D01*
X149199996Y-80886384D01*
X149018958Y-80906781D01*
X149018953Y-80906782D01*
X148846982Y-80966958D01*
X148692718Y-81063889D01*
X148563889Y-81192718D01*
X148466958Y-81346982D01*
X148406782Y-81518953D01*
X148406781Y-81518958D01*
X148386384Y-81699996D01*
X148386384Y-81700003D01*
X148406781Y-81881041D01*
X148406782Y-81881046D01*
X148466958Y-82053019D01*
X148466960Y-82053022D01*
X148547493Y-82181188D01*
X148566500Y-82247160D01*
X148566500Y-90686233D01*
X148546815Y-90753272D01*
X148530181Y-90773914D01*
X147937943Y-91366151D01*
X147876620Y-91399636D01*
X147864149Y-91401690D01*
X147818953Y-91406783D01*
X147646983Y-91466957D01*
X147492718Y-91563889D01*
X147363889Y-91692718D01*
X147266958Y-91846982D01*
X147206782Y-92018953D01*
X147206781Y-92018958D01*
X147186384Y-92199996D01*
X141258500Y-92199996D01*
X141258500Y-85725291D01*
X141229352Y-85578759D01*
X141229351Y-85578758D01*
X141229351Y-85578754D01*
X141177333Y-85453170D01*
X141172177Y-85440722D01*
X141172170Y-85440709D01*
X141089166Y-85316485D01*
X141089165Y-85316484D01*
X140983516Y-85210835D01*
X139194819Y-83422138D01*
X139161334Y-83360815D01*
X139158500Y-83334457D01*
X139158500Y-64899996D01*
X140786384Y-64899996D01*
X140786384Y-64900003D01*
X140806781Y-65081041D01*
X140806782Y-65081046D01*
X140866958Y-65253019D01*
X140866960Y-65253022D01*
X140947493Y-65381188D01*
X140966500Y-65447160D01*
X140966500Y-69452839D01*
X140947494Y-69518811D01*
X140866958Y-69646982D01*
X140806782Y-69818953D01*
X140806781Y-69818958D01*
X140786384Y-69999996D01*
X140786384Y-70000003D01*
X140806781Y-70181041D01*
X140806782Y-70181046D01*
X140831274Y-70251039D01*
X140864650Y-70346423D01*
X140866958Y-70353017D01*
X140944040Y-70475692D01*
X140963889Y-70507281D01*
X141092719Y-70636111D01*
X141246985Y-70733043D01*
X141418953Y-70793217D01*
X141418958Y-70793218D01*
X141599996Y-70813616D01*
X141600000Y-70813616D01*
X141600004Y-70813616D01*
X141781041Y-70793218D01*
X141781044Y-70793217D01*
X141781047Y-70793217D01*
X141953015Y-70733043D01*
X142107281Y-70636111D01*
X142236111Y-70507281D01*
X142333043Y-70353015D01*
X142393217Y-70181047D01*
X142393218Y-70181041D01*
X142413616Y-70000003D01*
X142413616Y-69999996D01*
X142393218Y-69818958D01*
X142393217Y-69818953D01*
X142389360Y-69807930D01*
X142333043Y-69646985D01*
X142291896Y-69581500D01*
X142252506Y-69518811D01*
X142233500Y-69452839D01*
X142233500Y-68899996D01*
X145786384Y-68899996D01*
X145786384Y-68900003D01*
X145806781Y-69081041D01*
X145806782Y-69081046D01*
X145866958Y-69253019D01*
X145866960Y-69253022D01*
X145947493Y-69381188D01*
X145966500Y-69447160D01*
X145966500Y-85152839D01*
X145947494Y-85218811D01*
X145866958Y-85346982D01*
X145806782Y-85518953D01*
X145806781Y-85518958D01*
X145786384Y-85699996D01*
X145786384Y-85700003D01*
X145806781Y-85881041D01*
X145806782Y-85881046D01*
X145866958Y-86053017D01*
X145900741Y-86106782D01*
X145963889Y-86207281D01*
X146092719Y-86336111D01*
X146246985Y-86433043D01*
X146418953Y-86493217D01*
X146418958Y-86493218D01*
X146599996Y-86513616D01*
X146600000Y-86513616D01*
X146600004Y-86513616D01*
X146781041Y-86493218D01*
X146781044Y-86493217D01*
X146781047Y-86493217D01*
X146953015Y-86433043D01*
X147107281Y-86336111D01*
X147236111Y-86207281D01*
X147333043Y-86053015D01*
X147393217Y-85881047D01*
X147398430Y-85834784D01*
X147413616Y-85700003D01*
X147413616Y-85699996D01*
X147393218Y-85518958D01*
X147393217Y-85518953D01*
X147373949Y-85463889D01*
X147333043Y-85346985D01*
X147308856Y-85308492D01*
X147252506Y-85218811D01*
X147233500Y-85152839D01*
X147233500Y-73340000D01*
X156636670Y-73340000D01*
X156655977Y-73720729D01*
X156706883Y-74053015D01*
X156713706Y-74097553D01*
X156753446Y-74251039D01*
X156809261Y-74466610D01*
X156941655Y-74824084D01*
X156941661Y-74824099D01*
X157109544Y-75166350D01*
X157109549Y-75166359D01*
X157311196Y-75489871D01*
X157468211Y-75692718D01*
X157544543Y-75791330D01*
X157742171Y-75999234D01*
X157807190Y-76067634D01*
X158096440Y-76315948D01*
X158129133Y-76338703D01*
X158409334Y-76533728D01*
X158702972Y-76696711D01*
X158742655Y-76718737D01*
X158810956Y-76748047D01*
X159092976Y-76869071D01*
X159092979Y-76869072D01*
X159092984Y-76869074D01*
X159456701Y-76983191D01*
X159456704Y-76983191D01*
X159456712Y-76983194D01*
X159830127Y-77059932D01*
X160133537Y-77090786D01*
X160209389Y-77098500D01*
X160209390Y-77098500D01*
X160590611Y-77098500D01*
X160653820Y-77092072D01*
X160969873Y-77059932D01*
X161343288Y-76983194D01*
X161350131Y-76981047D01*
X161707015Y-76869074D01*
X161707016Y-76869073D01*
X161707024Y-76869071D01*
X162057349Y-76718735D01*
X162390666Y-76533728D01*
X162703557Y-76315950D01*
X162992810Y-76067634D01*
X163255457Y-75791330D01*
X163488804Y-75489871D01*
X163690455Y-75166351D01*
X163858342Y-74824091D01*
X163990741Y-74466602D01*
X164086294Y-74097553D01*
X164144022Y-73720730D01*
X164163330Y-73340000D01*
X164144022Y-72959270D01*
X164086294Y-72582447D01*
X163990741Y-72213398D01*
X163986283Y-72201362D01*
X163894306Y-71953015D01*
X163858342Y-71855909D01*
X163831666Y-71801527D01*
X163690455Y-71513649D01*
X163690450Y-71513640D01*
X163528506Y-71253825D01*
X163488804Y-71190129D01*
X163258591Y-70892719D01*
X163255461Y-70888675D01*
X163255460Y-70888674D01*
X163255457Y-70888670D01*
X162992810Y-70612366D01*
X162989070Y-70609155D01*
X162703559Y-70364051D01*
X162519342Y-70235833D01*
X162390666Y-70146272D01*
X162126988Y-69999918D01*
X162057344Y-69961262D01*
X161707015Y-69810925D01*
X161343298Y-69696808D01*
X161343292Y-69696807D01*
X161343289Y-69696806D01*
X161343288Y-69696806D01*
X160969873Y-69620068D01*
X160969872Y-69620067D01*
X160969868Y-69620067D01*
X160590611Y-69581500D01*
X160590610Y-69581500D01*
X160209390Y-69581500D01*
X160209389Y-69581500D01*
X159830131Y-69620067D01*
X159456707Y-69696807D01*
X159456701Y-69696808D01*
X159092984Y-69810925D01*
X158742655Y-69961262D01*
X158409332Y-70146273D01*
X158096440Y-70364051D01*
X157807190Y-70612365D01*
X157544538Y-70888675D01*
X157311196Y-71190128D01*
X157109549Y-71513640D01*
X157109544Y-71513649D01*
X156941661Y-71855900D01*
X156941655Y-71855915D01*
X156809261Y-72213389D01*
X156713705Y-72582451D01*
X156655977Y-72959270D01*
X156636670Y-73340000D01*
X147233500Y-73340000D01*
X147233500Y-69447160D01*
X147252507Y-69381188D01*
X147333039Y-69253022D01*
X147333041Y-69253019D01*
X147333041Y-69253017D01*
X147333043Y-69253015D01*
X147393217Y-69081047D01*
X147393218Y-69081041D01*
X147413616Y-68900003D01*
X147413616Y-68899996D01*
X147393218Y-68718958D01*
X147393217Y-68718953D01*
X147376591Y-68671439D01*
X147333043Y-68546985D01*
X147236111Y-68392719D01*
X147107281Y-68263889D01*
X147037146Y-68219820D01*
X146953017Y-68166958D01*
X146953016Y-68166957D01*
X146953015Y-68166957D01*
X146898693Y-68147949D01*
X146781046Y-68106782D01*
X146781041Y-68106781D01*
X146600004Y-68086384D01*
X146599996Y-68086384D01*
X146418958Y-68106781D01*
X146418953Y-68106782D01*
X146246982Y-68166958D01*
X146092718Y-68263889D01*
X145963889Y-68392718D01*
X145866958Y-68546982D01*
X145806782Y-68718953D01*
X145806781Y-68718958D01*
X145786384Y-68899996D01*
X142233500Y-68899996D01*
X142233500Y-65447160D01*
X142252507Y-65381188D01*
X142333039Y-65253022D01*
X142333041Y-65253019D01*
X142333041Y-65253017D01*
X142333043Y-65253015D01*
X142393217Y-65081047D01*
X142398428Y-65034797D01*
X142413616Y-64900003D01*
X142413616Y-64899996D01*
X142393218Y-64718958D01*
X142393217Y-64718953D01*
X142389133Y-64707281D01*
X142333043Y-64546985D01*
X142236111Y-64392719D01*
X142107281Y-64263889D01*
X142058187Y-64233041D01*
X141953017Y-64166958D01*
X141953016Y-64166957D01*
X141953015Y-64166957D01*
X141864862Y-64136111D01*
X141781046Y-64106782D01*
X141781041Y-64106781D01*
X141600004Y-64086384D01*
X141599996Y-64086384D01*
X141418958Y-64106781D01*
X141418953Y-64106782D01*
X141246982Y-64166958D01*
X141092718Y-64263889D01*
X140963889Y-64392718D01*
X140866958Y-64546982D01*
X140806782Y-64718953D01*
X140806781Y-64718958D01*
X140786384Y-64899996D01*
X139158500Y-64899996D01*
X139158500Y-61134727D01*
X139178185Y-61067688D01*
X139205190Y-61037778D01*
X139207272Y-61036116D01*
X139207281Y-61036111D01*
X139336111Y-60907281D01*
X139433043Y-60753015D01*
X139493217Y-60581047D01*
X139496368Y-60553080D01*
X139513616Y-60400003D01*
X139513616Y-60399996D01*
X139493218Y-60218958D01*
X139493217Y-60218953D01*
X139478542Y-60177014D01*
X139433043Y-60046985D01*
X139336111Y-59892719D01*
X139207281Y-59763889D01*
X139116396Y-59706782D01*
X139053017Y-59666958D01*
X139053016Y-59666957D01*
X139053015Y-59666957D01*
X138964862Y-59636111D01*
X138881046Y-59606782D01*
X138881041Y-59606781D01*
X138700004Y-59586384D01*
X138699996Y-59586384D01*
X138518958Y-59606781D01*
X138518950Y-59606783D01*
X138386804Y-59653023D01*
X138317025Y-59656584D01*
X138256398Y-59621855D01*
X138231289Y-59583434D01*
X138229351Y-59578757D01*
X138229351Y-59578753D01*
X138187929Y-59478753D01*
X138172174Y-59440716D01*
X138167617Y-59433896D01*
X138153679Y-59405962D01*
X138152561Y-59402768D01*
X138133043Y-59346985D01*
X138133043Y-59346984D01*
X138036110Y-59192718D01*
X137907281Y-59063889D01*
X137753017Y-58966958D01*
X137753016Y-58966957D01*
X137753015Y-58966957D01*
X137677371Y-58940488D01*
X137581046Y-58906782D01*
X137581041Y-58906781D01*
X137400004Y-58886384D01*
X137399996Y-58886384D01*
X137218958Y-58906781D01*
X137218953Y-58906782D01*
X137046982Y-58966958D01*
X136892718Y-59063889D01*
X136763889Y-59192718D01*
X136666958Y-59346982D01*
X136606782Y-59518953D01*
X136606781Y-59518958D01*
X136586384Y-59699996D01*
X136586384Y-59700003D01*
X136606781Y-59881041D01*
X136606782Y-59881046D01*
X136666958Y-60053018D01*
X136722493Y-60141400D01*
X136741500Y-60207373D01*
X136741500Y-63974838D01*
X136721815Y-64041877D01*
X136669011Y-64087632D01*
X136603617Y-64098058D01*
X136500004Y-64086384D01*
X136499996Y-64086384D01*
X136396383Y-64098058D01*
X136327561Y-64086003D01*
X136276182Y-64038654D01*
X136258500Y-63974838D01*
X136258500Y-60801329D01*
X136265459Y-60760374D01*
X136268034Y-60753015D01*
X136293217Y-60681047D01*
X136300213Y-60618953D01*
X136313616Y-60500003D01*
X136313616Y-60499996D01*
X136293218Y-60318958D01*
X136293217Y-60318953D01*
X136279554Y-60279906D01*
X136233043Y-60146985D01*
X136136111Y-59992719D01*
X136007281Y-59863889D01*
X135971430Y-59841362D01*
X135853017Y-59766958D01*
X135853016Y-59766957D01*
X135853015Y-59766957D01*
X135772084Y-59738638D01*
X135681046Y-59706782D01*
X135681041Y-59706781D01*
X135500004Y-59686384D01*
X135499996Y-59686384D01*
X135318958Y-59706781D01*
X135318953Y-59706782D01*
X135146982Y-59766958D01*
X134992718Y-59863889D01*
X134863889Y-59992718D01*
X134766958Y-60146982D01*
X134706782Y-60318953D01*
X134706781Y-60318958D01*
X134686384Y-60499996D01*
X134686384Y-60500003D01*
X134706781Y-60681038D01*
X134706783Y-60681048D01*
X134734541Y-60760374D01*
X134741500Y-60801329D01*
X134741500Y-96314950D01*
X134721815Y-96381989D01*
X134693664Y-96412802D01*
X134636763Y-96457091D01*
X134636756Y-96457097D01*
X134484284Y-96622723D01*
X134484276Y-96622734D01*
X134393808Y-96761206D01*
X134340662Y-96806562D01*
X134271431Y-96815986D01*
X134208095Y-96786484D01*
X134186192Y-96761206D01*
X134095723Y-96622734D01*
X134095715Y-96622723D01*
X133943243Y-96457097D01*
X133943238Y-96457092D01*
X133785616Y-96334409D01*
X133765577Y-96318811D01*
X133718480Y-96293323D01*
X133668891Y-96244102D01*
X133653500Y-96184269D01*
X133653500Y-75557605D01*
X133653499Y-75557601D01*
X133640593Y-75492719D01*
X133629155Y-75435215D01*
X133581400Y-75319925D01*
X133581399Y-75319924D01*
X133581396Y-75319918D01*
X133512072Y-75216168D01*
X133476998Y-75181094D01*
X133423833Y-75127929D01*
X132933848Y-74637944D01*
X132900363Y-74576621D01*
X132898310Y-74564161D01*
X132893217Y-74518953D01*
X132833043Y-74346985D01*
X132736111Y-74192719D01*
X132607281Y-74063889D01*
X132475439Y-73981047D01*
X132453017Y-73966958D01*
X132453016Y-73966957D01*
X132453015Y-73966957D01*
X132398693Y-73947949D01*
X132281046Y-73906782D01*
X132281041Y-73906781D01*
X132100004Y-73886384D01*
X132099996Y-73886384D01*
X131918958Y-73906781D01*
X131918953Y-73906782D01*
X131746982Y-73966958D01*
X131592718Y-74063889D01*
X131463889Y-74192718D01*
X131366958Y-74346982D01*
X131306782Y-74518953D01*
X131306781Y-74518958D01*
X131286384Y-74699996D01*
X131286384Y-74700003D01*
X131306781Y-74881041D01*
X131306782Y-74881046D01*
X131336844Y-74966957D01*
X131360128Y-75033500D01*
X131366958Y-75053017D01*
X131460094Y-75201242D01*
X131463889Y-75207281D01*
X131592719Y-75336111D01*
X131746985Y-75433043D01*
X131918953Y-75493217D01*
X131964147Y-75498309D01*
X132028559Y-75525374D01*
X132037944Y-75533848D01*
X132350181Y-75846085D01*
X132383666Y-75907408D01*
X132386500Y-75933766D01*
X132386500Y-96184269D01*
X132366815Y-96251308D01*
X132321520Y-96293323D01*
X132274422Y-96318811D01*
X132274422Y-96318812D01*
X132096761Y-96457092D01*
X132096756Y-96457097D01*
X131944284Y-96622723D01*
X131944276Y-96622734D01*
X131853808Y-96761206D01*
X131800662Y-96806562D01*
X131731431Y-96815986D01*
X131668095Y-96786484D01*
X131646192Y-96761206D01*
X131555723Y-96622734D01*
X131555715Y-96622723D01*
X131403243Y-96457097D01*
X131403238Y-96457092D01*
X131286337Y-96366103D01*
X131245524Y-96309392D01*
X131238500Y-96268250D01*
X131238500Y-95258488D01*
X131245458Y-95217534D01*
X131293217Y-95081047D01*
X131301460Y-95007885D01*
X131313616Y-94900003D01*
X131313616Y-94899996D01*
X131293218Y-94718958D01*
X131293217Y-94718953D01*
X131233043Y-94546985D01*
X131136111Y-94392719D01*
X131007281Y-94263889D01*
X130853015Y-94166957D01*
X130798693Y-94147949D01*
X130681046Y-94106782D01*
X130681041Y-94106781D01*
X130500004Y-94086384D01*
X130499996Y-94086384D01*
X130318958Y-94106781D01*
X130318953Y-94106782D01*
X130146982Y-94166958D01*
X129992718Y-94263889D01*
X129863889Y-94392718D01*
X129766958Y-94546982D01*
X129706782Y-94718953D01*
X129706781Y-94718958D01*
X129686384Y-94899996D01*
X129686384Y-94900003D01*
X129706781Y-95081041D01*
X129706782Y-95081046D01*
X129706783Y-95081047D01*
X129714541Y-95103219D01*
X129721500Y-95144172D01*
X129721500Y-96268250D01*
X129701815Y-96335289D01*
X129673663Y-96366103D01*
X129556761Y-96457092D01*
X129493548Y-96525760D01*
X129433661Y-96561750D01*
X129363823Y-96559649D01*
X129306207Y-96520124D01*
X129286138Y-96485110D01*
X129240889Y-96363796D01*
X129218890Y-96334409D01*
X129153261Y-96246739D01*
X129036204Y-96159111D01*
X128983977Y-96139631D01*
X128899203Y-96108011D01*
X128838654Y-96101500D01*
X128838638Y-96101500D01*
X127041362Y-96101500D01*
X127041345Y-96101500D01*
X126980797Y-96108011D01*
X126980795Y-96108011D01*
X126843795Y-96159111D01*
X126726739Y-96246739D01*
X126639111Y-96363795D01*
X126588011Y-96500795D01*
X126588011Y-96500797D01*
X126581500Y-96561345D01*
X125508500Y-96561345D01*
X125508500Y-95649456D01*
X125497887Y-95545575D01*
X125486671Y-95511727D01*
X125442116Y-95377264D01*
X125442115Y-95377261D01*
X125349032Y-95226352D01*
X125349029Y-95226348D01*
X125223651Y-95100970D01*
X125223647Y-95100967D01*
X125072738Y-95007884D01*
X125072735Y-95007883D01*
X124904428Y-94952113D01*
X124800551Y-94941500D01*
X124800544Y-94941500D01*
X123699456Y-94941500D01*
X123699448Y-94941500D01*
X123595571Y-94952113D01*
X123427264Y-95007883D01*
X123427261Y-95007884D01*
X123276352Y-95100967D01*
X123276348Y-95100970D01*
X123150970Y-95226348D01*
X123150967Y-95226352D01*
X123057884Y-95377261D01*
X123057883Y-95377264D01*
X123002113Y-95545571D01*
X122991500Y-95649448D01*
X118808499Y-95649448D01*
X118797887Y-95545575D01*
X118786671Y-95511727D01*
X118742116Y-95377264D01*
X118742115Y-95377261D01*
X118649032Y-95226352D01*
X118649029Y-95226348D01*
X118523651Y-95100970D01*
X118523647Y-95100967D01*
X118372738Y-95007884D01*
X118372735Y-95007883D01*
X118204428Y-94952113D01*
X118100551Y-94941500D01*
X118100544Y-94941500D01*
X116999456Y-94941500D01*
X116999448Y-94941500D01*
X116895571Y-94952113D01*
X116727264Y-95007883D01*
X116727261Y-95007884D01*
X116576352Y-95100967D01*
X116576348Y-95100970D01*
X116450970Y-95226348D01*
X116450967Y-95226352D01*
X116357884Y-95377261D01*
X116357883Y-95377264D01*
X116302113Y-95545571D01*
X116291500Y-95649448D01*
X109943644Y-95649448D01*
X109751247Y-95586934D01*
X109751248Y-95586934D01*
X109518052Y-95550000D01*
X108650000Y-95550000D01*
X108650000Y-96650000D01*
X108150000Y-96650000D01*
X108150000Y-95550000D01*
X107281948Y-95550000D01*
X107048752Y-95586934D01*
X106824197Y-95659897D01*
X106613828Y-95767085D01*
X106422813Y-95905866D01*
X106255866Y-96072813D01*
X106117085Y-96263828D01*
X106009897Y-96474197D01*
X105936934Y-96698752D01*
X105920898Y-96800000D01*
X100075500Y-96800000D01*
X100075500Y-91281947D01*
X103400000Y-91281947D01*
X103400000Y-92150000D01*
X104500000Y-92150000D01*
X104500000Y-92650000D01*
X103400000Y-92650000D01*
X103400000Y-93518052D01*
X103436934Y-93751247D01*
X103509897Y-93975802D01*
X103617085Y-94186171D01*
X103755866Y-94377186D01*
X103922813Y-94544133D01*
X104113828Y-94682914D01*
X104324195Y-94790102D01*
X104548744Y-94863063D01*
X104548750Y-94863065D01*
X104650000Y-94879101D01*
X104650000Y-93815686D01*
X104654394Y-93820080D01*
X104745606Y-93872741D01*
X104847339Y-93900000D01*
X104952661Y-93900000D01*
X105054394Y-93872741D01*
X105145606Y-93820080D01*
X105150000Y-93815686D01*
X105150000Y-94879100D01*
X105251249Y-94863065D01*
X105251255Y-94863063D01*
X105475804Y-94790102D01*
X105686171Y-94682914D01*
X105877186Y-94544133D01*
X106044133Y-94377186D01*
X106182914Y-94186171D01*
X106290102Y-93975802D01*
X106363065Y-93751247D01*
X106400000Y-93518052D01*
X106400000Y-92650000D01*
X105300000Y-92650000D01*
X105300000Y-92150000D01*
X106400000Y-92150000D01*
X106400000Y-91281947D01*
X106363065Y-91048752D01*
X106290102Y-90824197D01*
X106182914Y-90613828D01*
X106044133Y-90422813D01*
X105877186Y-90255866D01*
X105686171Y-90117085D01*
X105475802Y-90009897D01*
X105251247Y-89936934D01*
X105150000Y-89920897D01*
X105150000Y-90984314D01*
X105145606Y-90979920D01*
X105054394Y-90927259D01*
X104952661Y-90900000D01*
X104847339Y-90900000D01*
X104745606Y-90927259D01*
X104654394Y-90979920D01*
X104650000Y-90984314D01*
X104650000Y-89920897D01*
X104548752Y-89936934D01*
X104324197Y-90009897D01*
X104113828Y-90117085D01*
X103922813Y-90255866D01*
X103755866Y-90422813D01*
X103617085Y-90613828D01*
X103509897Y-90824197D01*
X103436934Y-91048752D01*
X103400000Y-91281947D01*
X100075500Y-91281947D01*
X100075500Y-85747844D01*
X101800000Y-85747844D01*
X101806401Y-85807372D01*
X101806403Y-85807379D01*
X101856645Y-85942086D01*
X101856649Y-85942093D01*
X101942809Y-86057187D01*
X101942812Y-86057190D01*
X102057906Y-86143350D01*
X102057913Y-86143354D01*
X102192620Y-86193596D01*
X102192627Y-86193598D01*
X102252155Y-86199999D01*
X102252172Y-86200000D01*
X102550000Y-86200000D01*
X103050000Y-86200000D01*
X103347828Y-86200000D01*
X103347844Y-86199999D01*
X103407372Y-86193598D01*
X103407379Y-86193596D01*
X103542086Y-86143354D01*
X103542093Y-86143350D01*
X103657187Y-86057190D01*
X103657190Y-86057187D01*
X103743350Y-85942093D01*
X103743354Y-85942086D01*
X103793596Y-85807379D01*
X103793598Y-85807372D01*
X103799999Y-85747844D01*
X107800000Y-85747844D01*
X107806401Y-85807372D01*
X107806403Y-85807379D01*
X107856645Y-85942086D01*
X107856649Y-85942093D01*
X107942809Y-86057187D01*
X107942812Y-86057190D01*
X108057906Y-86143350D01*
X108057913Y-86143354D01*
X108192620Y-86193596D01*
X108192627Y-86193598D01*
X108252155Y-86199999D01*
X108252172Y-86200000D01*
X108550000Y-86200000D01*
X109050000Y-86200000D01*
X109347828Y-86200000D01*
X109347844Y-86199999D01*
X109407372Y-86193598D01*
X109407379Y-86193596D01*
X109542086Y-86143354D01*
X109542093Y-86143350D01*
X109657187Y-86057190D01*
X109657190Y-86057187D01*
X109743350Y-85942093D01*
X109743354Y-85942086D01*
X109793596Y-85807379D01*
X109793598Y-85807372D01*
X109799999Y-85747844D01*
X109800000Y-85747827D01*
X109800000Y-85575000D01*
X109050000Y-85575000D01*
X109050000Y-86200000D01*
X108550000Y-86200000D01*
X108550000Y-85575000D01*
X107800000Y-85575000D01*
X107800000Y-85747844D01*
X103799999Y-85747844D01*
X103800000Y-85747827D01*
X103800000Y-85575000D01*
X103050000Y-85575000D01*
X103050000Y-86200000D01*
X102550000Y-86200000D01*
X102550000Y-85575000D01*
X101800000Y-85575000D01*
X101800000Y-85747844D01*
X100075500Y-85747844D01*
X100075500Y-84902155D01*
X101800000Y-84902155D01*
X101800000Y-85075000D01*
X102550000Y-85075000D01*
X103050000Y-85075000D01*
X103800000Y-85075000D01*
X103800000Y-84902172D01*
X103799999Y-84902155D01*
X107800000Y-84902155D01*
X107800000Y-85075000D01*
X108550000Y-85075000D01*
X109050000Y-85075000D01*
X109800000Y-85075000D01*
X109800000Y-84902172D01*
X109799999Y-84902155D01*
X109793598Y-84842627D01*
X109793596Y-84842620D01*
X109743354Y-84707913D01*
X109743350Y-84707906D01*
X109657190Y-84592812D01*
X109657187Y-84592809D01*
X109542093Y-84506649D01*
X109542086Y-84506645D01*
X109407379Y-84456403D01*
X109407372Y-84456401D01*
X109347844Y-84450000D01*
X109050000Y-84450000D01*
X109050000Y-85075000D01*
X108550000Y-85075000D01*
X108550000Y-84450000D01*
X108252155Y-84450000D01*
X108192627Y-84456401D01*
X108192620Y-84456403D01*
X108057913Y-84506645D01*
X108057906Y-84506649D01*
X107942812Y-84592809D01*
X107942809Y-84592812D01*
X107856649Y-84707906D01*
X107856645Y-84707913D01*
X107806403Y-84842620D01*
X107806401Y-84842627D01*
X107800000Y-84902155D01*
X103799999Y-84902155D01*
X103793598Y-84842627D01*
X103793596Y-84842620D01*
X103743354Y-84707913D01*
X103743350Y-84707906D01*
X103657190Y-84592812D01*
X103657187Y-84592809D01*
X103542093Y-84506649D01*
X103542086Y-84506645D01*
X103407379Y-84456403D01*
X103407372Y-84456401D01*
X103347844Y-84450000D01*
X103050000Y-84450000D01*
X103050000Y-85075000D01*
X102550000Y-85075000D01*
X102550000Y-84450000D01*
X102252155Y-84450000D01*
X102192627Y-84456401D01*
X102192620Y-84456403D01*
X102057913Y-84506645D01*
X102057906Y-84506649D01*
X101942812Y-84592809D01*
X101942809Y-84592812D01*
X101856649Y-84707906D01*
X101856645Y-84707913D01*
X101806403Y-84842620D01*
X101806401Y-84842627D01*
X101800000Y-84902155D01*
X100075500Y-84902155D01*
X100075500Y-72201345D01*
X101791500Y-72201345D01*
X101791500Y-73048654D01*
X101798011Y-73109202D01*
X101798011Y-73109204D01*
X101849111Y-73246204D01*
X101936739Y-73363261D01*
X102053796Y-73450889D01*
X102168949Y-73493839D01*
X102188262Y-73501043D01*
X102190799Y-73501989D01*
X102218050Y-73504918D01*
X102251345Y-73508499D01*
X102251362Y-73508500D01*
X103348638Y-73508500D01*
X103348654Y-73508499D01*
X103375692Y-73505591D01*
X103409201Y-73501989D01*
X103411738Y-73501043D01*
X103423768Y-73496555D01*
X103546204Y-73450889D01*
X103663261Y-73363261D01*
X103704487Y-73308188D01*
X103760421Y-73266318D01*
X103803754Y-73258500D01*
X107796246Y-73258500D01*
X107863285Y-73278185D01*
X107895511Y-73308187D01*
X107936739Y-73363261D01*
X108053796Y-73450889D01*
X108168949Y-73493839D01*
X108188262Y-73501043D01*
X108190799Y-73501989D01*
X108218050Y-73504918D01*
X108251345Y-73508499D01*
X108251362Y-73508500D01*
X108987606Y-73508500D01*
X109112393Y-73508500D01*
X109805167Y-73508500D01*
X109872206Y-73528185D01*
X109892848Y-73544819D01*
X109960527Y-73612498D01*
X109994012Y-73673821D01*
X109996066Y-73714062D01*
X109986384Y-73799996D01*
X109986384Y-73800000D01*
X110006781Y-73981041D01*
X110006782Y-73981046D01*
X110066958Y-74153017D01*
X110150987Y-74286748D01*
X110163889Y-74307281D01*
X110292719Y-74436111D01*
X110446985Y-74533043D01*
X110594244Y-74584571D01*
X110618953Y-74593217D01*
X110618958Y-74593218D01*
X110692468Y-74601500D01*
X110715828Y-74604132D01*
X110780243Y-74631198D01*
X110819798Y-74688792D01*
X110821937Y-74758629D01*
X110785979Y-74818536D01*
X110767924Y-74832342D01*
X110743819Y-74847490D01*
X110677841Y-74866500D01*
X109611115Y-74866500D01*
X109544076Y-74846815D01*
X109504998Y-74806650D01*
X109491818Y-74784848D01*
X109491817Y-74784847D01*
X109491816Y-74784845D01*
X109370155Y-74663184D01*
X109222913Y-74574173D01*
X109058649Y-74522987D01*
X109058647Y-74522986D01*
X109058645Y-74522986D01*
X109008667Y-74518444D01*
X108987265Y-74516500D01*
X108987262Y-74516500D01*
X108472727Y-74516500D01*
X108401354Y-74522985D01*
X108401344Y-74522988D01*
X108237090Y-74574171D01*
X108089841Y-74663186D01*
X108089840Y-74663187D01*
X107992681Y-74760347D01*
X107931358Y-74793832D01*
X107861666Y-74788848D01*
X107817319Y-74760347D01*
X107720158Y-74663186D01*
X107638159Y-74613616D01*
X107572913Y-74574173D01*
X107408649Y-74522987D01*
X107408647Y-74522986D01*
X107408645Y-74522986D01*
X107358667Y-74518444D01*
X107337265Y-74516500D01*
X107337262Y-74516500D01*
X107163766Y-74516500D01*
X107096727Y-74496815D01*
X107076085Y-74480181D01*
X106503836Y-73907931D01*
X106503832Y-73907928D01*
X106400081Y-73838603D01*
X106400072Y-73838598D01*
X106284785Y-73790845D01*
X106284777Y-73790843D01*
X106162398Y-73766500D01*
X106162394Y-73766500D01*
X103817606Y-73766500D01*
X103817601Y-73766500D01*
X103695222Y-73790843D01*
X103695210Y-73790846D01*
X103673112Y-73800000D01*
X103579924Y-73838599D01*
X103579921Y-73838600D01*
X103476167Y-73907927D01*
X103476163Y-73907930D01*
X103128914Y-74255181D01*
X103067591Y-74288666D01*
X103041233Y-74291500D01*
X102531345Y-74291500D01*
X102470797Y-74298011D01*
X102470795Y-74298011D01*
X102333795Y-74349111D01*
X102216739Y-74436739D01*
X102129111Y-74553795D01*
X102078011Y-74690795D01*
X102078011Y-74690797D01*
X102071500Y-74751345D01*
X102071500Y-76348654D01*
X102078011Y-76409202D01*
X102078011Y-76409204D01*
X102114067Y-76505871D01*
X102129111Y-76546204D01*
X102216739Y-76663261D01*
X102333796Y-76750889D01*
X102434366Y-76788400D01*
X102465455Y-76799996D01*
X102470799Y-76801989D01*
X102498050Y-76804918D01*
X102531345Y-76808499D01*
X102531362Y-76808500D01*
X103528638Y-76808500D01*
X103528654Y-76808499D01*
X103589201Y-76801989D01*
X103625634Y-76788400D01*
X103686666Y-76765635D01*
X103756357Y-76760652D01*
X103773334Y-76765636D01*
X103870798Y-76801989D01*
X103931345Y-76808499D01*
X103931362Y-76808500D01*
X104461234Y-76808500D01*
X104528273Y-76828185D01*
X104548915Y-76844819D01*
X104883915Y-77179819D01*
X104917400Y-77241142D01*
X104912416Y-77310834D01*
X104870544Y-77366767D01*
X104805080Y-77391184D01*
X104796234Y-77391500D01*
X103931345Y-77391500D01*
X103870797Y-77398011D01*
X103870796Y-77398011D01*
X103773333Y-77434363D01*
X103703642Y-77439347D01*
X103686667Y-77434363D01*
X103589202Y-77398011D01*
X103528654Y-77391500D01*
X103528638Y-77391500D01*
X102531362Y-77391500D01*
X102531345Y-77391500D01*
X102470797Y-77398011D01*
X102470795Y-77398011D01*
X102333795Y-77449111D01*
X102216739Y-77536739D01*
X102129111Y-77653795D01*
X102078011Y-77790795D01*
X102078011Y-77790797D01*
X102071500Y-77851345D01*
X102071500Y-79448654D01*
X102078011Y-79509202D01*
X102078011Y-79509204D01*
X102118346Y-79617343D01*
X102129111Y-79646204D01*
X102216739Y-79763261D01*
X102333796Y-79850889D01*
X102470799Y-79901989D01*
X102498050Y-79904918D01*
X102531345Y-79908499D01*
X102531362Y-79908500D01*
X102861234Y-79908500D01*
X102928273Y-79928185D01*
X102948915Y-79944819D01*
X103307929Y-80303833D01*
X103353875Y-80349779D01*
X103396168Y-80392072D01*
X103499918Y-80461396D01*
X103499924Y-80461399D01*
X103499925Y-80461400D01*
X103615215Y-80509155D01*
X103737601Y-80533499D01*
X103737605Y-80533500D01*
X103737606Y-80533500D01*
X106042395Y-80533500D01*
X106042396Y-80533499D01*
X106164785Y-80509155D01*
X106280075Y-80461400D01*
X106383833Y-80392071D01*
X106956085Y-79819817D01*
X107017408Y-79786333D01*
X107043766Y-79783499D01*
X107337271Y-79783499D01*
X107408644Y-79777014D01*
X107408647Y-79777013D01*
X107408649Y-79777013D01*
X107572913Y-79725827D01*
X107720155Y-79636816D01*
X107764306Y-79592665D01*
X107817319Y-79539653D01*
X107878642Y-79506168D01*
X107948334Y-79511152D01*
X107992681Y-79539653D01*
X108089841Y-79636813D01*
X108089843Y-79636814D01*
X108089845Y-79636816D01*
X108237087Y-79725827D01*
X108401351Y-79777013D01*
X108472735Y-79783500D01*
X108987264Y-79783499D01*
X108987272Y-79783499D01*
X109058645Y-79777014D01*
X109058648Y-79777013D01*
X109058649Y-79777013D01*
X109222913Y-79725827D01*
X109370155Y-79636816D01*
X109491816Y-79515155D01*
X109504998Y-79493350D01*
X109556526Y-79446163D01*
X109611115Y-79433500D01*
X110062395Y-79433500D01*
X110062396Y-79433499D01*
X110184785Y-79409155D01*
X110300075Y-79361400D01*
X110403833Y-79292071D01*
X112492071Y-77203833D01*
X112561400Y-77100075D01*
X112609155Y-76984785D01*
X112633500Y-76862394D01*
X112633500Y-76737606D01*
X112633500Y-72323262D01*
X112653185Y-72256223D01*
X112705989Y-72210468D01*
X112775147Y-72200524D01*
X112823472Y-72218269D01*
X112846985Y-72233043D01*
X113018953Y-72293217D01*
X113018958Y-72293218D01*
X113099132Y-72302251D01*
X113200000Y-72313616D01*
X113203608Y-72313209D01*
X113205931Y-72313616D01*
X113206964Y-72313616D01*
X113206964Y-72313796D01*
X113272429Y-72325258D01*
X113323812Y-72372603D01*
X113341500Y-72436428D01*
X113341500Y-72751055D01*
X113348840Y-72819313D01*
X113347990Y-72819404D01*
X113349681Y-72846423D01*
X113350178Y-72846450D01*
X113350000Y-72849774D01*
X113350000Y-72897600D01*
X113386319Y-72933919D01*
X113385087Y-72935150D01*
X113398128Y-72947292D01*
X113419387Y-72975692D01*
X113443802Y-73041157D01*
X113428949Y-73109429D01*
X113419387Y-73124308D01*
X113398128Y-73152708D01*
X113383726Y-73163488D01*
X113386319Y-73166081D01*
X113350000Y-73202400D01*
X113350000Y-73250225D01*
X113350178Y-73253550D01*
X113349681Y-73253576D01*
X113347990Y-73280596D01*
X113348840Y-73280688D01*
X113341500Y-73348944D01*
X113341500Y-73751045D01*
X113345338Y-73786749D01*
X113345338Y-73813251D01*
X113341500Y-73848954D01*
X113341500Y-74251045D01*
X113345338Y-74286748D01*
X113345338Y-74313252D01*
X113341500Y-74348955D01*
X113341500Y-74751054D01*
X113348011Y-74811602D01*
X113348011Y-74811604D01*
X113383512Y-74906782D01*
X113399111Y-74948604D01*
X113486739Y-75065661D01*
X113603796Y-75153289D01*
X113718949Y-75196239D01*
X113732361Y-75201242D01*
X113740799Y-75204389D01*
X113767699Y-75207281D01*
X113801345Y-75210899D01*
X113801362Y-75210900D01*
X115163634Y-75210900D01*
X115230673Y-75230585D01*
X115251315Y-75247219D01*
X115453453Y-75449358D01*
X115486938Y-75510681D01*
X115488992Y-75523155D01*
X115506781Y-75681042D01*
X115506782Y-75681046D01*
X115566958Y-75853017D01*
X115659267Y-75999925D01*
X115663889Y-76007281D01*
X115792719Y-76136111D01*
X115874517Y-76187508D01*
X115920807Y-76239842D01*
X115931455Y-76308895D01*
X115903080Y-76372744D01*
X115844691Y-76411116D01*
X115808544Y-76416501D01*
X115586979Y-76416501D01*
X115543644Y-76408682D01*
X115508603Y-76395612D01*
X115448054Y-76389101D01*
X115448038Y-76389101D01*
X113801362Y-76389101D01*
X113801345Y-76389101D01*
X113740797Y-76395612D01*
X113740795Y-76395612D01*
X113603795Y-76446712D01*
X113486739Y-76534340D01*
X113399111Y-76651396D01*
X113348011Y-76788396D01*
X113348011Y-76788398D01*
X113341500Y-76848946D01*
X113341500Y-77251055D01*
X113348840Y-77319313D01*
X113347990Y-77319404D01*
X113349681Y-77346423D01*
X113350178Y-77346450D01*
X113350000Y-77349774D01*
X113350000Y-77397600D01*
X113386319Y-77433919D01*
X113385087Y-77435150D01*
X113398128Y-77447292D01*
X113419387Y-77475692D01*
X113443802Y-77541157D01*
X113428949Y-77609429D01*
X113419387Y-77624308D01*
X113398128Y-77652708D01*
X113383726Y-77663488D01*
X113386319Y-77666081D01*
X113350000Y-77702400D01*
X113350000Y-77750225D01*
X113350178Y-77753550D01*
X113349681Y-77753576D01*
X113347990Y-77780596D01*
X113348840Y-77780688D01*
X113341500Y-77848944D01*
X113341500Y-78251045D01*
X113345338Y-78286749D01*
X113345338Y-78313251D01*
X113341500Y-78348954D01*
X113341500Y-78751055D01*
X113347220Y-78804245D01*
X113334816Y-78873004D01*
X113287206Y-78924142D01*
X113223931Y-78941501D01*
X112394888Y-78941501D01*
X112240127Y-78982969D01*
X112240126Y-78982969D01*
X112240124Y-78982970D01*
X112240123Y-78982970D01*
X112188747Y-79012633D01*
X112101374Y-79063077D01*
X112101369Y-79063081D01*
X111577788Y-79586661D01*
X111516465Y-79620146D01*
X111503992Y-79622200D01*
X111418958Y-79631781D01*
X111246983Y-79691957D01*
X111092718Y-79788889D01*
X110963889Y-79917718D01*
X110866958Y-80071982D01*
X110806782Y-80243953D01*
X110806781Y-80243957D01*
X110794114Y-80356384D01*
X110767047Y-80420798D01*
X110709452Y-80460353D01*
X110670894Y-80466500D01*
X110367727Y-80466500D01*
X110296354Y-80472985D01*
X110296344Y-80472988D01*
X110132090Y-80524171D01*
X109984841Y-80613186D01*
X109863186Y-80734841D01*
X109829317Y-80790867D01*
X109777788Y-80838053D01*
X109708929Y-80849891D01*
X109648892Y-80825983D01*
X109546204Y-80749111D01*
X109507956Y-80734845D01*
X109409203Y-80698011D01*
X109348654Y-80691500D01*
X109348638Y-80691500D01*
X108251362Y-80691500D01*
X108251345Y-80691500D01*
X108190797Y-80698011D01*
X108190795Y-80698011D01*
X108053795Y-80749111D01*
X107968111Y-80813254D01*
X107936739Y-80836739D01*
X107896753Y-80890155D01*
X107895513Y-80891811D01*
X107839579Y-80933682D01*
X107796246Y-80941500D01*
X103803754Y-80941500D01*
X103736715Y-80921815D01*
X103704487Y-80891811D01*
X103703250Y-80890158D01*
X103663261Y-80836739D01*
X103546204Y-80749111D01*
X103507956Y-80734845D01*
X103409203Y-80698011D01*
X103348654Y-80691500D01*
X103348638Y-80691500D01*
X102251362Y-80691500D01*
X102251345Y-80691500D01*
X102190797Y-80698011D01*
X102190795Y-80698011D01*
X102053795Y-80749111D01*
X101936739Y-80836739D01*
X101849111Y-80953795D01*
X101798011Y-81090795D01*
X101798011Y-81090797D01*
X101791500Y-81151345D01*
X101791500Y-81998654D01*
X101798011Y-82059202D01*
X101798011Y-82059204D01*
X101839970Y-82171697D01*
X101849111Y-82196204D01*
X101936739Y-82313261D01*
X102053796Y-82400889D01*
X102168949Y-82443839D01*
X102185270Y-82449927D01*
X102190799Y-82451989D01*
X102218050Y-82454918D01*
X102251345Y-82458499D01*
X102251362Y-82458500D01*
X103348638Y-82458500D01*
X103348654Y-82458499D01*
X103375692Y-82455591D01*
X103409201Y-82451989D01*
X103414730Y-82449927D01*
X103423768Y-82446555D01*
X103546204Y-82400889D01*
X103663261Y-82313261D01*
X103704487Y-82258188D01*
X103760421Y-82216318D01*
X103803754Y-82208500D01*
X107796246Y-82208500D01*
X107863285Y-82228185D01*
X107895511Y-82258187D01*
X107936739Y-82313261D01*
X108053796Y-82400889D01*
X108168949Y-82443839D01*
X108185270Y-82449927D01*
X108190799Y-82451989D01*
X108218050Y-82454918D01*
X108251345Y-82458499D01*
X108251362Y-82458500D01*
X109348638Y-82458500D01*
X109348654Y-82458499D01*
X109375692Y-82455591D01*
X109409201Y-82451989D01*
X109414730Y-82449927D01*
X109423768Y-82446555D01*
X109546204Y-82400889D01*
X109597467Y-82362513D01*
X109662931Y-82338096D01*
X109731204Y-82352947D01*
X109780610Y-82402352D01*
X109795462Y-82470625D01*
X109777897Y-82525927D01*
X109774173Y-82532086D01*
X109722986Y-82696354D01*
X109716500Y-82767737D01*
X109716500Y-83282272D01*
X109722985Y-83353645D01*
X109722988Y-83353655D01*
X109774171Y-83517909D01*
X109774172Y-83517911D01*
X109774173Y-83517913D01*
X109863184Y-83665155D01*
X109863186Y-83665158D01*
X109905180Y-83707151D01*
X109938666Y-83768474D01*
X109941500Y-83794833D01*
X109941500Y-83798667D01*
X109934542Y-83839621D01*
X109906783Y-83918950D01*
X109906781Y-83918958D01*
X109886384Y-84099996D01*
X109886384Y-84100003D01*
X109906781Y-84281041D01*
X109906782Y-84281046D01*
X109966958Y-84453017D01*
X110061881Y-84604086D01*
X110063889Y-84607281D01*
X110192719Y-84736111D01*
X110346985Y-84833043D01*
X110518953Y-84893217D01*
X110518958Y-84893218D01*
X110699996Y-84913616D01*
X110700000Y-84913616D01*
X110700004Y-84913616D01*
X110881041Y-84893218D01*
X110881044Y-84893217D01*
X110881047Y-84893217D01*
X111053015Y-84833043D01*
X111207281Y-84736111D01*
X111336111Y-84607281D01*
X111433043Y-84453015D01*
X111488425Y-84294743D01*
X113528102Y-84294743D01*
X113534503Y-84354271D01*
X113534505Y-84354278D01*
X113584747Y-84488985D01*
X113584751Y-84488992D01*
X113670911Y-84604086D01*
X113670914Y-84604089D01*
X113786008Y-84690249D01*
X113786015Y-84690253D01*
X113920722Y-84740495D01*
X113920729Y-84740497D01*
X113980257Y-84746898D01*
X113980274Y-84746899D01*
X115149702Y-84746899D01*
X115649702Y-84746899D01*
X116819130Y-84746899D01*
X116819146Y-84746898D01*
X116878674Y-84740497D01*
X116878681Y-84740495D01*
X117013388Y-84690253D01*
X117013395Y-84690249D01*
X117128489Y-84604089D01*
X117128492Y-84604086D01*
X117214652Y-84488992D01*
X117214656Y-84488985D01*
X117264898Y-84354278D01*
X117264900Y-84354271D01*
X117271301Y-84294743D01*
X117271302Y-84294726D01*
X117271302Y-83899999D01*
X115649702Y-83899999D01*
X115649702Y-84746899D01*
X115149702Y-84746899D01*
X115149702Y-83899999D01*
X113528102Y-83899999D01*
X113528102Y-84294743D01*
X111488425Y-84294743D01*
X111493217Y-84281047D01*
X111493218Y-84281038D01*
X111513616Y-84100003D01*
X111513616Y-84099996D01*
X111493218Y-83918958D01*
X111493216Y-83918950D01*
X111465458Y-83839621D01*
X111458500Y-83798667D01*
X111458500Y-83794833D01*
X111478185Y-83727794D01*
X111494820Y-83707151D01*
X111509858Y-83692113D01*
X111536816Y-83665155D01*
X111625827Y-83517913D01*
X111677013Y-83353649D01*
X111683500Y-83282265D01*
X111683499Y-82767736D01*
X111683499Y-82767735D01*
X111683499Y-82767727D01*
X111677563Y-82702399D01*
X113350000Y-82702399D01*
X113350000Y-82750243D01*
X113356401Y-82809771D01*
X113356403Y-82809778D01*
X113406645Y-82944485D01*
X113406647Y-82944487D01*
X113498126Y-83066688D01*
X113496772Y-83067701D01*
X113525266Y-83119871D01*
X113528102Y-83146241D01*
X113528102Y-83399999D01*
X117271302Y-83399999D01*
X117271302Y-83005271D01*
X117271301Y-83005254D01*
X117264900Y-82945726D01*
X117264898Y-82945719D01*
X117214656Y-82811012D01*
X117214652Y-82811005D01*
X117128492Y-82695911D01*
X117128489Y-82695908D01*
X117013395Y-82609748D01*
X117013388Y-82609744D01*
X116878681Y-82559502D01*
X116878674Y-82559500D01*
X116819146Y-82553099D01*
X116023400Y-82553099D01*
X115956361Y-82533414D01*
X115910606Y-82480610D01*
X115899400Y-82429099D01*
X115899400Y-82349771D01*
X115899399Y-82349757D01*
X115895474Y-82313254D01*
X115895474Y-82286741D01*
X115899399Y-82250235D01*
X115899400Y-82250218D01*
X115899400Y-82202400D01*
X114777100Y-82202400D01*
X114777100Y-82578399D01*
X114757415Y-82645438D01*
X114704611Y-82691193D01*
X114653100Y-82702399D01*
X113350000Y-82702399D01*
X111677563Y-82702399D01*
X111677014Y-82696354D01*
X111677011Y-82696344D01*
X111625828Y-82532090D01*
X111625827Y-82532089D01*
X111625827Y-82532087D01*
X111544097Y-82396890D01*
X111526262Y-82329337D01*
X111547780Y-82262864D01*
X111563191Y-82250234D01*
X113350000Y-82250234D01*
X113353925Y-82286747D01*
X113353925Y-82313250D01*
X113350000Y-82349762D01*
X113350000Y-82397599D01*
X114472300Y-82397599D01*
X114472300Y-82202400D01*
X113350000Y-82202400D01*
X113350000Y-82250234D01*
X111563191Y-82250234D01*
X111601820Y-82218576D01*
X111636329Y-82209522D01*
X111704267Y-82201867D01*
X111781042Y-82193218D01*
X111781045Y-82193217D01*
X111781047Y-82193217D01*
X111953015Y-82133043D01*
X112107281Y-82036111D01*
X112236111Y-81907281D01*
X112333043Y-81753015D01*
X112334016Y-81750235D01*
X113350000Y-81750235D01*
X113353925Y-81786748D01*
X113353925Y-81813251D01*
X113350000Y-81849763D01*
X113350000Y-81897600D01*
X114472300Y-81897600D01*
X114777100Y-81897600D01*
X115899400Y-81897600D01*
X115899400Y-81849772D01*
X115899399Y-81849758D01*
X115895474Y-81813255D01*
X115895474Y-81786742D01*
X115899399Y-81750236D01*
X115899400Y-81750219D01*
X115899400Y-81702401D01*
X114777100Y-81702401D01*
X114777100Y-81897600D01*
X114472300Y-81897600D01*
X114472300Y-81702401D01*
X113350000Y-81702401D01*
X113350000Y-81750235D01*
X112334016Y-81750235D01*
X112393217Y-81581047D01*
X112397673Y-81541500D01*
X112413616Y-81400003D01*
X112413616Y-81399997D01*
X112406207Y-81334242D01*
X112418261Y-81265420D01*
X112432256Y-81250234D01*
X113350000Y-81250234D01*
X113353925Y-81286748D01*
X113353925Y-81313252D01*
X113350000Y-81349765D01*
X113350000Y-81397601D01*
X114472300Y-81397601D01*
X114777100Y-81397601D01*
X115899400Y-81397601D01*
X115899400Y-81349780D01*
X115899399Y-81349769D01*
X115895473Y-81313258D01*
X115895473Y-81286742D01*
X115899399Y-81250230D01*
X115899400Y-81250220D01*
X115899400Y-81202399D01*
X114777100Y-81202399D01*
X114777100Y-81397601D01*
X114472300Y-81397601D01*
X114472300Y-81202399D01*
X113350000Y-81202399D01*
X113350000Y-81250234D01*
X112432256Y-81250234D01*
X112465610Y-81214040D01*
X112515542Y-81197138D01*
X112588436Y-81188925D01*
X112667807Y-81179983D01*
X112667810Y-81179982D01*
X112667812Y-81179982D01*
X112839780Y-81119808D01*
X112994046Y-81022876D01*
X113122876Y-80894046D01*
X113126418Y-80888407D01*
X113178745Y-80842117D01*
X113247797Y-80831462D01*
X113311648Y-80859832D01*
X113319095Y-80866694D01*
X113350000Y-80897599D01*
X114472300Y-80897599D01*
X114472300Y-80834901D01*
X114491985Y-80767862D01*
X114544789Y-80722107D01*
X114596300Y-80710901D01*
X114653100Y-80710901D01*
X114720139Y-80730586D01*
X114765894Y-80783390D01*
X114777100Y-80834901D01*
X114777100Y-80897599D01*
X115899400Y-80897599D01*
X115899400Y-80849771D01*
X115899399Y-80849757D01*
X115895474Y-80813254D01*
X115895474Y-80786741D01*
X115899399Y-80750235D01*
X115899400Y-80750218D01*
X115899400Y-80702400D01*
X115895816Y-80698816D01*
X115840982Y-80682715D01*
X115795227Y-80629911D01*
X115785283Y-80560753D01*
X115808754Y-80504090D01*
X115851274Y-80447290D01*
X115865672Y-80436510D01*
X115863081Y-80433919D01*
X115899400Y-80397600D01*
X115899400Y-80349779D01*
X115899222Y-80346462D01*
X115899400Y-80346452D01*
X115899400Y-80346451D01*
X115899427Y-80346451D01*
X115899722Y-80346435D01*
X115901413Y-80319406D01*
X115900560Y-80319315D01*
X115907899Y-80251055D01*
X115907900Y-80251038D01*
X115907900Y-79848973D01*
X115907900Y-79848963D01*
X115904061Y-79813255D01*
X115904061Y-79786746D01*
X115905107Y-79777013D01*
X115907900Y-79751039D01*
X115907900Y-79348963D01*
X115907899Y-79348946D01*
X115900560Y-79280688D01*
X115901411Y-79280596D01*
X115899721Y-79253564D01*
X115899427Y-79253549D01*
X115899400Y-79253549D01*
X115899400Y-79253547D01*
X115899222Y-79253538D01*
X115899400Y-79250221D01*
X115899400Y-79202400D01*
X115863081Y-79166081D01*
X115864311Y-79164850D01*
X115851274Y-79152712D01*
X115830014Y-79124313D01*
X115805596Y-79058849D01*
X115820447Y-78990576D01*
X115830013Y-78975690D01*
X115851274Y-78947289D01*
X115865672Y-78936510D01*
X115863081Y-78933919D01*
X115899400Y-78897600D01*
X115899400Y-78849779D01*
X115899222Y-78846462D01*
X115899400Y-78846452D01*
X115899400Y-78846451D01*
X115899427Y-78846451D01*
X115899722Y-78846435D01*
X115901413Y-78819406D01*
X115900560Y-78819315D01*
X115907899Y-78751055D01*
X115907900Y-78751038D01*
X115907900Y-78348963D01*
X115904061Y-78313251D01*
X115904061Y-78286745D01*
X115907900Y-78251037D01*
X115907900Y-77848961D01*
X115907899Y-77848947D01*
X115904868Y-77820758D01*
X115917272Y-77751999D01*
X115964881Y-77700861D01*
X116028157Y-77683501D01*
X116212394Y-77683501D01*
X116212395Y-77683500D01*
X116334784Y-77659156D01*
X116450074Y-77611401D01*
X116553832Y-77542072D01*
X117062056Y-77033846D01*
X117123377Y-77000363D01*
X117135836Y-76998310D01*
X117181047Y-76993217D01*
X117353015Y-76933043D01*
X117507281Y-76836111D01*
X117636111Y-76707281D01*
X117714233Y-76582950D01*
X117736748Y-76547119D01*
X117739048Y-76548564D01*
X117777576Y-76505871D01*
X117844999Y-76487541D01*
X117911628Y-76508573D01*
X117956309Y-76562288D01*
X117966500Y-76611516D01*
X117966500Y-78052839D01*
X117947494Y-78118811D01*
X117866958Y-78246982D01*
X117806782Y-78418953D01*
X117806781Y-78418958D01*
X117786384Y-78599996D01*
X117786384Y-78600003D01*
X117806781Y-78781041D01*
X117806782Y-78781046D01*
X117833452Y-78857264D01*
X117864953Y-78947289D01*
X117866958Y-78953017D01*
X117954858Y-79092909D01*
X117963889Y-79107281D01*
X118092719Y-79236111D01*
X118246985Y-79333043D01*
X118402352Y-79387408D01*
X118418953Y-79393217D01*
X118418958Y-79393218D01*
X118509977Y-79403473D01*
X118574391Y-79430539D01*
X118613946Y-79488134D01*
X118616084Y-79557971D01*
X118601088Y-79592665D01*
X118566958Y-79646982D01*
X118506782Y-79818953D01*
X118506781Y-79818958D01*
X118486384Y-79999996D01*
X118486384Y-80000003D01*
X118506781Y-80181041D01*
X118506782Y-80181046D01*
X118566958Y-80353017D01*
X118663889Y-80507281D01*
X118754282Y-80597674D01*
X118787767Y-80658997D01*
X118782783Y-80728689D01*
X118754282Y-80773036D01*
X117810836Y-81716481D01*
X117810835Y-81716482D01*
X117727823Y-81840719D01*
X117670651Y-81978747D01*
X117670649Y-81978753D01*
X117666694Y-81998638D01*
X117641500Y-82125291D01*
X117641500Y-83798667D01*
X117634542Y-83839621D01*
X117606783Y-83918950D01*
X117606781Y-83918958D01*
X117586384Y-84099996D01*
X117586384Y-84100003D01*
X117606781Y-84281038D01*
X117606783Y-84281048D01*
X117634541Y-84360374D01*
X117641500Y-84401329D01*
X117641500Y-88534456D01*
X117621815Y-88601495D01*
X117605181Y-88622137D01*
X116822288Y-89405029D01*
X116760965Y-89438514D01*
X116691273Y-89433530D01*
X116641343Y-89397334D01*
X116641035Y-89397643D01*
X116639100Y-89395708D01*
X116637665Y-89394668D01*
X116636113Y-89392722D01*
X116636111Y-89392719D01*
X116507281Y-89263889D01*
X116400561Y-89196832D01*
X116353017Y-89166958D01*
X116353016Y-89166957D01*
X116353015Y-89166957D01*
X116298693Y-89147949D01*
X116181046Y-89106782D01*
X116181041Y-89106781D01*
X116000004Y-89086384D01*
X116000003Y-89086384D01*
X116000001Y-89086384D01*
X116000000Y-89086384D01*
X115980065Y-89088629D01*
X115958414Y-89091069D01*
X115889592Y-89079012D01*
X115868070Y-89065466D01*
X115865165Y-89063190D01*
X115717913Y-88974173D01*
X115717907Y-88974171D01*
X115553649Y-88922987D01*
X115553647Y-88922986D01*
X115553645Y-88922986D01*
X115503667Y-88918444D01*
X115482265Y-88916500D01*
X115482262Y-88916500D01*
X114967727Y-88916500D01*
X114896354Y-88922985D01*
X114896344Y-88922988D01*
X114732090Y-88974171D01*
X114584841Y-89063186D01*
X114584840Y-89063187D01*
X114487681Y-89160347D01*
X114426358Y-89193832D01*
X114356666Y-89188848D01*
X114312319Y-89160347D01*
X114215158Y-89063186D01*
X114067913Y-88974173D01*
X114067907Y-88974171D01*
X113903649Y-88922987D01*
X113903647Y-88922986D01*
X113903645Y-88922986D01*
X113853667Y-88918444D01*
X113832265Y-88916500D01*
X113832262Y-88916500D01*
X113317727Y-88916500D01*
X113246354Y-88922985D01*
X113246344Y-88922988D01*
X113082090Y-88974171D01*
X112934841Y-89063186D01*
X112813186Y-89184841D01*
X112724173Y-89332086D01*
X112672986Y-89496354D01*
X112666500Y-89567737D01*
X112666500Y-90232272D01*
X112672985Y-90303645D01*
X112672988Y-90303655D01*
X112724171Y-90467909D01*
X112724172Y-90467911D01*
X112724173Y-90467913D01*
X112813184Y-90615155D01*
X112870392Y-90672363D01*
X112903876Y-90733684D01*
X112898892Y-90803376D01*
X112857021Y-90859310D01*
X112847807Y-90865581D01*
X112711505Y-90949653D01*
X112711501Y-90949656D01*
X112620181Y-91040977D01*
X112558858Y-91074462D01*
X112489166Y-91069478D01*
X112433233Y-91027606D01*
X112408816Y-90962142D01*
X112408500Y-90953296D01*
X112408500Y-90101362D01*
X112408499Y-90101345D01*
X112405157Y-90070270D01*
X112401989Y-90040799D01*
X112350889Y-89903796D01*
X112263261Y-89786739D01*
X112146204Y-89699111D01*
X112009203Y-89648011D01*
X111948654Y-89641500D01*
X111948638Y-89641500D01*
X109851362Y-89641500D01*
X109851345Y-89641500D01*
X109790797Y-89648011D01*
X109790795Y-89648011D01*
X109653795Y-89699111D01*
X109536739Y-89786739D01*
X109449111Y-89903795D01*
X109398011Y-90040795D01*
X109398011Y-90040797D01*
X109391500Y-90101345D01*
X109391500Y-94698654D01*
X109398011Y-94759202D01*
X109398011Y-94759204D01*
X109442731Y-94879100D01*
X109449111Y-94896204D01*
X109536739Y-95013261D01*
X109653796Y-95100889D01*
X109790799Y-95151989D01*
X109818050Y-95154918D01*
X109851345Y-95158499D01*
X109851362Y-95158500D01*
X111948638Y-95158500D01*
X111948654Y-95158499D01*
X111975692Y-95155591D01*
X112009201Y-95151989D01*
X112146204Y-95100889D01*
X112263261Y-95013261D01*
X112350889Y-94896204D01*
X112401989Y-94759201D01*
X112405591Y-94725692D01*
X112408499Y-94698654D01*
X112408500Y-94698637D01*
X112408500Y-93046704D01*
X112428185Y-92979665D01*
X112480989Y-92933910D01*
X112550147Y-92923966D01*
X112613703Y-92952991D01*
X112620181Y-92959023D01*
X112711502Y-93050344D01*
X112861171Y-93142661D01*
X113028096Y-93197974D01*
X113131125Y-93208500D01*
X113718874Y-93208499D01*
X113821904Y-93197974D01*
X113988829Y-93142661D01*
X114138498Y-93050344D01*
X114262844Y-92925998D01*
X114262849Y-92925988D01*
X114265232Y-92922977D01*
X114267400Y-92921441D01*
X114267951Y-92920891D01*
X114268045Y-92920985D01*
X114322254Y-92882599D01*
X114392053Y-92879459D01*
X114452469Y-92914554D01*
X114459768Y-92922977D01*
X114462153Y-92925994D01*
X114462156Y-92925998D01*
X114586502Y-93050344D01*
X114736171Y-93142661D01*
X114903096Y-93197974D01*
X115006125Y-93208500D01*
X115593874Y-93208499D01*
X115696904Y-93197974D01*
X115863829Y-93142661D01*
X116013498Y-93050344D01*
X116137844Y-92925998D01*
X116230161Y-92776329D01*
X116285474Y-92609404D01*
X116296000Y-92506375D01*
X116295999Y-92128041D01*
X116315683Y-92061003D01*
X116332313Y-92040366D01*
X118686941Y-89685740D01*
X118748264Y-89652255D01*
X118817956Y-89657239D01*
X118873889Y-89699111D01*
X118898306Y-89764575D01*
X118897980Y-89786023D01*
X118891500Y-89849445D01*
X118891500Y-92950537D01*
X118891501Y-92950553D01*
X118902113Y-93054427D01*
X118957884Y-93222735D01*
X118957886Y-93222740D01*
X118971725Y-93245176D01*
X119050970Y-93373652D01*
X119176348Y-93499030D01*
X119327262Y-93592115D01*
X119495574Y-93647887D01*
X119599455Y-93658500D01*
X120200544Y-93658499D01*
X120304426Y-93647887D01*
X120472738Y-93592115D01*
X120623652Y-93499030D01*
X120749030Y-93373652D01*
X120799455Y-93291899D01*
X120851402Y-93245176D01*
X120920364Y-93233953D01*
X120984446Y-93261796D01*
X121010531Y-93291900D01*
X121057680Y-93368340D01*
X121057683Y-93368344D01*
X121181654Y-93492315D01*
X121330875Y-93584356D01*
X121330880Y-93584358D01*
X121497302Y-93639505D01*
X121497309Y-93639506D01*
X121600019Y-93649999D01*
X122150000Y-93649999D01*
X122199972Y-93649999D01*
X122199986Y-93649998D01*
X122302697Y-93639505D01*
X122469119Y-93584358D01*
X122469124Y-93584356D01*
X122618345Y-93492315D01*
X122742315Y-93368345D01*
X122834356Y-93219124D01*
X122834358Y-93219119D01*
X122889505Y-93052697D01*
X122889506Y-93052690D01*
X122899999Y-92949986D01*
X122900000Y-92949973D01*
X122900000Y-91650000D01*
X122150000Y-91650000D01*
X122150000Y-93649999D01*
X121600019Y-93649999D01*
X121649999Y-93649998D01*
X121650000Y-93649998D01*
X121650000Y-91150000D01*
X122150000Y-91150000D01*
X122899999Y-91150000D01*
X122899999Y-89850028D01*
X122899998Y-89850013D01*
X122889505Y-89747302D01*
X122834358Y-89580880D01*
X122834356Y-89580875D01*
X122742315Y-89431654D01*
X122618345Y-89307684D01*
X122469124Y-89215643D01*
X122469119Y-89215641D01*
X122302697Y-89160494D01*
X122302690Y-89160493D01*
X122199986Y-89150000D01*
X122150000Y-89150000D01*
X122150000Y-91150000D01*
X121650000Y-91150000D01*
X121650000Y-89150000D01*
X121649999Y-89149999D01*
X121600029Y-89150000D01*
X121600011Y-89150001D01*
X121497302Y-89160494D01*
X121330880Y-89215641D01*
X121330875Y-89215643D01*
X121181654Y-89307684D01*
X121057682Y-89431656D01*
X121010531Y-89508100D01*
X120958583Y-89554824D01*
X120889620Y-89566045D01*
X120825538Y-89538201D01*
X120799455Y-89508100D01*
X120749030Y-89426348D01*
X120725047Y-89402365D01*
X120691562Y-89341042D01*
X120691839Y-89287083D01*
X120693218Y-89281041D01*
X120713616Y-89100003D01*
X120713616Y-89099996D01*
X120693218Y-88918958D01*
X120693217Y-88918953D01*
X120692359Y-88916500D01*
X120633043Y-88746985D01*
X120536111Y-88592719D01*
X120407281Y-88463889D01*
X120253015Y-88366957D01*
X120198693Y-88347949D01*
X120081046Y-88306782D01*
X120081041Y-88306781D01*
X119900004Y-88286384D01*
X119899996Y-88286384D01*
X119718958Y-88306781D01*
X119718953Y-88306782D01*
X119546982Y-88366958D01*
X119392718Y-88463889D01*
X119370181Y-88486427D01*
X119308858Y-88519912D01*
X119239166Y-88514928D01*
X119183233Y-88473056D01*
X119158816Y-88407592D01*
X119158500Y-88398746D01*
X119158500Y-84401329D01*
X119165459Y-84360374D01*
X119167595Y-84354271D01*
X119193217Y-84281047D01*
X119201234Y-84209892D01*
X119213616Y-84100003D01*
X119213616Y-84099996D01*
X119193218Y-83918958D01*
X119193216Y-83918950D01*
X119165458Y-83839621D01*
X119158500Y-83798667D01*
X119158500Y-82565543D01*
X119178185Y-82498504D01*
X119194819Y-82477862D01*
X120577862Y-81094819D01*
X120639185Y-81061334D01*
X120665543Y-81058500D01*
X120767502Y-81058500D01*
X120834541Y-81078185D01*
X120880296Y-81130989D01*
X120891502Y-81182500D01*
X120891502Y-81501045D01*
X120895340Y-81536748D01*
X120895340Y-81563252D01*
X120891502Y-81598955D01*
X120891502Y-82001044D01*
X120895340Y-82036747D01*
X120895340Y-82063251D01*
X120891502Y-82098954D01*
X120891502Y-82501053D01*
X120898013Y-82561601D01*
X120898013Y-82561603D01*
X120915971Y-82609748D01*
X120949113Y-82698603D01*
X121036741Y-82815660D01*
X121153798Y-82903288D01*
X121290801Y-82954388D01*
X121318052Y-82957317D01*
X121351347Y-82960898D01*
X121351364Y-82960899D01*
X122998040Y-82960899D01*
X123013760Y-82959209D01*
X123027015Y-82958499D01*
X123184072Y-82958499D01*
X123234547Y-82971143D01*
X123235087Y-82969842D01*
X123240715Y-82972173D01*
X123378752Y-83029350D01*
X123485307Y-83050545D01*
X123525289Y-83058498D01*
X123525292Y-83058499D01*
X123525294Y-83058499D01*
X123674706Y-83058499D01*
X123674707Y-83058498D01*
X123821246Y-83029350D01*
X123959283Y-82972173D01*
X123973610Y-82962600D01*
X124040284Y-82941722D01*
X124107664Y-82960205D01*
X124154356Y-83012183D01*
X124166500Y-83065702D01*
X124166500Y-92762398D01*
X124190843Y-92884777D01*
X124190845Y-92884785D01*
X124238598Y-93000072D01*
X124279342Y-93061049D01*
X124299460Y-93116057D01*
X124306781Y-93181041D01*
X124306782Y-93181046D01*
X124366958Y-93353017D01*
X124379923Y-93373651D01*
X124463889Y-93507281D01*
X124592719Y-93636111D01*
X124746985Y-93733043D01*
X124918953Y-93793217D01*
X124918958Y-93793218D01*
X125099996Y-93813616D01*
X125100000Y-93813616D01*
X125100004Y-93813616D01*
X125281041Y-93793218D01*
X125281044Y-93793217D01*
X125281047Y-93793217D01*
X125453015Y-93733043D01*
X125607281Y-93636111D01*
X125736111Y-93507281D01*
X125833043Y-93353015D01*
X125893217Y-93181047D01*
X125897542Y-93142661D01*
X125913616Y-93000003D01*
X125913616Y-92999996D01*
X125893218Y-92818958D01*
X125891667Y-92812161D01*
X125893506Y-92811741D01*
X125890427Y-92751374D01*
X125925158Y-92690747D01*
X125945055Y-92675209D01*
X126007281Y-92636111D01*
X126136111Y-92507281D01*
X126233043Y-92353015D01*
X126293217Y-92181047D01*
X126296715Y-92150000D01*
X126313616Y-92000003D01*
X126313616Y-91999996D01*
X126293218Y-91818958D01*
X126293217Y-91818953D01*
X126273426Y-91762394D01*
X126233043Y-91646985D01*
X126152506Y-91518811D01*
X126133500Y-91452839D01*
X126133500Y-77013766D01*
X126153185Y-76946727D01*
X126169819Y-76926085D01*
X126504819Y-76591085D01*
X126566142Y-76557600D01*
X126635834Y-76562584D01*
X126691767Y-76604456D01*
X126716184Y-76669920D01*
X126716500Y-76678766D01*
X126716500Y-79502839D01*
X126697494Y-79568811D01*
X126616958Y-79696982D01*
X126556782Y-79868953D01*
X126556781Y-79868958D01*
X126536384Y-80049996D01*
X126536384Y-80050003D01*
X126556781Y-80231041D01*
X126556782Y-80231046D01*
X126561300Y-80243957D01*
X126613126Y-80392068D01*
X126616958Y-80403017D01*
X126693086Y-80524173D01*
X126713889Y-80557281D01*
X126842719Y-80686111D01*
X126996985Y-80783043D01*
X127150440Y-80836739D01*
X127168953Y-80843217D01*
X127168958Y-80843218D01*
X127349996Y-80863616D01*
X127350000Y-80863616D01*
X127350004Y-80863616D01*
X127531041Y-80843218D01*
X127531044Y-80843217D01*
X127531047Y-80843217D01*
X127703015Y-80783043D01*
X127857281Y-80686111D01*
X127986111Y-80557281D01*
X128083043Y-80403015D01*
X128143217Y-80231047D01*
X128148851Y-80181046D01*
X128163616Y-80050003D01*
X128163616Y-80049996D01*
X128143218Y-79868958D01*
X128143217Y-79868953D01*
X128123728Y-79813256D01*
X128083043Y-79696985D01*
X128034762Y-79620146D01*
X128002506Y-79568811D01*
X127983500Y-79502839D01*
X127983500Y-70159061D01*
X128003185Y-70092022D01*
X128055989Y-70046267D01*
X128093617Y-70035841D01*
X128250029Y-70018218D01*
X128250032Y-70018217D01*
X128250035Y-70018217D01*
X128422003Y-69958043D01*
X128576269Y-69861111D01*
X128689261Y-69748118D01*
X128750580Y-69714636D01*
X128790823Y-69712582D01*
X128800000Y-69713616D01*
X128800004Y-69713616D01*
X128981041Y-69693218D01*
X128981044Y-69693217D01*
X128981047Y-69693217D01*
X129153015Y-69633043D01*
X129163584Y-69626401D01*
X129184027Y-69613557D01*
X129251263Y-69594556D01*
X129315973Y-69613557D01*
X129346981Y-69633041D01*
X129346982Y-69633041D01*
X129346985Y-69633043D01*
X129518953Y-69693217D01*
X129518958Y-69693218D01*
X129699996Y-69713616D01*
X129700000Y-69713616D01*
X129700004Y-69713616D01*
X129881041Y-69693218D01*
X129881044Y-69693217D01*
X129881047Y-69693217D01*
X130053015Y-69633043D01*
X130063584Y-69626401D01*
X130084027Y-69613557D01*
X130151263Y-69594556D01*
X130215973Y-69613557D01*
X130246981Y-69633041D01*
X130246982Y-69633041D01*
X130246985Y-69633043D01*
X130418953Y-69693217D01*
X130418958Y-69693218D01*
X130599996Y-69713616D01*
X130600000Y-69713616D01*
X130600004Y-69713616D01*
X130781041Y-69693218D01*
X130781044Y-69693217D01*
X130781047Y-69693217D01*
X130953015Y-69633043D01*
X131107281Y-69536111D01*
X131236111Y-69407281D01*
X131333043Y-69253015D01*
X131393217Y-69081047D01*
X131393218Y-69081041D01*
X131413616Y-68900003D01*
X131413616Y-68899996D01*
X131393218Y-68718958D01*
X131393217Y-68718953D01*
X131376591Y-68671439D01*
X131333043Y-68546985D01*
X131252506Y-68418811D01*
X131233500Y-68352839D01*
X131233500Y-67737605D01*
X131233499Y-67737604D01*
X131209155Y-67615215D01*
X131209154Y-67615213D01*
X131208650Y-67612678D01*
X131214877Y-67543086D01*
X131242582Y-67500809D01*
X131336111Y-67407281D01*
X131433043Y-67253015D01*
X131493217Y-67081047D01*
X131493218Y-67081041D01*
X131513616Y-66900003D01*
X131513616Y-66899996D01*
X131493218Y-66718958D01*
X131493217Y-66718953D01*
X131489360Y-66707930D01*
X131433043Y-66546985D01*
X131336111Y-66392719D01*
X131207281Y-66263889D01*
X131053015Y-66166957D01*
X131016543Y-66154194D01*
X130959768Y-66113471D01*
X130934022Y-66048518D01*
X130933500Y-66037153D01*
X130933500Y-58287605D01*
X130933499Y-58287601D01*
X130909155Y-58165215D01*
X130887782Y-58113616D01*
X130861401Y-58049925D01*
X130850121Y-58033043D01*
X130792072Y-57946166D01*
X130619819Y-57773913D01*
X130586334Y-57712590D01*
X130583500Y-57686232D01*
X130583500Y-57126288D01*
X130603185Y-57059249D01*
X130655989Y-57013494D01*
X130693617Y-57003068D01*
X130781042Y-56993218D01*
X130781045Y-56993217D01*
X130781047Y-56993217D01*
X130953015Y-56933043D01*
X131107281Y-56836111D01*
X131236111Y-56707281D01*
X131333043Y-56553015D01*
X131393217Y-56381047D01*
X131393218Y-56381041D01*
X131413616Y-56200003D01*
X131413616Y-56199996D01*
X131393218Y-56018958D01*
X131393217Y-56018953D01*
X131386896Y-56000888D01*
X131333043Y-55846985D01*
X131236111Y-55692719D01*
X131107281Y-55563889D01*
X131107277Y-55563885D01*
X131091527Y-55553989D01*
X131045236Y-55501654D01*
X131033500Y-55448996D01*
X131033500Y-55058954D01*
X131053185Y-54991915D01*
X131069819Y-54971273D01*
X132485075Y-53556017D01*
X132546398Y-53522532D01*
X132572756Y-53519698D01*
X135492197Y-53519698D01*
X135492198Y-53519697D01*
X135614587Y-53495353D01*
X135729877Y-53447598D01*
X135833635Y-53378269D01*
X138659009Y-50552893D01*
X138720330Y-50519410D01*
X138777143Y-50520374D01*
X138781356Y-50521441D01*
X138781365Y-50521444D01*
X139003431Y-50558500D01*
X139228569Y-50558500D01*
X139450635Y-50521444D01*
X139663574Y-50448342D01*
X139861576Y-50341189D01*
X140039240Y-50202906D01*
X140160594Y-50071082D01*
X140191715Y-50037276D01*
X140191715Y-50037275D01*
X140191722Y-50037268D01*
X140282193Y-49898790D01*
X140335338Y-49853437D01*
X140404569Y-49844013D01*
X140467905Y-49873515D01*
X140489804Y-49898787D01*
X140580278Y-50037268D01*
X140580283Y-50037273D01*
X140580284Y-50037276D01*
X140732756Y-50202902D01*
X140732760Y-50202906D01*
X140910424Y-50341189D01*
X140910425Y-50341189D01*
X140910427Y-50341191D01*
X140957516Y-50366674D01*
X141108426Y-50448342D01*
X141289498Y-50510504D01*
X141318906Y-50520600D01*
X141321365Y-50521444D01*
X141543431Y-50558500D01*
X141768569Y-50558500D01*
X141990635Y-50521444D01*
X142203574Y-50448342D01*
X142401576Y-50341189D01*
X142579240Y-50202906D01*
X142700594Y-50071082D01*
X142731715Y-50037276D01*
X142731717Y-50037273D01*
X142731722Y-50037268D01*
X142854860Y-49848791D01*
X142945296Y-49642616D01*
X143000564Y-49424368D01*
X143012309Y-49282635D01*
X143019156Y-49200005D01*
X143019156Y-49199994D01*
X143000565Y-48975640D01*
X143000563Y-48975628D01*
X142945296Y-48757385D01*
X142935071Y-48734075D01*
X142854860Y-48551209D01*
X142838706Y-48526484D01*
X142731723Y-48362734D01*
X142731715Y-48362723D01*
X142675212Y-48301345D01*
X144361500Y-48301345D01*
X144361500Y-50098654D01*
X144368011Y-50159202D01*
X144368011Y-50159204D01*
X144419111Y-50296204D01*
X144506739Y-50413261D01*
X144623796Y-50500889D01*
X144760799Y-50551989D01*
X144788050Y-50554918D01*
X144821345Y-50558499D01*
X144821362Y-50558500D01*
X146131234Y-50558500D01*
X146198273Y-50578185D01*
X146218915Y-50594819D01*
X147140181Y-51516085D01*
X147173666Y-51577408D01*
X147176500Y-51603766D01*
X147176500Y-56576232D01*
X147156815Y-56643271D01*
X147140181Y-56663913D01*
X145637942Y-58166151D01*
X145576619Y-58199636D01*
X145564148Y-58201690D01*
X145518953Y-58206783D01*
X145346983Y-58266957D01*
X145192718Y-58363889D01*
X145063889Y-58492718D01*
X144966958Y-58646982D01*
X144906782Y-58818953D01*
X144906781Y-58818958D01*
X144886384Y-58999996D01*
X144886384Y-59000003D01*
X144906781Y-59181041D01*
X144906782Y-59181046D01*
X144966958Y-59353017D01*
X144998218Y-59402767D01*
X145063889Y-59507281D01*
X145192719Y-59636111D01*
X145346985Y-59733043D01*
X145509759Y-59790000D01*
X145518953Y-59793217D01*
X145518958Y-59793218D01*
X145699996Y-59813616D01*
X145700000Y-59813616D01*
X145700004Y-59813616D01*
X145881041Y-59793218D01*
X145881044Y-59793217D01*
X145881047Y-59793217D01*
X146053015Y-59733043D01*
X146207281Y-59636111D01*
X146336111Y-59507281D01*
X146433043Y-59353015D01*
X146493217Y-59181047D01*
X146498309Y-59135850D01*
X146525374Y-59071440D01*
X146533838Y-59062065D01*
X147414819Y-58181085D01*
X147476142Y-58147600D01*
X147545834Y-58152584D01*
X147601767Y-58194456D01*
X147626184Y-58259920D01*
X147626500Y-58268766D01*
X147626500Y-66403745D01*
X147606815Y-66470784D01*
X147590182Y-66491426D01*
X147463888Y-66617720D01*
X147366958Y-66771982D01*
X147306782Y-66943953D01*
X147306781Y-66943958D01*
X147286384Y-67124996D01*
X147286384Y-67125003D01*
X147306781Y-67306041D01*
X147306782Y-67306046D01*
X147309993Y-67315222D01*
X147364088Y-67469817D01*
X147366958Y-67478017D01*
X147451572Y-67612678D01*
X147463889Y-67632281D01*
X147592719Y-67761111D01*
X147746985Y-67858043D01*
X147913020Y-67916141D01*
X147918953Y-67918217D01*
X147918958Y-67918218D01*
X148099996Y-67938616D01*
X148100000Y-67938616D01*
X148100004Y-67938616D01*
X148281041Y-67918218D01*
X148281044Y-67918217D01*
X148281047Y-67918217D01*
X148453015Y-67858043D01*
X148607281Y-67761111D01*
X148736111Y-67632281D01*
X148833043Y-67478015D01*
X148893217Y-67306047D01*
X148893898Y-67300003D01*
X148913616Y-67125003D01*
X148913616Y-67124997D01*
X148894280Y-66953387D01*
X148893500Y-66939503D01*
X148893500Y-50475729D01*
X148913185Y-50408690D01*
X148958484Y-50366674D01*
X149005566Y-50341195D01*
X149005572Y-50341191D01*
X149005576Y-50341189D01*
X149183240Y-50202906D01*
X149304594Y-50071082D01*
X149335715Y-50037276D01*
X149335715Y-50037275D01*
X149335722Y-50037268D01*
X149426193Y-49898790D01*
X149479338Y-49853437D01*
X149548569Y-49844013D01*
X149611905Y-49873515D01*
X149633804Y-49898787D01*
X149724278Y-50037268D01*
X149724283Y-50037273D01*
X149724284Y-50037276D01*
X149876756Y-50202902D01*
X149876760Y-50202906D01*
X150054424Y-50341189D01*
X150054425Y-50341189D01*
X150054427Y-50341191D01*
X150101516Y-50366674D01*
X150252426Y-50448342D01*
X150433498Y-50510504D01*
X150462906Y-50520600D01*
X150465365Y-50521444D01*
X150687431Y-50558500D01*
X150912568Y-50558500D01*
X150912569Y-50558500D01*
X151022091Y-50540224D01*
X151091455Y-50548606D01*
X151145278Y-50593159D01*
X151166468Y-50659737D01*
X151166500Y-50662533D01*
X151166500Y-65986232D01*
X151146815Y-66053271D01*
X151130181Y-66073913D01*
X150737942Y-66466151D01*
X150676619Y-66499636D01*
X150664148Y-66501690D01*
X150618953Y-66506783D01*
X150446983Y-66566957D01*
X150292718Y-66663889D01*
X150163889Y-66792718D01*
X150066958Y-66946982D01*
X150006782Y-67118953D01*
X150006781Y-67118958D01*
X149986384Y-67299996D01*
X149986384Y-67300003D01*
X150006781Y-67481041D01*
X150006782Y-67481046D01*
X150031440Y-67551513D01*
X150066895Y-67652839D01*
X150066958Y-67653017D01*
X150120109Y-67737606D01*
X150163889Y-67807281D01*
X150292719Y-67936111D01*
X150446985Y-68033043D01*
X150609345Y-68089855D01*
X150618953Y-68093217D01*
X150618958Y-68093218D01*
X150799996Y-68113616D01*
X150800000Y-68113616D01*
X150800004Y-68113616D01*
X150981041Y-68093218D01*
X150981044Y-68093217D01*
X150981047Y-68093217D01*
X151153015Y-68033043D01*
X151307281Y-67936111D01*
X151436111Y-67807281D01*
X151533043Y-67653015D01*
X151593217Y-67481047D01*
X151598309Y-67435850D01*
X151625374Y-67371440D01*
X151633838Y-67362065D01*
X151962319Y-67033585D01*
X152023642Y-67000100D01*
X152093334Y-67005084D01*
X152137681Y-67033585D01*
X152530181Y-67426085D01*
X152563666Y-67487408D01*
X152566500Y-67513766D01*
X152566500Y-67652839D01*
X152547494Y-67718811D01*
X152466958Y-67846982D01*
X152406782Y-68018953D01*
X152406781Y-68018958D01*
X152386384Y-68199996D01*
X152386384Y-68200003D01*
X152406781Y-68381041D01*
X152406782Y-68381046D01*
X152447949Y-68498693D01*
X152458638Y-68529242D01*
X152466958Y-68553017D01*
X152494258Y-68596464D01*
X152563889Y-68707281D01*
X152692719Y-68836111D01*
X152846985Y-68933043D01*
X153018953Y-68993217D01*
X153018958Y-68993218D01*
X153199996Y-69013616D01*
X153200000Y-69013616D01*
X153200004Y-69013616D01*
X153381041Y-68993218D01*
X153381044Y-68993217D01*
X153381047Y-68993217D01*
X153553015Y-68933043D01*
X153707281Y-68836111D01*
X153836111Y-68707281D01*
X153933043Y-68553015D01*
X153993217Y-68381047D01*
X153993218Y-68381041D01*
X154013616Y-68200003D01*
X154013616Y-68199996D01*
X153993218Y-68018958D01*
X153993217Y-68018953D01*
X153982245Y-67987596D01*
X153933043Y-67846985D01*
X153879084Y-67761110D01*
X153852506Y-67718811D01*
X153833500Y-67652839D01*
X153833500Y-67137605D01*
X153833499Y-67137601D01*
X153830993Y-67125003D01*
X153809155Y-67015215D01*
X153761431Y-66900000D01*
X153761401Y-66899927D01*
X153761396Y-66899918D01*
X153692072Y-66796168D01*
X153667886Y-66771982D01*
X153603833Y-66707929D01*
X152919819Y-66023915D01*
X152886334Y-65962592D01*
X152883500Y-65936234D01*
X152883500Y-50647515D01*
X152903185Y-50580476D01*
X152955989Y-50534721D01*
X153025147Y-50524777D01*
X153027904Y-50525205D01*
X153227431Y-50558500D01*
X153227432Y-50558500D01*
X153452569Y-50558500D01*
X153674635Y-50521444D01*
X153887574Y-50448342D01*
X154085576Y-50341189D01*
X154263240Y-50202906D01*
X154384594Y-50071082D01*
X154415715Y-50037276D01*
X154415715Y-50037275D01*
X154415722Y-50037268D01*
X154506193Y-49898790D01*
X154559338Y-49853437D01*
X154628569Y-49844013D01*
X154691905Y-49873515D01*
X154713804Y-49898787D01*
X154804278Y-50037268D01*
X154804283Y-50037273D01*
X154804284Y-50037276D01*
X154956756Y-50202902D01*
X154956760Y-50202906D01*
X155134424Y-50341189D01*
X155134425Y-50341189D01*
X155134427Y-50341191D01*
X155181516Y-50366674D01*
X155332426Y-50448342D01*
X155513498Y-50510504D01*
X155542906Y-50520600D01*
X155545365Y-50521444D01*
X155767431Y-50558500D01*
X155992569Y-50558500D01*
X156214630Y-50521445D01*
X156214631Y-50521444D01*
X156214635Y-50521444D01*
X156214637Y-50521442D01*
X156218849Y-50520376D01*
X156288669Y-50522988D01*
X156336991Y-50552895D01*
X157300181Y-51516085D01*
X157333666Y-51577408D01*
X157336500Y-51603766D01*
X157336500Y-54816234D01*
X157316815Y-54883273D01*
X157300181Y-54903915D01*
X156573915Y-55630181D01*
X156512592Y-55663666D01*
X156486234Y-55666500D01*
X156447160Y-55666500D01*
X156381188Y-55647493D01*
X156253022Y-55566960D01*
X156253019Y-55566958D01*
X156081046Y-55506782D01*
X156081041Y-55506781D01*
X155900004Y-55486384D01*
X155899996Y-55486384D01*
X155718958Y-55506781D01*
X155718953Y-55506782D01*
X155546982Y-55566958D01*
X155392718Y-55663889D01*
X155263889Y-55792718D01*
X155166958Y-55946982D01*
X155106782Y-56118953D01*
X155106781Y-56118958D01*
X155086384Y-56299996D01*
X155086384Y-56300003D01*
X155106781Y-56481041D01*
X155106782Y-56481046D01*
X155142101Y-56581980D01*
X155163547Y-56643271D01*
X155166958Y-56653017D01*
X155238175Y-56766358D01*
X155263889Y-56807281D01*
X155392719Y-56936111D01*
X155546985Y-57033043D01*
X155718953Y-57093217D01*
X155718958Y-57093218D01*
X155899996Y-57113616D01*
X155900000Y-57113616D01*
X155900004Y-57113616D01*
X156081041Y-57093218D01*
X156081044Y-57093217D01*
X156081047Y-57093217D01*
X156253015Y-57033043D01*
X156253017Y-57033041D01*
X156253019Y-57033041D01*
X156253022Y-57033039D01*
X156381188Y-56952507D01*
X156447160Y-56933500D01*
X156862395Y-56933500D01*
X156862396Y-56933499D01*
X156984785Y-56909155D01*
X157100075Y-56861400D01*
X157203833Y-56792071D01*
X157407928Y-56587976D01*
X157469251Y-56554491D01*
X157538942Y-56559475D01*
X157594876Y-56601346D01*
X157619293Y-56666811D01*
X157618829Y-56689540D01*
X157606384Y-56799996D01*
X157606384Y-56800003D01*
X157626781Y-56981041D01*
X157626782Y-56981046D01*
X157644976Y-57033041D01*
X157686895Y-57152839D01*
X157686958Y-57153017D01*
X157735292Y-57229940D01*
X157783889Y-57307281D01*
X157912719Y-57436111D01*
X158066985Y-57533043D01*
X158217745Y-57585796D01*
X158238953Y-57593217D01*
X158238958Y-57593218D01*
X158419996Y-57613616D01*
X158420000Y-57613616D01*
X158420004Y-57613616D01*
X158601041Y-57593218D01*
X158601044Y-57593217D01*
X158601047Y-57593217D01*
X158773015Y-57533043D01*
X158927281Y-57436111D01*
X159056111Y-57307281D01*
X159153043Y-57153015D01*
X159213217Y-56981047D01*
X159217055Y-56946985D01*
X159233616Y-56800003D01*
X159233616Y-56799996D01*
X159213552Y-56621921D01*
X159225607Y-56553100D01*
X159272956Y-56501720D01*
X159340566Y-56484096D01*
X159406972Y-56505823D01*
X159424453Y-56520357D01*
X160110065Y-57205969D01*
X160143550Y-57267292D01*
X160146384Y-57293650D01*
X160146384Y-57300003D01*
X160166781Y-57481041D01*
X160166782Y-57481046D01*
X160202453Y-57582986D01*
X160221677Y-57637927D01*
X160226958Y-57653017D01*
X160287618Y-57749556D01*
X160323889Y-57807281D01*
X160452719Y-57936111D01*
X160606985Y-58033043D01*
X160778953Y-58093217D01*
X160778958Y-58093218D01*
X160959996Y-58113616D01*
X160960000Y-58113616D01*
X160960004Y-58113616D01*
X161141041Y-58093218D01*
X161141044Y-58093217D01*
X161141047Y-58093217D01*
X161313015Y-58033043D01*
X161467281Y-57936111D01*
X161596111Y-57807281D01*
X161693043Y-57653015D01*
X161753217Y-57481047D01*
X161761721Y-57405572D01*
X161773616Y-57300003D01*
X161773616Y-57299996D01*
X161753218Y-57118958D01*
X161753217Y-57118953D01*
X161693043Y-56946985D01*
X161596111Y-56792719D01*
X161467281Y-56663889D01*
X161434468Y-56643271D01*
X161313013Y-56566955D01*
X161262575Y-56549306D01*
X161215850Y-56519946D01*
X159539819Y-54843915D01*
X159506334Y-54782592D01*
X159503500Y-54756234D01*
X159503500Y-51603765D01*
X159523185Y-51536726D01*
X159539814Y-51516088D01*
X160503009Y-50552893D01*
X160564330Y-50519410D01*
X160621143Y-50520374D01*
X160625356Y-50521441D01*
X160625365Y-50521444D01*
X160847431Y-50558500D01*
X161072569Y-50558500D01*
X161294635Y-50521444D01*
X161507574Y-50448342D01*
X161705576Y-50341189D01*
X161883240Y-50202906D01*
X162004594Y-50071082D01*
X162035715Y-50037276D01*
X162035715Y-50037275D01*
X162035722Y-50037268D01*
X162126193Y-49898790D01*
X162179338Y-49853437D01*
X162248569Y-49844013D01*
X162311905Y-49873515D01*
X162333804Y-49898787D01*
X162424278Y-50037268D01*
X162424283Y-50037273D01*
X162424284Y-50037276D01*
X162576756Y-50202902D01*
X162576760Y-50202906D01*
X162754424Y-50341189D01*
X162754426Y-50341190D01*
X162754433Y-50341195D01*
X162801516Y-50366674D01*
X162851107Y-50415892D01*
X162866500Y-50475729D01*
X162866500Y-57152839D01*
X162847494Y-57218811D01*
X162766958Y-57346982D01*
X162706782Y-57518953D01*
X162706781Y-57518958D01*
X162686384Y-57699996D01*
X162686384Y-57700003D01*
X162706781Y-57881041D01*
X162706782Y-57881046D01*
X162729569Y-57946166D01*
X162765169Y-58047906D01*
X162766958Y-58053017D01*
X162838045Y-58166151D01*
X162863889Y-58207281D01*
X162992719Y-58336111D01*
X163146985Y-58433043D01*
X163285888Y-58481647D01*
X163318953Y-58493217D01*
X163318958Y-58493218D01*
X163499996Y-58513616D01*
X163500000Y-58513616D01*
X163500004Y-58513616D01*
X163681041Y-58493218D01*
X163681044Y-58493217D01*
X163681047Y-58493217D01*
X163853015Y-58433043D01*
X164007281Y-58336111D01*
X164136111Y-58207281D01*
X164233043Y-58053015D01*
X164293217Y-57881047D01*
X164298074Y-57837943D01*
X164313616Y-57700003D01*
X164313616Y-57699996D01*
X164293218Y-57518958D01*
X164293217Y-57518953D01*
X164262267Y-57430504D01*
X164233043Y-57346985D01*
X164194595Y-57285795D01*
X164152506Y-57218811D01*
X164133500Y-57152839D01*
X164133500Y-50475729D01*
X164153185Y-50408690D01*
X164198484Y-50366674D01*
X164245566Y-50341195D01*
X164245572Y-50341191D01*
X164245576Y-50341189D01*
X164423240Y-50202906D01*
X164544594Y-50071082D01*
X164575715Y-50037276D01*
X164575717Y-50037273D01*
X164575722Y-50037268D01*
X164698860Y-49848791D01*
X164789296Y-49642616D01*
X164844564Y-49424368D01*
X164856309Y-49282635D01*
X164863156Y-49200005D01*
X164863156Y-49199994D01*
X164844565Y-48975640D01*
X164844563Y-48975628D01*
X164789296Y-48757385D01*
X164779071Y-48734075D01*
X164698860Y-48551209D01*
X164682706Y-48526484D01*
X164575723Y-48362734D01*
X164575715Y-48362723D01*
X164423243Y-48197097D01*
X164423238Y-48197092D01*
X164245577Y-48058812D01*
X164245572Y-48058808D01*
X164047580Y-47951661D01*
X164047577Y-47951659D01*
X164047574Y-47951658D01*
X164047571Y-47951657D01*
X164047569Y-47951656D01*
X163834637Y-47878556D01*
X163612569Y-47841500D01*
X163387431Y-47841500D01*
X163165362Y-47878556D01*
X162952430Y-47951656D01*
X162952419Y-47951661D01*
X162754427Y-48058808D01*
X162754422Y-48058812D01*
X162576761Y-48197092D01*
X162576756Y-48197097D01*
X162424284Y-48362723D01*
X162424276Y-48362734D01*
X162333808Y-48501206D01*
X162280662Y-48546562D01*
X162211431Y-48555986D01*
X162148095Y-48526484D01*
X162126192Y-48501206D01*
X162035723Y-48362734D01*
X162035715Y-48362723D01*
X161883243Y-48197097D01*
X161883238Y-48197092D01*
X161705577Y-48058812D01*
X161705572Y-48058808D01*
X161507580Y-47951661D01*
X161507577Y-47951659D01*
X161507574Y-47951658D01*
X161507571Y-47951657D01*
X161507569Y-47951656D01*
X161294637Y-47878556D01*
X161072569Y-47841500D01*
X160847431Y-47841500D01*
X160625362Y-47878556D01*
X160412430Y-47951656D01*
X160412419Y-47951661D01*
X160214427Y-48058808D01*
X160214422Y-48058812D01*
X160036761Y-48197092D01*
X160036756Y-48197097D01*
X159884284Y-48362723D01*
X159884276Y-48362734D01*
X159793808Y-48501206D01*
X159740662Y-48546562D01*
X159671431Y-48555986D01*
X159608095Y-48526484D01*
X159586192Y-48501206D01*
X159495723Y-48362734D01*
X159495715Y-48362723D01*
X159343243Y-48197097D01*
X159343238Y-48197092D01*
X159165577Y-48058812D01*
X159165572Y-48058808D01*
X158967580Y-47951661D01*
X158967577Y-47951659D01*
X158967574Y-47951658D01*
X158967571Y-47951657D01*
X158967569Y-47951656D01*
X158754637Y-47878556D01*
X158532569Y-47841500D01*
X158307431Y-47841500D01*
X158085362Y-47878556D01*
X157872430Y-47951656D01*
X157872419Y-47951661D01*
X157674427Y-48058808D01*
X157674422Y-48058812D01*
X157496761Y-48197092D01*
X157496756Y-48197097D01*
X157344284Y-48362723D01*
X157344276Y-48362734D01*
X157253808Y-48501206D01*
X157200662Y-48546562D01*
X157131431Y-48555986D01*
X157068095Y-48526484D01*
X157046192Y-48501206D01*
X156955723Y-48362734D01*
X156955715Y-48362723D01*
X156803243Y-48197097D01*
X156803238Y-48197092D01*
X156625577Y-48058812D01*
X156625572Y-48058808D01*
X156427580Y-47951661D01*
X156427577Y-47951659D01*
X156427574Y-47951658D01*
X156427571Y-47951657D01*
X156427569Y-47951656D01*
X156214637Y-47878556D01*
X155992569Y-47841500D01*
X155767431Y-47841500D01*
X155545362Y-47878556D01*
X155332430Y-47951656D01*
X155332419Y-47951661D01*
X155134427Y-48058808D01*
X155134422Y-48058812D01*
X154956761Y-48197092D01*
X154956756Y-48197097D01*
X154804284Y-48362723D01*
X154804276Y-48362734D01*
X154713808Y-48501206D01*
X154660662Y-48546562D01*
X154591431Y-48555986D01*
X154528095Y-48526484D01*
X154506192Y-48501206D01*
X154415723Y-48362734D01*
X154415715Y-48362723D01*
X154263243Y-48197097D01*
X154263238Y-48197092D01*
X154085577Y-48058812D01*
X154085572Y-48058808D01*
X153887580Y-47951661D01*
X153887577Y-47951659D01*
X153887574Y-47951658D01*
X153887571Y-47951657D01*
X153887569Y-47951656D01*
X153674637Y-47878556D01*
X153452569Y-47841500D01*
X153227431Y-47841500D01*
X153005362Y-47878556D01*
X152792430Y-47951656D01*
X152792419Y-47951661D01*
X152594427Y-48058808D01*
X152594422Y-48058812D01*
X152416761Y-48197092D01*
X152416756Y-48197097D01*
X152264284Y-48362723D01*
X152264276Y-48362734D01*
X152173808Y-48501206D01*
X152120662Y-48546562D01*
X152051431Y-48555986D01*
X151988095Y-48526484D01*
X151966192Y-48501206D01*
X151875723Y-48362734D01*
X151875715Y-48362723D01*
X151723243Y-48197097D01*
X151723238Y-48197092D01*
X151545577Y-48058812D01*
X151545572Y-48058808D01*
X151347580Y-47951661D01*
X151347577Y-47951659D01*
X151347574Y-47951658D01*
X151347571Y-47951657D01*
X151347569Y-47951656D01*
X151134637Y-47878556D01*
X150912569Y-47841500D01*
X150687431Y-47841500D01*
X150465362Y-47878556D01*
X150252430Y-47951656D01*
X150252419Y-47951661D01*
X150054427Y-48058808D01*
X150054422Y-48058812D01*
X149876761Y-48197092D01*
X149876756Y-48197097D01*
X149724284Y-48362723D01*
X149724276Y-48362734D01*
X149633808Y-48501206D01*
X149580662Y-48546562D01*
X149511431Y-48555986D01*
X149448095Y-48526484D01*
X149426192Y-48501206D01*
X149335723Y-48362734D01*
X149335715Y-48362723D01*
X149183243Y-48197097D01*
X149183238Y-48197092D01*
X149005577Y-48058812D01*
X149005572Y-48058808D01*
X148807580Y-47951661D01*
X148807577Y-47951659D01*
X148807574Y-47951658D01*
X148807571Y-47951657D01*
X148807569Y-47951656D01*
X148594637Y-47878556D01*
X148372569Y-47841500D01*
X148147431Y-47841500D01*
X147925362Y-47878556D01*
X147712430Y-47951656D01*
X147712419Y-47951661D01*
X147514427Y-48058808D01*
X147514422Y-48058812D01*
X147336761Y-48197092D01*
X147273548Y-48265760D01*
X147213661Y-48301750D01*
X147143823Y-48299649D01*
X147086207Y-48260124D01*
X147066138Y-48225110D01*
X147020889Y-48103796D01*
X146987214Y-48058812D01*
X146933261Y-47986739D01*
X146816204Y-47899111D01*
X146679203Y-47848011D01*
X146618654Y-47841500D01*
X146618638Y-47841500D01*
X144821362Y-47841500D01*
X144821345Y-47841500D01*
X144760797Y-47848011D01*
X144760795Y-47848011D01*
X144623795Y-47899111D01*
X144506739Y-47986739D01*
X144419111Y-48103795D01*
X144368011Y-48240795D01*
X144368011Y-48240797D01*
X144361500Y-48301345D01*
X142675212Y-48301345D01*
X142579243Y-48197097D01*
X142579238Y-48197092D01*
X142401577Y-48058812D01*
X142401572Y-48058808D01*
X142203580Y-47951661D01*
X142203577Y-47951659D01*
X142203574Y-47951658D01*
X142203571Y-47951657D01*
X142203569Y-47951656D01*
X141990637Y-47878556D01*
X141768569Y-47841500D01*
X141543431Y-47841500D01*
X141321362Y-47878556D01*
X141108430Y-47951656D01*
X141108419Y-47951661D01*
X140910427Y-48058808D01*
X140910422Y-48058812D01*
X140732761Y-48197092D01*
X140732756Y-48197097D01*
X140580284Y-48362723D01*
X140580276Y-48362734D01*
X140489808Y-48501206D01*
X140436662Y-48546562D01*
X140367431Y-48555986D01*
X140304095Y-48526484D01*
X140282192Y-48501206D01*
X140191723Y-48362734D01*
X140191715Y-48362723D01*
X140039243Y-48197097D01*
X140039238Y-48197092D01*
X139861577Y-48058812D01*
X139861572Y-48058808D01*
X139663580Y-47951661D01*
X139663577Y-47951659D01*
X139663574Y-47951658D01*
X139663571Y-47951657D01*
X139663569Y-47951656D01*
X139450637Y-47878556D01*
X139228569Y-47841500D01*
X139003431Y-47841500D01*
X138781362Y-47878556D01*
X138568430Y-47951656D01*
X138568419Y-47951661D01*
X138370427Y-48058808D01*
X138370422Y-48058812D01*
X138192761Y-48197092D01*
X138192756Y-48197097D01*
X138040284Y-48362723D01*
X138040276Y-48362734D01*
X137949808Y-48501206D01*
X137896662Y-48546562D01*
X137827431Y-48555986D01*
X137764095Y-48526484D01*
X137742192Y-48501206D01*
X137651723Y-48362734D01*
X137651715Y-48362723D01*
X137499243Y-48197097D01*
X137499238Y-48197092D01*
X137321577Y-48058812D01*
X137321572Y-48058808D01*
X137123580Y-47951661D01*
X137123577Y-47951659D01*
X137123574Y-47951658D01*
X137123571Y-47951657D01*
X137123569Y-47951656D01*
X136910637Y-47878556D01*
X136688569Y-47841500D01*
X136463431Y-47841500D01*
X136241362Y-47878556D01*
X136028430Y-47951656D01*
X136028419Y-47951661D01*
X135830427Y-48058808D01*
X135830422Y-48058812D01*
X135652761Y-48197092D01*
X135652756Y-48197097D01*
X135500284Y-48362723D01*
X135500276Y-48362734D01*
X135409808Y-48501206D01*
X135356662Y-48546562D01*
X135287431Y-48555986D01*
X135224095Y-48526484D01*
X135202192Y-48501206D01*
X135111723Y-48362734D01*
X135111715Y-48362723D01*
X134959243Y-48197097D01*
X134959238Y-48197092D01*
X134781577Y-48058812D01*
X134781572Y-48058808D01*
X134583580Y-47951661D01*
X134583577Y-47951659D01*
X134583574Y-47951658D01*
X134583571Y-47951657D01*
X134583569Y-47951656D01*
X134370637Y-47878556D01*
X134148569Y-47841500D01*
X133923431Y-47841500D01*
X133701362Y-47878556D01*
X133488430Y-47951656D01*
X133488419Y-47951661D01*
X133290427Y-48058808D01*
X133290422Y-48058812D01*
X133112761Y-48197092D01*
X133112756Y-48197097D01*
X132960284Y-48362723D01*
X132960276Y-48362734D01*
X132869808Y-48501206D01*
X132816662Y-48546562D01*
X132747431Y-48555986D01*
X132684095Y-48526484D01*
X132662192Y-48501206D01*
X132571723Y-48362734D01*
X132571715Y-48362723D01*
X132419243Y-48197097D01*
X132419238Y-48197092D01*
X132241577Y-48058812D01*
X132241572Y-48058808D01*
X132043580Y-47951661D01*
X132043577Y-47951659D01*
X132043574Y-47951658D01*
X132043571Y-47951657D01*
X132043569Y-47951656D01*
X131830637Y-47878556D01*
X131608569Y-47841500D01*
X131383431Y-47841500D01*
X131161362Y-47878556D01*
X130948430Y-47951656D01*
X130948419Y-47951661D01*
X130750427Y-48058808D01*
X130750422Y-48058812D01*
X130572761Y-48197092D01*
X130572756Y-48197097D01*
X130420284Y-48362723D01*
X130420276Y-48362734D01*
X130329808Y-48501206D01*
X130276662Y-48546562D01*
X130207431Y-48555986D01*
X130144095Y-48526484D01*
X130122192Y-48501206D01*
X130031723Y-48362734D01*
X130031715Y-48362723D01*
X129879243Y-48197097D01*
X129879238Y-48197092D01*
X129701577Y-48058812D01*
X129701572Y-48058808D01*
X129503580Y-47951661D01*
X129503577Y-47951659D01*
X129503574Y-47951658D01*
X129503571Y-47951657D01*
X129503569Y-47951656D01*
X129290637Y-47878556D01*
X129068569Y-47841500D01*
X128843431Y-47841500D01*
X128621362Y-47878556D01*
X128408430Y-47951656D01*
X128408419Y-47951661D01*
X128210427Y-48058808D01*
X128210422Y-48058812D01*
X128032761Y-48197092D01*
X128032756Y-48197097D01*
X127880284Y-48362723D01*
X127880276Y-48362734D01*
X127786251Y-48506650D01*
X127733105Y-48552007D01*
X127663873Y-48561430D01*
X127600538Y-48531928D01*
X127580868Y-48509951D01*
X127454113Y-48328926D01*
X127454108Y-48328920D01*
X127287082Y-48161894D01*
X127093578Y-48026399D01*
X126879492Y-47926570D01*
X126879486Y-47926567D01*
X126666000Y-47869364D01*
X126666000Y-48766988D01*
X126608993Y-48734075D01*
X126481826Y-48700000D01*
X126350174Y-48700000D01*
X126223007Y-48734075D01*
X126166000Y-48766988D01*
X126166000Y-47869364D01*
X126165999Y-47869364D01*
X125952513Y-47926567D01*
X125952507Y-47926570D01*
X125738422Y-48026399D01*
X125738420Y-48026400D01*
X125544926Y-48161886D01*
X125544920Y-48161891D01*
X125377891Y-48328920D01*
X125377890Y-48328922D01*
X125251131Y-48509952D01*
X125196554Y-48553577D01*
X125127055Y-48560769D01*
X125064701Y-48529247D01*
X125045752Y-48506656D01*
X124951722Y-48362732D01*
X124951715Y-48362725D01*
X124951715Y-48362723D01*
X124799243Y-48197097D01*
X124799238Y-48197092D01*
X124621577Y-48058812D01*
X124621572Y-48058808D01*
X124423580Y-47951661D01*
X124423577Y-47951659D01*
X124423574Y-47951658D01*
X124423571Y-47951657D01*
X124423569Y-47951656D01*
X124210637Y-47878556D01*
X123988569Y-47841500D01*
X123763431Y-47841500D01*
X123541362Y-47878556D01*
X123328430Y-47951656D01*
X123328419Y-47951661D01*
X123130427Y-48058808D01*
X123130422Y-48058812D01*
X122952761Y-48197092D01*
X122952756Y-48197097D01*
X122800284Y-48362723D01*
X122800276Y-48362734D01*
X122709808Y-48501206D01*
X122656662Y-48546562D01*
X122587431Y-48555986D01*
X122524095Y-48526484D01*
X122502192Y-48501206D01*
X122411723Y-48362734D01*
X122411715Y-48362723D01*
X122259243Y-48197097D01*
X122259238Y-48197092D01*
X122081577Y-48058812D01*
X122081572Y-48058808D01*
X121883580Y-47951661D01*
X121883577Y-47951659D01*
X121883574Y-47951658D01*
X121883571Y-47951657D01*
X121883569Y-47951656D01*
X121670637Y-47878556D01*
X121448569Y-47841500D01*
X121223431Y-47841500D01*
X121001362Y-47878556D01*
X120788430Y-47951656D01*
X120788419Y-47951661D01*
X120590427Y-48058808D01*
X120590422Y-48058812D01*
X120412761Y-48197092D01*
X120349548Y-48265760D01*
X120289661Y-48301750D01*
X120219823Y-48299649D01*
X120162207Y-48260124D01*
X120142138Y-48225110D01*
X120096889Y-48103796D01*
X120063214Y-48058812D01*
X120009261Y-47986739D01*
X119892204Y-47899111D01*
X119755203Y-47848011D01*
X119694654Y-47841500D01*
X119694638Y-47841500D01*
X117897362Y-47841500D01*
X117897345Y-47841500D01*
X117836797Y-47848011D01*
X117836795Y-47848011D01*
X117699795Y-47899111D01*
X117582739Y-47986739D01*
X117495111Y-48103795D01*
X117444011Y-48240795D01*
X117444011Y-48240797D01*
X117437500Y-48301345D01*
X117437500Y-50098654D01*
X117444011Y-50159202D01*
X117444011Y-50159204D01*
X117495111Y-50296204D01*
X117582739Y-50413261D01*
X117699796Y-50500889D01*
X117836799Y-50551989D01*
X117864050Y-50554918D01*
X117897345Y-50558499D01*
X117897362Y-50558500D01*
X119207234Y-50558500D01*
X119274273Y-50578185D01*
X119294915Y-50594819D01*
X120592163Y-51892068D01*
X120592167Y-51892071D01*
X120695918Y-51961396D01*
X120695924Y-51961399D01*
X120695925Y-51961400D01*
X120811215Y-52009155D01*
X120933601Y-52033499D01*
X120933605Y-52033500D01*
X120933606Y-52033500D01*
X121058394Y-52033500D01*
X122249838Y-52033500D01*
X122316877Y-52053185D01*
X122337519Y-52069819D01*
X125780181Y-55512481D01*
X125813666Y-55573804D01*
X125816500Y-55600162D01*
X125816500Y-57463166D01*
X125796815Y-57530205D01*
X125744011Y-57575960D01*
X125674853Y-57585904D01*
X125662914Y-57582986D01*
X125662836Y-57583332D01*
X125656045Y-57581782D01*
X125475004Y-57561384D01*
X125474996Y-57561384D01*
X125287033Y-57582562D01*
X125286736Y-57579932D01*
X125229071Y-57576393D01*
X125205258Y-57564774D01*
X125201926Y-57562680D01*
X125132335Y-57518953D01*
X125047661Y-57465748D01*
X124875686Y-57405572D01*
X124817678Y-57399036D01*
X124753264Y-57371969D01*
X124726569Y-57341788D01*
X124700312Y-57300000D01*
X124666334Y-57245924D01*
X124537504Y-57117094D01*
X124499504Y-57093217D01*
X124383239Y-57020162D01*
X124306233Y-56993217D01*
X124223549Y-56964284D01*
X124166775Y-56923564D01*
X124147463Y-56888196D01*
X124133044Y-56846987D01*
X124133043Y-56846984D01*
X124056987Y-56725943D01*
X124037987Y-56658707D01*
X124044940Y-56619016D01*
X124093215Y-56481054D01*
X124093218Y-56481041D01*
X124113616Y-56300003D01*
X124113616Y-56299996D01*
X124093218Y-56118958D01*
X124093217Y-56118953D01*
X124033043Y-55946985D01*
X123936111Y-55792719D01*
X123807281Y-55663889D01*
X123753635Y-55630181D01*
X123653017Y-55566958D01*
X123653016Y-55566957D01*
X123653015Y-55566957D01*
X123598693Y-55547949D01*
X123481046Y-55506782D01*
X123481041Y-55506781D01*
X123300004Y-55486384D01*
X123299996Y-55486384D01*
X123118958Y-55506781D01*
X123118953Y-55506782D01*
X122946982Y-55566958D01*
X122792718Y-55663889D01*
X122663889Y-55792718D01*
X122566957Y-55946983D01*
X122506783Y-56118953D01*
X122501690Y-56164149D01*
X122474622Y-56228562D01*
X122466152Y-56237943D01*
X122296167Y-56407929D01*
X122257111Y-56446985D01*
X122207927Y-56496168D01*
X122138603Y-56599918D01*
X122138598Y-56599927D01*
X122090845Y-56715214D01*
X122090843Y-56715222D01*
X122066500Y-56837601D01*
X122066500Y-61862398D01*
X122090843Y-61984777D01*
X122090845Y-61984785D01*
X122138598Y-62100072D01*
X122138603Y-62100081D01*
X122207928Y-62203832D01*
X122207931Y-62203836D01*
X123080181Y-63076085D01*
X123113666Y-63137408D01*
X123116500Y-63163766D01*
X123116500Y-63515099D01*
X123096815Y-63582138D01*
X123044011Y-63627893D01*
X122992500Y-63639099D01*
X121351347Y-63639099D01*
X121290799Y-63645610D01*
X121290797Y-63645610D01*
X121153797Y-63696710D01*
X121036741Y-63784338D01*
X120949113Y-63901394D01*
X120898013Y-64038394D01*
X120898013Y-64038396D01*
X120896146Y-64055759D01*
X120869406Y-64120310D01*
X120812013Y-64160156D01*
X120772857Y-64166501D01*
X119713768Y-64166501D01*
X119646729Y-64146816D01*
X119626087Y-64130182D01*
X119169819Y-63673914D01*
X119136334Y-63612591D01*
X119133500Y-63586233D01*
X119133500Y-61613837D01*
X119153185Y-61546798D01*
X119191526Y-61508844D01*
X119307281Y-61436111D01*
X119436111Y-61307281D01*
X119533043Y-61153015D01*
X119593217Y-60981047D01*
X119598424Y-60934832D01*
X119613616Y-60800003D01*
X119613616Y-60799996D01*
X119593218Y-60618958D01*
X119593217Y-60618953D01*
X119570167Y-60553080D01*
X119533043Y-60446985D01*
X119436111Y-60292719D01*
X119307281Y-60163889D01*
X119263784Y-60136558D01*
X119153017Y-60066958D01*
X119153016Y-60066957D01*
X119153015Y-60066957D01*
X119066877Y-60036816D01*
X118981046Y-60006782D01*
X118981041Y-60006781D01*
X118800004Y-59986384D01*
X118799996Y-59986384D01*
X118618958Y-60006781D01*
X118618953Y-60006782D01*
X118446982Y-60066958D01*
X118292718Y-60163889D01*
X118163889Y-60292718D01*
X118066958Y-60446982D01*
X118006781Y-60618956D01*
X117999460Y-60683941D01*
X117979342Y-60738949D01*
X117938603Y-60799918D01*
X117938598Y-60799927D01*
X117890845Y-60915214D01*
X117890843Y-60915222D01*
X117866500Y-61037601D01*
X117866500Y-63962398D01*
X117890843Y-64084777D01*
X117890845Y-64084785D01*
X117938598Y-64200072D01*
X117938603Y-64200081D01*
X118007928Y-64303832D01*
X118007931Y-64303836D01*
X118158914Y-64454819D01*
X118192399Y-64516142D01*
X118187415Y-64585834D01*
X118145543Y-64641767D01*
X118080079Y-64666184D01*
X118071233Y-64666500D01*
X116818767Y-64666500D01*
X116696388Y-64690843D01*
X116696381Y-64690845D01*
X116677649Y-64698604D01*
X116581094Y-64738597D01*
X116581085Y-64738602D01*
X116477332Y-64807927D01*
X116477329Y-64807930D01*
X116119581Y-65165679D01*
X116058258Y-65199164D01*
X115988566Y-65194180D01*
X115932633Y-65152308D01*
X115908216Y-65086844D01*
X115907900Y-65077998D01*
X115907900Y-64848963D01*
X115904061Y-64813251D01*
X115904061Y-64786745D01*
X115907900Y-64751037D01*
X115907900Y-64348961D01*
X115904061Y-64313251D01*
X115904061Y-64286744D01*
X115906518Y-64263889D01*
X115907900Y-64251037D01*
X115907900Y-64170900D01*
X115927585Y-64103861D01*
X115980389Y-64058106D01*
X116031900Y-64046900D01*
X116819130Y-64046900D01*
X116819146Y-64046899D01*
X116878674Y-64040498D01*
X116878681Y-64040496D01*
X117013388Y-63990254D01*
X117013395Y-63990250D01*
X117128489Y-63904090D01*
X117128492Y-63904087D01*
X117214652Y-63788993D01*
X117214656Y-63788986D01*
X117264898Y-63654279D01*
X117264900Y-63654272D01*
X117271301Y-63594744D01*
X117271302Y-63594727D01*
X117271302Y-63200000D01*
X113528102Y-63200000D01*
X113528102Y-63441612D01*
X113508417Y-63508651D01*
X113491783Y-63529293D01*
X113486738Y-63534337D01*
X113399112Y-63651392D01*
X113399111Y-63651392D01*
X113348011Y-63788394D01*
X113348011Y-63788396D01*
X113341500Y-63848944D01*
X113341500Y-64251043D01*
X113345338Y-64286747D01*
X113345338Y-64313251D01*
X113341500Y-64348954D01*
X113341500Y-64751045D01*
X113345338Y-64786749D01*
X113345338Y-64813251D01*
X113341500Y-64848954D01*
X113341500Y-65251045D01*
X113345338Y-65286748D01*
X113345338Y-65313252D01*
X113341500Y-65348955D01*
X113341500Y-65751044D01*
X113344532Y-65779248D01*
X113332125Y-65848007D01*
X113284513Y-65899143D01*
X113221242Y-65916500D01*
X111687601Y-65916500D01*
X111565222Y-65940843D01*
X111565214Y-65940845D01*
X111449927Y-65988598D01*
X111449918Y-65988603D01*
X111346167Y-66057928D01*
X111346163Y-66057931D01*
X110632114Y-66771982D01*
X110396167Y-67007929D01*
X110370511Y-67033585D01*
X110307927Y-67096168D01*
X110238603Y-67199918D01*
X110238598Y-67199927D01*
X110190845Y-67315214D01*
X110190843Y-67315222D01*
X110166500Y-67437601D01*
X110166500Y-69162398D01*
X110190843Y-69284777D01*
X110190845Y-69284785D01*
X110238598Y-69400072D01*
X110238603Y-69400081D01*
X110307928Y-69503832D01*
X110307931Y-69503836D01*
X110908915Y-70104819D01*
X110942400Y-70166142D01*
X110937416Y-70235833D01*
X110895545Y-70291767D01*
X110830080Y-70316184D01*
X110821234Y-70316500D01*
X110367727Y-70316500D01*
X110296354Y-70322985D01*
X110296344Y-70322988D01*
X110132090Y-70374171D01*
X110132087Y-70374173D01*
X110008940Y-70448617D01*
X109944793Y-70466500D01*
X105500290Y-70466500D01*
X105427024Y-70481074D01*
X105353759Y-70495646D01*
X105353754Y-70495648D01*
X105308982Y-70514194D01*
X105215718Y-70552824D01*
X105215709Y-70552829D01*
X105131415Y-70609154D01*
X105131414Y-70609155D01*
X105091485Y-70635833D01*
X105087563Y-70639755D01*
X105052302Y-70661962D01*
X105053254Y-70663938D01*
X105046986Y-70666955D01*
X104892718Y-70763889D01*
X104763889Y-70892718D01*
X104666958Y-71046982D01*
X104606782Y-71218953D01*
X104606781Y-71218958D01*
X104586384Y-71399996D01*
X104586384Y-71400003D01*
X104606781Y-71581041D01*
X104606782Y-71581046D01*
X104666958Y-71753018D01*
X104697439Y-71801527D01*
X104716440Y-71868764D01*
X104696073Y-71935599D01*
X104642805Y-71980814D01*
X104592446Y-71991500D01*
X103803754Y-71991500D01*
X103736715Y-71971815D01*
X103704487Y-71941811D01*
X103699837Y-71935599D01*
X103663261Y-71886739D01*
X103546204Y-71799111D01*
X103409203Y-71748011D01*
X103348654Y-71741500D01*
X103348638Y-71741500D01*
X102251362Y-71741500D01*
X102251345Y-71741500D01*
X102190797Y-71748011D01*
X102190795Y-71748011D01*
X102053795Y-71799111D01*
X101936739Y-71886739D01*
X101849111Y-72003795D01*
X101798011Y-72140795D01*
X101798011Y-72140797D01*
X101791500Y-72201345D01*
X100075500Y-72201345D01*
X100075500Y-69297844D01*
X101800000Y-69297844D01*
X101806401Y-69357372D01*
X101806403Y-69357379D01*
X101856645Y-69492086D01*
X101856649Y-69492093D01*
X101942809Y-69607187D01*
X101942812Y-69607190D01*
X102057906Y-69693350D01*
X102057913Y-69693354D01*
X102192620Y-69743596D01*
X102192627Y-69743598D01*
X102252155Y-69749999D01*
X102252172Y-69750000D01*
X102550000Y-69750000D01*
X103050000Y-69750000D01*
X103347828Y-69750000D01*
X103347844Y-69749999D01*
X103407372Y-69743598D01*
X103407379Y-69743596D01*
X103542086Y-69693354D01*
X103542093Y-69693350D01*
X103657187Y-69607190D01*
X103657190Y-69607187D01*
X103743350Y-69492093D01*
X103743354Y-69492086D01*
X103793596Y-69357379D01*
X103793598Y-69357372D01*
X103799999Y-69297844D01*
X107800000Y-69297844D01*
X107806401Y-69357372D01*
X107806403Y-69357379D01*
X107856645Y-69492086D01*
X107856649Y-69492093D01*
X107942809Y-69607187D01*
X107942812Y-69607190D01*
X108057906Y-69693350D01*
X108057913Y-69693354D01*
X108192620Y-69743596D01*
X108192627Y-69743598D01*
X108252155Y-69749999D01*
X108252172Y-69750000D01*
X108550000Y-69750000D01*
X109050000Y-69750000D01*
X109347828Y-69750000D01*
X109347844Y-69749999D01*
X109407372Y-69743598D01*
X109407379Y-69743596D01*
X109542086Y-69693354D01*
X109542093Y-69693350D01*
X109657187Y-69607190D01*
X109657190Y-69607187D01*
X109743350Y-69492093D01*
X109743354Y-69492086D01*
X109793596Y-69357379D01*
X109793598Y-69357372D01*
X109799999Y-69297844D01*
X109800000Y-69297827D01*
X109800000Y-69125000D01*
X109050000Y-69125000D01*
X109050000Y-69750000D01*
X108550000Y-69750000D01*
X108550000Y-69125000D01*
X107800000Y-69125000D01*
X107800000Y-69297844D01*
X103799999Y-69297844D01*
X103800000Y-69297827D01*
X103800000Y-69125000D01*
X103050000Y-69125000D01*
X103050000Y-69750000D01*
X102550000Y-69750000D01*
X102550000Y-69125000D01*
X101800000Y-69125000D01*
X101800000Y-69297844D01*
X100075500Y-69297844D01*
X100075500Y-68452155D01*
X101800000Y-68452155D01*
X101800000Y-68625000D01*
X102550000Y-68625000D01*
X103050000Y-68625000D01*
X103800000Y-68625000D01*
X103800000Y-68452172D01*
X103799999Y-68452155D01*
X107800000Y-68452155D01*
X107800000Y-68625000D01*
X108550000Y-68625000D01*
X109050000Y-68625000D01*
X109800000Y-68625000D01*
X109800000Y-68452172D01*
X109799999Y-68452155D01*
X109793598Y-68392627D01*
X109793596Y-68392620D01*
X109743354Y-68257913D01*
X109743350Y-68257906D01*
X109657190Y-68142812D01*
X109657187Y-68142809D01*
X109542093Y-68056649D01*
X109542086Y-68056645D01*
X109407379Y-68006403D01*
X109407372Y-68006401D01*
X109347844Y-68000000D01*
X109050000Y-68000000D01*
X109050000Y-68625000D01*
X108550000Y-68625000D01*
X108550000Y-68000000D01*
X108252155Y-68000000D01*
X108192627Y-68006401D01*
X108192620Y-68006403D01*
X108057913Y-68056645D01*
X108057906Y-68056649D01*
X107942812Y-68142809D01*
X107942809Y-68142812D01*
X107856649Y-68257906D01*
X107856645Y-68257913D01*
X107806403Y-68392620D01*
X107806401Y-68392627D01*
X107800000Y-68452155D01*
X103799999Y-68452155D01*
X103793598Y-68392627D01*
X103793596Y-68392620D01*
X103743354Y-68257913D01*
X103743350Y-68257906D01*
X103657190Y-68142812D01*
X103657187Y-68142809D01*
X103542093Y-68056649D01*
X103542086Y-68056645D01*
X103407379Y-68006403D01*
X103407372Y-68006401D01*
X103347844Y-68000000D01*
X103050000Y-68000000D01*
X103050000Y-68625000D01*
X102550000Y-68625000D01*
X102550000Y-68000000D01*
X102252155Y-68000000D01*
X102192627Y-68006401D01*
X102192620Y-68006403D01*
X102057913Y-68056645D01*
X102057906Y-68056649D01*
X101942812Y-68142809D01*
X101942809Y-68142812D01*
X101856649Y-68257906D01*
X101856645Y-68257913D01*
X101806403Y-68392620D01*
X101806401Y-68392627D01*
X101800000Y-68452155D01*
X100075500Y-68452155D01*
X100075500Y-65859999D01*
X102031115Y-65859999D01*
X102031116Y-65860000D01*
X102783012Y-65860000D01*
X102765795Y-65869940D01*
X102709940Y-65925795D01*
X102670444Y-65994204D01*
X102650000Y-66070504D01*
X102650000Y-66149496D01*
X102670444Y-66225796D01*
X102709940Y-66294205D01*
X102765795Y-66350060D01*
X102783012Y-66360000D01*
X102031116Y-66360000D01*
X102036506Y-66387100D01*
X102036507Y-66387103D01*
X102108119Y-66559991D01*
X102108124Y-66560000D01*
X102212086Y-66715589D01*
X102212089Y-66715593D01*
X102344406Y-66847910D01*
X102344410Y-66847913D01*
X102499999Y-66951875D01*
X102500008Y-66951880D01*
X102672894Y-67023491D01*
X102672902Y-67023493D01*
X102856428Y-67059999D01*
X102856431Y-67060000D01*
X102950000Y-67060000D01*
X102950000Y-66410000D01*
X103450000Y-66410000D01*
X103450000Y-67060000D01*
X103543569Y-67060000D01*
X103543571Y-67059999D01*
X103727097Y-67023493D01*
X103727105Y-67023491D01*
X103899991Y-66951880D01*
X103900000Y-66951875D01*
X104055589Y-66847913D01*
X104055593Y-66847910D01*
X104187910Y-66715593D01*
X104187913Y-66715589D01*
X104291875Y-66560000D01*
X104291880Y-66559991D01*
X104363492Y-66387103D01*
X104363493Y-66387100D01*
X104368884Y-66360000D01*
X103616988Y-66360000D01*
X103634205Y-66350060D01*
X103690060Y-66294205D01*
X103729556Y-66225796D01*
X103750000Y-66149496D01*
X103750000Y-66070504D01*
X103729556Y-65994204D01*
X103690060Y-65925795D01*
X103634205Y-65869940D01*
X103616988Y-65860000D01*
X104368884Y-65860000D01*
X104368884Y-65859999D01*
X104363493Y-65832899D01*
X104363492Y-65832896D01*
X104291880Y-65660008D01*
X104291875Y-65659999D01*
X104187913Y-65504410D01*
X104187910Y-65504406D01*
X104055593Y-65372089D01*
X104055589Y-65372086D01*
X103900000Y-65268124D01*
X103899991Y-65268119D01*
X103727105Y-65196508D01*
X103727097Y-65196506D01*
X103543570Y-65160000D01*
X103450000Y-65160000D01*
X103450000Y-65810000D01*
X102950000Y-65810000D01*
X102950000Y-65160000D01*
X102856430Y-65160000D01*
X102672902Y-65196506D01*
X102672894Y-65196508D01*
X102500008Y-65268119D01*
X102499999Y-65268124D01*
X102344410Y-65372086D01*
X102344406Y-65372089D01*
X102212089Y-65504406D01*
X102212086Y-65504410D01*
X102108124Y-65659999D01*
X102108119Y-65660008D01*
X102036507Y-65832896D01*
X102036506Y-65832899D01*
X102031115Y-65859999D01*
X100075500Y-65859999D01*
X100075500Y-63499996D01*
X104886384Y-63499996D01*
X104886384Y-63500003D01*
X104906781Y-63681041D01*
X104906782Y-63681046D01*
X104942926Y-63784338D01*
X104965538Y-63848961D01*
X104966958Y-63853017D01*
X105035687Y-63962398D01*
X105063889Y-64007281D01*
X105192719Y-64136111D01*
X105346985Y-64233043D01*
X105500454Y-64286744D01*
X105518953Y-64293217D01*
X105518958Y-64293218D01*
X105699996Y-64313616D01*
X105700000Y-64313616D01*
X105700002Y-64313616D01*
X105753616Y-64307575D01*
X105822438Y-64319629D01*
X105873817Y-64366978D01*
X105891500Y-64430795D01*
X105891500Y-64538654D01*
X105898840Y-64606912D01*
X105898249Y-64606975D01*
X105900285Y-64639509D01*
X105900000Y-64642156D01*
X105900000Y-64740000D01*
X105904205Y-64744205D01*
X105956922Y-64759685D01*
X105989148Y-64789687D01*
X106036739Y-64853261D01*
X106153796Y-64940889D01*
X106290799Y-64991989D01*
X106296029Y-64992551D01*
X106297513Y-64992711D01*
X106362064Y-65019449D01*
X106401912Y-65076842D01*
X106404405Y-65146667D01*
X106368752Y-65206756D01*
X106306272Y-65238030D01*
X106284257Y-65240000D01*
X105937453Y-65240000D01*
X105870414Y-65220315D01*
X105868562Y-65219102D01*
X105856999Y-65211376D01*
X105720008Y-65268119D01*
X105719999Y-65268124D01*
X105564410Y-65372086D01*
X105564406Y-65372089D01*
X105432089Y-65504406D01*
X105432086Y-65504410D01*
X105328124Y-65659999D01*
X105328119Y-65660008D01*
X105256507Y-65832896D01*
X105256506Y-65832899D01*
X105251115Y-65859999D01*
X105251116Y-65860000D01*
X106003012Y-65860000D01*
X105985795Y-65869940D01*
X105929940Y-65925795D01*
X105890444Y-65994204D01*
X105870000Y-66070504D01*
X105870000Y-66149496D01*
X105890444Y-66225796D01*
X105929940Y-66294205D01*
X105985795Y-66350060D01*
X106003012Y-66360000D01*
X105251116Y-66360000D01*
X105256506Y-66387100D01*
X105256507Y-66387103D01*
X105328119Y-66559991D01*
X105328124Y-66560000D01*
X105432086Y-66715589D01*
X105432089Y-66715593D01*
X105564406Y-66847910D01*
X105564410Y-66847913D01*
X105719999Y-66951875D01*
X105720008Y-66951880D01*
X105892894Y-67023491D01*
X105892902Y-67023493D01*
X106076428Y-67059999D01*
X106076431Y-67060000D01*
X106170000Y-67060000D01*
X106170000Y-66410000D01*
X106670000Y-66410000D01*
X106670000Y-67060000D01*
X106763569Y-67060000D01*
X106763571Y-67059999D01*
X106947097Y-67023493D01*
X106947105Y-67023491D01*
X107119991Y-66951880D01*
X107120000Y-66951875D01*
X107275589Y-66847913D01*
X107275593Y-66847910D01*
X107407910Y-66715593D01*
X107407913Y-66715589D01*
X107511875Y-66560000D01*
X107511880Y-66559991D01*
X107583492Y-66387103D01*
X107583493Y-66387100D01*
X107588884Y-66360000D01*
X106836988Y-66360000D01*
X106854205Y-66350060D01*
X106910060Y-66294205D01*
X106949556Y-66225796D01*
X106970000Y-66149496D01*
X106970000Y-66070504D01*
X106949556Y-65994204D01*
X106910060Y-65925795D01*
X106854205Y-65869940D01*
X106836988Y-65860000D01*
X107588883Y-65860000D01*
X107610141Y-65834097D01*
X107667886Y-65794762D01*
X107692740Y-65789471D01*
X107747380Y-65783596D01*
X107882086Y-65733354D01*
X107882093Y-65733350D01*
X107997187Y-65647190D01*
X107997190Y-65647187D01*
X108083350Y-65532093D01*
X108083354Y-65532086D01*
X108133596Y-65397379D01*
X108133598Y-65397372D01*
X108139999Y-65337844D01*
X108140000Y-65337827D01*
X108140000Y-65240000D01*
X107755743Y-65240000D01*
X107688704Y-65220315D01*
X107642949Y-65167511D01*
X107633005Y-65098353D01*
X107662030Y-65034797D01*
X107720808Y-64997023D01*
X107742487Y-64992711D01*
X107743676Y-64992582D01*
X107749201Y-64991989D01*
X107886204Y-64940889D01*
X108003261Y-64853261D01*
X108003261Y-64853259D01*
X108009977Y-64848233D01*
X108075442Y-64823816D01*
X108084288Y-64823500D01*
X109936925Y-64823500D01*
X110002896Y-64842505D01*
X110146985Y-64933043D01*
X110315441Y-64991988D01*
X110318953Y-64993217D01*
X110318958Y-64993218D01*
X110499996Y-65013616D01*
X110500000Y-65013616D01*
X110500004Y-65013616D01*
X110681041Y-64993218D01*
X110681044Y-64993217D01*
X110681047Y-64993217D01*
X110853015Y-64933043D01*
X111007281Y-64836111D01*
X111136111Y-64707281D01*
X111233043Y-64553015D01*
X111293217Y-64381047D01*
X111293218Y-64381041D01*
X111313616Y-64200003D01*
X111313616Y-64199996D01*
X111293218Y-64018958D01*
X111293217Y-64018953D01*
X111283173Y-63990250D01*
X111233043Y-63846985D01*
X111136111Y-63692719D01*
X111007281Y-63563889D01*
X110960251Y-63534338D01*
X110853016Y-63466957D01*
X110807355Y-63450980D01*
X110750579Y-63410258D01*
X110724831Y-63345305D01*
X110725089Y-63320054D01*
X110725213Y-63318958D01*
X110738616Y-63200000D01*
X110734533Y-63163766D01*
X110718218Y-63018958D01*
X110718217Y-63018953D01*
X110709037Y-62992718D01*
X110658043Y-62846985D01*
X110561111Y-62692719D01*
X110432281Y-62563889D01*
X110432279Y-62563887D01*
X110432277Y-62563886D01*
X110391528Y-62538281D01*
X110345238Y-62485946D01*
X110333501Y-62433288D01*
X110333501Y-62305255D01*
X113528102Y-62305255D01*
X113528102Y-62700000D01*
X115149702Y-62700000D01*
X115649702Y-62700000D01*
X117271302Y-62700000D01*
X117271302Y-62305272D01*
X117271301Y-62305255D01*
X117264900Y-62245727D01*
X117264898Y-62245720D01*
X117214656Y-62111013D01*
X117214652Y-62111006D01*
X117128492Y-61995912D01*
X117128489Y-61995909D01*
X117013395Y-61909749D01*
X117013388Y-61909745D01*
X116878681Y-61859503D01*
X116878674Y-61859501D01*
X116819146Y-61853100D01*
X115649702Y-61853100D01*
X115649702Y-62700000D01*
X115149702Y-62700000D01*
X115149702Y-61853100D01*
X113980257Y-61853100D01*
X113920729Y-61859501D01*
X113920722Y-61859503D01*
X113786015Y-61909745D01*
X113786008Y-61909749D01*
X113670914Y-61995909D01*
X113670911Y-61995912D01*
X113584751Y-62111006D01*
X113584747Y-62111013D01*
X113534505Y-62245720D01*
X113534503Y-62245727D01*
X113528102Y-62305255D01*
X110333501Y-62305255D01*
X110333501Y-61972686D01*
X110333501Y-61972684D01*
X110306017Y-61870111D01*
X110292033Y-61817922D01*
X110211922Y-61679167D01*
X109598602Y-61065847D01*
X109565117Y-61004524D01*
X109570101Y-60934832D01*
X109611973Y-60878899D01*
X109677437Y-60854482D01*
X109727238Y-60861125D01*
X109818945Y-60893215D01*
X109818951Y-60893216D01*
X109818953Y-60893217D01*
X109818954Y-60893217D01*
X109818958Y-60893218D01*
X109999996Y-60913616D01*
X110000000Y-60913616D01*
X110000004Y-60913616D01*
X110181041Y-60893218D01*
X110181044Y-60893217D01*
X110181047Y-60893217D01*
X110353015Y-60833043D01*
X110507281Y-60736111D01*
X110636111Y-60607281D01*
X110733043Y-60453015D01*
X110793217Y-60281047D01*
X110793218Y-60281042D01*
X110793478Y-60279906D01*
X110793847Y-60279245D01*
X110795517Y-60274474D01*
X110796352Y-60274766D01*
X110827587Y-60218928D01*
X110889249Y-60186070D01*
X110914369Y-60183499D01*
X111157271Y-60183499D01*
X111228644Y-60177014D01*
X111228647Y-60177013D01*
X111228649Y-60177013D01*
X111392913Y-60125827D01*
X111540155Y-60036816D01*
X111643330Y-59933640D01*
X111704651Y-59900156D01*
X111774342Y-59905140D01*
X111818691Y-59933641D01*
X111915122Y-60030072D01*
X112060604Y-60118019D01*
X112060603Y-60118019D01*
X112222894Y-60168590D01*
X112222893Y-60168590D01*
X112293408Y-60174998D01*
X112293426Y-60174999D01*
X112800000Y-60174999D01*
X112806581Y-60174999D01*
X112877102Y-60168591D01*
X112877107Y-60168590D01*
X113039396Y-60118018D01*
X113184877Y-60030072D01*
X113305072Y-59909877D01*
X113393019Y-59764395D01*
X113443590Y-59602106D01*
X113450000Y-59531572D01*
X113450000Y-59450000D01*
X112800000Y-59450000D01*
X112800000Y-60174999D01*
X112293426Y-60174999D01*
X112299999Y-60174998D01*
X112300000Y-60174998D01*
X112300000Y-58950000D01*
X112800000Y-58950000D01*
X113449999Y-58950000D01*
X113449999Y-58868417D01*
X113443591Y-58797897D01*
X113443590Y-58797892D01*
X113393018Y-58635603D01*
X113305072Y-58490122D01*
X113305071Y-58490121D01*
X113252631Y-58437682D01*
X113219145Y-58376359D01*
X113224129Y-58306667D01*
X113252631Y-58262318D01*
X113305072Y-58209877D01*
X113393019Y-58064395D01*
X113443590Y-57902106D01*
X113450000Y-57831572D01*
X113450000Y-57750000D01*
X112800000Y-57750000D01*
X112800000Y-58950000D01*
X112300000Y-58950000D01*
X112300000Y-57250000D01*
X112800000Y-57250000D01*
X113449999Y-57250000D01*
X113449999Y-57168417D01*
X113443591Y-57097897D01*
X113443590Y-57097892D01*
X113393018Y-56935603D01*
X113305072Y-56790122D01*
X113184877Y-56669927D01*
X113039395Y-56581980D01*
X113039396Y-56581980D01*
X112877105Y-56531409D01*
X112877106Y-56531409D01*
X112806572Y-56525000D01*
X112800000Y-56525000D01*
X112800000Y-57250000D01*
X112300000Y-57250000D01*
X112300000Y-56525000D01*
X112299999Y-56524999D01*
X112293436Y-56525000D01*
X112293417Y-56525001D01*
X112222897Y-56531408D01*
X112222892Y-56531409D01*
X112060603Y-56581981D01*
X111915124Y-56669926D01*
X111818691Y-56766359D01*
X111757368Y-56799843D01*
X111687676Y-56794859D01*
X111643330Y-56766359D01*
X111540155Y-56663184D01*
X111392913Y-56574173D01*
X111228649Y-56522987D01*
X111228647Y-56522986D01*
X111228645Y-56522986D01*
X111178667Y-56518444D01*
X111157265Y-56516500D01*
X111157262Y-56516500D01*
X110642727Y-56516500D01*
X110571354Y-56522985D01*
X110571344Y-56522988D01*
X110407090Y-56574171D01*
X110259841Y-56663186D01*
X110138186Y-56784841D01*
X110049173Y-56932086D01*
X110036559Y-56972564D01*
X110011912Y-57051660D01*
X109973176Y-57109807D01*
X109909151Y-57137781D01*
X109852573Y-57131811D01*
X109781046Y-57106782D01*
X109781041Y-57106781D01*
X109600004Y-57086384D01*
X109599996Y-57086384D01*
X109418958Y-57106781D01*
X109418953Y-57106782D01*
X109246982Y-57166958D01*
X109092718Y-57263889D01*
X108963889Y-57392718D01*
X108866957Y-57546983D01*
X108806783Y-57718953D01*
X108801690Y-57764149D01*
X108774622Y-57828562D01*
X108766151Y-57837943D01*
X108344808Y-58259286D01*
X108283485Y-58292771D01*
X108213793Y-58287787D01*
X108157860Y-58245915D01*
X108135881Y-58190049D01*
X108135380Y-58190168D01*
X108134556Y-58186683D01*
X108133837Y-58184854D01*
X108133597Y-58182621D01*
X108133596Y-58182620D01*
X108083354Y-58047913D01*
X108083350Y-58047906D01*
X107997190Y-57932812D01*
X107997187Y-57932809D01*
X107882093Y-57846649D01*
X107882086Y-57846645D01*
X107747379Y-57796403D01*
X107747373Y-57796401D01*
X107692738Y-57790527D01*
X107628187Y-57763788D01*
X107610141Y-57745902D01*
X107588884Y-57720000D01*
X106836988Y-57720000D01*
X106854205Y-57710060D01*
X106910060Y-57654205D01*
X106949556Y-57585796D01*
X106970000Y-57509496D01*
X106970000Y-57430504D01*
X106949556Y-57354204D01*
X106910060Y-57285795D01*
X106854205Y-57229940D01*
X106836988Y-57220000D01*
X107588884Y-57220000D01*
X107588884Y-57219999D01*
X107583493Y-57192899D01*
X107583492Y-57192896D01*
X107511880Y-57020008D01*
X107511875Y-57019999D01*
X107407913Y-56864410D01*
X107407910Y-56864406D01*
X107275593Y-56732089D01*
X107275589Y-56732086D01*
X107120000Y-56628124D01*
X107119991Y-56628119D01*
X106947105Y-56556508D01*
X106947097Y-56556506D01*
X106763570Y-56520000D01*
X106670000Y-56520000D01*
X106670000Y-57170000D01*
X106170000Y-57170000D01*
X106170000Y-56520000D01*
X106076430Y-56520000D01*
X105892902Y-56556506D01*
X105892894Y-56556508D01*
X105720008Y-56628119D01*
X105719999Y-56628124D01*
X105564410Y-56732086D01*
X105564406Y-56732089D01*
X105432089Y-56864406D01*
X105432086Y-56864410D01*
X105328124Y-57019999D01*
X105328119Y-57020008D01*
X105256507Y-57192896D01*
X105256506Y-57192899D01*
X105251115Y-57219999D01*
X105251116Y-57220000D01*
X106003012Y-57220000D01*
X105985795Y-57229940D01*
X105929940Y-57285795D01*
X105890444Y-57354204D01*
X105870000Y-57430504D01*
X105870000Y-57509496D01*
X105890444Y-57585796D01*
X105929940Y-57654205D01*
X105985795Y-57710060D01*
X106003012Y-57720000D01*
X105251116Y-57720000D01*
X105256506Y-57747100D01*
X105256507Y-57747103D01*
X105328119Y-57919991D01*
X105328124Y-57920000D01*
X105432086Y-58075589D01*
X105432089Y-58075593D01*
X105564406Y-58207910D01*
X105564410Y-58207913D01*
X105720002Y-58311877D01*
X105720005Y-58311878D01*
X105856999Y-58368623D01*
X105868561Y-58360898D01*
X105935238Y-58340020D01*
X105937452Y-58340000D01*
X106284257Y-58340000D01*
X106351296Y-58359685D01*
X106397051Y-58412489D01*
X106406995Y-58481647D01*
X106377970Y-58545203D01*
X106319192Y-58582977D01*
X106297513Y-58587289D01*
X106290797Y-58588011D01*
X106290795Y-58588011D01*
X106153795Y-58639111D01*
X106108742Y-58672838D01*
X106036739Y-58726739D01*
X105989148Y-58790311D01*
X105933216Y-58832182D01*
X105902227Y-58837772D01*
X105900000Y-58840000D01*
X105900000Y-58937838D01*
X105900285Y-58940488D01*
X105898249Y-58973024D01*
X105898840Y-58973088D01*
X105891500Y-59041345D01*
X105891500Y-59738644D01*
X105895596Y-59776748D01*
X105895596Y-59803252D01*
X105891500Y-59841355D01*
X105891500Y-60238644D01*
X105895596Y-60276748D01*
X105895596Y-60303252D01*
X105891500Y-60341355D01*
X105891500Y-60415018D01*
X105871815Y-60482057D01*
X105829502Y-60522404D01*
X105776370Y-60553080D01*
X105413080Y-60916370D01*
X105413078Y-60916373D01*
X105332967Y-61055127D01*
X105332967Y-61055128D01*
X105320568Y-61101397D01*
X105320569Y-61101398D01*
X105291500Y-61209887D01*
X105291500Y-61209889D01*
X105291500Y-61870111D01*
X105291500Y-61870112D01*
X105295484Y-61884977D01*
X105295485Y-61884982D01*
X105332968Y-62024874D01*
X105373023Y-62094250D01*
X105413078Y-62163627D01*
X105413080Y-62163629D01*
X105729881Y-62480430D01*
X105763366Y-62541753D01*
X105758382Y-62611445D01*
X105716510Y-62667378D01*
X105656084Y-62691331D01*
X105518957Y-62706781D01*
X105518953Y-62706782D01*
X105346982Y-62766958D01*
X105192718Y-62863889D01*
X105063889Y-62992718D01*
X104966958Y-63146982D01*
X104906782Y-63318953D01*
X104906781Y-63318958D01*
X104886384Y-63499996D01*
X100075500Y-63499996D01*
X100075500Y-57219999D01*
X102031115Y-57219999D01*
X102031116Y-57220000D01*
X102783012Y-57220000D01*
X102765795Y-57229940D01*
X102709940Y-57285795D01*
X102670444Y-57354204D01*
X102650000Y-57430504D01*
X102650000Y-57509496D01*
X102670444Y-57585796D01*
X102709940Y-57654205D01*
X102765795Y-57710060D01*
X102783012Y-57720000D01*
X102031116Y-57720000D01*
X102036506Y-57747100D01*
X102036507Y-57747103D01*
X102108119Y-57919991D01*
X102108124Y-57920000D01*
X102212086Y-58075589D01*
X102212089Y-58075593D01*
X102344406Y-58207910D01*
X102344410Y-58207913D01*
X102499999Y-58311875D01*
X102500008Y-58311880D01*
X102672894Y-58383491D01*
X102672902Y-58383493D01*
X102856428Y-58419999D01*
X102856431Y-58420000D01*
X102950000Y-58420000D01*
X102950000Y-57770000D01*
X103450000Y-57770000D01*
X103450000Y-58420000D01*
X103543569Y-58420000D01*
X103543571Y-58419999D01*
X103727097Y-58383493D01*
X103727105Y-58383491D01*
X103899991Y-58311880D01*
X103900000Y-58311875D01*
X104055589Y-58207913D01*
X104055593Y-58207910D01*
X104187910Y-58075593D01*
X104187913Y-58075589D01*
X104291875Y-57920000D01*
X104291880Y-57919991D01*
X104363492Y-57747103D01*
X104363493Y-57747100D01*
X104368884Y-57720000D01*
X103616988Y-57720000D01*
X103634205Y-57710060D01*
X103690060Y-57654205D01*
X103729556Y-57585796D01*
X103750000Y-57509496D01*
X103750000Y-57430504D01*
X103729556Y-57354204D01*
X103690060Y-57285795D01*
X103634205Y-57229940D01*
X103616988Y-57220000D01*
X104368884Y-57220000D01*
X104368884Y-57219999D01*
X104363493Y-57192899D01*
X104363492Y-57192896D01*
X104291880Y-57020008D01*
X104291875Y-57019999D01*
X104187913Y-56864410D01*
X104187910Y-56864406D01*
X104055593Y-56732089D01*
X104055589Y-56732086D01*
X103900000Y-56628124D01*
X103899991Y-56628119D01*
X103727105Y-56556508D01*
X103727097Y-56556506D01*
X103543570Y-56520000D01*
X103450000Y-56520000D01*
X103450000Y-57170000D01*
X102950000Y-57170000D01*
X102950000Y-56520000D01*
X102856430Y-56520000D01*
X102672902Y-56556506D01*
X102672894Y-56556508D01*
X102500008Y-56628119D01*
X102499999Y-56628124D01*
X102344410Y-56732086D01*
X102344406Y-56732089D01*
X102212089Y-56864406D01*
X102212086Y-56864410D01*
X102108124Y-57019999D01*
X102108119Y-57020008D01*
X102036507Y-57192896D01*
X102036506Y-57192899D01*
X102031115Y-57219999D01*
X100075500Y-57219999D01*
X100075500Y-47501345D01*
X103891500Y-47501345D01*
X103891500Y-49598654D01*
X103898011Y-49659202D01*
X103898011Y-49659204D01*
X103913228Y-49700000D01*
X103949111Y-49796204D01*
X104036739Y-49913261D01*
X104153796Y-50000889D01*
X104266498Y-50042925D01*
X104285463Y-50049999D01*
X104290799Y-50051989D01*
X104318050Y-50054918D01*
X104351345Y-50058499D01*
X104351362Y-50058500D01*
X105448638Y-50058500D01*
X105448654Y-50058499D01*
X105475692Y-50055591D01*
X105509201Y-50051989D01*
X105514537Y-50049999D01*
X105533502Y-50042925D01*
X105646204Y-50000889D01*
X105763261Y-49913261D01*
X105800733Y-49863203D01*
X105856666Y-49821332D01*
X105926358Y-49816348D01*
X105987681Y-49849833D01*
X105999264Y-49863201D01*
X106013212Y-49881833D01*
X106036737Y-49913259D01*
X106036738Y-49913259D01*
X106036739Y-49913261D01*
X106153796Y-50000889D01*
X106153798Y-50000889D01*
X106153800Y-50000891D01*
X106185832Y-50012838D01*
X106241766Y-50054708D01*
X106266184Y-50120172D01*
X106266500Y-50129020D01*
X106266500Y-52152839D01*
X106247494Y-52218811D01*
X106166958Y-52346982D01*
X106106782Y-52518953D01*
X106106781Y-52518958D01*
X106086384Y-52699996D01*
X106086384Y-52700003D01*
X106106781Y-52881041D01*
X106106783Y-52881049D01*
X106146995Y-52995969D01*
X106150556Y-53065748D01*
X106115827Y-53126375D01*
X106104264Y-53136189D01*
X106036741Y-53186737D01*
X106036740Y-53186738D01*
X106036739Y-53186739D01*
X106032193Y-53192812D01*
X105999267Y-53236796D01*
X105943333Y-53278667D01*
X105873641Y-53283651D01*
X105812318Y-53250166D01*
X105800733Y-53236796D01*
X105763261Y-53186739D01*
X105646204Y-53099111D01*
X105595650Y-53080255D01*
X105509203Y-53048011D01*
X105448654Y-53041500D01*
X105448638Y-53041500D01*
X104351362Y-53041500D01*
X104351345Y-53041500D01*
X104290797Y-53048011D01*
X104290795Y-53048011D01*
X104153795Y-53099111D01*
X104036739Y-53186739D01*
X103949111Y-53303795D01*
X103898011Y-53440795D01*
X103898011Y-53440797D01*
X103891500Y-53501345D01*
X103891500Y-55598654D01*
X103898011Y-55659202D01*
X103898011Y-55659204D01*
X103947575Y-55792086D01*
X103949111Y-55796204D01*
X104036739Y-55913261D01*
X104153796Y-56000889D01*
X104268297Y-56043596D01*
X104285463Y-56049999D01*
X104290799Y-56051989D01*
X104318050Y-56054918D01*
X104351345Y-56058499D01*
X104351362Y-56058500D01*
X105448638Y-56058500D01*
X105448654Y-56058499D01*
X105475692Y-56055591D01*
X105509201Y-56051989D01*
X105514537Y-56049999D01*
X105531703Y-56043596D01*
X105646204Y-56000889D01*
X105763261Y-55913261D01*
X105800733Y-55863203D01*
X105856666Y-55821332D01*
X105926358Y-55816348D01*
X105987681Y-55849833D01*
X105999267Y-55863204D01*
X106036737Y-55913259D01*
X106036738Y-55913259D01*
X106036739Y-55913261D01*
X106153796Y-56000889D01*
X106268297Y-56043596D01*
X106285463Y-56049999D01*
X106290799Y-56051989D01*
X106318050Y-56054918D01*
X106351345Y-56058499D01*
X106351362Y-56058500D01*
X107448638Y-56058500D01*
X107448654Y-56058499D01*
X107475692Y-56055591D01*
X107509201Y-56051989D01*
X107514537Y-56049999D01*
X107531703Y-56043596D01*
X107646204Y-56000889D01*
X107763261Y-55913261D01*
X107806042Y-55856112D01*
X107861974Y-55814241D01*
X107931666Y-55809257D01*
X107992989Y-55842741D01*
X108004574Y-55856111D01*
X108042812Y-55907190D01*
X108157906Y-55993350D01*
X108157913Y-55993354D01*
X108292620Y-56043596D01*
X108292627Y-56043598D01*
X108352155Y-56049999D01*
X108352172Y-56050000D01*
X108650000Y-56050000D01*
X109150000Y-56050000D01*
X109447828Y-56050000D01*
X109447844Y-56049999D01*
X109507372Y-56043598D01*
X109507379Y-56043596D01*
X109642086Y-55993354D01*
X109642093Y-55993350D01*
X109757187Y-55907190D01*
X109757190Y-55907187D01*
X109843350Y-55792093D01*
X109843354Y-55792086D01*
X109893596Y-55657379D01*
X109893598Y-55657372D01*
X109899999Y-55597844D01*
X109900000Y-55597827D01*
X109900000Y-54800000D01*
X109150000Y-54800000D01*
X109150000Y-56050000D01*
X108650000Y-56050000D01*
X108650000Y-54300000D01*
X109150000Y-54300000D01*
X109900000Y-54300000D01*
X109900000Y-53502172D01*
X109899999Y-53502155D01*
X109893598Y-53442627D01*
X109893596Y-53442620D01*
X109843354Y-53307913D01*
X109843350Y-53307906D01*
X109757190Y-53192812D01*
X109757187Y-53192809D01*
X109642093Y-53106649D01*
X109642086Y-53106645D01*
X109507379Y-53056403D01*
X109507372Y-53056401D01*
X109447844Y-53050000D01*
X109150000Y-53050000D01*
X109150000Y-54300000D01*
X108650000Y-54300000D01*
X108650000Y-53050000D01*
X108352155Y-53050000D01*
X108292627Y-53056401D01*
X108292620Y-53056403D01*
X108157913Y-53106645D01*
X108157906Y-53106649D01*
X108042812Y-53192809D01*
X108004574Y-53243888D01*
X107948639Y-53285759D01*
X107878948Y-53290742D01*
X107817625Y-53257256D01*
X107806042Y-53243888D01*
X107763261Y-53186739D01*
X107695733Y-53136188D01*
X107653863Y-53080255D01*
X107648879Y-53010563D01*
X107652998Y-52995984D01*
X107693217Y-52881047D01*
X107693218Y-52881041D01*
X107713616Y-52700003D01*
X107713616Y-52699996D01*
X107693218Y-52518958D01*
X107693217Y-52518953D01*
X107633043Y-52346985D01*
X107552506Y-52218811D01*
X107533500Y-52152839D01*
X107533500Y-50129020D01*
X107553185Y-50061981D01*
X107605989Y-50016226D01*
X107614168Y-50012838D01*
X107646199Y-50000891D01*
X107646199Y-50000890D01*
X107646204Y-50000889D01*
X107763261Y-49913261D01*
X107806042Y-49856112D01*
X107861974Y-49814241D01*
X107931666Y-49809257D01*
X107992989Y-49842741D01*
X108004574Y-49856111D01*
X108042812Y-49907190D01*
X108157906Y-49993350D01*
X108157913Y-49993354D01*
X108292620Y-50043596D01*
X108292627Y-50043598D01*
X108352155Y-50049999D01*
X108352172Y-50050000D01*
X108650000Y-50050000D01*
X109150000Y-50050000D01*
X109447828Y-50050000D01*
X109447844Y-50049999D01*
X109507372Y-50043598D01*
X109507379Y-50043596D01*
X109642086Y-49993354D01*
X109642093Y-49993350D01*
X109757187Y-49907190D01*
X109757190Y-49907187D01*
X109843350Y-49792093D01*
X109843354Y-49792086D01*
X109893596Y-49657379D01*
X109893598Y-49657372D01*
X109899999Y-49597844D01*
X109900000Y-49597827D01*
X109900000Y-48800000D01*
X109150000Y-48800000D01*
X109150000Y-50050000D01*
X108650000Y-50050000D01*
X108650000Y-48300000D01*
X109150000Y-48300000D01*
X109900000Y-48300000D01*
X109900000Y-47502172D01*
X109899999Y-47502155D01*
X109893598Y-47442627D01*
X109893596Y-47442620D01*
X109843354Y-47307913D01*
X109843350Y-47307906D01*
X109757190Y-47192812D01*
X109757187Y-47192809D01*
X109642093Y-47106649D01*
X109642086Y-47106645D01*
X109507379Y-47056403D01*
X109507372Y-47056401D01*
X109447844Y-47050000D01*
X109150000Y-47050000D01*
X109150000Y-48300000D01*
X108650000Y-48300000D01*
X108650000Y-47050000D01*
X108352155Y-47050000D01*
X108292627Y-47056401D01*
X108292620Y-47056403D01*
X108157913Y-47106645D01*
X108157906Y-47106649D01*
X108042812Y-47192809D01*
X108004574Y-47243888D01*
X107948639Y-47285759D01*
X107878948Y-47290742D01*
X107817625Y-47257256D01*
X107806042Y-47243888D01*
X107763261Y-47186739D01*
X107646204Y-47099111D01*
X107509203Y-47048011D01*
X107448654Y-47041500D01*
X107448638Y-47041500D01*
X106351362Y-47041500D01*
X106351345Y-47041500D01*
X106290797Y-47048011D01*
X106290795Y-47048011D01*
X106153795Y-47099111D01*
X106036739Y-47186739D01*
X105999267Y-47236796D01*
X105943333Y-47278667D01*
X105873641Y-47283651D01*
X105812318Y-47250166D01*
X105800733Y-47236796D01*
X105763261Y-47186739D01*
X105646204Y-47099111D01*
X105509203Y-47048011D01*
X105448654Y-47041500D01*
X105448638Y-47041500D01*
X104351362Y-47041500D01*
X104351345Y-47041500D01*
X104290797Y-47048011D01*
X104290795Y-47048011D01*
X104153795Y-47099111D01*
X104036739Y-47186739D01*
X103949111Y-47303795D01*
X103898011Y-47440795D01*
X103898011Y-47440797D01*
X103891500Y-47501345D01*
X100075500Y-47501345D01*
X100075500Y-47428092D01*
X100076097Y-47415938D01*
X100087494Y-47300222D01*
X100092234Y-47276389D01*
X100124216Y-47170959D01*
X100133508Y-47148526D01*
X100185442Y-47051365D01*
X100198938Y-47031166D01*
X100268827Y-46946006D01*
X100286006Y-46928827D01*
X100371166Y-46858938D01*
X100391365Y-46845442D01*
X100488526Y-46793508D01*
X100510959Y-46784216D01*
X100616389Y-46752234D01*
X100640220Y-46747494D01*
X100755939Y-46736097D01*
X100768093Y-46735500D01*
X100786531Y-46735500D01*
X163417365Y-46735500D01*
X163484404Y-46755185D01*
G37*
%TD.AperFunction*%
%TD*%
M02*
