%TF.GenerationSoftware,KiCad,Pcbnew,8.0.4*%
%TF.CreationDate,2024-12-04T08:53:49-07:00*%
%TF.ProjectId,particle-somduino,70617274-6963-46c6-952d-736f6d647569,rev?*%
%TF.SameCoordinates,Original*%
%TF.FileFunction,AssemblyDrawing,Top*%
%FSLAX46Y46*%
G04 Gerber Fmt 4.6, Leading zero omitted, Abs format (unit mm)*
G04 Created by KiCad (PCBNEW 8.0.4) date 2024-12-04 08:53:49*
%MOMM*%
%LPD*%
G01*
G04 APERTURE LIST*
%ADD10C,0.150000*%
%ADD11C,0.060000*%
%ADD12C,0.075000*%
%ADD13C,0.080000*%
%ADD14C,0.100000*%
%ADD15C,0.025400*%
%ADD16C,0.508000*%
%ADD17C,0.127000*%
G04 APERTURE END LIST*
D10*
X134853809Y-101724819D02*
X134853809Y-100724819D01*
X134853809Y-100724819D02*
X135234761Y-100724819D01*
X135234761Y-100724819D02*
X135329999Y-100772438D01*
X135329999Y-100772438D02*
X135377618Y-100820057D01*
X135377618Y-100820057D02*
X135425237Y-100915295D01*
X135425237Y-100915295D02*
X135425237Y-101058152D01*
X135425237Y-101058152D02*
X135377618Y-101153390D01*
X135377618Y-101153390D02*
X135329999Y-101201009D01*
X135329999Y-101201009D02*
X135234761Y-101248628D01*
X135234761Y-101248628D02*
X134853809Y-101248628D01*
X135996666Y-101724819D02*
X135901428Y-101677200D01*
X135901428Y-101677200D02*
X135853809Y-101629580D01*
X135853809Y-101629580D02*
X135806190Y-101534342D01*
X135806190Y-101534342D02*
X135806190Y-101248628D01*
X135806190Y-101248628D02*
X135853809Y-101153390D01*
X135853809Y-101153390D02*
X135901428Y-101105771D01*
X135901428Y-101105771D02*
X135996666Y-101058152D01*
X135996666Y-101058152D02*
X136139523Y-101058152D01*
X136139523Y-101058152D02*
X136234761Y-101105771D01*
X136234761Y-101105771D02*
X136282380Y-101153390D01*
X136282380Y-101153390D02*
X136329999Y-101248628D01*
X136329999Y-101248628D02*
X136329999Y-101534342D01*
X136329999Y-101534342D02*
X136282380Y-101629580D01*
X136282380Y-101629580D02*
X136234761Y-101677200D01*
X136234761Y-101677200D02*
X136139523Y-101724819D01*
X136139523Y-101724819D02*
X135996666Y-101724819D01*
X136663333Y-101058152D02*
X136853809Y-101724819D01*
X136853809Y-101724819D02*
X137044285Y-101248628D01*
X137044285Y-101248628D02*
X137234761Y-101724819D01*
X137234761Y-101724819D02*
X137425237Y-101058152D01*
X138187142Y-101677200D02*
X138091904Y-101724819D01*
X138091904Y-101724819D02*
X137901428Y-101724819D01*
X137901428Y-101724819D02*
X137806190Y-101677200D01*
X137806190Y-101677200D02*
X137758571Y-101581961D01*
X137758571Y-101581961D02*
X137758571Y-101201009D01*
X137758571Y-101201009D02*
X137806190Y-101105771D01*
X137806190Y-101105771D02*
X137901428Y-101058152D01*
X137901428Y-101058152D02*
X138091904Y-101058152D01*
X138091904Y-101058152D02*
X138187142Y-101105771D01*
X138187142Y-101105771D02*
X138234761Y-101201009D01*
X138234761Y-101201009D02*
X138234761Y-101296247D01*
X138234761Y-101296247D02*
X137758571Y-101391485D01*
X138663333Y-101724819D02*
X138663333Y-101058152D01*
X138663333Y-101248628D02*
X138710952Y-101153390D01*
X138710952Y-101153390D02*
X138758571Y-101105771D01*
X138758571Y-101105771D02*
X138853809Y-101058152D01*
X138853809Y-101058152D02*
X138949047Y-101058152D01*
X127606666Y-100724819D02*
X127606666Y-101439104D01*
X127606666Y-101439104D02*
X127559047Y-101581961D01*
X127559047Y-101581961D02*
X127463809Y-101677200D01*
X127463809Y-101677200D02*
X127320952Y-101724819D01*
X127320952Y-101724819D02*
X127225714Y-101724819D01*
X128606666Y-101724819D02*
X128035238Y-101724819D01*
X128320952Y-101724819D02*
X128320952Y-100724819D01*
X128320952Y-100724819D02*
X128225714Y-100867676D01*
X128225714Y-100867676D02*
X128130476Y-100962914D01*
X128130476Y-100962914D02*
X128035238Y-101010533D01*
X154840476Y-101439104D02*
X155316666Y-101439104D01*
X154745238Y-101724819D02*
X155078571Y-100724819D01*
X155078571Y-100724819D02*
X155411904Y-101724819D01*
X155745238Y-101058152D02*
X155745238Y-101724819D01*
X155745238Y-101153390D02*
X155792857Y-101105771D01*
X155792857Y-101105771D02*
X155888095Y-101058152D01*
X155888095Y-101058152D02*
X156030952Y-101058152D01*
X156030952Y-101058152D02*
X156126190Y-101105771D01*
X156126190Y-101105771D02*
X156173809Y-101201009D01*
X156173809Y-101201009D02*
X156173809Y-101724819D01*
X157078571Y-101724819D02*
X157078571Y-101201009D01*
X157078571Y-101201009D02*
X157030952Y-101105771D01*
X157030952Y-101105771D02*
X156935714Y-101058152D01*
X156935714Y-101058152D02*
X156745238Y-101058152D01*
X156745238Y-101058152D02*
X156650000Y-101105771D01*
X157078571Y-101677200D02*
X156983333Y-101724819D01*
X156983333Y-101724819D02*
X156745238Y-101724819D01*
X156745238Y-101724819D02*
X156650000Y-101677200D01*
X156650000Y-101677200D02*
X156602381Y-101581961D01*
X156602381Y-101581961D02*
X156602381Y-101486723D01*
X156602381Y-101486723D02*
X156650000Y-101391485D01*
X156650000Y-101391485D02*
X156745238Y-101343866D01*
X156745238Y-101343866D02*
X156983333Y-101343866D01*
X156983333Y-101343866D02*
X157078571Y-101296247D01*
X157697619Y-101724819D02*
X157602381Y-101677200D01*
X157602381Y-101677200D02*
X157554762Y-101581961D01*
X157554762Y-101581961D02*
X157554762Y-100724819D01*
X158221429Y-101724819D02*
X158126191Y-101677200D01*
X158126191Y-101677200D02*
X158078572Y-101629580D01*
X158078572Y-101629580D02*
X158030953Y-101534342D01*
X158030953Y-101534342D02*
X158030953Y-101248628D01*
X158030953Y-101248628D02*
X158078572Y-101153390D01*
X158078572Y-101153390D02*
X158126191Y-101105771D01*
X158126191Y-101105771D02*
X158221429Y-101058152D01*
X158221429Y-101058152D02*
X158364286Y-101058152D01*
X158364286Y-101058152D02*
X158459524Y-101105771D01*
X158459524Y-101105771D02*
X158507143Y-101153390D01*
X158507143Y-101153390D02*
X158554762Y-101248628D01*
X158554762Y-101248628D02*
X158554762Y-101534342D01*
X158554762Y-101534342D02*
X158507143Y-101629580D01*
X158507143Y-101629580D02*
X158459524Y-101677200D01*
X158459524Y-101677200D02*
X158364286Y-101724819D01*
X158364286Y-101724819D02*
X158221429Y-101724819D01*
X159411905Y-101058152D02*
X159411905Y-101867676D01*
X159411905Y-101867676D02*
X159364286Y-101962914D01*
X159364286Y-101962914D02*
X159316667Y-102010533D01*
X159316667Y-102010533D02*
X159221429Y-102058152D01*
X159221429Y-102058152D02*
X159078572Y-102058152D01*
X159078572Y-102058152D02*
X158983334Y-102010533D01*
X159411905Y-101677200D02*
X159316667Y-101724819D01*
X159316667Y-101724819D02*
X159126191Y-101724819D01*
X159126191Y-101724819D02*
X159030953Y-101677200D01*
X159030953Y-101677200D02*
X158983334Y-101629580D01*
X158983334Y-101629580D02*
X158935715Y-101534342D01*
X158935715Y-101534342D02*
X158935715Y-101248628D01*
X158935715Y-101248628D02*
X158983334Y-101153390D01*
X158983334Y-101153390D02*
X159030953Y-101105771D01*
X159030953Y-101105771D02*
X159126191Y-101058152D01*
X159126191Y-101058152D02*
X159316667Y-101058152D01*
X159316667Y-101058152D02*
X159411905Y-101105771D01*
X150466666Y-100724819D02*
X150466666Y-101439104D01*
X150466666Y-101439104D02*
X150419047Y-101581961D01*
X150419047Y-101581961D02*
X150323809Y-101677200D01*
X150323809Y-101677200D02*
X150180952Y-101724819D01*
X150180952Y-101724819D02*
X150085714Y-101724819D01*
X150847619Y-100724819D02*
X151466666Y-100724819D01*
X151466666Y-100724819D02*
X151133333Y-101105771D01*
X151133333Y-101105771D02*
X151276190Y-101105771D01*
X151276190Y-101105771D02*
X151371428Y-101153390D01*
X151371428Y-101153390D02*
X151419047Y-101201009D01*
X151419047Y-101201009D02*
X151466666Y-101296247D01*
X151466666Y-101296247D02*
X151466666Y-101534342D01*
X151466666Y-101534342D02*
X151419047Y-101629580D01*
X151419047Y-101629580D02*
X151371428Y-101677200D01*
X151371428Y-101677200D02*
X151276190Y-101724819D01*
X151276190Y-101724819D02*
X150990476Y-101724819D01*
X150990476Y-101724819D02*
X150895238Y-101677200D01*
X150895238Y-101677200D02*
X150847619Y-101629580D01*
X125868857Y-45844819D02*
X125868857Y-44844819D01*
X125868857Y-44844819D02*
X126106952Y-44844819D01*
X126106952Y-44844819D02*
X126249809Y-44892438D01*
X126249809Y-44892438D02*
X126345047Y-44987676D01*
X126345047Y-44987676D02*
X126392666Y-45082914D01*
X126392666Y-45082914D02*
X126440285Y-45273390D01*
X126440285Y-45273390D02*
X126440285Y-45416247D01*
X126440285Y-45416247D02*
X126392666Y-45606723D01*
X126392666Y-45606723D02*
X126345047Y-45701961D01*
X126345047Y-45701961D02*
X126249809Y-45797200D01*
X126249809Y-45797200D02*
X126106952Y-45844819D01*
X126106952Y-45844819D02*
X125868857Y-45844819D01*
X126868857Y-45844819D02*
X126868857Y-45178152D01*
X126868857Y-44844819D02*
X126821238Y-44892438D01*
X126821238Y-44892438D02*
X126868857Y-44940057D01*
X126868857Y-44940057D02*
X126916476Y-44892438D01*
X126916476Y-44892438D02*
X126868857Y-44844819D01*
X126868857Y-44844819D02*
X126868857Y-44940057D01*
X127773618Y-45178152D02*
X127773618Y-45987676D01*
X127773618Y-45987676D02*
X127725999Y-46082914D01*
X127725999Y-46082914D02*
X127678380Y-46130533D01*
X127678380Y-46130533D02*
X127583142Y-46178152D01*
X127583142Y-46178152D02*
X127440285Y-46178152D01*
X127440285Y-46178152D02*
X127345047Y-46130533D01*
X127773618Y-45797200D02*
X127678380Y-45844819D01*
X127678380Y-45844819D02*
X127487904Y-45844819D01*
X127487904Y-45844819D02*
X127392666Y-45797200D01*
X127392666Y-45797200D02*
X127345047Y-45749580D01*
X127345047Y-45749580D02*
X127297428Y-45654342D01*
X127297428Y-45654342D02*
X127297428Y-45368628D01*
X127297428Y-45368628D02*
X127345047Y-45273390D01*
X127345047Y-45273390D02*
X127392666Y-45225771D01*
X127392666Y-45225771D02*
X127487904Y-45178152D01*
X127487904Y-45178152D02*
X127678380Y-45178152D01*
X127678380Y-45178152D02*
X127773618Y-45225771D01*
X128249809Y-45844819D02*
X128249809Y-45178152D01*
X128249809Y-44844819D02*
X128202190Y-44892438D01*
X128202190Y-44892438D02*
X128249809Y-44940057D01*
X128249809Y-44940057D02*
X128297428Y-44892438D01*
X128297428Y-44892438D02*
X128249809Y-44844819D01*
X128249809Y-44844819D02*
X128249809Y-44940057D01*
X128583142Y-45178152D02*
X128964094Y-45178152D01*
X128725999Y-44844819D02*
X128725999Y-45701961D01*
X128725999Y-45701961D02*
X128773618Y-45797200D01*
X128773618Y-45797200D02*
X128868856Y-45844819D01*
X128868856Y-45844819D02*
X128964094Y-45844819D01*
X129725999Y-45844819D02*
X129725999Y-45321009D01*
X129725999Y-45321009D02*
X129678380Y-45225771D01*
X129678380Y-45225771D02*
X129583142Y-45178152D01*
X129583142Y-45178152D02*
X129392666Y-45178152D01*
X129392666Y-45178152D02*
X129297428Y-45225771D01*
X129725999Y-45797200D02*
X129630761Y-45844819D01*
X129630761Y-45844819D02*
X129392666Y-45844819D01*
X129392666Y-45844819D02*
X129297428Y-45797200D01*
X129297428Y-45797200D02*
X129249809Y-45701961D01*
X129249809Y-45701961D02*
X129249809Y-45606723D01*
X129249809Y-45606723D02*
X129297428Y-45511485D01*
X129297428Y-45511485D02*
X129392666Y-45463866D01*
X129392666Y-45463866D02*
X129630761Y-45463866D01*
X129630761Y-45463866D02*
X129725999Y-45416247D01*
X130345047Y-45844819D02*
X130249809Y-45797200D01*
X130249809Y-45797200D02*
X130202190Y-45701961D01*
X130202190Y-45701961D02*
X130202190Y-44844819D01*
X131440285Y-44797200D02*
X130583143Y-46082914D01*
X131773619Y-45844819D02*
X131773619Y-44844819D01*
X131773619Y-44844819D02*
X132154571Y-44844819D01*
X132154571Y-44844819D02*
X132249809Y-44892438D01*
X132249809Y-44892438D02*
X132297428Y-44940057D01*
X132297428Y-44940057D02*
X132345047Y-45035295D01*
X132345047Y-45035295D02*
X132345047Y-45178152D01*
X132345047Y-45178152D02*
X132297428Y-45273390D01*
X132297428Y-45273390D02*
X132249809Y-45321009D01*
X132249809Y-45321009D02*
X132154571Y-45368628D01*
X132154571Y-45368628D02*
X131773619Y-45368628D01*
X132678381Y-44844819D02*
X132916476Y-45844819D01*
X132916476Y-45844819D02*
X133106952Y-45130533D01*
X133106952Y-45130533D02*
X133297428Y-45844819D01*
X133297428Y-45844819D02*
X133535524Y-44844819D01*
X133916476Y-45844819D02*
X133916476Y-44844819D01*
X133916476Y-44844819D02*
X134249809Y-45559104D01*
X134249809Y-45559104D02*
X134583142Y-44844819D01*
X134583142Y-44844819D02*
X134583142Y-45844819D01*
X118462666Y-44844819D02*
X118462666Y-45559104D01*
X118462666Y-45559104D02*
X118415047Y-45701961D01*
X118415047Y-45701961D02*
X118319809Y-45797200D01*
X118319809Y-45797200D02*
X118176952Y-45844819D01*
X118176952Y-45844819D02*
X118081714Y-45844819D01*
X118891238Y-44940057D02*
X118938857Y-44892438D01*
X118938857Y-44892438D02*
X119034095Y-44844819D01*
X119034095Y-44844819D02*
X119272190Y-44844819D01*
X119272190Y-44844819D02*
X119367428Y-44892438D01*
X119367428Y-44892438D02*
X119415047Y-44940057D01*
X119415047Y-44940057D02*
X119462666Y-45035295D01*
X119462666Y-45035295D02*
X119462666Y-45130533D01*
X119462666Y-45130533D02*
X119415047Y-45273390D01*
X119415047Y-45273390D02*
X118843619Y-45844819D01*
X118843619Y-45844819D02*
X119462666Y-45844819D01*
X150252857Y-45844819D02*
X150252857Y-44844819D01*
X150252857Y-44844819D02*
X150490952Y-44844819D01*
X150490952Y-44844819D02*
X150633809Y-44892438D01*
X150633809Y-44892438D02*
X150729047Y-44987676D01*
X150729047Y-44987676D02*
X150776666Y-45082914D01*
X150776666Y-45082914D02*
X150824285Y-45273390D01*
X150824285Y-45273390D02*
X150824285Y-45416247D01*
X150824285Y-45416247D02*
X150776666Y-45606723D01*
X150776666Y-45606723D02*
X150729047Y-45701961D01*
X150729047Y-45701961D02*
X150633809Y-45797200D01*
X150633809Y-45797200D02*
X150490952Y-45844819D01*
X150490952Y-45844819D02*
X150252857Y-45844819D01*
X151252857Y-45844819D02*
X151252857Y-45178152D01*
X151252857Y-44844819D02*
X151205238Y-44892438D01*
X151205238Y-44892438D02*
X151252857Y-44940057D01*
X151252857Y-44940057D02*
X151300476Y-44892438D01*
X151300476Y-44892438D02*
X151252857Y-44844819D01*
X151252857Y-44844819D02*
X151252857Y-44940057D01*
X152157618Y-45178152D02*
X152157618Y-45987676D01*
X152157618Y-45987676D02*
X152109999Y-46082914D01*
X152109999Y-46082914D02*
X152062380Y-46130533D01*
X152062380Y-46130533D02*
X151967142Y-46178152D01*
X151967142Y-46178152D02*
X151824285Y-46178152D01*
X151824285Y-46178152D02*
X151729047Y-46130533D01*
X152157618Y-45797200D02*
X152062380Y-45844819D01*
X152062380Y-45844819D02*
X151871904Y-45844819D01*
X151871904Y-45844819D02*
X151776666Y-45797200D01*
X151776666Y-45797200D02*
X151729047Y-45749580D01*
X151729047Y-45749580D02*
X151681428Y-45654342D01*
X151681428Y-45654342D02*
X151681428Y-45368628D01*
X151681428Y-45368628D02*
X151729047Y-45273390D01*
X151729047Y-45273390D02*
X151776666Y-45225771D01*
X151776666Y-45225771D02*
X151871904Y-45178152D01*
X151871904Y-45178152D02*
X152062380Y-45178152D01*
X152062380Y-45178152D02*
X152157618Y-45225771D01*
X152633809Y-45844819D02*
X152633809Y-45178152D01*
X152633809Y-44844819D02*
X152586190Y-44892438D01*
X152586190Y-44892438D02*
X152633809Y-44940057D01*
X152633809Y-44940057D02*
X152681428Y-44892438D01*
X152681428Y-44892438D02*
X152633809Y-44844819D01*
X152633809Y-44844819D02*
X152633809Y-44940057D01*
X152967142Y-45178152D02*
X153348094Y-45178152D01*
X153109999Y-44844819D02*
X153109999Y-45701961D01*
X153109999Y-45701961D02*
X153157618Y-45797200D01*
X153157618Y-45797200D02*
X153252856Y-45844819D01*
X153252856Y-45844819D02*
X153348094Y-45844819D01*
X154109999Y-45844819D02*
X154109999Y-45321009D01*
X154109999Y-45321009D02*
X154062380Y-45225771D01*
X154062380Y-45225771D02*
X153967142Y-45178152D01*
X153967142Y-45178152D02*
X153776666Y-45178152D01*
X153776666Y-45178152D02*
X153681428Y-45225771D01*
X154109999Y-45797200D02*
X154014761Y-45844819D01*
X154014761Y-45844819D02*
X153776666Y-45844819D01*
X153776666Y-45844819D02*
X153681428Y-45797200D01*
X153681428Y-45797200D02*
X153633809Y-45701961D01*
X153633809Y-45701961D02*
X153633809Y-45606723D01*
X153633809Y-45606723D02*
X153681428Y-45511485D01*
X153681428Y-45511485D02*
X153776666Y-45463866D01*
X153776666Y-45463866D02*
X154014761Y-45463866D01*
X154014761Y-45463866D02*
X154109999Y-45416247D01*
X154729047Y-45844819D02*
X154633809Y-45797200D01*
X154633809Y-45797200D02*
X154586190Y-45701961D01*
X154586190Y-45701961D02*
X154586190Y-44844819D01*
X155824285Y-44797200D02*
X154967143Y-46082914D01*
X156157619Y-45844819D02*
X156157619Y-44844819D01*
X156157619Y-44844819D02*
X156538571Y-44844819D01*
X156538571Y-44844819D02*
X156633809Y-44892438D01*
X156633809Y-44892438D02*
X156681428Y-44940057D01*
X156681428Y-44940057D02*
X156729047Y-45035295D01*
X156729047Y-45035295D02*
X156729047Y-45178152D01*
X156729047Y-45178152D02*
X156681428Y-45273390D01*
X156681428Y-45273390D02*
X156633809Y-45321009D01*
X156633809Y-45321009D02*
X156538571Y-45368628D01*
X156538571Y-45368628D02*
X156157619Y-45368628D01*
X157062381Y-44844819D02*
X157300476Y-45844819D01*
X157300476Y-45844819D02*
X157490952Y-45130533D01*
X157490952Y-45130533D02*
X157681428Y-45844819D01*
X157681428Y-45844819D02*
X157919524Y-44844819D01*
X158300476Y-45844819D02*
X158300476Y-44844819D01*
X158300476Y-44844819D02*
X158633809Y-45559104D01*
X158633809Y-45559104D02*
X158967142Y-44844819D01*
X158967142Y-44844819D02*
X158967142Y-45844819D01*
X145386666Y-44844819D02*
X145386666Y-45559104D01*
X145386666Y-45559104D02*
X145339047Y-45701961D01*
X145339047Y-45701961D02*
X145243809Y-45797200D01*
X145243809Y-45797200D02*
X145100952Y-45844819D01*
X145100952Y-45844819D02*
X145005714Y-45844819D01*
X146291428Y-45178152D02*
X146291428Y-45844819D01*
X146053333Y-44797200D02*
X145815238Y-45511485D01*
X145815238Y-45511485D02*
X146434285Y-45511485D01*
D11*
X110881927Y-72116666D02*
X110691451Y-72249999D01*
X110881927Y-72345237D02*
X110481927Y-72345237D01*
X110481927Y-72345237D02*
X110481927Y-72192856D01*
X110481927Y-72192856D02*
X110500975Y-72154761D01*
X110500975Y-72154761D02*
X110520022Y-72135714D01*
X110520022Y-72135714D02*
X110558118Y-72116666D01*
X110558118Y-72116666D02*
X110615260Y-72116666D01*
X110615260Y-72116666D02*
X110653356Y-72135714D01*
X110653356Y-72135714D02*
X110672403Y-72154761D01*
X110672403Y-72154761D02*
X110691451Y-72192856D01*
X110691451Y-72192856D02*
X110691451Y-72345237D01*
X110615260Y-71773809D02*
X110881927Y-71773809D01*
X110462880Y-71869047D02*
X110748594Y-71964285D01*
X110748594Y-71964285D02*
X110748594Y-71716666D01*
X107838333Y-75681927D02*
X107705000Y-75491451D01*
X107609762Y-75681927D02*
X107609762Y-75281927D01*
X107609762Y-75281927D02*
X107762143Y-75281927D01*
X107762143Y-75281927D02*
X107800238Y-75300975D01*
X107800238Y-75300975D02*
X107819285Y-75320022D01*
X107819285Y-75320022D02*
X107838333Y-75358118D01*
X107838333Y-75358118D02*
X107838333Y-75415260D01*
X107838333Y-75415260D02*
X107819285Y-75453356D01*
X107819285Y-75453356D02*
X107800238Y-75472403D01*
X107800238Y-75472403D02*
X107762143Y-75491451D01*
X107762143Y-75491451D02*
X107609762Y-75491451D01*
X108219285Y-75681927D02*
X107990714Y-75681927D01*
X108105000Y-75681927D02*
X108105000Y-75281927D01*
X108105000Y-75281927D02*
X108066904Y-75339070D01*
X108066904Y-75339070D02*
X108028809Y-75377165D01*
X108028809Y-75377165D02*
X107990714Y-75396213D01*
X114333333Y-90081927D02*
X114200000Y-89891451D01*
X114104762Y-90081927D02*
X114104762Y-89681927D01*
X114104762Y-89681927D02*
X114257143Y-89681927D01*
X114257143Y-89681927D02*
X114295238Y-89700975D01*
X114295238Y-89700975D02*
X114314285Y-89720022D01*
X114314285Y-89720022D02*
X114333333Y-89758118D01*
X114333333Y-89758118D02*
X114333333Y-89815260D01*
X114333333Y-89815260D02*
X114314285Y-89853356D01*
X114314285Y-89853356D02*
X114295238Y-89872403D01*
X114295238Y-89872403D02*
X114257143Y-89891451D01*
X114257143Y-89891451D02*
X114104762Y-89891451D01*
X114695238Y-89681927D02*
X114504762Y-89681927D01*
X114504762Y-89681927D02*
X114485714Y-89872403D01*
X114485714Y-89872403D02*
X114504762Y-89853356D01*
X114504762Y-89853356D02*
X114542857Y-89834308D01*
X114542857Y-89834308D02*
X114638095Y-89834308D01*
X114638095Y-89834308D02*
X114676190Y-89853356D01*
X114676190Y-89853356D02*
X114695238Y-89872403D01*
X114695238Y-89872403D02*
X114714285Y-89910499D01*
X114714285Y-89910499D02*
X114714285Y-90005737D01*
X114714285Y-90005737D02*
X114695238Y-90043832D01*
X114695238Y-90043832D02*
X114676190Y-90062880D01*
X114676190Y-90062880D02*
X114638095Y-90081927D01*
X114638095Y-90081927D02*
X114542857Y-90081927D01*
X114542857Y-90081927D02*
X114504762Y-90062880D01*
X114504762Y-90062880D02*
X114485714Y-90043832D01*
D10*
X120566666Y-95204819D02*
X120566666Y-95919104D01*
X120566666Y-95919104D02*
X120519047Y-96061961D01*
X120519047Y-96061961D02*
X120423809Y-96157200D01*
X120423809Y-96157200D02*
X120280952Y-96204819D01*
X120280952Y-96204819D02*
X120185714Y-96204819D01*
X121471428Y-95204819D02*
X121280952Y-95204819D01*
X121280952Y-95204819D02*
X121185714Y-95252438D01*
X121185714Y-95252438D02*
X121138095Y-95300057D01*
X121138095Y-95300057D02*
X121042857Y-95442914D01*
X121042857Y-95442914D02*
X120995238Y-95633390D01*
X120995238Y-95633390D02*
X120995238Y-96014342D01*
X120995238Y-96014342D02*
X121042857Y-96109580D01*
X121042857Y-96109580D02*
X121090476Y-96157200D01*
X121090476Y-96157200D02*
X121185714Y-96204819D01*
X121185714Y-96204819D02*
X121376190Y-96204819D01*
X121376190Y-96204819D02*
X121471428Y-96157200D01*
X121471428Y-96157200D02*
X121519047Y-96109580D01*
X121519047Y-96109580D02*
X121566666Y-96014342D01*
X121566666Y-96014342D02*
X121566666Y-95776247D01*
X121566666Y-95776247D02*
X121519047Y-95681009D01*
X121519047Y-95681009D02*
X121471428Y-95633390D01*
X121471428Y-95633390D02*
X121376190Y-95585771D01*
X121376190Y-95585771D02*
X121185714Y-95585771D01*
X121185714Y-95585771D02*
X121090476Y-95633390D01*
X121090476Y-95633390D02*
X121042857Y-95681009D01*
X121042857Y-95681009D02*
X120995238Y-95776247D01*
D12*
X103957409Y-77469047D02*
X103457409Y-77469047D01*
X103457409Y-77469047D02*
X103457409Y-77349999D01*
X103457409Y-77349999D02*
X103481219Y-77278571D01*
X103481219Y-77278571D02*
X103528838Y-77230952D01*
X103528838Y-77230952D02*
X103576457Y-77207142D01*
X103576457Y-77207142D02*
X103671695Y-77183333D01*
X103671695Y-77183333D02*
X103743123Y-77183333D01*
X103743123Y-77183333D02*
X103838361Y-77207142D01*
X103838361Y-77207142D02*
X103885980Y-77230952D01*
X103885980Y-77230952D02*
X103933600Y-77278571D01*
X103933600Y-77278571D02*
X103957409Y-77349999D01*
X103957409Y-77349999D02*
X103957409Y-77469047D01*
X103957409Y-76707142D02*
X103957409Y-76992856D01*
X103957409Y-76849999D02*
X103457409Y-76849999D01*
X103457409Y-76849999D02*
X103528838Y-76897618D01*
X103528838Y-76897618D02*
X103576457Y-76945237D01*
X103576457Y-76945237D02*
X103600266Y-76992856D01*
D10*
X94166666Y-91854819D02*
X94166666Y-92569104D01*
X94166666Y-92569104D02*
X94119047Y-92711961D01*
X94119047Y-92711961D02*
X94023809Y-92807200D01*
X94023809Y-92807200D02*
X93880952Y-92854819D01*
X93880952Y-92854819D02*
X93785714Y-92854819D01*
X95119047Y-91854819D02*
X94642857Y-91854819D01*
X94642857Y-91854819D02*
X94595238Y-92331009D01*
X94595238Y-92331009D02*
X94642857Y-92283390D01*
X94642857Y-92283390D02*
X94738095Y-92235771D01*
X94738095Y-92235771D02*
X94976190Y-92235771D01*
X94976190Y-92235771D02*
X95071428Y-92283390D01*
X95071428Y-92283390D02*
X95119047Y-92331009D01*
X95119047Y-92331009D02*
X95166666Y-92426247D01*
X95166666Y-92426247D02*
X95166666Y-92664342D01*
X95166666Y-92664342D02*
X95119047Y-92759580D01*
X95119047Y-92759580D02*
X95071428Y-92807200D01*
X95071428Y-92807200D02*
X94976190Y-92854819D01*
X94976190Y-92854819D02*
X94738095Y-92854819D01*
X94738095Y-92854819D02*
X94642857Y-92807200D01*
X94642857Y-92807200D02*
X94595238Y-92759580D01*
D11*
X110881927Y-82266666D02*
X110691451Y-82399999D01*
X110881927Y-82495237D02*
X110481927Y-82495237D01*
X110481927Y-82495237D02*
X110481927Y-82342856D01*
X110481927Y-82342856D02*
X110500975Y-82304761D01*
X110500975Y-82304761D02*
X110520022Y-82285714D01*
X110520022Y-82285714D02*
X110558118Y-82266666D01*
X110558118Y-82266666D02*
X110615260Y-82266666D01*
X110615260Y-82266666D02*
X110653356Y-82285714D01*
X110653356Y-82285714D02*
X110672403Y-82304761D01*
X110672403Y-82304761D02*
X110691451Y-82342856D01*
X110691451Y-82342856D02*
X110691451Y-82495237D01*
X110653356Y-82038095D02*
X110634308Y-82076190D01*
X110634308Y-82076190D02*
X110615260Y-82095237D01*
X110615260Y-82095237D02*
X110577165Y-82114285D01*
X110577165Y-82114285D02*
X110558118Y-82114285D01*
X110558118Y-82114285D02*
X110520022Y-82095237D01*
X110520022Y-82095237D02*
X110500975Y-82076190D01*
X110500975Y-82076190D02*
X110481927Y-82038095D01*
X110481927Y-82038095D02*
X110481927Y-81961904D01*
X110481927Y-81961904D02*
X110500975Y-81923809D01*
X110500975Y-81923809D02*
X110520022Y-81904761D01*
X110520022Y-81904761D02*
X110558118Y-81885714D01*
X110558118Y-81885714D02*
X110577165Y-81885714D01*
X110577165Y-81885714D02*
X110615260Y-81904761D01*
X110615260Y-81904761D02*
X110634308Y-81923809D01*
X110634308Y-81923809D02*
X110653356Y-81961904D01*
X110653356Y-81961904D02*
X110653356Y-82038095D01*
X110653356Y-82038095D02*
X110672403Y-82076190D01*
X110672403Y-82076190D02*
X110691451Y-82095237D01*
X110691451Y-82095237D02*
X110729546Y-82114285D01*
X110729546Y-82114285D02*
X110805737Y-82114285D01*
X110805737Y-82114285D02*
X110843832Y-82095237D01*
X110843832Y-82095237D02*
X110862880Y-82076190D01*
X110862880Y-82076190D02*
X110881927Y-82038095D01*
X110881927Y-82038095D02*
X110881927Y-81961904D01*
X110881927Y-81961904D02*
X110862880Y-81923809D01*
X110862880Y-81923809D02*
X110843832Y-81904761D01*
X110843832Y-81904761D02*
X110805737Y-81885714D01*
X110805737Y-81885714D02*
X110729546Y-81885714D01*
X110729546Y-81885714D02*
X110691451Y-81904761D01*
X110691451Y-81904761D02*
X110672403Y-81923809D01*
X110672403Y-81923809D02*
X110653356Y-81961904D01*
D10*
X111359880Y-72538095D02*
X110550357Y-72538095D01*
X110550357Y-72538095D02*
X110455119Y-72585714D01*
X110455119Y-72585714D02*
X110407500Y-72633333D01*
X110407500Y-72633333D02*
X110359880Y-72728571D01*
X110359880Y-72728571D02*
X110359880Y-72919047D01*
X110359880Y-72919047D02*
X110407500Y-73014285D01*
X110407500Y-73014285D02*
X110455119Y-73061904D01*
X110455119Y-73061904D02*
X110550357Y-73109523D01*
X110550357Y-73109523D02*
X111359880Y-73109523D01*
X110359880Y-74109523D02*
X110359880Y-73538095D01*
X110359880Y-73823809D02*
X111359880Y-73823809D01*
X111359880Y-73823809D02*
X111217023Y-73728571D01*
X111217023Y-73728571D02*
X111121785Y-73633333D01*
X111121785Y-73633333D02*
X111074166Y-73538095D01*
D11*
X111467857Y-57681927D02*
X111334524Y-57491451D01*
X111239286Y-57681927D02*
X111239286Y-57281927D01*
X111239286Y-57281927D02*
X111391667Y-57281927D01*
X111391667Y-57281927D02*
X111429762Y-57300975D01*
X111429762Y-57300975D02*
X111448809Y-57320022D01*
X111448809Y-57320022D02*
X111467857Y-57358118D01*
X111467857Y-57358118D02*
X111467857Y-57415260D01*
X111467857Y-57415260D02*
X111448809Y-57453356D01*
X111448809Y-57453356D02*
X111429762Y-57472403D01*
X111429762Y-57472403D02*
X111391667Y-57491451D01*
X111391667Y-57491451D02*
X111239286Y-57491451D01*
X111848809Y-57681927D02*
X111620238Y-57681927D01*
X111734524Y-57681927D02*
X111734524Y-57281927D01*
X111734524Y-57281927D02*
X111696428Y-57339070D01*
X111696428Y-57339070D02*
X111658333Y-57377165D01*
X111658333Y-57377165D02*
X111620238Y-57396213D01*
X112096428Y-57281927D02*
X112134523Y-57281927D01*
X112134523Y-57281927D02*
X112172619Y-57300975D01*
X112172619Y-57300975D02*
X112191666Y-57320022D01*
X112191666Y-57320022D02*
X112210714Y-57358118D01*
X112210714Y-57358118D02*
X112229761Y-57434308D01*
X112229761Y-57434308D02*
X112229761Y-57529546D01*
X112229761Y-57529546D02*
X112210714Y-57605737D01*
X112210714Y-57605737D02*
X112191666Y-57643832D01*
X112191666Y-57643832D02*
X112172619Y-57662880D01*
X112172619Y-57662880D02*
X112134523Y-57681927D01*
X112134523Y-57681927D02*
X112096428Y-57681927D01*
X112096428Y-57681927D02*
X112058333Y-57662880D01*
X112058333Y-57662880D02*
X112039285Y-57643832D01*
X112039285Y-57643832D02*
X112020238Y-57605737D01*
X112020238Y-57605737D02*
X112001190Y-57529546D01*
X112001190Y-57529546D02*
X112001190Y-57434308D01*
X112001190Y-57434308D02*
X112020238Y-57358118D01*
X112020238Y-57358118D02*
X112039285Y-57320022D01*
X112039285Y-57320022D02*
X112058333Y-57300975D01*
X112058333Y-57300975D02*
X112096428Y-57281927D01*
X107838333Y-77331927D02*
X107705000Y-77141451D01*
X107609762Y-77331927D02*
X107609762Y-76931927D01*
X107609762Y-76931927D02*
X107762143Y-76931927D01*
X107762143Y-76931927D02*
X107800238Y-76950975D01*
X107800238Y-76950975D02*
X107819285Y-76970022D01*
X107819285Y-76970022D02*
X107838333Y-77008118D01*
X107838333Y-77008118D02*
X107838333Y-77065260D01*
X107838333Y-77065260D02*
X107819285Y-77103356D01*
X107819285Y-77103356D02*
X107800238Y-77122403D01*
X107800238Y-77122403D02*
X107762143Y-77141451D01*
X107762143Y-77141451D02*
X107609762Y-77141451D01*
X107990714Y-76970022D02*
X108009762Y-76950975D01*
X108009762Y-76950975D02*
X108047857Y-76931927D01*
X108047857Y-76931927D02*
X108143095Y-76931927D01*
X108143095Y-76931927D02*
X108181190Y-76950975D01*
X108181190Y-76950975D02*
X108200238Y-76970022D01*
X108200238Y-76970022D02*
X108219285Y-77008118D01*
X108219285Y-77008118D02*
X108219285Y-77046213D01*
X108219285Y-77046213D02*
X108200238Y-77103356D01*
X108200238Y-77103356D02*
X107971666Y-77331927D01*
X107971666Y-77331927D02*
X108219285Y-77331927D01*
X165481927Y-79491666D02*
X165291451Y-79624999D01*
X165481927Y-79720237D02*
X165081927Y-79720237D01*
X165081927Y-79720237D02*
X165081927Y-79567856D01*
X165081927Y-79567856D02*
X165100975Y-79529761D01*
X165100975Y-79529761D02*
X165120022Y-79510714D01*
X165120022Y-79510714D02*
X165158118Y-79491666D01*
X165158118Y-79491666D02*
X165215260Y-79491666D01*
X165215260Y-79491666D02*
X165253356Y-79510714D01*
X165253356Y-79510714D02*
X165272403Y-79529761D01*
X165272403Y-79529761D02*
X165291451Y-79567856D01*
X165291451Y-79567856D02*
X165291451Y-79720237D01*
X165081927Y-79148809D02*
X165081927Y-79224999D01*
X165081927Y-79224999D02*
X165100975Y-79263095D01*
X165100975Y-79263095D02*
X165120022Y-79282142D01*
X165120022Y-79282142D02*
X165177165Y-79320237D01*
X165177165Y-79320237D02*
X165253356Y-79339285D01*
X165253356Y-79339285D02*
X165405737Y-79339285D01*
X165405737Y-79339285D02*
X165443832Y-79320237D01*
X165443832Y-79320237D02*
X165462880Y-79301190D01*
X165462880Y-79301190D02*
X165481927Y-79263095D01*
X165481927Y-79263095D02*
X165481927Y-79186904D01*
X165481927Y-79186904D02*
X165462880Y-79148809D01*
X165462880Y-79148809D02*
X165443832Y-79129761D01*
X165443832Y-79129761D02*
X165405737Y-79110714D01*
X165405737Y-79110714D02*
X165310499Y-79110714D01*
X165310499Y-79110714D02*
X165272403Y-79129761D01*
X165272403Y-79129761D02*
X165253356Y-79148809D01*
X165253356Y-79148809D02*
X165234308Y-79186904D01*
X165234308Y-79186904D02*
X165234308Y-79263095D01*
X165234308Y-79263095D02*
X165253356Y-79301190D01*
X165253356Y-79301190D02*
X165272403Y-79320237D01*
X165272403Y-79320237D02*
X165310499Y-79339285D01*
X111658333Y-59381927D02*
X111525000Y-59191451D01*
X111429762Y-59381927D02*
X111429762Y-58981927D01*
X111429762Y-58981927D02*
X111582143Y-58981927D01*
X111582143Y-58981927D02*
X111620238Y-59000975D01*
X111620238Y-59000975D02*
X111639285Y-59020022D01*
X111639285Y-59020022D02*
X111658333Y-59058118D01*
X111658333Y-59058118D02*
X111658333Y-59115260D01*
X111658333Y-59115260D02*
X111639285Y-59153356D01*
X111639285Y-59153356D02*
X111620238Y-59172403D01*
X111620238Y-59172403D02*
X111582143Y-59191451D01*
X111582143Y-59191451D02*
X111429762Y-59191451D01*
X111848809Y-59381927D02*
X111925000Y-59381927D01*
X111925000Y-59381927D02*
X111963095Y-59362880D01*
X111963095Y-59362880D02*
X111982143Y-59343832D01*
X111982143Y-59343832D02*
X112020238Y-59286689D01*
X112020238Y-59286689D02*
X112039285Y-59210499D01*
X112039285Y-59210499D02*
X112039285Y-59058118D01*
X112039285Y-59058118D02*
X112020238Y-59020022D01*
X112020238Y-59020022D02*
X112001190Y-59000975D01*
X112001190Y-59000975D02*
X111963095Y-58981927D01*
X111963095Y-58981927D02*
X111886904Y-58981927D01*
X111886904Y-58981927D02*
X111848809Y-59000975D01*
X111848809Y-59000975D02*
X111829762Y-59020022D01*
X111829762Y-59020022D02*
X111810714Y-59058118D01*
X111810714Y-59058118D02*
X111810714Y-59153356D01*
X111810714Y-59153356D02*
X111829762Y-59191451D01*
X111829762Y-59191451D02*
X111848809Y-59210499D01*
X111848809Y-59210499D02*
X111886904Y-59229546D01*
X111886904Y-59229546D02*
X111963095Y-59229546D01*
X111963095Y-59229546D02*
X112001190Y-59210499D01*
X112001190Y-59210499D02*
X112020238Y-59191451D01*
X112020238Y-59191451D02*
X112039285Y-59153356D01*
D10*
X102749819Y-62123333D02*
X103464104Y-62123333D01*
X103464104Y-62123333D02*
X103606961Y-62170952D01*
X103606961Y-62170952D02*
X103702200Y-62266190D01*
X103702200Y-62266190D02*
X103749819Y-62409047D01*
X103749819Y-62409047D02*
X103749819Y-62504285D01*
X103178390Y-61504285D02*
X103130771Y-61599523D01*
X103130771Y-61599523D02*
X103083152Y-61647142D01*
X103083152Y-61647142D02*
X102987914Y-61694761D01*
X102987914Y-61694761D02*
X102940295Y-61694761D01*
X102940295Y-61694761D02*
X102845057Y-61647142D01*
X102845057Y-61647142D02*
X102797438Y-61599523D01*
X102797438Y-61599523D02*
X102749819Y-61504285D01*
X102749819Y-61504285D02*
X102749819Y-61313809D01*
X102749819Y-61313809D02*
X102797438Y-61218571D01*
X102797438Y-61218571D02*
X102845057Y-61170952D01*
X102845057Y-61170952D02*
X102940295Y-61123333D01*
X102940295Y-61123333D02*
X102987914Y-61123333D01*
X102987914Y-61123333D02*
X103083152Y-61170952D01*
X103083152Y-61170952D02*
X103130771Y-61218571D01*
X103130771Y-61218571D02*
X103178390Y-61313809D01*
X103178390Y-61313809D02*
X103178390Y-61504285D01*
X103178390Y-61504285D02*
X103226009Y-61599523D01*
X103226009Y-61599523D02*
X103273628Y-61647142D01*
X103273628Y-61647142D02*
X103368866Y-61694761D01*
X103368866Y-61694761D02*
X103559342Y-61694761D01*
X103559342Y-61694761D02*
X103654580Y-61647142D01*
X103654580Y-61647142D02*
X103702200Y-61599523D01*
X103702200Y-61599523D02*
X103749819Y-61504285D01*
X103749819Y-61504285D02*
X103749819Y-61313809D01*
X103749819Y-61313809D02*
X103702200Y-61218571D01*
X103702200Y-61218571D02*
X103654580Y-61170952D01*
X103654580Y-61170952D02*
X103559342Y-61123333D01*
X103559342Y-61123333D02*
X103368866Y-61123333D01*
X103368866Y-61123333D02*
X103273628Y-61170952D01*
X103273628Y-61170952D02*
X103226009Y-61218571D01*
X103226009Y-61218571D02*
X103178390Y-61313809D01*
D13*
X113993452Y-92227149D02*
X113993452Y-91727149D01*
X113993452Y-91727149D02*
X114112500Y-91727149D01*
X114112500Y-91727149D02*
X114183928Y-91750959D01*
X114183928Y-91750959D02*
X114231547Y-91798578D01*
X114231547Y-91798578D02*
X114255357Y-91846197D01*
X114255357Y-91846197D02*
X114279166Y-91941435D01*
X114279166Y-91941435D02*
X114279166Y-92012863D01*
X114279166Y-92012863D02*
X114255357Y-92108101D01*
X114255357Y-92108101D02*
X114231547Y-92155720D01*
X114231547Y-92155720D02*
X114183928Y-92203340D01*
X114183928Y-92203340D02*
X114112500Y-92227149D01*
X114112500Y-92227149D02*
X113993452Y-92227149D01*
X114469643Y-91774768D02*
X114493452Y-91750959D01*
X114493452Y-91750959D02*
X114541071Y-91727149D01*
X114541071Y-91727149D02*
X114660119Y-91727149D01*
X114660119Y-91727149D02*
X114707738Y-91750959D01*
X114707738Y-91750959D02*
X114731547Y-91774768D01*
X114731547Y-91774768D02*
X114755357Y-91822387D01*
X114755357Y-91822387D02*
X114755357Y-91870006D01*
X114755357Y-91870006D02*
X114731547Y-91941435D01*
X114731547Y-91941435D02*
X114445833Y-92227149D01*
X114445833Y-92227149D02*
X114755357Y-92227149D01*
D11*
X107838333Y-78981927D02*
X107705000Y-78791451D01*
X107609762Y-78981927D02*
X107609762Y-78581927D01*
X107609762Y-78581927D02*
X107762143Y-78581927D01*
X107762143Y-78581927D02*
X107800238Y-78600975D01*
X107800238Y-78600975D02*
X107819285Y-78620022D01*
X107819285Y-78620022D02*
X107838333Y-78658118D01*
X107838333Y-78658118D02*
X107838333Y-78715260D01*
X107838333Y-78715260D02*
X107819285Y-78753356D01*
X107819285Y-78753356D02*
X107800238Y-78772403D01*
X107800238Y-78772403D02*
X107762143Y-78791451D01*
X107762143Y-78791451D02*
X107609762Y-78791451D01*
X107971666Y-78581927D02*
X108219285Y-78581927D01*
X108219285Y-78581927D02*
X108085952Y-78734308D01*
X108085952Y-78734308D02*
X108143095Y-78734308D01*
X108143095Y-78734308D02*
X108181190Y-78753356D01*
X108181190Y-78753356D02*
X108200238Y-78772403D01*
X108200238Y-78772403D02*
X108219285Y-78810499D01*
X108219285Y-78810499D02*
X108219285Y-78905737D01*
X108219285Y-78905737D02*
X108200238Y-78943832D01*
X108200238Y-78943832D02*
X108181190Y-78962880D01*
X108181190Y-78962880D02*
X108143095Y-78981927D01*
X108143095Y-78981927D02*
X108028809Y-78981927D01*
X108028809Y-78981927D02*
X107990714Y-78962880D01*
X107990714Y-78962880D02*
X107971666Y-78943832D01*
X163681927Y-79491666D02*
X163491451Y-79624999D01*
X163681927Y-79720237D02*
X163281927Y-79720237D01*
X163281927Y-79720237D02*
X163281927Y-79567856D01*
X163281927Y-79567856D02*
X163300975Y-79529761D01*
X163300975Y-79529761D02*
X163320022Y-79510714D01*
X163320022Y-79510714D02*
X163358118Y-79491666D01*
X163358118Y-79491666D02*
X163415260Y-79491666D01*
X163415260Y-79491666D02*
X163453356Y-79510714D01*
X163453356Y-79510714D02*
X163472403Y-79529761D01*
X163472403Y-79529761D02*
X163491451Y-79567856D01*
X163491451Y-79567856D02*
X163491451Y-79720237D01*
X163281927Y-79358333D02*
X163281927Y-79091666D01*
X163281927Y-79091666D02*
X163681927Y-79263095D01*
D10*
X165054819Y-85783333D02*
X165769104Y-85783333D01*
X165769104Y-85783333D02*
X165911961Y-85830952D01*
X165911961Y-85830952D02*
X166007200Y-85926190D01*
X166007200Y-85926190D02*
X166054819Y-86069047D01*
X166054819Y-86069047D02*
X166054819Y-86164285D01*
X165054819Y-85402380D02*
X165054819Y-84735714D01*
X165054819Y-84735714D02*
X166054819Y-85164285D01*
D14*
%TO.C,J1*%
X126670000Y-96825000D02*
X127305000Y-96190000D01*
X126670000Y-98730000D02*
X126670000Y-96825000D01*
X127305000Y-96190000D02*
X146990000Y-96190000D01*
X146990000Y-96190000D02*
X146990000Y-98730000D01*
X146990000Y-98730000D02*
X126670000Y-98730000D01*
%TO.C,J3*%
X149530000Y-96825000D02*
X150165000Y-96190000D01*
X149530000Y-98730000D02*
X149530000Y-96825000D01*
X150165000Y-96190000D02*
X164770000Y-96190000D01*
X164770000Y-96190000D02*
X164770000Y-98730000D01*
X164770000Y-98730000D02*
X149530000Y-98730000D01*
%TO.C,J2*%
X117526000Y-48565000D02*
X118161000Y-47930000D01*
X117526000Y-50470000D02*
X117526000Y-48565000D01*
X118161000Y-47930000D02*
X142926000Y-47930000D01*
X142926000Y-47930000D02*
X142926000Y-50470000D01*
X142926000Y-50470000D02*
X117526000Y-50470000D01*
%TO.C,J4*%
X144450000Y-48565000D02*
X145085000Y-47930000D01*
X144450000Y-50470000D02*
X144450000Y-48565000D01*
X145085000Y-47930000D02*
X164770000Y-47930000D01*
X164770000Y-47930000D02*
X164770000Y-50470000D01*
X164770000Y-50470000D02*
X144450000Y-50470000D01*
%TO.C,R4*%
X110287500Y-71250000D02*
X111112500Y-71250000D01*
X110287500Y-72850000D02*
X110287500Y-71250000D01*
X111112500Y-71250000D02*
X111112500Y-72850000D01*
X111112500Y-72850000D02*
X110287500Y-72850000D01*
%TO.C,R1*%
X107105000Y-75087500D02*
X108705000Y-75087500D01*
X107105000Y-75912500D02*
X107105000Y-75087500D01*
X108705000Y-75087500D02*
X108705000Y-75912500D01*
X108705000Y-75912500D02*
X107105000Y-75912500D01*
%TO.C,SW1*%
X102900000Y-81350000D02*
X102900000Y-81850000D01*
X102900000Y-85550000D02*
X102900000Y-85050000D01*
X103400000Y-82050000D02*
X104400000Y-81050000D01*
X103400000Y-82200000D02*
X103400000Y-82050000D01*
X103400000Y-84850000D02*
X103400000Y-84700000D01*
X104400000Y-81050000D02*
X104550000Y-81050000D01*
X104400000Y-85850000D02*
X103400000Y-84850000D01*
X104550000Y-85850000D02*
X104400000Y-85850000D01*
X107050000Y-81050000D02*
X107200000Y-81050000D01*
X107200000Y-81050000D02*
X108200000Y-82050000D01*
X107200000Y-85850000D02*
X107050000Y-85850000D01*
X108200000Y-82050000D02*
X108200000Y-82200000D01*
X108200000Y-84700000D02*
X108200000Y-84850000D01*
X108200000Y-84850000D02*
X107200000Y-85850000D01*
X108700000Y-81350000D02*
X108700000Y-81850000D01*
X108700000Y-85550000D02*
X108700000Y-85050000D01*
X106800000Y-83450000D02*
G75*
G02*
X104800000Y-83450000I-1000000J0D01*
G01*
X104800000Y-83450000D02*
G75*
G02*
X106800000Y-83450000I1000000J0D01*
G01*
X103600000Y-81850000D02*
X102550000Y-81850000D01*
X102550000Y-81350000D01*
X104100000Y-81350000D01*
X103600000Y-81850000D01*
X104100000Y-85550000D02*
X102550000Y-85550000D01*
X102550000Y-85050000D01*
X103600000Y-85050000D01*
X104100000Y-85550000D01*
X109050000Y-81850000D02*
X108000000Y-81850000D01*
X107500000Y-81350000D01*
X109050000Y-81350000D01*
X109050000Y-81850000D01*
X109050000Y-85550000D02*
X107500000Y-85550000D01*
X108000000Y-85050000D01*
X109050000Y-85050000D01*
X109050000Y-85550000D01*
X107650000Y-82600000D02*
X107650000Y-84300000D01*
X106650000Y-85300000D01*
X104950000Y-85300000D01*
X103950000Y-84300000D01*
X103950000Y-82600000D01*
X104950000Y-81600000D01*
X106650000Y-81600000D01*
X107650000Y-82600000D01*
X107050000Y-81475000D02*
X107375000Y-81475000D01*
X107775000Y-81875000D01*
X107775000Y-82200000D01*
X108350000Y-82200000D01*
X108350000Y-84700000D01*
X107775000Y-84700000D01*
X107775000Y-85025000D01*
X107375000Y-85425000D01*
X107050000Y-85425000D01*
X107050000Y-86000000D01*
X104550000Y-86000000D01*
X104550000Y-85425000D01*
X104225000Y-85425000D01*
X103825000Y-85025000D01*
X103825000Y-84700000D01*
X103250000Y-84700000D01*
X103250000Y-82200000D01*
X103825000Y-82200000D01*
X103825000Y-81875000D01*
X104225000Y-81475000D01*
X104550000Y-81475000D01*
X104550000Y-80900000D01*
X107050000Y-80900000D01*
X107050000Y-81475000D01*
%TO.C,R5*%
X113600000Y-89487500D02*
X115200000Y-89487500D01*
X113600000Y-90312500D02*
X113600000Y-89487500D01*
X115200000Y-89487500D02*
X115200000Y-90312500D01*
X115200000Y-90312500D02*
X113600000Y-90312500D01*
%TO.C,J6*%
X116950000Y-91050000D02*
X116950000Y-98650000D01*
X116950000Y-91050000D02*
X117750000Y-91050000D01*
X116950000Y-98650000D02*
X124850000Y-98650000D01*
X117750000Y-91050000D02*
X117750000Y-92650000D01*
X117750000Y-92650000D02*
X124050000Y-92650000D01*
X119400000Y-92650000D02*
X119900000Y-93357107D01*
X119900000Y-93357107D02*
X120400000Y-92650000D01*
X124050000Y-91050000D02*
X124850000Y-91050000D01*
X124050000Y-92650000D02*
X124050000Y-91050000D01*
X124850000Y-91050000D02*
X124850000Y-98650000D01*
%TO.C,D1*%
X102330000Y-75500000D02*
X102330000Y-78700000D01*
X102330000Y-78700000D02*
X105130000Y-78700000D01*
X105130000Y-75500000D02*
X102330000Y-75500000D01*
X105130000Y-76500000D02*
X104130000Y-75500000D01*
X105130000Y-78700000D02*
X105130000Y-75500000D01*
X104850000Y-77100000D02*
G75*
G02*
X102610000Y-77100000I-1120000J0D01*
G01*
X102610000Y-77100000D02*
G75*
G02*
X104850000Y-77100000I1120000J0D01*
G01*
%TO.C,J5*%
X97400000Y-87900000D02*
X111500000Y-87900000D01*
X111500000Y-96900000D01*
X97400000Y-96900000D01*
X97400000Y-87900000D01*
%TO.C,R8*%
X110287500Y-81400000D02*
X111112500Y-81400000D01*
X110287500Y-83000000D02*
X110287500Y-81400000D01*
X111112500Y-81400000D02*
X111112500Y-83000000D01*
X111112500Y-83000000D02*
X110287500Y-83000000D01*
D15*
%TO.C,U1*%
X114043602Y-62352600D02*
X114043602Y-84247400D01*
X114043602Y-84247400D02*
X122755802Y-84247400D01*
X122755802Y-62352600D02*
X114043602Y-62352600D01*
X122755802Y-84247400D02*
X122755802Y-62352600D01*
D14*
X160400000Y-75550000D02*
X160400000Y-71050000D01*
X162650000Y-73300000D02*
X158150000Y-73300000D01*
D16*
X113100700Y-82549998D02*
G75*
G02*
X112338700Y-82549998I-381000J0D01*
G01*
X112338700Y-82549998D02*
G75*
G02*
X113100700Y-82549998I381000J0D01*
G01*
D17*
X162650000Y-73300000D02*
G75*
G02*
X158150000Y-73300000I-2250000J0D01*
G01*
X158150000Y-73300000D02*
G75*
G02*
X162650000Y-73300000I2250000J0D01*
G01*
D14*
%TO.C,R10*%
X110925000Y-57087500D02*
X112525000Y-57087500D01*
X110925000Y-57912500D02*
X110925000Y-57087500D01*
X112525000Y-57087500D02*
X112525000Y-57912500D01*
X112525000Y-57912500D02*
X110925000Y-57912500D01*
%TO.C,R2*%
X107105000Y-76737500D02*
X108705000Y-76737500D01*
X107105000Y-77562500D02*
X107105000Y-76737500D01*
X108705000Y-76737500D02*
X108705000Y-77562500D01*
X108705000Y-77562500D02*
X107105000Y-77562500D01*
%TO.C,SW3*%
X102400000Y-49750000D02*
X111400000Y-49750000D01*
X102400000Y-53350000D02*
X102400000Y-49750000D01*
X105150000Y-50800000D02*
X108650000Y-50800000D01*
X105150000Y-52300000D02*
X105150000Y-50800000D01*
X107150000Y-52300000D02*
X107150000Y-50800000D01*
X108650000Y-52300000D02*
X105150000Y-52300000D01*
X108650000Y-52300000D02*
X108650000Y-50800000D01*
X111400000Y-49750000D02*
X111400000Y-53350000D01*
X111400000Y-53350000D02*
X102400000Y-53350000D01*
%TO.C,R6*%
X164887500Y-78625000D02*
X165712500Y-78625000D01*
X164887500Y-80225000D02*
X164887500Y-78625000D01*
X165712500Y-78625000D02*
X165712500Y-80225000D01*
X165712500Y-80225000D02*
X164887500Y-80225000D01*
%TO.C,R9*%
X110925000Y-58787500D02*
X112525000Y-58787500D01*
X110925000Y-59612500D02*
X110925000Y-58787500D01*
X112525000Y-58787500D02*
X112525000Y-59612500D01*
X112525000Y-59612500D02*
X110925000Y-59612500D01*
%TO.C,SW2*%
X102900000Y-68650000D02*
X102900000Y-69150000D01*
X102900000Y-72850000D02*
X102900000Y-72350000D01*
X103400000Y-69350000D02*
X104400000Y-68350000D01*
X103400000Y-69500000D02*
X103400000Y-69350000D01*
X103400000Y-72150000D02*
X103400000Y-72000000D01*
X104400000Y-68350000D02*
X104550000Y-68350000D01*
X104400000Y-73150000D02*
X103400000Y-72150000D01*
X104550000Y-73150000D02*
X104400000Y-73150000D01*
X107050000Y-68350000D02*
X107200000Y-68350000D01*
X107200000Y-68350000D02*
X108200000Y-69350000D01*
X107200000Y-73150000D02*
X107050000Y-73150000D01*
X108200000Y-69350000D02*
X108200000Y-69500000D01*
X108200000Y-72000000D02*
X108200000Y-72150000D01*
X108200000Y-72150000D02*
X107200000Y-73150000D01*
X108700000Y-68650000D02*
X108700000Y-69150000D01*
X108700000Y-72850000D02*
X108700000Y-72350000D01*
X106800000Y-70750000D02*
G75*
G02*
X104800000Y-70750000I-1000000J0D01*
G01*
X104800000Y-70750000D02*
G75*
G02*
X106800000Y-70750000I1000000J0D01*
G01*
X103600000Y-69150000D02*
X102550000Y-69150000D01*
X102550000Y-68650000D01*
X104100000Y-68650000D01*
X103600000Y-69150000D01*
X104100000Y-72850000D02*
X102550000Y-72850000D01*
X102550000Y-72350000D01*
X103600000Y-72350000D01*
X104100000Y-72850000D01*
X109050000Y-69150000D02*
X108000000Y-69150000D01*
X107500000Y-68650000D01*
X109050000Y-68650000D01*
X109050000Y-69150000D01*
X109050000Y-72850000D02*
X107500000Y-72850000D01*
X108000000Y-72350000D01*
X109050000Y-72350000D01*
X109050000Y-72850000D01*
X107650000Y-69900000D02*
X107650000Y-71600000D01*
X106650000Y-72600000D01*
X104950000Y-72600000D01*
X103950000Y-71600000D01*
X103950000Y-69900000D01*
X104950000Y-68900000D01*
X106650000Y-68900000D01*
X107650000Y-69900000D01*
X107050000Y-68775000D02*
X107375000Y-68775000D01*
X107775000Y-69175000D01*
X107775000Y-69500000D01*
X108350000Y-69500000D01*
X108350000Y-72000000D01*
X107775000Y-72000000D01*
X107775000Y-72325000D01*
X107375000Y-72725000D01*
X107050000Y-72725000D01*
X107050000Y-73300000D01*
X104550000Y-73300000D01*
X104550000Y-72725000D01*
X104225000Y-72725000D01*
X103825000Y-72325000D01*
X103825000Y-72000000D01*
X103250000Y-72000000D01*
X103250000Y-69500000D01*
X103825000Y-69500000D01*
X103825000Y-69175000D01*
X104225000Y-68775000D01*
X104550000Y-68775000D01*
X104550000Y-68200000D01*
X107050000Y-68200000D01*
X107050000Y-68775000D01*
%TO.C,J8*%
X100110000Y-57320000D02*
X100110000Y-66260000D01*
X100110000Y-66260000D02*
X106970000Y-66260000D01*
X106970000Y-57320000D02*
X100110000Y-57320000D01*
X106970000Y-57320000D02*
X106970000Y-66260000D01*
%TO.C,D2*%
X113362500Y-91700000D02*
X113362500Y-92600000D01*
X113362500Y-92600000D02*
X115362500Y-92600000D01*
X113662500Y-91400000D02*
X113362500Y-91700000D01*
X115362500Y-91400000D02*
X113662500Y-91400000D01*
X115362500Y-92600000D02*
X115362500Y-91400000D01*
%TO.C,R3*%
X107105000Y-78387500D02*
X108705000Y-78387500D01*
X107105000Y-79212500D02*
X107105000Y-78387500D01*
X108705000Y-78387500D02*
X108705000Y-79212500D01*
X108705000Y-79212500D02*
X107105000Y-79212500D01*
%TO.C,R7*%
X163087500Y-78625000D02*
X163912500Y-78625000D01*
X163087500Y-80225000D02*
X163087500Y-78625000D01*
X163912500Y-78625000D02*
X163912500Y-80225000D01*
X163912500Y-80225000D02*
X163087500Y-80225000D01*
%TO.C,J7*%
X164350000Y-82450000D02*
X164350000Y-88450000D01*
X164350000Y-82450000D02*
X167250000Y-82450000D01*
X164350000Y-83450000D02*
X165057107Y-83950000D01*
X164350000Y-88450000D02*
X167250000Y-88450000D01*
X165057107Y-83950000D02*
X164350000Y-84450000D01*
X166300000Y-83800000D02*
X166300000Y-84100000D01*
X166300000Y-84100000D02*
X166900000Y-84100000D01*
X166300000Y-84800000D02*
X166300000Y-85100000D01*
X166300000Y-85100000D02*
X166900000Y-85100000D01*
X166300000Y-85800000D02*
X166300000Y-86100000D01*
X166300000Y-86100000D02*
X166900000Y-86100000D01*
X166300000Y-86800000D02*
X166300000Y-87100000D01*
X166300000Y-87100000D02*
X166900000Y-87100000D01*
X166900000Y-83800000D02*
X166300000Y-83800000D01*
X166900000Y-84100000D02*
X166900000Y-83800000D01*
X166900000Y-84800000D02*
X166300000Y-84800000D01*
X166900000Y-85100000D02*
X166900000Y-84800000D01*
X166900000Y-85800000D02*
X166300000Y-85800000D01*
X166900000Y-86100000D02*
X166900000Y-85800000D01*
X166900000Y-86800000D02*
X166300000Y-86800000D01*
X166900000Y-87100000D02*
X166900000Y-86800000D01*
X167250000Y-82450000D02*
X167250000Y-88450000D01*
%TD*%
M02*
