M48
; DRILL file {KiCad 8.0.4} date 2024-12-04T08:51:36-0700
; FORMAT={-:-/ absolute / inch / decimal}
; #@! TF.CreationDate,2024-12-04T08:51:36-07:00
; #@! TF.GenerationSoftware,Kicad,Pcbnew,8.0.4
; #@! TF.FileFunction,Plated,1,2,PTH
FMAT,2
INCH
; #@! TA.AperFunction,Plated,PTH,ViaDrill
T1C0.0157
; #@! TA.AperFunction,Plated,PTH,ComponentDrill
T2C0.0236
; #@! TA.AperFunction,Plated,PTH,ComponentDrill
T3C0.0315
; #@! TA.AperFunction,Plated,PTH,ComponentDrill
T4C0.0394
; #@! TA.AperFunction,Plated,PTH,ComponentDrill
T5C0.1496
%
G90
G05
T1
X4.1496Y-2.811
X4.1496Y-3.0945
X4.1614Y-2.5
X4.2087Y-2.0748
X4.2943Y-2.4882
X4.315Y-2.2795
X4.3278Y-2.4882
X4.3307Y-2.3661
X4.3504Y-2.5276
X4.3583Y-3.311
X4.3622Y-2.9055
X4.3789Y-2.9724
X4.3823Y-3.0043
X4.3937Y-2.7008
X4.3937Y-3.1663
X4.3937Y-3.2047
X4.398Y-2.6617
X4.4286Y-3.1648
X4.4567Y-2.7598
X4.4567Y-2.815
X4.4567Y-2.878
X4.5666Y-2.6059
X4.5669Y-3.5394
X4.5703Y-2.6371
X4.5739Y-2.6684
X4.5773Y-2.6998
X4.5787Y-2.7313
X4.5787Y-2.9724
X4.5906Y-2.937
X4.6063Y-2.7126
X4.6063Y-2.8189
X4.6063Y-3.0
X4.6102Y-2.8583
X4.6142Y-2.9016
X4.6417Y-2.7126
X4.6614Y-3.311
X4.6693Y-3.0945
X4.6772Y-2.3937
X4.6811Y-2.7126
X4.6969Y-3.1496
X4.7165Y-2.7126
X4.7205Y-3.5079
X4.7362Y-3.1614
X4.752Y-3.1024
X4.7992Y-3.4094
X4.8543Y-2.2165
X4.8583Y-2.252
X4.8661Y-2.937
X4.8819Y-2.4291
X4.8819Y-3.1496
X4.8831Y-2.2737
X4.8937Y-3.063
X4.9055Y-2.9921
X4.9092Y-2.2913
X4.9252Y-3.6614
X4.94Y-2.2982
X4.9409Y-3.622
X4.9724Y-2.1102
X5.0138Y-3.1516
X5.0421Y-2.7254
X5.0709Y-2.7126
X5.1063Y-2.7126
X5.1378Y-3.7362
X5.1417Y-2.2126
X5.1417Y-2.7126
X5.1457Y-2.6339
X5.1732Y-3.2205
X5.1732Y-3.3701
X5.2008Y-2.9409
X5.3228Y-2.0
X5.3346Y-2.3819
X5.374Y-2.5551
X5.374Y-3.1339
X5.4055Y-3.0945
X5.4094Y-2.3504
X5.4606Y-2.378
X5.4724Y-3.4213
X5.5315Y-3.6969
X5.5748Y-2.5551
X5.5748Y-2.7559
X5.7362Y-2.3228
X5.7717Y-2.5512
X5.7717Y-2.7126
X5.7717Y-3.374
X5.7737Y-2.4055
X5.8268Y-3.6299
X5.8307Y-2.6427
X5.8737Y-2.4055
X5.874Y-2.5512
X5.874Y-3.2165
X5.937Y-2.6496
X5.937Y-3.0236
X5.9528Y-3.6299
X5.9724Y-3.0079
X5.9764Y-3.2165
X6.0079Y-2.9882
X6.0315Y-2.685
X6.0472Y-2.9803
X6.0866Y-2.9764
X6.0906Y-2.937
X6.1378Y-2.2165
X6.1427Y-3.2953
X6.185Y-3.5433
X6.237Y-2.2362
X6.337Y-2.2559
X6.437Y-2.2717
X6.5079Y-3.063
X6.5079Y-3.3425
X6.5118Y-3.3898
X6.5118Y-3.4291
T4
X4.677Y-1.937
X4.777Y-1.937
X4.877Y-1.937
X4.977Y-1.937
X5.037Y-3.837
X5.077Y-1.937
X5.137Y-3.837
X5.177Y-1.937
X5.237Y-3.837
X5.277Y-1.937
X5.337Y-3.837
X5.377Y-1.937
X5.437Y-3.837
X5.477Y-1.937
X5.537Y-3.837
X5.577Y-1.937
X5.637Y-3.837
X5.737Y-1.937
X5.737Y-3.837
X5.837Y-1.937
X5.937Y-1.937
X5.937Y-3.837
X6.037Y-1.937
X6.037Y-3.837
X6.137Y-1.937
X6.137Y-3.837
X6.237Y-1.937
X6.237Y-3.837
X6.337Y-1.937
X6.337Y-3.837
X6.437Y-1.937
X6.437Y-3.837
T5
X6.315Y-2.8874
T2
G00X4.0728Y-2.2626
M15
G01X4.0531Y-2.2626
M16
G05
G00X4.0728Y-2.6028
M15
G01X4.0531Y-2.6028
M16
G05
G00X4.1996Y-2.2626
M15
G01X4.1799Y-2.2626
M16
G05
G00X4.1996Y-2.6028
M15
G01X4.1799Y-2.6028
M16
G05
T3
G00X4.1299Y-3.5945
M15
G01X4.1299Y-3.6811
M16
G05
G00X4.2343Y-3.8209
M15
G01X4.3012Y-3.8209
M16
G05
G00X4.3661Y-3.5945
M15
G01X4.3661Y-3.6811
M16
G05
M30
